<svg xmlns="http://www.w3.org/2000/svg" width="32" height="32" fill="none" viewBox="0 0 32 32">
    <circle cx="16" cy="16" r="16" fill="#F7F9FF"/>
    <path stroke="#153059" stroke-linecap="round" stroke-linejoin="round" stroke-miterlimit="10" stroke-width="1.2" d="M22.856 19.408v2.064c.001.192-.038.382-.115.557-.077.176-.19.334-.331.463-.142.13-.309.229-.49.29-.183.061-.376.084-.567.067-2.122-.23-4.16-.954-5.95-2.113-1.667-1.056-3.08-2.466-4.138-4.129-1.165-1.795-1.89-3.84-2.117-5.967-.017-.19.006-.382.067-.563.06-.18.16-.347.288-.488.13-.141.286-.254.461-.331.176-.078.365-.118.556-.118h2.069c.335-.003.66.115.913.333.254.218.42.52.466.85.087.662.25 1.31.483 1.935.093.246.113.514.058.771s-.183.494-.369.68l-.875.875c.981 1.723 2.41 3.15 4.137 4.129l.876-.874c.187-.185.424-.313.682-.368.258-.055.526-.034.773.058.625.233 1.275.395 1.937.482.335.047.641.215.86.473.219.258.335.586.326.924z"/>
</svg>
