<svg width="42" height="42" viewBox="0 0 42 42" fill="none" xmlns="http://www.w3.org/2000/svg">
<circle cx="21" cy="21" r="20" fill="white" stroke="#839FC0"/>
<g clip-path="url(#clip0)">
<path fill-rule="evenodd" clip-rule="evenodd" d="M20.5559 24.1102C19.0831 24.1102 17.8892 22.9163 17.8892 21.4436C17.8892 19.9708 19.0831 18.7769 20.5559 18.7769C22.0286 18.7769 23.2225 19.9708 23.2225 21.4436C23.2225 22.9163 22.0286 24.1102 20.5559 24.1102ZM27.667 14.3325C28.6448 14.3325 29.4448 15.1325 29.4448 16.1102V26.7769C29.4448 27.7547 28.6448 28.5547 27.667 28.5547H13.4448C12.467 28.5547 11.667 27.7547 11.667 26.7769V16.1102C11.667 15.1325 12.467 14.3325 13.4448 14.3325H16.2625L17.3559 13.1325C17.6937 12.768 18.1737 12.5547 18.6714 12.5547H22.4403C22.9381 12.5547 23.4181 12.768 23.747 13.1325L24.8492 14.3325H27.667ZM20.5559 25.888C23.0092 25.888 25.0003 23.8969 25.0003 21.4436C25.0003 18.9902 23.0092 16.9991 20.5559 16.9991C18.1025 16.9991 16.1114 18.9902 16.1114 21.4436C16.1114 23.8969 18.1025 25.888 20.5559 25.888Z" fill="#839FC0"/>
</g>
<defs>
<clipPath id="clip0">
<rect width="17.7778" height="16" fill="white" transform="translate(11.667 12.5547)"/>
</clipPath>
</defs>
</svg>
