<svg width="102" height="102" viewBox="0 0 102 102" fill="none" xmlns="http://www.w3.org/2000/svg">
<circle cx="51" cy="51" r="50.5" fill="#E8EFF5" stroke="#839FC0"/>
<mask id="mask0" mask-type="alpha" maskUnits="userSpaceOnUse" x="0" y="0" width="102" height="102">
<circle cx="51" cy="51" r="51" fill="#F9A400"/>
</mask>
<g mask="url(#mask0)">
<path d="M72.2389 35.8392C72.2389 47.6239 62.6854 57.1773 50.9007 57.1773C39.1159 57.1773 29.5625 47.6239 29.5625 35.8392C29.5625 24.0544 39.1159 14.501 50.9007 14.501C62.6854 14.501 72.2389 24.0544 72.2389 35.8392Z" fill="#839FC0" stroke="#839FC0"/>
<path d="M50.901 108.466L11.7124 93.5564C11.8328 79.7637 19.1823 67.5455 30.0927 60.7197C30.7052 60.3365 31.5702 60.4693 32.1713 61.0246C34.5827 63.2526 40.5677 67.5362 50.901 67.5362C61.3163 67.5362 67.2339 63.2908 69.6279 61.051C70.2339 60.4841 71.1114 60.3451 71.7304 60.733C82.6292 67.5613 89.9691 79.7727 90.0895 93.5564L50.901 108.466Z" fill="#839FC0" stroke="#839FC0"/>
</g>
</svg>
