<svg width="40" height="40" viewBox="0 0 40 40" fill="none" xmlns="http://www.w3.org/2000/svg">
<circle cx="20" cy="20" r="19.5" transform="rotate(-180 20 20)" fill="white" stroke="#839FC0"/>
<path d="M24.7087 10.0822H27.8337C28.3862 10.0822 28.9161 10.3017 29.3068 10.6924C29.6975 11.0831 29.917 11.613 29.917 12.1655V19.4572C29.917 20.0097 29.6975 20.5396 29.3068 20.9303C28.9161 21.321 28.3862 21.5405 27.8337 21.5405H24.7087M17.417 23.6239V27.7905C17.417 28.6193 17.7462 29.4142 18.3323 30.0002C18.9183 30.5863 19.7132 30.9155 20.542 30.9155L24.7087 21.5405V10.0822H12.9587C12.4562 10.0765 11.9687 10.2526 11.5858 10.578C11.203 10.9034 10.9507 11.3563 10.8753 11.853L9.43783 21.228C9.39251 21.5266 9.41264 21.8315 9.49685 22.1215C9.58105 22.4115 9.7273 22.6798 9.92547 22.9077C10.1236 23.1356 10.369 23.3177 10.6445 23.4413C10.9201 23.565 11.2192 23.6273 11.5212 23.6239H17.417Z" stroke="#839FC0" stroke-width="1.5" stroke-linecap="round" stroke-linejoin="round"/>
</svg>
