<svg width="24" height="24" viewBox="0 0 24 24" fill="none" xmlns="http://www.w3.org/2000/svg">
<path d="M6.26471 3H4.27451C3.02353 3 2 4.02353 2 5.27451V14.6569C2 15.9078 3.02353 16.9314 4.27451 16.9314H7.85686C8.48235 16.9314 9.05098 17.1588 9.44902 17.6137L12.2353 20.4L15.0216 17.6137C15.4765 17.1588 16.0451 16.9314 16.6137 16.9314H20.1961C21.4471 16.9314 22.4706 15.9078 22.4706 14.6569V5.27451C22.4706 4.02353 21.4471 3 20.1961 3H9.05098" stroke="#F3516D" stroke-width="1.5" stroke-linecap="round" stroke-linejoin="round"/>
<path d="M16.5488 11.0508C16.825 11.0508 17.0488 10.8269 17.0488 10.5508C17.0488 10.2746 16.825 10.0508 16.5488 10.0508C16.2727 10.0508 16.0488 10.2746 16.0488 10.5508C16.0488 10.8269 16.2727 11.0508 16.5488 11.0508Z" stroke="#FFC200" stroke-width="1.5" stroke-linecap="round" stroke-linejoin="round"/>
<path d="M7.73535 11.0508C8.01149 11.0508 8.23535 10.8269 8.23535 10.5508C8.23535 10.2746 8.01149 10.0508 7.73535 10.0508C7.45921 10.0508 7.23535 10.2746 7.23535 10.5508C7.23535 10.8269 7.45921 11.0508 7.73535 11.0508Z" stroke="#FFC200" stroke-width="1.5" stroke-linecap="round" stroke-linejoin="round"/>
<path d="M12.1709 11.0508C12.447 11.0508 12.6709 10.8269 12.6709 10.5508C12.6709 10.2746 12.447 10.0508 12.1709 10.0508C11.8948 10.0508 11.6709 10.2746 11.6709 10.5508C11.6709 10.8269 11.8948 11.0508 12.1709 11.0508Z" stroke="#FFC200" stroke-width="1.5" stroke-linecap="round" stroke-linejoin="round"/>
</svg>
