<svg width="107" height="85" viewBox="0 0 107 85" fill="none" xmlns="http://www.w3.org/2000/svg">
<path d="M71.3216 9.37284L69.0127 6.44141" stroke="#292526" stroke-width="0.5" stroke-linecap="round" stroke-linejoin="round"/>
<path d="M84.5532 38.2944L81.9219 40.9368" stroke="#292526" stroke-width="0.5" stroke-linecap="round" stroke-linejoin="round"/>
<path d="M85.5204 15.4844C89.0375 15.4844 91.8886 12.6214 91.8886 9.08962C91.8886 5.55787 89.0375 2.69482 85.5204 2.69482C82.0034 2.69482 79.1523 5.55787 79.1523 9.08962C79.1523 12.6214 82.0034 15.4844 85.5204 15.4844Z" fill="#FFC200" stroke="#292526" stroke-width="0.5" stroke-linecap="round" stroke-linejoin="round"/>
<path d="M83.2411 8.56923C83.5944 8.56923 83.8807 8.28189 83.8807 7.92744C83.8807 7.57298 83.5944 7.28564 83.2411 7.28564C82.8879 7.28564 82.6016 7.57298 82.6016 7.92744C82.6016 8.28189 82.8879 8.56923 83.2411 8.56923Z" fill="#292526" stroke="#292526" stroke-width="0.5" stroke-linecap="round" stroke-linejoin="round"/>
<path d="M87.79 8.56923C88.1432 8.56923 88.4295 8.28189 88.4295 7.92744C88.4295 7.57298 88.1432 7.28564 87.79 7.28564C87.4367 7.28564 87.1504 7.57298 87.1504 7.92744C87.1504 8.28189 87.4367 8.56923 87.79 8.56923Z" fill="#292526" stroke="#292526" stroke-width="0.5" stroke-linecap="round" stroke-linejoin="round"/>
<path d="M82.9004 11.2056H88.0594" stroke="#292526" stroke-width="0.5" stroke-linecap="round" stroke-linejoin="round"/>
<path d="M26.5677 36.0256C30.0116 36.0256 32.8034 33.2221 32.8034 29.7638C32.8034 26.3055 30.0116 23.502 26.5677 23.502C23.1238 23.502 20.332 26.3055 20.332 29.7638C20.332 33.2221 23.1238 36.0256 26.5677 36.0256Z" fill="#FFC200" stroke="#292526" stroke-width="0.5" stroke-linecap="round" stroke-linejoin="round"/>
<path d="M29.6369 27.0176C29.7709 27.0219 29.8991 27.073 29.9996 27.1621C30.0843 27.26 30.1309 27.3852 30.1309 27.5148C30.1309 27.6444 30.0843 27.7697 29.9996 27.8675L29.9305 27.9369L29.1244 28.7521L28.232 27.8675C28.1484 27.7692 28.1025 27.6441 28.1025 27.5148C28.1025 27.3855 28.1484 27.2605 28.232 27.1621C28.3341 27.08 28.461 27.0353 28.5918 27.0353C28.7227 27.0353 28.8496 27.08 28.9517 27.1621C28.9938 27.2041 29.0507 27.2277 29.11 27.2277C29.1694 27.2277 29.2263 27.2041 29.2684 27.1621C29.3648 27.0753 29.4901 27.0278 29.6196 27.0291L29.6369 27.0176Z" fill="#F3516D" stroke="#292526" stroke-width="0.5" stroke-linecap="round" stroke-linejoin="round"/>
<path d="M24.7305 27.0176C24.8645 27.0219 24.9928 27.073 25.0933 27.1621C25.1768 27.2605 25.2227 27.3855 25.2227 27.5148C25.2227 27.6441 25.1768 27.7692 25.0933 27.8675L25.0242 27.9369L24.2181 28.7521L23.3256 27.8675C23.241 27.7697 23.1943 27.6444 23.1943 27.5148C23.1943 27.3852 23.241 27.26 23.3256 27.1621C23.4277 27.08 23.5547 27.0353 23.6855 27.0353C23.8163 27.0353 23.9432 27.08 24.0453 27.1621C24.0874 27.2041 24.1443 27.2277 24.2037 27.2277C24.263 27.2277 24.3199 27.2041 24.362 27.1621C24.4578 27.0743 24.5835 27.0267 24.7132 27.0291L24.7305 27.0176Z" fill="#F3516D" stroke="#292526" stroke-width="0.5" stroke-linecap="round" stroke-linejoin="round"/>
<path d="M24.0742 30.4517C24.0742 31.1049 24.3326 31.7314 24.7926 32.1933C25.2526 32.6553 25.8765 32.9148 26.527 32.9148C27.1776 32.9148 27.8015 32.6553 28.2614 32.1933C28.7214 31.7314 28.9799 31.1049 28.9799 30.4517H24.0742Z" fill="white" stroke="#292526" stroke-width="0.5" stroke-linecap="round" stroke-linejoin="round"/>
<path d="M97.3172 36.0834C100.777 36.0834 103.582 33.267 103.582 29.7927C103.582 26.3184 100.777 23.502 97.3172 23.502C93.8574 23.502 91.0527 26.3184 91.0527 29.7927C91.0527 33.267 93.8574 36.0834 97.3172 36.0834Z" fill="#FFC200" stroke="#292526" stroke-width="0.5" stroke-linecap="round" stroke-linejoin="round"/>
<path d="M95.0831 29.1281C95.43 29.1281 95.7112 28.846 95.7112 28.4979C95.7112 28.1498 95.43 27.8677 95.0831 27.8677C94.7363 27.8677 94.4551 28.1498 94.4551 28.4979C94.4551 28.846 94.7363 29.1281 95.0831 29.1281Z" fill="#292526" stroke="#292526" stroke-width="0.5" stroke-linecap="round" stroke-linejoin="round"/>
<path d="M99.5577 29.1281C99.9046 29.1281 100.186 28.846 100.186 28.4979C100.186 28.1498 99.9046 27.8677 99.5577 27.8677C99.2109 27.8677 98.9297 28.1498 98.9297 28.4979C98.9297 28.846 99.2109 29.1281 99.5577 29.1281Z" fill="#292526" stroke="#292526" stroke-width="0.5" stroke-linecap="round" stroke-linejoin="round"/>
<path d="M95.2334 32.499L95.4464 32.1694C95.6607 31.8475 95.9467 31.5801 96.2817 31.3885C96.6168 31.1969 96.9917 31.0864 97.3767 31.0656C97.7617 31.0448 98.1463 31.1145 98.4998 31.2689C98.8534 31.4234 99.1662 31.6585 99.4136 31.9555L99.7878 32.4123" stroke="#292526" stroke-width="0.5" stroke-linecap="round" stroke-linejoin="round"/>
<path d="M38.3548 13.5236C41.7987 13.5236 44.5905 10.7201 44.5905 7.26182C44.5905 3.80351 41.7987 1 38.3548 1C34.9109 1 32.1191 3.80351 32.1191 7.26182C32.1191 10.7201 34.9109 13.5236 38.3548 13.5236Z" fill="#FFC200" stroke="#292526" stroke-width="0.5" stroke-linecap="round" stroke-linejoin="round"/>
<path d="M36.881 5.63135H36.8234L34.6757 6.1575C34.6177 6.17207 34.5678 6.20919 34.537 6.2607C34.5062 6.3122 34.4971 6.37387 34.5116 6.43214C34.5261 6.49041 34.5631 6.54051 34.6144 6.57142C34.6657 6.60232 34.7271 6.6115 34.7851 6.59693L36.9213 6.07656C36.9747 6.06422 37.0217 6.0327 37.0536 5.98793C37.0855 5.94316 37.0999 5.88823 37.0943 5.8335C37.0886 5.77876 37.0632 5.728 37.0228 5.69077C36.9825 5.65353 36.93 5.6324 36.8752 5.63135H36.881Z" fill="#292526"/>
<path d="M41.9362 5.18002H41.8729L39.731 5.70618C39.7 5.71088 39.6705 5.72201 39.6441 5.73887C39.6177 5.75572 39.5951 5.77792 39.5778 5.80405C39.5604 5.83017 39.5487 5.85965 39.5433 5.89059C39.538 5.92152 39.5391 5.95324 39.5467 5.98371C39.5547 6.01354 39.5685 6.04147 39.5874 6.06584C39.6063 6.09022 39.6298 6.11055 39.6566 6.12564C39.6835 6.14073 39.7131 6.15027 39.7436 6.1537C39.7742 6.15713 39.8051 6.15437 39.8346 6.1456L41.9823 5.61945C42.033 5.60357 42.0767 5.57057 42.106 5.52602C42.1353 5.48147 42.1483 5.42813 42.1429 5.37504C42.1374 5.32194 42.1139 5.27237 42.0762 5.23472C42.0386 5.19706 41.9891 5.17366 41.9362 5.16846V5.18002Z" fill="#292526"/>
<path d="M36.559 8.27426C36.5264 8.27534 36.4946 8.28369 36.4657 8.2987C36.4368 8.3137 36.4116 8.33498 36.3919 8.36099L35.8157 9.10107C35.7922 9.12222 35.7735 9.14808 35.7607 9.17696C35.7478 9.20585 35.7412 9.23712 35.7412 9.26875C35.7412 9.30038 35.7478 9.33165 35.7607 9.36053C35.7735 9.38942 35.7922 9.41528 35.8157 9.43642C35.8401 9.45673 35.8686 9.47146 35.8993 9.47962C35.9299 9.48777 35.962 9.48914 35.9932 9.48364C36.0244 9.47815 36.0541 9.4659 36.0802 9.44777C36.1062 9.42963 36.128 9.40604 36.1441 9.37861L36.7203 8.6443C36.7485 8.61062 36.7662 8.56941 36.7713 8.52575C36.7764 8.4821 36.7687 8.43789 36.7491 8.39858C36.7295 8.35926 36.6989 8.32655 36.661 8.30446C36.6231 8.28237 36.5797 8.27187 36.5359 8.27426H36.559Z" fill="#292526"/>
<path d="M36.5531 8.27339C36.5123 8.2762 36.4731 8.2901 36.4396 8.3136C36.4062 8.3371 36.3797 8.36932 36.3631 8.40678C36.3465 8.44424 36.3404 8.48553 36.3455 8.52621C36.3505 8.56689 36.3665 8.60542 36.3918 8.63765L36.968 9.3893C36.9842 9.41645 37.006 9.43986 37.0318 9.45801C37.0577 9.47615 37.087 9.48864 37.118 9.49464C37.149 9.50064 37.1809 9.50002 37.2116 9.49283C37.2424 9.48564 37.2712 9.47204 37.2964 9.45291C37.3198 9.43176 37.3386 9.4059 37.3514 9.37702C37.3642 9.34813 37.3708 9.31686 37.3708 9.28523C37.3708 9.2536 37.3642 9.22233 37.3514 9.19344C37.3386 9.16456 37.3198 9.1387 37.2964 9.11755L36.7202 8.3659C36.6979 8.33518 36.6683 8.31058 36.6341 8.29441C36.5998 8.27824 36.5621 8.27101 36.5243 8.27339H36.5531Z" fill="#292526"/>
<path d="M34.802 4.97803C34.7468 4.97771 34.6933 4.99786 34.6519 5.03463C34.6105 5.07141 34.5841 5.12222 34.5777 5.17734C34.5713 5.23247 34.5853 5.28803 34.6172 5.3334C34.649 5.37877 34.6964 5.41076 34.7502 5.42324L36.8864 6.00143C36.9154 6.01114 36.9462 6.01477 36.9767 6.0121C37.0073 6.00942 37.0369 6.00049 37.0639 5.98587C37.0909 5.97124 37.1146 5.95123 37.1336 5.92706C37.1525 5.90289 37.1664 5.87507 37.1742 5.84532C37.1819 5.81531 37.1835 5.78406 37.179 5.75341C37.1744 5.72277 37.1637 5.69336 37.1476 5.66693C37.1315 5.64051 37.1103 5.6176 37.0852 5.59958C37.0601 5.58155 37.0316 5.56877 37.0015 5.562L34.8654 4.98381L34.802 4.97803Z" fill="#292526"/>
<path d="M39.8404 5.63721C39.7856 5.63826 39.7331 5.65939 39.6927 5.69662C39.6524 5.73386 39.627 5.78462 39.6213 5.83936C39.6157 5.89409 39.6301 5.94902 39.662 5.99379C39.6939 6.03856 39.7409 6.07008 39.7943 6.08242L41.9247 6.66061C41.9534 6.6682 41.9834 6.67004 42.0128 6.66601C42.0423 6.66198 42.0706 6.65217 42.0963 6.63714C42.1219 6.62211 42.1444 6.60214 42.1624 6.57839C42.1804 6.55464 42.1935 6.52757 42.2011 6.49871C42.2086 6.46986 42.2105 6.43979 42.2065 6.41023C42.2024 6.38067 42.1927 6.35219 42.1777 6.32642C42.1627 6.30065 42.1429 6.27809 42.1192 6.26003C42.0956 6.24198 42.0686 6.22877 42.0399 6.22118L39.9095 5.64299H39.8404V5.63721Z" fill="#292526"/>
<path d="M37.7855 8.21582C37.7528 8.21873 37.721 8.22846 37.6923 8.24439C37.6635 8.26032 37.6383 8.2821 37.6184 8.30833L37.0422 9.04264C37.0188 9.06378 37.0001 9.08964 36.9872 9.11853C36.9744 9.14741 36.9678 9.17868 36.9678 9.21031C36.9678 9.24194 36.9744 9.27321 36.9872 9.3021C37.0001 9.33098 37.0188 9.35684 37.0422 9.37799C37.0671 9.39777 37.0958 9.41217 37.1265 9.4203C37.1572 9.42843 37.1893 9.4301 37.2207 9.42522C37.252 9.42033 37.2821 9.40899 37.3089 9.39191C37.3357 9.37483 37.3587 9.35237 37.3764 9.32595L37.9526 8.58586C37.9783 8.5515 37.994 8.51064 37.9978 8.46787C38.0016 8.42509 37.9935 8.38208 37.9744 8.34367C37.9553 8.30525 37.9258 8.27294 37.8894 8.25036C37.853 8.22778 37.811 8.21582 37.7682 8.21582H37.7855Z" fill="#292526"/>
<path d="M37.7045 8.2851C37.6637 8.28791 37.6245 8.30181 37.591 8.32531C37.5575 8.34881 37.5311 8.38102 37.5145 8.41848C37.4979 8.45594 37.4918 8.49723 37.4968 8.53791C37.5019 8.57859 37.5179 8.61712 37.5431 8.64936L38.1193 9.40101C38.1364 9.42578 38.1584 9.44676 38.184 9.46263C38.2095 9.4785 38.238 9.48893 38.2678 9.49327C38.2975 9.49761 38.3278 9.49576 38.3568 9.48785C38.3857 9.47993 38.4128 9.46612 38.4362 9.44727C38.4598 9.42914 38.4796 9.4065 38.4944 9.38066C38.5092 9.35482 38.5188 9.32628 38.5225 9.29671C38.5263 9.26713 38.5241 9.23711 38.5163 9.20837C38.5084 9.17962 38.4949 9.15274 38.4766 9.12926L37.9004 8.37761C37.8789 8.34604 37.8494 8.32081 37.815 8.30454C37.7805 8.28827 37.7424 8.28156 37.7045 8.2851V8.2851Z" fill="#292526"/>
<path d="M38.8735 8.29672C38.8395 8.29804 38.8064 8.30706 38.7764 8.32308C38.7465 8.3391 38.7206 8.36171 38.7006 8.38923L38.1244 9.12353C38.0871 9.17189 38.0704 9.2331 38.078 9.29378C38.0855 9.35446 38.1167 9.40966 38.1647 9.44732C38.2125 9.48297 38.2722 9.49866 38.3313 9.49112C38.3904 9.48357 38.4443 9.45337 38.4816 9.40685L39.0578 8.66676C39.086 8.63308 39.1037 8.59187 39.1088 8.54822C39.1139 8.50456 39.1062 8.46035 39.0866 8.42104C39.067 8.38172 39.0364 8.34901 38.9986 8.32692C38.9607 8.30483 38.9172 8.29433 38.8735 8.29672V8.29672Z" fill="#292526"/>
<path d="M38.8616 8.29689C38.8207 8.30087 38.7817 8.3157 38.7485 8.33987C38.7153 8.36405 38.6891 8.39667 38.6726 8.43439C38.6562 8.47211 38.6501 8.51355 38.6549 8.55443C38.6598 8.59531 38.6754 8.63415 38.7002 8.66694L39.2764 9.4128C39.2936 9.43736 39.3155 9.45822 39.3409 9.47416C39.3662 9.49011 39.3945 9.50082 39.424 9.50566C39.4535 9.51051 39.4837 9.5094 39.5128 9.50239C39.5418 9.49538 39.5692 9.48261 39.5933 9.46484C39.6414 9.42718 39.6726 9.37198 39.6801 9.3113C39.6877 9.25062 39.671 9.18941 39.6337 9.14105L39.0575 8.3894C39.0339 8.36011 39.0041 8.33656 38.9701 8.32054C38.9362 8.30451 38.8991 8.29643 38.8616 8.29689Z" fill="#292526"/>
<path d="M40.0247 8.31381C39.9922 8.3149 39.9603 8.32324 39.9314 8.33825C39.9025 8.35325 39.8773 8.37453 39.8576 8.40054L39.2814 9.14062C39.2628 9.16374 39.2489 9.19033 39.2405 9.21886C39.2322 9.24738 39.2296 9.27729 39.2328 9.30684C39.236 9.3364 39.245 9.36502 39.2593 9.39107C39.2736 9.41712 39.2928 9.44008 39.316 9.45863C39.3642 9.49606 39.4252 9.51281 39.4856 9.50523C39.5461 9.49764 39.6011 9.46634 39.6387 9.41815L40.2148 8.68385C40.243 8.65017 40.2607 8.60896 40.2658 8.56531C40.2709 8.52165 40.2632 8.47744 40.2436 8.43813C40.2241 8.39881 40.1934 8.3661 40.1556 8.34401C40.1177 8.32192 40.0742 8.31142 40.0305 8.31381H40.0247Z" fill="#292526"/>
<path d="M40.0131 8.31433C39.9723 8.31714 39.9331 8.33104 39.8996 8.35454C39.8661 8.37804 39.8397 8.41026 39.8231 8.44772C39.8065 8.48518 39.8004 8.52647 39.8054 8.56715C39.8105 8.60783 39.8265 8.64636 39.8517 8.67859L40.4279 9.43024C40.4447 9.45756 40.467 9.48106 40.4934 9.49926C40.5198 9.51745 40.5496 9.52994 40.581 9.53592C40.6125 9.5419 40.6448 9.54125 40.676 9.53401C40.7072 9.52676 40.7365 9.51308 40.7621 9.49384C40.7855 9.4727 40.8043 9.44684 40.8171 9.41795C40.8299 9.38907 40.8366 9.35779 40.8366 9.32617C40.8366 9.29454 40.8299 9.26327 40.8171 9.23438C40.8043 9.2055 40.7855 9.17964 40.7621 9.15849L40.1859 8.40684C40.1631 8.37524 40.1326 8.3501 40.0972 8.33389C40.0619 8.31768 40.023 8.31094 39.9842 8.31433H40.0131Z" fill="#292526"/>
<path d="M78.623 24.1922C79.3893 24.1922 80.0106 23.5683 80.0106 22.7987C80.0106 22.0291 79.3893 21.4053 78.623 21.4053C77.8566 21.4053 77.2354 22.0291 77.2354 22.7987C77.2354 23.5683 77.8566 24.1922 78.623 24.1922Z" fill="white" stroke="#292526" stroke-width="0.5" stroke-linecap="round" stroke-linejoin="round"/>
<path d="M4.38763 41.9715C5.15399 41.9715 5.77525 41.3476 5.77525 40.578C5.77525 39.8084 5.15399 39.1846 4.38763 39.1846C3.62126 39.1846 3 39.8084 3 40.578C3 41.3476 3.62126 41.9715 4.38763 41.9715Z" fill="white" stroke="#292526" stroke-width="0.5" stroke-linecap="round" stroke-linejoin="round"/>
<path d="M26.3827 15.9817C27.1491 15.9817 27.7704 15.3578 27.7704 14.5883C27.7704 13.8187 27.1491 13.1948 26.3827 13.1948C25.6164 13.1948 24.9951 13.8187 24.9951 14.5883C24.9951 15.3578 25.6164 15.9817 26.3827 15.9817Z" fill="white" stroke="#292526" stroke-width="0.5" stroke-linecap="round" stroke-linejoin="round"/>
<path d="M80.3192 34.8032L46.7921 34.0537L42.2812 82.4415L84.5813 82.2771L80.3192 34.8032Z" fill="#F3516D"/>
<path d="M57.1487 24.626L68.3768 24.6654L68.2066 36.7032L56.8672 36.1444L57.1487 24.626Z" fill="#FFD0BA"/>
<path d="M52.3438 21.7862C52.3438 26.3883 55.6631 30.2738 60.2394 30.4842C62.429 30.5879 64.5701 29.8157 66.1937 28.3369C67.8173 26.8581 68.7909 24.7932 68.9011 22.5948C69.1171 17.9927 65.274 11.2408 60.6977 11.0239C57.7516 10.8858 53.8234 13.7654 53.8234 13.7654C53.8234 13.7654 52.3438 19.735 52.3438 21.7862Z" fill="#FFD0BA"/>
<path d="M64.1754 20.6619C64.151 20.8537 64.0555 21.0293 63.9079 21.1537C63.7603 21.2781 63.5714 21.3421 63.3788 21.333C63.1863 21.3239 63.0043 21.2423 62.869 21.1045C62.7337 20.9667 62.6551 20.7829 62.6488 20.5895C62.6454 20.4834 62.6639 20.3778 62.7032 20.2792C62.7424 20.1806 62.8016 20.0912 62.877 20.0167C62.9523 19.9422 63.0423 19.8841 63.1411 19.8462C63.2399 19.8083 63.3455 19.7913 63.4511 19.7963C63.5568 19.8013 63.6603 19.8282 63.7551 19.8753C63.85 19.9224 63.934 19.9887 64.0021 20.07C64.0701 20.1513 64.1206 20.2459 64.1505 20.3477C64.1803 20.4496 64.1888 20.5565 64.1754 20.6619V20.6619Z" fill="#292526"/>
<path d="M58.2566 20.517C58.2535 20.671 58.2045 20.8205 58.1158 20.9462C58.0271 21.0718 57.9028 21.1679 57.7591 21.2219C57.6154 21.276 57.4589 21.2855 57.3097 21.2492C57.1606 21.213 57.0257 21.1326 56.9226 21.0186C56.8194 20.9045 56.7528 20.7621 56.7312 20.6096C56.7097 20.4571 56.7342 20.3017 56.8017 20.1634C56.8692 20.0251 56.9765 19.9103 57.1097 19.8338C57.243 19.7574 57.396 19.7229 57.549 19.7347C57.7448 19.7482 57.9278 19.8372 58.0597 19.983C58.1916 20.1288 58.2621 20.3202 58.2566 20.517V20.517Z" fill="#292526"/>
<path d="M59.6831 23.9882C59.2803 23.9943 58.8908 23.8435 58.5963 23.5674C58.5128 23.4542 58.4678 23.3171 58.4678 23.1763C58.4678 23.0354 58.5128 22.8983 58.5963 22.7851C59.1331 21.9698 59.179 19.5702 59.179 19.5439C59.1789 19.5272 59.1823 19.5106 59.189 19.4953C59.1957 19.48 59.2056 19.4664 59.218 19.4552C59.2303 19.444 59.2449 19.4356 59.2608 19.4305C59.2766 19.4254 59.2934 19.4237 59.3099 19.4255C59.3268 19.4246 59.3437 19.4272 59.3595 19.4331C59.3754 19.439 59.3899 19.448 59.4021 19.4597C59.4144 19.4714 59.4241 19.4855 59.4308 19.5011C59.4374 19.5167 59.4409 19.5335 59.4408 19.5505C59.4408 19.6491 59.395 22.0487 58.7861 22.9166C58.6552 23.1204 58.6421 23.2782 58.7469 23.4162C58.9462 23.5695 59.1788 23.6733 59.4258 23.719C59.6727 23.7647 59.9269 23.751 60.1676 23.6792C60.2005 23.6705 60.2355 23.6745 60.2658 23.6903C60.296 23.7061 60.3194 23.7326 60.3312 23.7647C60.3394 23.796 60.335 23.8293 60.3191 23.8576C60.3033 23.8858 60.2771 23.9067 60.2461 23.9159C60.063 23.9678 59.8733 23.9922 59.6831 23.9882V23.9882Z" fill="#292526"/>
<path d="M62.4064 17.2104C63.522 17.2263 64.6352 17.3163 65.7389 17.48C66.0204 17.6509 65.9876 18.6634 65.6276 18.67C65.2675 18.6765 62.0464 18.2887 62.0464 18.2887C62.0464 18.2887 61.863 17.3617 62.4064 17.2104Z" fill="#292526"/>
<path d="M58.9103 17.0455C57.7994 16.958 56.6839 16.9448 55.5713 17.0061C55.2767 17.1507 55.2112 18.1632 55.5713 18.196C55.9314 18.2289 59.1722 18.15 59.1722 18.15C59.1722 18.15 59.4406 17.2427 58.9103 17.0455Z" fill="#292526"/>
<path d="M68.1615 20.0766C68.0905 19.4942 67.943 18.9239 67.7229 18.3804C67.4192 17.3933 66.9215 16.4775 66.2591 15.687C65.5968 14.8965 64.7833 14.2475 63.8667 13.7783C63.1538 13.3841 62.3701 13.1357 61.561 13.0477C60.7518 12.9597 59.9333 13.0337 59.1529 13.2655C57.503 13.7849 55.8336 14.9683 54.151 14.5804C49.1949 13.4035 49.0116 8.77515 49.5681 6.55299C49.7318 7.03292 53.4112 7.86787 53.804 7.86787C55.0533 7.87276 56.2954 7.67745 57.4834 7.28932C59.0285 6.88828 60.5409 5.97444 62.1187 5.84953C64.197 5.76272 66.24 6.40935 67.8931 7.67722C69.6355 9.03414 70.8232 10.9845 71.2321 13.1603C71.8082 15.698 70.669 18.4198 69.3989 20.5302C69.3214 20.6759 69.2196 20.8071 69.0978 20.9181C68.9718 21.0206 68.8147 21.0765 68.6526 21.0765C68.4905 21.0765 68.3333 21.0206 68.2074 20.9181C68.0897 20.8047 68.0135 20.6549 67.991 20.4927C67.9684 20.3305 68.0008 20.1654 68.083 20.024L68.1615 20.0766Z" fill="#292526"/>
<path d="M67.1985 7.27616C65.9414 5.55366 63.5845 5.04743 61.4699 5.17892C59.3552 5.31041 57.2863 5.9547 55.1651 5.981L56.9917 6.59242C55.5081 7.13816 53.9008 7.24987 52.3564 6.91457C52.7667 7.56049 53.4133 8.01858 54.1569 8.19C54.8957 8.35449 55.6529 8.4208 56.409 8.38724H64.691L67.1985 7.27616Z" fill="#292526"/>
<path d="M67.0744 7.34862C66.649 6.79085 66.0997 6.34059 65.4704 6.03373C64.8266 5.70609 64.1348 5.48413 63.4212 5.37629C62.6746 5.27551 61.919 5.26007 61.169 5.33027C60.2262 5.40916 59.29 5.5801 58.3538 5.73788C57.4176 5.91841 56.4706 6.037 55.5189 6.0929H55.1654L55.2047 5.8102L57.0313 6.42162C57.0606 6.43081 57.0862 6.44916 57.1044 6.474C57.1226 6.49884 57.1324 6.52886 57.1324 6.55969C57.1324 6.59051 57.1226 6.62054 57.1044 6.64537C57.0862 6.67021 57.0606 6.68856 57.0313 6.69775C55.8609 7.12436 54.6122 7.29037 53.3715 7.18426C53.0155 7.16362 52.6612 7.1197 52.3109 7.05277L52.4746 6.84239C52.8351 7.41108 53.3925 7.82561 54.0393 8.00606C54.8388 8.20949 55.6645 8.2893 56.4879 8.24274H64.6847C64.7229 8.24274 64.7596 8.25798 64.7866 8.2851C64.8136 8.31223 64.8288 8.34902 64.8288 8.38738C64.8288 8.42574 64.8136 8.46253 64.7866 8.48965C64.7596 8.51678 64.7229 8.53201 64.6847 8.53201H56.6712C55.8149 8.57631 54.9565 8.50779 54.1179 8.32821C53.3432 8.15248 52.6669 7.68091 52.2324 7.01332C52.2184 6.98844 52.2121 6.95998 52.2143 6.93152C52.2164 6.90305 52.2269 6.87586 52.2444 6.85337C52.2619 6.83088 52.2856 6.81409 52.3126 6.80511C52.3396 6.79614 52.3686 6.79538 52.396 6.80294C53.5732 7.06595 54.7935 7.06595 55.9707 6.80294C56.3043 6.7296 56.6325 6.63294 56.9527 6.51366V6.78979L55.1261 6.17837C55.0935 6.16818 55.0656 6.14669 55.0473 6.11774C55.029 6.08878 55.0216 6.05424 55.0263 6.02027C55.031 5.98631 55.0476 5.95514 55.0731 5.93232C55.0985 5.90949 55.1313 5.89651 55.1654 5.89567C56.1258 5.86594 57.0825 5.76042 58.0264 5.5801C58.9823 5.42231 59.9382 5.2448 60.9071 5.14618C61.6901 5.05414 62.4811 5.05414 63.264 5.14618C64.0081 5.2307 64.7347 5.43029 65.418 5.73788C66.0839 6.03927 66.6727 6.48893 67.1398 7.05277L67.3232 7.28945C67.3405 7.32295 67.3448 7.36177 67.3351 7.39828C67.3254 7.43478 67.3025 7.46632 67.2708 7.48668C67.2374 7.50414 67.1988 7.50842 67.1624 7.49869C67.1261 7.48895 67.0947 7.46591 67.0744 7.43409V7.34862Z" fill="#292526"/>
<path d="M67.1992 7.27635C70.3614 6.7767 71.5792 11.1355 72.0898 13.4366C72.0898 13.3511 71.9523 13.3248 71.9065 13.4037C71.8874 13.4437 71.8774 13.4875 71.8774 13.5319C71.8774 13.5763 71.8874 13.6201 71.9065 13.6601C72.2625 14.7513 72.2763 15.9259 71.9461 17.0252C71.6159 18.1246 70.9577 19.0956 70.0603 19.8072C69.9981 19.6256 69.9714 19.4336 69.9817 19.2418C69.9334 16.1992 69.5847 13.1689 68.9407 10.1954L67.1992 7.27635Z" fill="#292526"/>
<path d="M67.1592 7.13181C67.7441 7.03507 68.3444 7.11042 68.8876 7.34876C69.396 7.58617 69.8439 7.93694 70.197 8.37438C70.577 8.84475 70.896 9.36169 71.1463 9.91279C71.4058 10.4702 71.6247 11.0459 71.801 11.6353C71.9647 12.1612 72.1021 12.6872 72.22 13.2197L72.2593 13.3972L71.9778 13.4367C71.9778 13.3907 71.9778 13.4761 71.9778 13.4827C71.9778 13.4893 72.0236 13.4827 71.9778 13.4827C71.9319 13.4827 71.9778 13.4827 71.9778 13.4827C71.974 13.5155 71.974 13.5486 71.9778 13.5813C72.0195 13.693 72.0545 13.8072 72.0825 13.9232C72.1468 14.1518 72.1949 14.3847 72.2265 14.6201C72.2887 15.1002 72.2887 15.5863 72.2265 16.0665C72.1402 17.0276 71.821 17.953 71.2969 18.762C70.9795 19.2065 70.5977 19.601 70.1642 19.9322C70.0791 19.998 69.9809 19.9322 69.9482 19.8467C69.8708 19.5465 69.842 19.2357 69.8631 18.9263C69.8631 18.6173 69.8631 18.3083 69.8631 17.9928C69.8369 17.3616 69.7976 16.7305 69.7452 16.0993C69.6405 14.837 69.4812 13.5813 69.2673 12.3322C69.1494 11.6287 69.0185 10.9318 68.8679 10.2349C68.8286 10.0509 69.1036 9.97854 69.1429 10.156C69.4135 11.392 69.6317 12.639 69.7976 13.8969C69.9635 15.1548 70.0791 16.4215 70.1446 17.6969C70.1446 18.0519 70.1577 18.4069 70.1839 18.762C70.1839 18.9395 70.1839 19.117 70.1839 19.2945C70.1816 19.4573 70.206 19.6195 70.2559 19.7744L70.0464 19.6824C70.8209 19.0777 71.4107 18.2667 71.7486 17.3419C72.0985 16.4155 72.1913 15.4112 72.017 14.436C71.9958 14.3003 71.9652 14.1663 71.9254 14.035C71.9254 13.8969 71.8403 13.7654 71.801 13.6339C71.7617 13.5024 71.801 13.2657 71.9712 13.2197C72.1414 13.1737 72.292 13.2723 72.2789 13.4367C72.2658 13.601 72.0301 13.6405 71.9974 13.4761C71.8795 12.9633 71.7552 12.4571 71.6111 11.9574C71.4491 11.3934 71.2523 10.8401 71.0219 10.3007C70.796 9.75714 70.5058 9.24284 70.1577 8.76884C69.8512 8.33927 69.4587 7.97874 69.0054 7.71036C68.5415 7.45583 68.0133 7.34381 67.4865 7.38821H67.277C67.2397 7.3978 67.2001 7.39211 67.1669 7.37238C67.1338 7.35265 67.1098 7.32051 67.1002 7.28302C67.0907 7.24553 67.0964 7.20577 67.116 7.17248C67.1356 7.13919 67.1677 7.1151 67.205 7.10551L67.1592 7.13181Z" fill="#292526"/>
<path d="M67.4014 20.1358C67.7615 19.7926 68.1668 19.5006 68.606 19.268C69.2056 18.9212 69.8789 18.7228 70.5701 18.6895C72.3182 18.6895 72.5342 21.4836 72.161 22.7459C71.6635 24.4618 69.8761 24.659 68.2656 25.1587C68.2656 25.1587 67.7353 25.2902 67.7353 25.3033C67.7353 25.3165 67.4014 20.1358 67.4014 20.1358Z" fill="#FFD0BA"/>
<path d="M54.5048 19.3995C54.1426 19.0598 53.7402 18.7662 53.3067 18.5251C52.7076 18.1761 52.0343 17.9756 51.3426 17.9399C49.5945 17.9399 49.3785 20.7143 49.7255 21.9832C50.21 23.6991 51.9973 23.9029 53.6079 24.4158C53.6079 24.4158 54.1382 24.5538 54.1382 24.5604L54.5048 19.3995Z" fill="#FFD0BA"/>
<path d="M68.463 24.3896C68.463 24.3896 67.2845 29.6097 61.916 30.1226L68.2208 30.3132L68.463 24.3896Z" fill="#292526"/>
<path d="M10.581 44.3363L19.3801 43.5605L28.4215 66.6368C28.8387 67.8013 28.7925 69.0827 28.2924 70.2138C27.7923 71.345 26.8768 72.2388 25.7368 72.7091C24.5968 73.1794 23.32 73.1899 22.1725 72.7385C21.0249 72.287 20.095 71.4084 19.5765 70.2856C15.9691 61.844 10.4107 43.8498 10.581 44.3363Z" fill="#FFD0BA"/>
<path d="M8.19122 37.722C8.40928 37.6086 8.66317 37.5864 8.89746 37.6603C9.13175 37.7342 9.3274 37.8982 9.44169 38.1165L10.9933 41.2525L8.93103 36.703C8.88116 36.5955 8.85287 36.4792 8.84776 36.3608C8.84265 36.2423 8.86083 36.124 8.90126 36.0126C8.94169 35.9011 9.00357 35.7988 9.08338 35.7114C9.16319 35.624 9.25936 35.5533 9.3664 35.5032C9.47344 35.4531 9.58926 35.4247 9.70723 35.4196C9.82521 35.4144 9.94304 35.4327 10.054 35.4733C10.1649 35.5139 10.2668 35.576 10.3539 35.6562C10.4409 35.7363 10.5114 35.8329 10.5612 35.9404L12.414 40.1151L10.4499 35.1317C10.3781 34.9145 10.3907 34.678 10.4851 34.4697C10.5796 34.2614 10.749 34.0966 10.9594 34.0085C11.1698 33.9203 11.4055 33.9153 11.6195 33.9943C11.8334 34.0734 12.0096 34.2308 12.1129 34.4348L14.1424 39.4577L12.6825 35.2566C12.6221 35.0362 12.6469 34.801 12.7518 34.5981C12.8567 34.3953 13.0341 34.2396 13.2483 34.1624C13.4626 34.0851 13.698 34.0919 13.9075 34.1815C14.1169 34.271 14.285 34.4366 14.3781 34.6452L17.285 41.2854L17.3308 40.72C18.0575 40.8909 18.7384 41.2131 19.452 41.4497C19.452 41.8442 19.5502 42.4096 19.6484 43.021C19.93 44.6975 20.3948 46.7487 20.3948 46.7487L12.5384 48.7211L10.1815 43.4615L7.79185 38.9712C7.73631 38.8629 7.70257 38.7446 7.69259 38.6232C7.6826 38.5017 7.69655 38.3795 7.73364 38.2635C7.77073 38.1475 7.83024 38.0399 7.90875 37.947C7.98727 37.8541 8.08326 37.7777 8.19122 37.722V37.722Z" fill="#FFD0BA"/>
<path d="M17.3566 40.4047L17.4155 39.6881V39.2542C17.8542 37.2227 19.0523 37.1701 19.3796 37.2819C19.432 37.2819 19.4647 37.2819 19.4713 37.3345C19.5232 38.6213 19.497 39.9101 19.3927 41.1937C19.3927 41.2726 19.3927 41.3778 19.3927 41.4895C18.6791 41.2528 17.9982 40.9307 17.2715 40.7598L17.3566 40.4047Z" fill="#FFD0BA"/>
<path d="M49.6922 49.1095L29.3965 72.4027C28.4385 73.5086 27.0926 74.2009 25.639 74.3353C24.1854 74.4698 22.7362 74.0361 21.5931 73.1245C20.45 72.213 19.701 70.8938 19.5021 69.4416C19.3032 67.9895 19.6697 66.5162 20.5254 65.3286L35.8126 43.896L49.6922 49.1095Z" fill="#FFD0BA"/>
<path d="M28.7422 49.6815L41.5088 60.9895L52.4423 48.8729C55.8991 45.04 55.958 39.524 52.1346 36.0462C48.3111 32.5683 43.139 33.732 39.6953 37.5714L28.7422 49.6815Z" fill="#F3516D"/>
<path d="M86.4138 46.3545L87.0096 77.3069C87.0395 78.7696 86.5076 80.1877 85.5242 81.2671C84.5408 82.3464 83.1813 83.0043 81.7278 83.104C80.2743 83.2038 78.8384 82.7379 77.7178 81.803C76.5972 80.868 75.8781 79.5358 75.7095 78.0827L72.6455 51.8967L86.4138 46.3545Z" fill="#FFD0BA"/>
<path d="M71.4544 60.7463L88.4765 60.4767L88.4307 44.1262C88.4307 38.9521 84.7644 34.8365 79.6054 34.8496C74.4463 34.8628 71.402 39.2216 71.4151 44.4023L71.4544 60.7463Z" fill="#F3516D"/>
<path d="M71.9385 48.7808L71.873 60.7068L88.4435 60.3715" stroke="#292526" stroke-width="0.5" stroke-linecap="round" stroke-linejoin="round"/>
<path d="M56.8936 36.1709C56.8936 36.1709 62.0591 40.7138 68.2329 36.7297Z" fill="#FFD0BA"/>
<path d="M57.6602 25.5201C57.6602 25.5201 60.4754 27.4267 61.8633 24.8232" stroke="#292526" stroke-width="0.5" stroke-linecap="round" stroke-linejoin="round"/>
<path d="M17.4814 38.1432C17.4814 38.1432 18.4373 33.5411 19.3342 34.3629C20.2312 35.1847 19.4521 41.5028 19.4521 41.5028" fill="#FFD0BA"/>
<path d="M8.64863 32.0089L10.0003 46.105C10.0665 46.7954 10.6774 47.3011 11.3648 47.2346L17.7448 46.6177C18.4323 46.5513 18.9359 45.9378 18.8697 45.2474L17.5181 31.1513C17.4519 30.461 16.8409 29.9553 16.1535 30.0217L9.77349 30.6386C9.08605 30.7051 8.58243 31.3186 8.64863 32.0089Z" fill="#292526"/>
<path d="M11.5343 32.5102C11.4914 32.062 11.0959 31.7336 10.6511 31.7766C10.2063 31.8196 9.88054 32.2178 9.92351 32.666L10.0007 33.4709C10.0437 33.9191 10.4391 34.2475 10.8839 34.2045C11.3287 34.1615 11.6545 33.7633 11.6115 33.3151L11.5343 32.5102Z" fill="white"/>
<path d="M8.275 37.6537L8.19065 37.6898C7.79465 37.8595 7.61056 38.3193 7.77946 38.7167L8.97192 41.5228C9.14083 41.9202 9.59876 42.1049 9.99476 41.9352L10.0791 41.899C10.4751 41.7293 10.6592 41.2696 10.4903 40.8721L9.29784 38.0661C9.12894 37.6686 8.671 37.484 8.275 37.6537Z" fill="#FFD0BA"/>
<path d="M8.89512 34.8768L8.81076 34.913C8.41477 35.0826 8.23067 35.5424 8.39958 35.9399L9.59204 38.7459C9.76094 39.1434 10.2189 39.328 10.6149 39.1583L10.6992 39.1222C11.0952 38.9525 11.2793 38.4927 11.1104 38.0952L9.91796 35.2892C9.74905 34.8917 9.29111 34.7071 8.89512 34.8768Z" fill="#FFD0BA"/>
<path d="M45.365 48.998L42.4844 81.1535" stroke="#292526" stroke-width="0.5" stroke-linecap="round" stroke-linejoin="round"/>
<path d="M76.1814 74.3687L52.1016 74.888V82.6721L80.6792 83.7569C81.6004 83.7948 82.5186 83.6267 83.3673 83.2648C84.216 82.9028 84.974 82.3562 85.5867 81.6642C86.1993 80.9722 86.6513 80.1522 86.9099 79.2635C87.1685 78.3748 87.2273 77.4394 87.0821 76.5251C87.0821 76.4396 87.0821 76.3541 87.0363 76.2621L76.1814 74.3687Z" fill="#FFD0BA"/>
<path d="M47.9117 74.1319L47.2571 73.744L46.8511 73.5073C45.0507 72.1267 45.5417 70.917 45.8298 70.6146C45.8691 70.5751 45.9018 70.5488 45.9215 70.5488C47.2064 71.0964 48.4589 71.7176 49.6729 72.4094C49.2701 73.089 48.8171 73.7373 48.3177 74.3488L47.9117 74.1319Z" fill="#FFD0BA"/>
<path d="M41.8884 80.877L45.7249 80.7916L40.2582 80.7258C40.0033 80.7242 39.7591 80.6232 39.5771 80.4441C39.395 80.2649 39.2895 80.0218 39.2827 79.766C39.2818 79.6339 39.3069 79.5029 39.3564 79.3805C39.406 79.2582 39.479 79.1468 39.5714 79.0528C39.6638 78.9587 39.7738 78.8839 39.895 78.8326C40.0162 78.7812 40.1463 78.7544 40.2778 78.7535L45.2994 78.8718L39.4594 78.4905C39.2157 78.4707 38.9882 78.3598 38.8221 78.1796C38.656 77.9994 38.5633 77.7631 38.5625 77.5175C38.5667 77.3857 38.5969 77.256 38.6512 77.1359C38.7056 77.0159 38.7831 76.9078 38.8793 76.818C38.9754 76.7281 39.0884 76.6583 39.2115 76.6125C39.3347 76.5667 39.4657 76.5458 39.5969 76.5511L45.4892 76.8798L40.651 76.3736C40.3979 76.3485 40.1646 76.2252 40.0007 76.03C39.8369 75.8347 39.7554 75.5829 39.7737 75.3282C39.7844 75.1962 39.8211 75.0677 39.8817 74.95C39.9423 74.8324 40.0256 74.728 40.1267 74.643C40.2278 74.5579 40.3448 74.4939 40.4707 74.4547C40.5967 74.4154 40.7292 74.4017 40.8605 74.4144L48.7889 74.6182L48.311 74.3486C48.8104 73.7371 49.2634 73.0888 49.6662 72.4092C50.3012 72.6836 50.9583 72.9035 51.6303 73.0666C53.4176 73.5729 58.832 74.822 58.832 74.822L56.9988 82.7968L47.6104 82.6258L42.0193 82.9085C41.8872 82.9147 41.7552 82.8946 41.6309 82.8492C41.5066 82.8039 41.3924 82.7343 41.2951 82.6445C41.1977 82.5546 41.119 82.4463 41.0635 82.3257C41.008 82.2052 40.9768 82.0748 40.9718 81.9421C40.9588 81.6803 41.0468 81.4235 41.2175 81.2251C41.3882 81.0267 41.6285 80.9021 41.8884 80.877V80.877Z" fill="#FFD0BA"/>
</svg>
