<svg width="24" height="24" viewBox="0 0 24 24" fill="none" xmlns="http://www.w3.org/2000/svg">
<path d="M16 13C17.6569 13 19 11.6569 19 10C19 8.34315 17.6569 7 16 7C14.3431 7 13 8.34315 13 10C13 11.6569 14.3431 13 16 13Z" stroke="#839FC0" stroke-width="1.2" stroke-linecap="round" stroke-linejoin="round"/>
<path d="M22.1737 19.8214C22.1737 16.9319 19.8053 14.5635 16.9158 14.5635H15.2579C12.3684 14.5635 10 16.9319 10 19.8214" stroke="#839FC0" stroke-width="1.2" stroke-linecap="round" stroke-linejoin="round"/>
<path d="M7.7002 7.69971C9.08091 7.69971 10.2002 6.58042 10.2002 5.19971C10.2002 3.819 9.08091 2.69971 7.7002 2.69971C6.31948 2.69971 5.2002 3.819 5.2002 5.19971C5.2002 6.58042 6.31948 7.69971 7.7002 7.69971Z" stroke="#839FC0" stroke-width="1.2" stroke-linecap="round" stroke-linejoin="round"/>
<path d="M8.30526 9.30518H7.02632C4.8 9.30518 3 11.1052 3 13.3315" stroke="#839FC0" stroke-width="1.2" stroke-linecap="round" stroke-linejoin="round"/>
<path d="M6.59961 9.30518H7.87856C9.11014 9.30518 10.1996 9.8736 10.9575 10.7262" stroke="#839FC0" stroke-width="1.2" stroke-linecap="round" stroke-linejoin="round"/>
</svg>
