<svg width="24" height="24" viewBox="0 0 24 24" fill="none" xmlns="http://www.w3.org/2000/svg">
<path d="M11.5 8C12.3284 8 13 7.32843 13 6.5C13 5.67157 12.3284 5 11.5 5C10.6716 5 10 5.67157 10 6.5C10 7.32843 10.6716 8 11.5 8Z" fill="#839FC0"/>
<path d="M11.5 13.8125C12.3284 13.8125 13 13.1409 13 12.3125C13 11.4841 12.3284 10.8125 11.5 10.8125C10.6716 10.8125 10 11.4841 10 12.3125C10 13.1409 10.6716 13.8125 11.5 13.8125Z" fill="#839FC0"/>
<path d="M11.5 19.6235C12.3284 19.6235 13 18.952 13 18.1235C13 17.2951 12.3284 16.6235 11.5 16.6235C10.6716 16.6235 10 17.2951 10 18.1235C10 18.952 10.6716 19.6235 11.5 19.6235Z" fill="#839FC0"/>
</svg>
