<?xml version="1.0"?>
<svg xmlns="http://www.w3.org/2000/svg" xmlns:xlink="http://www.w3.org/1999/xlink" xmlns:svgjs="http://svgjs.com/svgjs" version="1.1" width="512" height="512" x="0" y="0" viewBox="0 0 512 512" style="enable-background:new 0 0 512 512" xml:space="preserve" class=""><g><path xmlns="http://www.w3.org/2000/svg" d="M488,64H464V56a8,8,0,0,0-8-8H400V40a24,24,0,0,0-48,0v8H336V40a24,24,0,0,0-48,0v8H192V40a24,24,0,0,0-48,0v8H128V40a24,24,0,0,0-48,0v8H24a8,8,0,0,0-8,8V456a8,8,0,0,0,8,8h8v24a8,8,0,0,0,8,8H488a8,8,0,0,0,8-8V72A8,8,0,0,0,488,64ZM32,448V160H448V448ZM368,40a8,8,0,0,1,16,0v8H368Zm-64,0a8,8,0,0,1,16,0v8H304ZM160,40a8,8,0,0,1,16,0v8H160ZM96,40a8,8,0,0,1,16,0v8H96ZM80,64v8a24.028,24.028,0,0,0,24,24,8,8,0,0,0,0-16,8.009,8.009,0,0,1-8-8V64h48v8a24.028,24.028,0,0,0,24,24,8,8,0,0,0,0-16,8.009,8.009,0,0,1-8-8V64H288v8a24.028,24.028,0,0,0,24,24,8,8,0,0,0,0-16,8.009,8.009,0,0,1-8-8V64h48v8a24.028,24.028,0,0,0,24,24,8,8,0,0,0,0-16,8.009,8.009,0,0,1-8-8V64h80v80H32V64ZM480,480H48V464H456a8,8,0,0,0,8-8V80h16Z" fill="#2196f3" data-original="#000000" style="" class=""/><path xmlns="http://www.w3.org/2000/svg" d="M343.567,269.4a8,8,0,0,0-6.575-5.342l-60.031-7.5-30.015-52.527a8,8,0,0,0-13.892,0l-30.015,52.527-60.031,7.5a8,8,0,0,0-4.665,13.595l45.234,45.233-7.515,60.118a8,8,0,0,0,11.907,7.938L240,361.214l52.031,29.732a8,8,0,0,0,11.907-7.938l-7.515-60.118,45.234-45.233A8,8,0,0,0,343.567,269.4Zm-61.224,44.939a8,8,0,0,0-2.281,6.649l6.015,48.124-42.108-24.062a8,8,0,0,0-7.938,0l-42.108,24.062,6.015-48.124a8,8,0,0,0-2.281-6.649l-36.434-36.434,47.769-5.971a8,8,0,0,0,5.954-3.969L240,224.125l25.054,43.844a8,8,0,0,0,5.954,3.969l47.769,5.971Z" fill="#2196f3" data-original="#000000" style="" class=""/></g></svg>
