<svg width="40" height="40" viewBox="0 0 40 40" fill="none" xmlns="http://www.w3.org/2000/svg">
<circle cx="20" cy="20" r="19.5" fill="#F3516D" stroke="#F3516D"/>
<path d="M15.2913 29.9173H12.1663C11.6138 29.9173 11.0839 29.6978 10.6932 29.3071C10.3025 28.9164 10.083 28.3865 10.083 27.834V20.5423C10.083 19.9898 10.3025 19.4599 10.6932 19.0692C11.0839 18.6785 11.6138 18.459 12.1663 18.459H15.2913M22.583 16.3756V12.209C22.583 11.3802 22.2538 10.5853 21.6677 9.99928C21.0817 9.41322 20.2868 9.08398 19.458 9.08398L15.2913 18.459V29.9173H27.0413C27.5438 29.923 28.0313 29.7469 28.4142 29.4215C28.797 29.0961 29.0493 28.6433 29.1247 28.1465L30.5622 18.7715C30.6075 18.4729 30.5874 18.168 30.5032 17.878C30.419 17.588 30.2727 17.3197 30.0745 17.0918C29.8764 16.8639 29.631 16.6818 29.3555 16.5582C29.0799 16.4345 28.7808 16.3722 28.4788 16.3756H22.583Z" stroke="white" stroke-width="1.5" stroke-linecap="round" stroke-linejoin="round"/>
</svg>
