<svg xmlns="http://www.w3.org/2000/svg" width="20" height="20" fill="none" viewBox="0 0 20 20">
    <path fill="#2ABE77" d="M10.002 20c-.408 0-.82-.127-1.169-.38l-1.18-.856-1.446.15c-.86.092-1.671-.38-2.024-1.168l-.594-1.33-1.331-.594c-.788-.353-1.26-1.165-1.169-2.024l.15-1.45-.859-1.18c-.507-.697-.507-1.635 0-2.336l.856-1.18-.15-1.45c-.092-.86.38-1.671 1.168-2.024l1.33-.594.591-1.33C4.528 1.464 5.34.993 6.2 1.084l1.45.15L8.833.38c.698-.507 1.636-.507 2.338 0l1.18.856 1.45-.15c.86-.092 1.671.38 2.024 1.167l.59 1.331 1.331.594c.788.353 1.26 1.165 1.169 2.024l-.15 1.45.855 1.18c.507.697.507 1.635 0 2.336l-.856 1.18.15 1.45c.092.86-.38 1.671-1.168 2.024l-1.33.594-.591 1.33c-.353.789-1.165 1.26-2.024 1.169l-1.45-.15-1.18.855c-.35.253-.761.38-1.169.38z"/>
    <path stroke="#fff" stroke-linecap="round" stroke-linejoin="round" stroke-width="1.5" d="M6.197 10.883l2.246 2.009 5.184-5.948"/>
</svg>
