<?xml version="1.0"?>
<svg xmlns="http://www.w3.org/2000/svg" xmlns:xlink="http://www.w3.org/1999/xlink" xmlns:svgjs="http://svgjs.com/svgjs" version="1.1" width="512" height="512" x="0" y="0" viewBox="0 0 510 510" style="enable-background:new 0 0 512 512" xml:space="preserve" class=""><g><g xmlns="http://www.w3.org/2000/svg"><path d="m480 150v-60h-277.5l-45-60h-157.5v390c0 33.084 26.916 60 60 60h361c49.075 0 89-39.925 89-89v-241zm-30-30v30h-330v-30zm-420 300v-360h112.5l22.5 30h-75v90 240c0 16.542-13.458 30-30 30s-30-13.458-30-30zm450-29c0 32.533-26.467 59-59 59h-309.072c5.123-8.832 8.072-19.075 8.072-30v-240h360z" fill="#2196f3" data-original="#000000" style="" class=""/><path d="m315 210h-165v150h165zm-30 120h-105v-90h105z" fill="#2196f3" data-original="#000000" style="" class=""/><path d="m345 210h105v30h-105z" fill="#2196f3" data-original="#000000" style="" class=""/><path d="m345 270h105v30h-105z" fill="#2196f3" data-original="#000000" style="" class=""/><path d="m345 330h105v30h-105z" fill="#2196f3" data-original="#000000" style="" class=""/></g></g></svg>
