<svg width="24" height="24" viewBox="0 0 24 24" fill="none" xmlns="http://www.w3.org/2000/svg">
<path d="M13.275 19C13.425 19.1935 13.5 19.4516 13.5 19.7097C13.5 20.4194 12.825 21 12 21C11.175 21 10.5 20.4194 10.5 19.7097C10.5 19.4516 10.575 19.2581 10.725 19.0645" stroke="#FFC200" stroke-width="1.5" stroke-linecap="round" stroke-linejoin="round"/>
<path d="M7.14101 4.15987C8.38331 2.81404 10.0915 1.98584 12.0067 1.98584C15.7336 1.98584 18.7358 5.14336 18.7358 9.02555V11.1996C18.7358 13.8395 19.357 16.3758 21.0134 18.2911L3 18.3428C4.6564 16.4276 5.27755 13.8912 5.27755 11.2513V9.07731C5.27755 8.14559 5.43284 7.26562 5.74342 6.43742" stroke="#F3516D" stroke-width="1.5" stroke-linecap="round" stroke-linejoin="round"/>
</svg>
