<svg width="208" height="134" viewBox="0 0 208 134" fill="none" xmlns="http://www.w3.org/2000/svg">
<path d="M123.47 45.5501C124.486 45.5501 125.31 44.7263 125.31 43.7101C125.31 42.6939 124.486 41.8701 123.47 41.8701C122.454 41.8701 121.63 42.6939 121.63 43.7101C121.63 44.7263 122.454 45.5501 123.47 45.5501Z" fill="white" stroke="#292526" stroke-width="0.5" stroke-linecap="round" stroke-linejoin="round"/>
<path d="M54.84 68.6302C55.8562 68.6302 56.68 67.8064 56.68 66.7902C56.68 65.774 55.8562 64.9502 54.84 64.9502C53.8238 64.9502 53 65.774 53 66.7902C53 67.8064 53.8238 68.6302 54.84 68.6302Z" fill="white" stroke="#292526" stroke-width="0.5" stroke-linecap="round" stroke-linejoin="round"/>
<path d="M64.6701 20.6702C65.6863 20.6702 66.5101 19.8464 66.5101 18.8302C66.5101 17.814 65.6863 16.9902 64.6701 16.9902C63.6539 16.9902 62.8301 17.814 62.8301 18.8302C62.8301 19.8464 63.6539 20.6702 64.6701 20.6702Z" fill="white" stroke="#292526" stroke-width="0.5" stroke-linecap="round" stroke-linejoin="round"/>
<path d="M153.42 81.5902C154.436 81.5902 155.26 80.7664 155.26 79.7502C155.26 78.734 154.436 77.9102 153.42 77.9102C152.404 77.9102 151.58 78.734 151.58 79.7502C151.58 80.7664 152.404 81.5902 153.42 81.5902Z" fill="white" stroke="#292526" stroke-width="0.5" stroke-linecap="round" stroke-linejoin="round"/>
<path d="M128.85 31.6302C129.866 31.6302 130.69 30.8064 130.69 29.7902C130.69 28.774 129.866 27.9502 128.85 27.9502C127.834 27.9502 127.01 28.774 127.01 29.7902C127.01 30.8064 127.834 31.6302 128.85 31.6302Z" fill="white" stroke="#292526" stroke-width="0.5" stroke-linecap="round" stroke-linejoin="round"/>
<path d="M67.8703 50.3501L62.0703 45.8901" stroke="#292526" stroke-width="0.5" stroke-linecap="round" stroke-linejoin="round"/>
<path d="M109.98 12.3L110.38 5" stroke="#292526" stroke-width="0.5" stroke-linecap="round" stroke-linejoin="round"/>
<path d="M149.84 24.3701L144.99 29.8401" stroke="#292526" stroke-width="0.5" stroke-linecap="round" stroke-linejoin="round"/>
<path d="M95.3002 23.0601C96.6672 22.4643 97.8988 21.5967 98.9202 20.5101C99.4319 19.9565 99.781 19.2724 99.9292 18.5332C100.077 17.794 100.019 17.0283 99.7602 16.3201C98.9102 14.4401 96.5202 13.9301 94.8702 12.6901C93.7302 11.8401 92.8702 10.5901 91.6302 9.96014C90.6534 9.53235 89.5484 9.50191 88.5496 9.8753C87.5508 10.2487 86.7368 10.9965 86.2802 11.9601C86.0965 12.5899 85.8659 13.2049 85.5902 13.8001C84.5902 15.5601 81.5902 15.7201 81.0002 17.6701C80.6102 18.8801 81.3502 20.1301 82.1002 21.1401C83.3139 22.7392 84.6514 24.2405 86.1002 25.6301C86.3659 25.9431 86.7115 26.1781 87.1002 26.3101C87.5039 26.3721 87.9167 26.3308 88.3002 26.1901C91.2577 25.2601 94.1047 24.0094 96.7902 22.4601L95.3002 23.0601Z" fill="#292526"/>
<path d="M95.2303 22.88C96.8603 22.06 98.6503 21.08 99.4503 19.35C99.819 18.5889 99.9212 17.726 99.7403 16.9C99.5306 16.1531 99.0674 15.5026 98.4303 15.06C97.7599 14.5793 97.0469 14.1609 96.3003 13.81C95.9303 13.61 95.5603 13.41 95.2103 13.18C94.8543 12.9356 94.5197 12.6613 94.2103 12.36C93.5498 11.6739 92.8413 11.0356 92.0903 10.45C91.4239 9.99695 90.6241 9.78202 89.8203 9.83997C89.0478 9.89482 88.3079 10.1727 87.6903 10.64C87.3768 10.8667 87.1031 11.1437 86.8803 11.46C86.6264 11.8205 86.4306 12.2187 86.3003 12.64C86.1785 13.1395 85.983 13.618 85.7203 14.06C85.521 14.3458 85.2819 14.6017 85.0103 14.82C84.437 15.2363 83.828 15.6011 83.1903 15.91C82.594 16.1872 82.0574 16.5778 81.6103 17.06C81.3976 17.3153 81.247 17.6166 81.1703 17.94C81.0931 18.3295 81.1172 18.7324 81.2403 19.11C81.5364 19.9631 81.9949 20.751 82.5903 21.43C83.2303 22.27 83.9103 23.09 84.5903 23.87C84.9503 24.27 85.3203 24.66 85.7003 25.04C85.8803 25.23 86.0703 25.42 86.2703 25.6C86.4427 25.7863 86.6456 25.9419 86.8703 26.06C87.1015 26.1433 87.3469 26.1801 87.5923 26.1681C87.8378 26.1561 88.0784 26.0955 88.3003 25.99C88.7903 25.84 89.3003 25.68 89.7503 25.51C91.7026 24.8137 93.6011 23.9748 95.4303 23C95.8703 22.77 96.3103 22.53 96.7403 22.27C96.9703 22.14 97.1603 22.51 96.9303 22.64C95.0841 23.703 93.1623 24.6289 91.1803 25.41C90.1803 25.79 89.1803 26.17 88.1803 26.41C87.9325 26.4997 87.6691 26.5379 87.406 26.5225C87.143 26.507 86.8858 26.4381 86.6503 26.32C86.4232 26.18 86.2119 26.0157 86.0203 25.83C85.8203 25.64 85.6203 25.44 85.4303 25.24C84.6503 24.46 83.9103 23.64 83.2103 22.8C82.8703 22.38 82.5303 21.95 82.2103 21.52C81.8819 21.1607 81.5779 20.7798 81.3003 20.38C80.7898 19.6308 80.5825 18.716 80.7203 17.82C80.9105 17.1335 81.3442 16.5398 81.9403 16.15C82.5403 15.73 83.2003 15.42 83.8403 15.06C84.4561 14.7559 84.9856 14.302 85.3803 13.74C85.6202 13.2535 85.8112 12.7443 85.9503 12.22C86.0862 11.7995 86.2962 11.4066 86.5703 11.06C87.0889 10.4111 87.7832 9.92515 88.5703 9.65997C89.3517 9.38441 90.1972 9.34614 91.0003 9.54997C91.9029 9.84794 92.7126 10.3751 93.3503 11.08C93.7103 11.42 94.0503 11.78 94.4103 12.08C94.7481 12.3783 95.1093 12.6492 95.4903 12.89C96.2203 13.34 97.0103 13.7 97.7503 14.13C98.493 14.5141 99.1365 15.0652 99.6303 15.74C100.146 16.4942 100.35 17.4186 100.2 18.32C100.047 19.2152 99.653 20.0518 99.0603 20.74C98.3946 21.4915 97.6027 22.121 96.7203 22.6C96.3003 22.85 95.8603 23.07 95.4203 23.29C95.3726 23.3152 95.3168 23.3204 95.2652 23.3044C95.2136 23.2885 95.1705 23.2527 95.1453 23.205C95.1201 23.1572 95.1149 23.1014 95.1308 23.0499C95.1468 22.9983 95.1826 22.9552 95.2303 22.93V22.88Z" fill="#292526"/>
<path d="M101.85 44.32C102.94 42.48 104.69 40.9 104.92 38.77C105.09 37.21 104.39 35.62 104.71 34.09C104.9 33.09 105.49 32.2 105.25 31.25C104.96 30.13 103.68 29.62 102.87 28.79C101.65 27.54 101.44 25.49 100.04 24.46C98.6401 23.43 96.7701 23.79 95.3501 22.93C94.9 22.6191 94.4661 22.2854 94.0501 21.93C91.9501 20.34 88.9301 20.65 86.5501 21.77C85.9101 22.07 85.2901 22.43 84.6201 22.67C83.4001 23.11 82.0301 23.16 80.9201 23.82C78.9201 24.99 78.4001 27.65 76.6001 29.04C76.1401 29.4 75.6001 29.66 75.1601 30.04C74.6388 30.4739 74.2386 31.0353 73.9986 31.6697C73.7585 32.304 73.6867 32.9897 73.7901 33.66C74.0391 34.4857 74.246 35.3234 74.4101 36.17C74.4901 37.44 73.7601 38.66 73.8701 39.93C73.9801 41.2 74.9801 42.43 74.7201 43.72C74.6401 44.11 74.4401 44.48 74.3801 44.88C74.3523 45.3094 74.4288 45.7392 74.6029 46.1327C74.777 46.5262 75.0437 46.8718 75.3801 47.14C75.6901 47.4644 76.0738 47.7092 76.4985 47.8537C76.9233 47.9982 77.3766 48.0381 77.8201 47.97C78.3224 47.7868 78.7584 47.4575 79.072 47.0244C79.3857 46.5914 79.5626 46.0744 79.5801 45.54C79.623 44.4657 79.5896 43.3896 79.4801 42.32C79.3901 38.69 81.7101 35.5 83.9201 32.63C84.8439 31.2442 86.0461 30.0659 87.4501 29.17C89.6101 27.98 92.3001 28.25 94.6401 29.05C95.6773 29.3528 96.6293 29.8939 97.4201 30.63C98.3111 31.7801 98.9885 33.0807 99.4201 34.47C100.09 36 101.02 37.47 101.64 38.97C102.358 40.5072 102.458 42.2612 101.92 43.87L101.85 44.32Z" fill="#292526"/>
<path d="M97.9697 83.9102L125.03 113.64C126.174 114.829 127.689 115.592 129.326 115.802C130.962 116.013 132.621 115.66 134.03 114.8C138.46 112.33 140.03 106.54 137.27 102.8L116.97 74.9902L97.9697 83.9102Z" fill="#F4A8A6"/>
<path d="M126.52 84.3198L110.3 98.7298L96.3003 83.3698C91.8503 78.4998 91.7503 71.4798 96.6203 67.0298C101.49 62.5798 108.11 64.0298 112.56 68.9098L126.52 84.3198Z" fill="white" stroke="#292526" stroke-width="0.5" stroke-linecap="round" stroke-linejoin="round"/>
<path d="M138.57 69.49L131.65 74.66L123.2 106.83C123.031 107.899 123.091 108.992 123.375 110.037C123.659 111.082 124.16 112.055 124.847 112.891C125.534 113.728 126.39 114.41 127.359 114.893C128.328 115.375 129.389 115.647 130.47 115.69C132.355 115.726 134.189 115.085 135.641 113.883C137.092 112.681 138.065 110.998 138.38 109.14C140.27 98.89 142.04 81.14 142.88 71.9C142.929 71.3793 142.825 70.8556 142.582 70.3927C142.339 69.9297 141.966 69.5474 141.51 69.2921C141.053 69.0369 140.532 68.9197 140.011 68.9548C139.489 68.99 138.988 69.1759 138.57 69.49V69.49Z" fill="#F4A8A6"/>
<path d="M146.95 56.25C146.578 56.1474 146.18 56.1946 145.842 56.3814C145.504 56.5683 145.252 56.88 145.14 57.25L143.79 62.68L145.45 54.88C145.534 54.506 145.466 54.1142 145.26 53.7907C145.055 53.4672 144.729 53.2385 144.355 53.155C143.981 53.0714 143.59 53.1399 143.266 53.3452C142.943 53.5506 142.714 53.876 142.63 54.25L141.19 61.44L142.51 53C142.578 52.6234 142.493 52.2353 142.275 51.9212C142.056 51.6071 141.722 51.3926 141.345 51.325C140.969 51.2573 140.581 51.3421 140.267 51.5606C139.953 51.779 139.738 52.1134 139.67 52.49L138.3 61.05L139.13 54.05C139.15 53.684 139.03 53.3242 138.795 53.0431C138.559 52.762 138.227 52.5803 137.863 52.5347C137.499 52.4891 137.132 52.5829 136.835 52.7972C136.537 53.0116 136.332 53.3305 136.26 53.69L134.02 65.04L133.75 64.17C132.67 64.69 131.75 65.43 130.69 66.05C130.809 66.8822 130.886 67.72 130.92 68.56C131.077 70.6393 131.364 72.7067 131.78 74.75L142.78 74.85L145.87 65.96L148.07 58.11C148.126 57.9142 148.14 57.7091 148.113 57.5076C148.086 57.306 148.017 57.1121 147.913 56.9378C147.808 56.7636 147.668 56.6126 147.503 56.4943C147.337 56.376 147.149 56.2929 146.95 56.25V56.25Z" fill="#F4A8A6"/>
<path d="M133.54 63.6202L133.21 62.5202L133 61.8602C131.61 58.8602 129.72 59.1802 129.21 59.4502C129.159 59.4712 129.114 59.5058 129.08 59.5502C129.447 61.5775 129.934 63.5811 130.54 65.5502C130.583 65.7046 130.617 65.8616 130.64 66.0202C131.64 65.4002 132.64 64.6602 133.7 64.1402L133.54 63.6202Z" fill="#F4A8A6"/>
<path d="M98.0399 51.002L82.2002 51.0933L82.3034 69.013L98.1431 68.9217L98.0399 51.002Z" fill="#F4A8A6"/>
<path d="M90.8598 57.5098C92.3691 57.5046 93.8625 57.2018 95.2546 56.6188C96.6467 56.0357 97.9102 55.1839 98.9728 54.1121C100.035 53.0402 100.876 51.7694 101.447 50.3722C102.018 48.9751 102.308 47.4791 102.3 45.9698L102.22 32.0698L90.9798 30.3198L79.2998 33.4298V46.0998C79.309 47.6083 79.6153 49.1001 80.2013 50.4901C80.7874 51.88 81.6416 53.1409 82.7152 54.2005C83.7888 55.2602 85.0607 56.0979 86.4582 56.6657C87.8557 57.2335 89.3514 57.5204 90.8598 57.5098V57.5098Z" fill="#F4A8A6"/>
<path d="M92.8097 47.0798C93.1475 47.1026 93.4865 47.0567 93.8061 46.945C94.1258 46.8333 94.4195 46.6581 94.6697 46.4298C94.823 46.2344 94.9063 45.9932 94.9063 45.7448C94.9063 45.4965 94.823 45.2553 94.6697 45.0598C93.8297 43.5898 93.9497 39.3698 93.9497 39.3298C93.951 39.3009 93.9467 39.2721 93.9368 39.2449C93.927 39.2177 93.9119 39.1927 93.8924 39.1713C93.8729 39.1499 93.8494 39.1326 93.8232 39.1204C93.797 39.1081 93.7686 39.1011 93.7397 39.0998C93.7108 39.0985 93.6819 39.1029 93.6547 39.1127C93.6275 39.1225 93.6025 39.1376 93.5811 39.1571C93.5598 39.1766 93.5425 39.2002 93.5302 39.2264C93.5179 39.2526 93.511 39.2809 93.5097 39.3098C93.5097 39.4898 93.3897 43.6998 94.2897 45.3098C94.4897 45.6798 94.4997 45.9598 94.2897 46.1898C93.9621 46.4353 93.5797 46.5973 93.1754 46.6617C92.7712 46.7262 92.3574 46.6912 91.9697 46.5598C91.9139 46.54 91.8526 46.5425 91.7986 46.5667C91.7446 46.5909 91.702 46.635 91.6797 46.6898C91.6703 46.7174 91.6665 46.7466 91.6685 46.7756C91.6704 46.8047 91.6782 46.8331 91.6912 46.8591C91.7042 46.8851 91.7223 46.9083 91.7443 46.9274C91.7664 46.9464 91.792 46.9608 91.8197 46.9698C92.1409 47.0631 92.4758 47.1004 92.8097 47.0798V47.0798Z" fill="#151E23"/>
<path d="M95.9696 49.3202C95.9696 49.3202 89.9696 49.0302 88.8196 48.6202C87.9096 48.2902 90.0396 51.6202 92.1196 51.7702C94.1996 51.9202 95.9696 49.3202 95.9696 49.3202Z" fill="#F5F5F5"/>
<path d="M70.19 104.32C70.257 104.321 70.3225 104.3 70.3766 104.26C70.4307 104.22 70.4705 104.164 70.49 104.1C70.54 103.98 74.82 91.3901 75.11 81.5401C75.1113 81.4973 75.104 81.4546 75.0885 81.4146C75.0731 81.3746 75.0497 81.3381 75.0199 81.3074C74.99 81.2766 74.9543 81.2521 74.9148 81.2354C74.8753 81.2187 74.8328 81.2101 74.79 81.2101C74.7476 81.2074 74.7051 81.2134 74.6652 81.2277C74.6252 81.2421 74.5887 81.2645 74.5577 81.2935C74.5268 81.3226 74.5021 81.3577 74.4853 81.3967C74.4685 81.4357 74.4599 81.4777 74.46 81.5201C74.17 91.2701 69.92 103.77 69.88 103.89C69.8511 103.972 69.8559 104.063 69.8934 104.141C69.9309 104.22 69.9979 104.281 70.08 104.31L70.19 104.32Z" fill="#141D22"/>
<path d="M71.4803 64.5201L100.8 64.6201L107.89 69.8301C113.326 73.7641 116.976 79.6953 118.04 86.3201C118.22 87.4999 118.34 88.6881 118.4 89.8801C118.491 91.8052 118.43 93.7344 118.22 95.6501L113.81 129.87L68.7003 129.32L65.9903 70.1701C65.9661 69.435 66.0903 68.7027 66.3556 68.0168C66.6209 67.3309 67.0218 66.7055 67.5343 66.1781C68.0468 65.6507 68.6604 65.232 69.3384 64.9471C70.0164 64.6622 70.7449 64.517 71.4803 64.5201V64.5201Z" fill="#F54F6B"/>
<g style="mix-blend-mode:multiply" opacity="0.47">
<path d="M82.0596 53.5L82.2596 61.8L93.9696 58.07C93.9696 58.07 84.7596 57.9 82.0596 53.5Z" fill="#CE877C"/>
</g>
<path d="M77.4195 32.65C78.8633 31.0761 80.5517 29.7457 82.4195 28.71C83.3187 28.1299 84.286 27.6631 85.2995 27.32C86.8443 26.9533 88.4376 26.8351 90.0195 26.97C91.6095 26.9143 93.1944 27.1796 94.6795 27.75C95.7919 28.3455 96.8041 29.1115 97.6795 30.02C98.9295 31.19 100.32 30.02 101.57 31.19C103.12 32.63 103.97 36.8 103.57 38.87C103.31 40.09 103.69 39.87 103.57 41.13V42.13C102.81 40.71 103.43 40.43 102.15 39.45C101.63 39.04 100.86 39.03 100.37 38.58C99.6595 37.92 99.9095 36.74 99.5795 35.83C99.3981 35.3869 99.0777 35.0148 98.6665 34.7695C98.2553 34.5242 97.7756 34.4191 97.2995 34.47C96.4995 34.6 95.7595 35.18 94.9695 35.02C93.5795 34.75 93.3595 32.55 91.9695 32.14C90.9695 31.85 90.0695 32.63 89.4995 33.45C88.9295 34.27 88.4495 35.25 87.4995 35.66C86.2195 36.23 84.3495 35.58 83.5895 36.76C83.0395 37.63 83.5895 38.94 82.8995 39.76C82.6566 39.9945 82.367 40.1751 82.0495 40.29L78.7195 41.71C78.4742 41.8296 78.2158 41.9202 77.9495 41.98C77.5203 42.0358 77.084 41.9719 76.6887 41.7955C76.2934 41.619 75.9546 41.3368 75.7095 40.98C75.2387 40.2521 75.0047 39.3963 75.0395 38.53C75.1011 36.3478 75.9459 34.2606 77.4195 32.65V32.65Z" fill="#292526"/>
<path d="M80.21 41.1599C80.21 41.0399 79.47 40.6199 79.38 40.5699C78.866 40.2081 78.2727 39.975 77.65 39.8899C76.06 39.7699 75.85 41.5999 76.08 42.7699C76.301 43.5142 76.7037 44.1919 77.2518 44.7417C77.8 45.2916 78.4763 45.6965 79.22 45.9199C79.22 45.9199 79.7 46.0799 79.69 46.0899L80.21 41.1599Z" fill="#F4A8A6"/>
<path d="M98.9898 42.7198C99.647 42.7198 100.18 42.1871 100.18 41.5298C100.18 40.8726 99.647 40.3398 98.9898 40.3398C98.3326 40.3398 97.7998 40.8726 97.7998 41.5298C97.7998 42.1871 98.3326 42.7198 98.9898 42.7198Z" fill="#151E23"/>
<path d="M89.4703 43.0201C90.1275 43.0201 90.6603 42.4874 90.6603 41.8301C90.6603 41.1729 90.1275 40.6401 89.4703 40.6401C88.813 40.6401 88.2803 41.1729 88.2803 41.8301C88.2803 42.4874 88.813 43.0201 89.4703 43.0201Z" fill="#151E23"/>
<path d="M90.7097 39.15C91.0097 38.86 90.8097 38.42 90.3697 38.38C89.3097 38.26 86.8897 38.08 85.9797 38.78C85.7497 38.95 84.8097 39.71 85.4997 39.84C85.879 39.8332 86.2556 39.776 86.6197 39.67C87.4197 39.56 88.2097 39.54 88.9997 39.48C89.5552 39.5076 90.1104 39.419 90.6297 39.22C90.6608 39.2022 90.688 39.1784 90.7097 39.15V39.15Z" fill="#151E23"/>
<path d="M95.3004 39.2099C95.2265 39.1549 95.1713 39.0785 95.1422 38.9911C95.1131 38.9037 95.1115 38.8094 95.1377 38.7211C95.1639 38.6328 95.2165 38.5546 95.2885 38.4972C95.3605 38.4397 95.4484 38.4058 95.5404 38.3999C96.5404 38.1499 98.9604 37.6699 99.9504 38.2499C100.19 38.3899 101.22 39.0299 100.55 39.2499C100.175 39.2997 99.7954 39.2997 99.4204 39.2499C98.6204 39.2499 97.8304 39.3199 97.0304 39.3499C96.4898 39.4652 95.9309 39.4652 95.3904 39.3499L95.3004 39.2099Z" fill="#151E23"/>
<path opacity="0.29" d="M99.36 49.2102C100.824 49.2102 102.01 48.0237 102.01 46.5602C102.01 45.0966 100.824 43.9102 99.36 43.9102C97.8964 43.9102 96.71 45.0966 96.71 46.5602C96.71 48.0237 97.8964 49.2102 99.36 49.2102Z" fill="#E62B5D"/>
<path opacity="0.29" d="M85.8199 48.4602C87.2835 48.4602 88.4699 47.2737 88.4699 45.8102C88.4699 44.3466 87.2835 43.1602 85.8199 43.1602C84.3564 43.1602 83.1699 44.3466 83.1699 45.8102C83.1699 47.2737 84.3564 48.4602 85.8199 48.4602Z" fill="#E62B5D"/>
<path d="M145.01 103.5C142.56 98.6498 139.01 94.6998 135.24 90.8498C133.767 89.3332 132.397 87.7196 131.14 86.0198C130.602 85.3339 130.315 84.4842 130.328 83.6124C130.341 82.7407 130.652 81.8997 131.21 81.2298C131.974 80.1933 132.82 79.2202 133.74 78.3198C136.35 75.7998 139.14 73.4498 141.63 70.8098C144.661 67.7293 147.033 64.0645 148.603 60.0383C150.172 56.0121 150.906 51.7087 150.76 47.3898C150.76 46.4698 150.64 45.5498 150.58 44.6698L110.89 43.3198C110.83 43.5398 110.78 43.6998 110.75 43.8598C109.395 51.9851 111.225 60.32 115.86 67.1298C118.403 70.692 121.265 74.0157 124.41 77.0598C125.635 78.3509 126.749 79.7424 127.74 81.2198C128.204 81.8969 128.434 82.7071 128.394 83.5268C128.354 84.3466 128.047 85.1308 127.52 85.7598C126.687 86.8581 125.767 87.8881 124.77 88.8398C122.24 91.2898 119.52 93.5798 117.11 96.1398C113.857 99.4545 111.366 103.439 109.812 107.816C108.257 112.192 107.676 116.856 108.11 121.48C108.141 121.765 108.188 122.049 108.25 122.33L147.85 123.68C147.907 123.523 147.953 123.363 147.99 123.2C149.128 116.483 148.084 109.579 145.01 103.5Z" fill="white" stroke="#292526" stroke-width="0.5" stroke-linecap="round" stroke-linejoin="round"/>
<path d="M153.484 42.0507L108.151 40.4993C107.626 40.4813 107.187 40.8919 107.169 41.4162L106.983 46.8431C106.965 47.3674 107.376 47.8071 107.9 47.825L153.233 49.3764C153.758 49.3943 154.197 48.9838 154.215 48.4594L154.401 43.0326C154.419 42.5083 154.008 42.0686 153.484 42.0507Z" fill="#FFC200" stroke="#020202" stroke-width="0.5" stroke-linecap="round" stroke-linejoin="round"/>
<path d="M108.49 119.94C107.87 118.33 108.64 117.54 109.84 116.7C114.4 113.54 118.84 110.23 123.39 107.04C124.524 106.267 125.726 105.597 126.98 105.04C127.241 104.965 127.47 104.806 127.631 104.587C127.792 104.368 127.876 104.102 127.87 103.83C128.14 98.6901 128.46 93.5501 128.76 88.4101C128.87 86.6801 128.89 84.9301 129.08 83.2101C129.197 82.3613 129.132 81.4974 128.891 80.6752C128.649 79.8531 128.237 79.0914 127.68 78.4401C125.94 76.3801 124.09 74.4401 122.26 72.4401C118.862 68.9415 116.095 64.8817 114.08 60.4401L113.68 59.4401C115.03 59.3801 116.27 59.3001 117.52 59.2601C123.148 59.1964 128.736 60.2149 133.98 62.2601C137.491 63.5731 141.171 64.3779 144.91 64.6501C145.073 64.6837 145.231 64.7375 145.38 64.8101C144.42 66.1229 143.392 67.3846 142.3 68.5901C139.94 70.9501 137.46 73.1901 135.03 75.4801C133.89 76.5601 132.71 77.6001 131.63 78.7301C130.499 79.8924 129.865 81.4486 129.86 83.0701C129.62 90.0701 129.31 97.0701 129.05 104.01C129.029 104.349 129.14 104.682 129.36 104.94C131.53 106.6 133.83 108.1 135.91 109.86C139.54 112.92 143.01 116.16 146.6 119.26C147.6 120.11 146.67 120.94 146.94 121.83L108.49 119.94Z" fill="#C3E3F9"/>
<path d="M150.682 121.988L105.369 120.438C104.839 120.419 104.394 120.834 104.376 121.364L104.187 126.911C104.168 127.441 104.583 127.885 105.113 127.903L150.427 129.454C150.956 129.472 151.401 129.057 151.419 128.527L151.609 122.981C151.627 122.451 151.212 122.006 150.682 121.988Z" fill="#FFC200" stroke="#020202" stroke-width="0.5" stroke-linecap="round" stroke-linejoin="round"/>
<path d="M61.7002 78.4399L65.4002 118.44C65.5989 120.073 66.348 121.59 67.524 122.741C68.7001 123.891 70.233 124.607 71.8702 124.77C76.8702 125.47 81.6302 121.77 81.7002 117.12L82.2402 82.7299L61.7002 78.4399Z" fill="#F4A8A6"/>
<path d="M84.2997 95.91L62.6197 97.67L60.6197 76.95C59.9997 70.39 64.1497 64.72 70.7097 64.1C77.2697 63.48 81.7097 68.63 82.2997 75.19L84.2997 95.91Z" fill="white" stroke="#292526" stroke-width="0.5" stroke-linecap="round" stroke-linejoin="round"/>
<path d="M112.1 121.32L106.23 114.99L73.3498 109.99C72.2717 109.941 71.1954 110.12 70.1913 110.516C69.1872 110.912 68.2779 111.515 67.5228 112.286C66.7677 113.057 66.1839 113.979 65.8094 114.991C65.435 116.003 65.2784 117.083 65.3498 118.16C65.5148 120.029 66.3421 121.777 67.6824 123.09C69.0227 124.403 70.7879 125.194 72.6598 125.32C83.0498 126.11 100.87 126 110.16 125.85C110.681 125.841 111.188 125.682 111.62 125.392C112.053 125.101 112.392 124.692 112.597 124.213C112.802 123.734 112.864 123.206 112.776 122.693C112.688 122.18 112.453 121.703 112.1 121.32V121.32Z" fill="#F4A8A6"/>
<path d="M126.16 128.22C126.189 128.027 126.181 127.831 126.135 127.642C126.089 127.453 126.006 127.274 125.89 127.117C125.775 126.96 125.63 126.828 125.464 126.727C125.297 126.626 125.112 126.559 124.92 126.53L119.38 125.76L127.31 126.58C127.687 126.622 128.066 126.513 128.364 126.277C128.662 126.041 128.855 125.697 128.9 125.32C128.925 125.129 128.912 124.936 128.863 124.75C128.813 124.565 128.727 124.391 128.61 124.238C128.493 124.086 128.347 123.958 128.181 123.862C128.014 123.766 127.83 123.704 127.64 123.68L120.34 123.01L128.87 123.44C129.252 123.466 129.628 123.34 129.917 123.089C130.206 122.837 130.383 122.482 130.41 122.1C130.436 121.718 130.31 121.341 130.059 121.052C129.807 120.763 129.452 120.586 129.07 120.56L120.46 120.04L127.56 120.13C127.922 120.1 128.26 119.934 128.506 119.667C128.753 119.399 128.889 119.049 128.889 118.685C128.889 118.321 128.753 117.971 128.506 117.703C128.26 117.435 127.922 117.27 127.56 117.24L116.03 116.24L116.87 115.88C116.23 114.88 115.4 113.99 114.68 113.03C114.07 113.2 113.18 113.37 112.21 113.53C110.157 113.907 108.13 114.411 106.14 115.04L107.3 125.97L116.47 128.11L124.47 129.46C124.857 129.515 125.251 129.416 125.567 129.184C125.883 128.952 126.096 128.606 126.16 128.22V128.22Z" fill="#F4A8A6"/>
<path d="M117.41 115.67L118.41 115.22L119.05 114.95C121.9 113.25 121.37 111.4 121.05 110.95C121.021 110.9 120.98 110.859 120.93 110.83C118.958 111.415 117.021 112.112 115.13 112.92C114.984 112.978 114.833 113.025 114.68 113.06C115.4 114.06 116.23 114.89 116.87 115.91L117.41 115.67Z" fill="#F4A8A6"/>
<path d="M121.77 120.07L129.07 120.59" stroke="#020202" stroke-width="0.5" stroke-linecap="round" stroke-linejoin="round"/>
<path d="M121.16 123.25L128.46 123.76" stroke="#020202" stroke-width="0.5" stroke-linecap="round" stroke-linejoin="round"/>
<path d="M118.72 125.88L125.28 126.53" stroke="#020202" stroke-width="0.5" stroke-linecap="round" stroke-linejoin="round"/>
</svg>
