<svg width="24" height="24" viewBox="0 0 24 24" fill="none" xmlns="http://www.w3.org/2000/svg">
<path d="M12 15C13.6568 15 15 13.6569 15 12C15 10.3431 13.6568 9 12 9C10.3432 9 9 10.3431 9 12C9 13.6569 10.3432 15 12 15Z" stroke="#F3516D" stroke-width="1.2" stroke-linecap="round" stroke-linejoin="round"/>
<path d="M19.4692 13.7C20.3146 13.7 21 13.0146 21 12.1692V11.8308C21 10.9854 20.3146 10.3 19.4692 10.3H19.1338C18.6415 10.3 18.2225 9.96977 18.0347 9.51469V9.51469C17.8436 9.05163 17.8985 8.5015 18.2527 8.14727L18.505 7.89503C19.1097 7.29025 19.1097 6.30974 18.5049 5.70497L18.295 5.495C17.6902 4.89025 16.7097 4.89026 16.105 5.49503L15.8528 5.74723C15.4985 6.10149 14.9483 6.15641 14.4853 5.96524V5.96524C14.0302 5.77738 13.7 5.35843 13.7 4.8661V4.53078C13.7 3.68535 13.0146 3 12.1692 3H11.8307C10.9853 3 10.2999 3.68535 10.2999 4.53078V4.86614C10.2999 5.35845 9.96971 5.77738 9.51466 5.96525V5.96525C9.05163 6.15642 8.5015 6.10152 8.14728 5.7473L7.89501 5.49504C7.29021 4.89026 6.30966 4.89028 5.70489 5.49508L5.49501 5.70496C4.89026 6.30973 4.89026 7.29024 5.49502 7.89501L5.74725 8.14726C6.10148 8.50149 6.15638 9.05164 5.96522 9.51469V9.51469C5.77735 9.96976 5.3584 10.3 4.86608 10.3H4.53076C3.68535 10.3 3 10.9853 3 11.8307V12.1692C3 13.0146 3.68535 13.7 4.53076 13.7H4.86607C5.3584 13.7 5.77735 14.0302 5.96522 14.4853V14.4853C6.15638 14.9484 6.10147 15.4985 5.74723 15.8528L5.49501 16.105C4.89026 16.7097 4.89025 17.6902 5.49499 18.295L5.70489 18.5049C6.30966 19.1097 7.29021 19.1097 7.89501 18.505L8.14728 18.2527C8.5015 17.8985 9.05163 17.8436 9.51466 18.0347V18.0347C9.96971 18.2226 10.2999 18.6415 10.2999 19.1338V19.4692C10.2999 20.3146 10.9853 21 11.8307 21H12.1692C13.0146 21 13.7 20.3146 13.7 19.4692V19.1339C13.7 18.6415 14.0302 18.2226 14.4853 18.0347V18.0347C14.9483 17.8436 15.4985 17.8985 15.8527 18.2528L16.105 18.505C16.7097 19.1097 17.6902 19.1097 18.295 18.505L18.505 18.295C19.1097 17.6902 19.1097 16.7097 18.505 16.105L18.2527 15.8527C17.8985 15.4985 17.8436 14.9484 18.0347 14.4853V14.4853C18.2225 14.0302 18.6415 13.7 19.1338 13.7H19.4692Z" stroke="#F3516D" stroke-width="1.2" stroke-linecap="round" stroke-linejoin="round"/>
</svg>
