<svg width="24" height="24" viewBox="0 0 24 24" fill="none" xmlns="http://www.w3.org/2000/svg">
<path d="M8.90431 20.2944L9.18241 20.7393C9.62735 21.4624 10.5729 21.6849 11.2959 21.2399C12.0189 20.795 12.2414 19.8494 11.7965 19.1264L10.3504 16.6792L7.73633 18.2921" stroke="#FFC200" stroke-width="1.5" stroke-linecap="round" stroke-linejoin="round"/>
<path d="M9.18241 9.89446L1.95202 14.2883C1.00651 14.8445 0.728419 16.0681 1.2846 16.958L2.56383 19.1271C3.17563 20.0726 4.34361 20.3507 5.28913 19.7945L12.6308 15.3451L20.4729 16.235C20.8623 16.2906 21.1404 15.8456 20.9735 15.5119L12.9088 2.21912C12.6864 1.88541 12.1302 1.94103 12.019 2.33036L10.2392 7.11354" stroke="#F3516D" stroke-width="1.5" stroke-linecap="round" stroke-linejoin="round"/>
<path d="M9.23828 9.89453L12.631 15.3451" stroke="#F3516D" stroke-width="1.5" stroke-linecap="round" stroke-linejoin="round"/>
</svg>
