<svg width="24" height="24" viewBox="0 0 24 24" fill="none" xmlns="http://www.w3.org/2000/svg">
<path d="M6 7.66602H7.33333H18" stroke="#839FC0" stroke-width="1.2" stroke-miterlimit="10" stroke-linecap="round" stroke-linejoin="round"/>
<path d="M9.33398 7.66667V6.33333C9.33398 5.97971 9.47446 5.64057 9.72451 5.39052C9.97456 5.14048 10.3137 5 10.6673 5H13.334C13.6876 5 14.0267 5.14048 14.2768 5.39052C14.5268 5.64057 14.6673 5.97971 14.6673 6.33333V7.66667M16.6673 7.66667V17C16.6673 17.3536 16.5268 17.6928 16.2768 17.9428C16.0267 18.1929 15.6876 18.3333 15.334 18.3333H8.66732C8.3137 18.3333 7.97456 18.1929 7.72451 17.9428C7.47446 17.6928 7.33398 17.3536 7.33398 17V7.66667H16.6673Z" stroke="#839FC0" stroke-width="1.2" stroke-miterlimit="10" stroke-linecap="round" stroke-linejoin="round"/>
<path d="M10.666 11V15" stroke="#839FC0" stroke-width="1.2" stroke-miterlimit="10" stroke-linecap="round" stroke-linejoin="round"/>
<path d="M13.334 11V15" stroke="#839FC0" stroke-width="1.2" stroke-miterlimit="10" stroke-linecap="round" stroke-linejoin="round"/>
</svg>
