<svg width="93" height="93" viewBox="0 0 93 93" fill="none" xmlns="http://www.w3.org/2000/svg">
<path d="M46.3506 92.903C71.9493 92.903 92.7011 72.106 92.7011 46.4515C92.7011 20.7971 71.9493 0 46.3506 0C20.7518 0 0 20.7971 0 46.4515C0 72.106 20.7518 92.903 46.3506 92.903Z" fill="#F7F9FF"/>
<path d="M48.8465 66.9825V62.3408H43.9601V66.9825C43.9601 76.2041 38.1773 83.717 31.0674 83.717H61.7392C54.6294 83.7082 48.8465 76.2041 48.8465 66.9825Z" fill="#FFC200"/>
<path d="M51.7376 60.1299H41.0684V69.4219H51.7376V60.1299Z" fill="#FFC200"/>
<path d="M72.347 28.8628V33.7246C72.34 38.793 70.3273 43.6516 66.7504 47.2347C63.1735 50.8177 58.3245 52.8326 53.2672 52.8372H39.5396C34.4822 52.8326 29.6332 50.8177 26.0563 47.2347C22.4794 43.6516 20.4667 38.793 20.4597 33.7246V28.8628H72.3119H72.347ZM76.0294 25.146H16.7861V33.7246C16.7861 39.7756 19.1822 45.5793 23.4483 49.8613C27.7144 54.1433 33.5017 56.5535 39.5396 56.5629H53.2672C56.2606 56.564 59.2249 55.9742 61.9907 54.827C64.7566 53.6797 67.2698 51.9977 69.3868 49.8768C71.5039 47.756 73.1833 45.2379 74.329 42.4665C75.4748 39.6951 76.0646 36.7245 76.0646 33.7246V25.146H76.0294Z" fill="#FFC200"/>
<path d="M62.8993 83.5493H30.8389V89.0893H62.8993V83.5493Z" fill="#FFC200" stroke="#292526" stroke-width="0.5" stroke-linecap="round" stroke-linejoin="round"/>
<path d="M51.9399 38.0312L50.5338 39.3436C50.402 39.4632 50.3012 39.613 50.24 39.7802C50.1788 39.9474 50.159 40.127 50.1822 40.3036L50.4635 42.2149C50.4942 42.4169 50.4678 42.6236 50.3872 42.8114C50.3066 42.9991 50.1751 43.1604 50.0075 43.277C49.8399 43.3935 49.6431 43.4606 49.4394 43.4706C49.2357 43.4805 49.0333 43.433 48.8552 43.3334L47.1678 42.3998C47.0105 42.3173 46.8356 42.2741 46.658 42.2741C46.4805 42.2741 46.3056 42.3173 46.1483 42.3998L44.4345 43.2806C44.251 43.3714 44.0458 43.4089 43.842 43.389C43.6383 43.3692 43.4442 43.2926 43.2815 43.1681C43.1189 43.0436 42.9942 42.876 42.9215 42.6842C42.8488 42.4924 42.8311 42.2841 42.8702 42.0828L43.2393 40.1979C43.2714 40.0229 43.261 39.8427 43.2089 39.6726C43.1569 39.5024 43.0649 39.3473 42.9405 39.2203L41.5695 37.8022C41.4275 37.6554 41.3291 37.4719 41.2853 37.2722C41.2416 37.0725 41.2542 36.8646 41.3217 36.6716C41.3892 36.4787 41.509 36.3084 41.6676 36.1799C41.8262 36.0513 42.0175 35.9696 42.2198 35.9438L44.1269 35.706C44.3105 35.6914 44.4874 35.6305 44.6411 35.5288C44.7948 35.4272 44.9202 35.2881 45.0058 35.1247L45.8846 33.416C45.9741 33.2319 46.1134 33.0766 46.2867 32.968C46.4599 32.8594 46.6602 32.8018 46.8646 32.8018C47.0689 32.8018 47.2692 32.8594 47.4425 32.968C47.6157 33.0766 47.7551 33.2319 47.8445 33.416L48.653 35.1776C48.7299 35.3394 48.8441 35.4806 48.9862 35.5893C49.1284 35.6981 49.2943 35.7713 49.4704 35.8029L51.3599 36.12C51.5674 36.149 51.7623 36.237 51.9216 36.3734C52.0809 36.5098 52.1979 36.6891 52.2589 36.89C52.3199 37.0909 52.3222 37.3051 52.2657 37.5073C52.2092 37.7095 52.0962 37.8913 51.9399 38.0312V38.0312Z" fill="white" stroke="#292526" stroke-width="0.5" stroke-linecap="round" stroke-linejoin="round"/>
<path d="M24.8008 18.9453C24.8008 19.3064 24.8008 19.6675 24.8008 20.0287C24.8008 45.7382 34.4681 66.5859 46.4117 66.5859C58.3553 66.5859 68.0314 45.7382 68.0314 20.0287C68.0314 19.6675 68.0314 19.3064 68.0314 18.9453H24.8008Z" fill="#FFC200" stroke="#292526" stroke-width="0.5" stroke-linecap="round" stroke-linejoin="round"/>
<path d="M69.8329 16.8228H22.9902V21.0592H69.8329V16.8228Z" fill="#FFC200"/>
<path d="M24.6689 21.165H68.0666" stroke="#292526" stroke-width="0.5" stroke-linecap="round" stroke-linejoin="round"/>
<path d="M46.2006 48.4684C51.5057 48.4684 55.8064 44.1583 55.8064 38.8416C55.8064 33.5249 51.5057 29.2148 46.2006 29.2148C40.8954 29.2148 36.5947 33.5249 36.5947 38.8416C36.5947 44.1583 40.8954 48.4684 46.2006 48.4684Z" fill="white" stroke="#292526" stroke-width="0.5" stroke-linecap="round" stroke-linejoin="round"/>
<path d="M50.0858 39.0708L48.996 40.0837C48.8967 40.1791 48.821 40.2965 48.7752 40.4265C48.7295 40.5566 48.7148 40.6956 48.7324 40.8323L48.9521 42.3032C48.9667 42.4578 48.9403 42.6136 48.8755 42.7547C48.8108 42.8958 48.7099 43.0172 48.5832 43.1066C48.4565 43.196 48.3084 43.2503 48.154 43.2639C47.9997 43.2775 47.8444 43.2499 47.7041 43.184L46.4122 42.4617C46.2895 42.3998 46.1541 42.3675 46.0167 42.3675C45.8794 42.3675 45.7439 42.3998 45.6212 42.4617L44.2942 43.1223C44.1558 43.178 44.0056 43.1975 43.8577 43.1789C43.7098 43.1604 43.569 43.1045 43.4486 43.0164C43.3281 42.9283 43.2321 42.811 43.1694 42.6754C43.1067 42.5399 43.0794 42.3906 43.0901 42.2415L43.3714 40.7795C43.4081 40.6341 43.4072 40.4818 43.3687 40.3369C43.3303 40.1921 43.2556 40.0594 43.1517 39.9516L42.1146 38.8858C42.0173 38.7687 41.952 38.6282 41.925 38.4782C41.8981 38.3282 41.9105 38.1737 41.9609 38.0299C42.0114 37.8861 42.0983 37.7579 42.213 37.6578C42.3278 37.5578 42.4665 37.4892 42.6156 37.459L44.0745 37.3093C44.2103 37.2904 44.3399 37.24 44.4528 37.162C44.5657 37.084 44.6589 36.9806 44.7248 36.8601L45.4103 35.5389C45.4876 35.4054 45.5985 35.2947 45.7319 35.2176C45.8653 35.1406 46.0165 35.1001 46.1705 35.1001C46.3245 35.1001 46.4757 35.1406 46.6092 35.2176C46.7426 35.2947 46.8535 35.4054 46.9307 35.5389L47.5459 36.8865C47.605 37.0104 47.6922 37.1187 47.8006 37.2028C47.9089 37.287 48.0354 37.3445 48.1699 37.3709L49.6376 37.6175C49.7871 37.6524 49.9249 37.726 50.0372 37.8308C50.1496 37.9357 50.2325 38.0682 50.2779 38.2152C50.3232 38.3622 50.3293 38.5186 50.2956 38.6687C50.2619 38.8188 50.1896 38.9574 50.0858 39.0708Z" fill="#F3516D"/>
<path d="M80.3008 55.4619C79.9756 54.1672 79.5713 52.5025 79.2637 51.0052C79.0352 49.9131 78.8595 48.909 78.7892 48.2044C78.7772 48.0226 78.7772 47.8402 78.7892 47.6583C78.7892 45.5885 78.8595 41.0878 78.6486 40.7267C78.6007 40.6862 78.5432 40.6589 78.4816 40.6475C77.8488 40.4977 75.6868 40.6475 75.0541 44.3731V45.1482L75.0013 46.4429V47.0418L74.9574 48.0635L69.2536 36.3581C69.0817 35.9738 68.768 35.6711 68.3783 35.5135C67.9885 35.356 67.553 35.3558 67.1631 35.513C66.7733 35.6702 66.4593 35.9726 66.287 36.3568C66.1147 36.7409 66.0976 37.177 66.2392 37.5736L69.1745 45.0072L65.123 36.1467C64.9283 35.777 64.5992 35.4964 64.2038 35.363C63.8084 35.2296 63.377 35.2536 62.9988 35.4301C62.6206 35.6066 62.3245 35.9221 62.1719 36.3112C62.0193 36.7004 62.0218 37.1334 62.1789 37.5207L66.0546 46.3284L62.425 38.9123C62.2269 38.5281 61.8845 38.2384 61.4733 38.1071C61.0621 37.9758 60.6157 38.0136 60.2322 38.2121C59.8488 38.4107 59.5598 38.7538 59.4288 39.1659C59.2977 39.578 59.3354 40.0254 59.5336 40.4096L63.5851 48.4246L60.553 42.9022C60.444 42.7125 60.2987 42.5462 60.1255 42.4128C59.9523 42.2794 59.7546 42.1815 59.5436 42.1246C59.3327 42.0678 59.1126 42.0531 58.896 42.0815C58.6794 42.1099 58.4705 42.1808 58.2812 42.2901C58.0919 42.3994 57.926 42.545 57.7929 42.7185C57.6597 42.8921 57.562 43.0903 57.5053 43.3017C57.4486 43.5131 57.434 43.7337 57.4623 43.9507C57.4906 44.1678 57.5613 44.3772 57.6704 44.5669L62.3107 52.4937L64.3672 56.6245H64.1739C63.9366 56.0608 68.7527 69.6775 74.0961 83.2941C79.1353 79.6879 83.4051 75.1094 86.6549 69.8272L80.3008 55.4619Z" fill="#FF908A"/>
<path d="M12.1549 55.2683C12.48 53.9736 12.8843 52.3089 13.2007 50.8028C13.4204 49.7107 13.605 48.7154 13.6665 48.0108C13.6778 47.8289 13.6778 47.6466 13.6665 47.4647C13.6665 45.3861 13.5962 40.8942 13.7983 40.5331C13.8462 40.4874 13.9082 40.4594 13.9741 40.4538C14.5981 40.3041 16.76 40.4538 17.4016 44.1707V44.9545L17.4543 46.2405V46.8482V47.8699L23.1581 36.1557C23.33 35.7714 23.6437 35.4687 24.0334 35.3111C24.4232 35.1536 24.8587 35.1533 25.2486 35.3106C25.6385 35.4678 25.9525 35.7702 26.1247 36.1543C26.297 36.5385 26.3141 36.9746 26.1725 37.3712L23.2372 44.8048L27.3326 35.9531C27.4215 35.7577 27.5479 35.5816 27.7046 35.4351C27.8614 35.2886 28.0454 35.1745 28.2461 35.0992C28.4469 35.024 28.6605 34.9891 28.8747 34.9966C29.0889 35.0041 29.2995 35.0538 29.4946 35.1428C29.6896 35.2319 29.8653 35.3586 30.0114 35.5157C30.1576 35.6727 30.2715 35.8571 30.3466 36.0583C30.4217 36.2595 30.4565 36.4736 30.449 36.6883C30.4416 36.9029 30.392 37.114 30.3031 37.3095L26.4538 46.1172L30.0922 38.7099C30.1919 38.5184 30.3288 38.3489 30.4948 38.2111C30.6608 38.0734 30.8526 37.9704 31.0589 37.908C31.2653 37.8456 31.482 37.8252 31.6963 37.848C31.9106 37.8708 32.1182 37.9362 32.3069 38.0405C32.6756 38.2456 32.9509 38.5856 33.0754 38.9893C33.1999 39.3931 33.1638 39.8295 32.9748 40.2072L28.9233 48.2222L31.9554 42.6998C32.0448 42.4778 32.1807 42.2777 32.354 42.1129C32.5272 41.9481 32.7337 41.8224 32.9595 41.7444C33.1854 41.6664 33.4253 41.6379 33.663 41.6607C33.9008 41.6836 34.1309 41.7573 34.3378 41.8769C34.5447 41.9965 34.7236 42.1592 34.8625 42.354C35.0013 42.5488 35.0968 42.7711 35.1425 43.0061C35.1883 43.241 35.1832 43.4831 35.1276 43.7159C35.0721 43.9487 34.9673 44.1669 34.8204 44.3556L30.1713 52.2825L28.1148 56.4221H28.3081C28.5454 55.8584 23.7293 69.4662 18.3859 83.0917C13.3481 79.4839 9.07865 74.9057 5.82715 69.6248L12.1549 55.2683Z" fill="#FF908A"/>
<path d="M55.8769 11.0449C56.702 11.0449 57.3709 10.3745 57.3709 9.54759C57.3709 8.72066 56.702 8.05029 55.8769 8.05029C55.0517 8.05029 54.3828 8.72066 54.3828 9.54759C54.3828 10.3745 55.0517 11.0449 55.8769 11.0449Z" fill="white" stroke="#292526" stroke-width="0.5" stroke-miterlimit="10"/>
<path d="M12.1015 36.5605C12.9266 36.5605 13.5955 35.8902 13.5955 35.0632C13.5955 34.2363 12.9266 33.5659 12.1015 33.5659C11.2763 33.5659 10.6074 34.2363 10.6074 35.0632C10.6074 35.8902 11.2763 36.5605 12.1015 36.5605Z" fill="white" stroke="#292526" stroke-width="0.5" stroke-miterlimit="10"/>
<path d="M56.7733 72.8305C57.5985 72.8305 58.2674 72.1602 58.2674 71.3332C58.2674 70.5063 57.5985 69.8359 56.7733 69.8359C55.9482 69.8359 55.2793 70.5063 55.2793 71.3332C55.2793 72.1602 55.9482 72.8305 56.7733 72.8305Z" fill="white" stroke="#292526" stroke-width="0.5" stroke-miterlimit="10"/>
<path d="M34.5479 7.61865L38.283 11.8992" stroke="#292526" stroke-width="0.5" stroke-linecap="round" stroke-linejoin="round"/>
<path d="M83.4375 42.8932L86.2762 37.9609" stroke="#292526" stroke-width="0.5" stroke-linecap="round" stroke-linejoin="round"/>
<path d="M28.5361 64.2075L32.5437 68.2326" stroke="#292526" stroke-width="0.5" stroke-linecap="round" stroke-linejoin="round"/>
</svg>
