<svg width="24" height="24" viewBox="0 0 24 24" fill="none" xmlns="http://www.w3.org/2000/svg">
<path d="M22.9028 16.7036H17.7351C16.748 16.7036 15.9932 15.9488 15.9932 14.9617V14.2649C15.9932 13.2778 16.748 12.5229 17.7351 12.5229H22.9028V16.7036Z" stroke="#FFC200" stroke-width="1.5" stroke-linecap="round" stroke-linejoin="round"/>
<path d="M22.9032 5.72903V5.32258C22.9032 4.04516 21.8581 3 20.5806 3H4.7871C3.27742 3 2 4.27742 2 5.7871C2 7.35484 3.27742 8.57419 4.7871 8.57419H20.5806C21.8581 8.57419 22.9032 9.61935 22.9032 10.8968V19.2581C22.9032 20.2452 22.1484 21 21.1613 21H5.48387C3.56774 21 2 19.4323 2 17.5161V5.96129C2 4.33548 3.33548 3 4.96129 3H16.2839" stroke="#F3516D" stroke-width="1.5" stroke-linecap="round" stroke-linejoin="round"/>
</svg>
