<svg width="208" height="134" viewBox="0 0 208 134" fill="none" xmlns="http://www.w3.org/2000/svg">
<path d="M132.101 128.597L73.8506 128.856L74.1214 67.8105H131.625L132.101 128.597Z" fill="#FFC200"/>
<path d="M84.6952 27.7944C84.6952 27.7944 79.9719 8.92633 94.9435 7.71601C112.494 6.30036 116.74 11.3578 119.297 9.25053C119.297 9.25053 121.193 15.9938 114.021 15.9829C115.053 16.1511 116.108 16.1136 117.125 15.8724C118.142 15.6313 119.101 15.1914 119.947 14.5781C119.947 14.5781 121.269 24.1094 113.642 23.461C106.015 22.8126 95.6585 19.83 93.8602 22.5208C92.0619 25.2117 89.6677 30.7986 87.891 30.6797C86.1144 30.5608 84.6952 27.7944 84.6952 27.7944Z" fill="#292526"/>
<path d="M89.0172 12.2222C89.2331 9.91909 88.9637 7.59641 88.2264 5.40332C87.3725 6.81812 86.7439 8.35654 86.3631 9.96364C86.3347 10.1178 86.2758 10.2648 86.1897 10.3959C86.031 10.5451 85.8309 10.643 85.6156 10.6769C84.1132 11.0483 82.659 11.5922 81.2822 12.2978L87.7822 12.0601C87.8771 12.0673 87.9718 12.0446 88.0531 11.9953C88.1151 11.9319 88.1599 11.8538 88.1831 11.7683L88.8439 9.888L89.0172 12.2222Z" fill="#292526"/>
<path d="M81.4125 38.6011H9.43583C7.81442 38.6011 6.5 39.9122 6.5 41.5296V62.9156C6.5 64.533 7.81442 65.8441 9.43583 65.8441H81.4125C83.0339 65.8441 84.3483 64.533 84.3483 62.9156V41.5296C84.3483 39.9122 83.0339 38.6011 81.4125 38.6011Z" fill="white" stroke="#292526" stroke-width="0.5" stroke-linecap="round" stroke-linejoin="round"/>
<path d="M65.4224 47.4297H36.9091C35.8261 47.4297 34.9482 48.3054 34.9482 49.3857V49.5261C34.9482 50.6064 35.8261 51.4821 36.9091 51.4821H65.4224C66.5053 51.4821 67.3832 50.6064 67.3832 49.5261V49.3857C67.3832 48.3054 66.5053 47.4297 65.4224 47.4297Z" fill="#C3E3F9"/>
<path d="M65.4224 54.0972H36.9091C35.8261 54.0972 34.9482 54.9729 34.9482 56.0531V56.1936C34.9482 57.2739 35.8261 58.1496 36.9091 58.1496H65.4224C66.5053 58.1496 67.3832 57.2739 67.3832 56.1936V56.0531C67.3832 54.9729 66.5053 54.0972 65.4224 54.0972Z" fill="#C3E3F9"/>
<path d="M23.4654 58.8738C26.7741 58.8738 29.4563 56.1983 29.4563 52.8978C29.4563 49.5974 26.7741 46.9219 23.4654 46.9219C20.1568 46.9219 17.4746 49.5974 17.4746 52.8978C17.4746 56.1983 20.1568 58.8738 23.4654 58.8738Z" fill="#2ABE77"/>
<path d="M20.4746 53.1892L22.1863 54.8859L26.4654 49.7744" stroke="white" stroke-width="0.5" stroke-linecap="round" stroke-linejoin="round"/>
<path d="M93.3076 52.5952L108.832 51.5037L108.691 39.4869L108.669 38.0281L108.658 37.0447L102.018 36.1694L94.6943 35.1968L93.9685 44.3282L93.3076 52.5952Z" fill="#F38F79"/>
<path d="M93.6221 49.6881C99.5804 48.7803 106.265 45.3655 108.334 44.4037V43.3879L101.66 41.5292L94.3479 40.5566L93.6221 49.6881Z" fill="#292526"/>
<path d="M101.985 45.6898C103.814 45.6607 105.618 45.2684 107.294 44.5359C108.969 43.8033 110.481 42.7452 111.742 41.4233C113.002 40.1013 113.986 38.5421 114.636 36.8366C115.286 35.1311 115.589 33.3136 115.527 31.4901L114.682 23.7527C114.43 21.4578 113.293 19.3506 111.512 17.8765C109.731 16.4023 107.445 15.6768 105.137 15.8532L96.0266 16.5664C93.7269 16.7381 91.5834 17.7921 90.0461 19.5068C88.5089 21.2216 87.6975 23.4638 87.7824 25.7627L87.9991 31.9872C88.0891 35.636 89.5992 39.1067 92.2096 41.6643C94.8201 44.2219 98.326 45.6656 101.985 45.6898V45.6898Z" fill="#F38F79"/>
<path d="M104.335 34.2889C104.72 34.3028 105.103 34.2391 105.463 34.1017C105.822 33.9643 106.15 33.756 106.426 33.4892C106.6 33.267 106.695 32.9931 106.695 32.7112C106.695 32.4292 106.6 32.1553 106.426 31.9331C105.419 30.2905 105.397 25.4492 105.397 25.4492C105.397 25.3833 105.371 25.3201 105.324 25.2735C105.277 25.2269 105.214 25.2007 105.148 25.2007C105.082 25.2007 105.018 25.2269 104.972 25.2735C104.925 25.3201 104.899 25.3833 104.899 25.4492C104.899 25.6437 104.899 30.4202 105.982 32.1816C106.231 32.5815 106.253 32.9057 106.047 33.165C105.682 33.4556 105.252 33.6543 104.794 33.7446C104.336 33.8349 103.863 33.814 103.415 33.6837C103.383 33.672 103.349 33.6669 103.315 33.6688C103.281 33.6706 103.247 33.6794 103.217 33.6946C103.186 33.7098 103.159 33.7311 103.138 33.7571C103.116 33.7831 103.099 33.8133 103.09 33.8458C103.072 33.9089 103.079 33.9762 103.109 34.0344C103.139 34.0925 103.19 34.1371 103.252 34.1592C103.605 34.256 103.97 34.2997 104.335 34.2889V34.2889Z" fill="#292526"/>
<g opacity="0.46">
<path opacity="0.46" d="M94.1741 35.921C95.4724 35.921 96.5249 34.8711 96.5249 33.576C96.5249 32.2808 95.4724 31.231 94.1741 31.231C92.8757 31.231 91.8232 32.2808 91.8232 33.576C91.8232 34.8711 92.8757 35.921 94.1741 35.921Z" fill="#F3516D"/>
</g>
<g opacity="0.46">
<path opacity="0.46" d="M112.634 35.3047C113.932 35.3047 114.985 34.2549 114.985 32.9597C114.985 31.6646 113.932 30.6147 112.634 30.6147C111.336 30.6147 110.283 31.6646 110.283 32.9597C110.283 34.2549 111.336 35.3047 112.634 35.3047Z" fill="#F3516D"/>
</g>
<path d="M107.196 36.2124C107.196 36.2124 100.349 36.8932 99.0384 36.623C97.955 36.4069 100.891 39.7461 103.274 39.6056C105.658 39.4651 107.196 36.2124 107.196 36.2124Z" fill="#F7F9FF"/>
<path d="M128.299 76.0666L131.213 54.2699L159.044 69.2369L157.83 45.6464C157.321 43.4095 156.325 39.1625 155.664 37.0012C155.359 35.8876 154.957 34.8028 154.461 33.7593C153.256 31.769 152.17 29.7085 151.211 27.5888C151.211 27.5888 151.211 27.5024 151.32 27.4375C151.807 26.9945 153.8 26.0975 156.184 29.0261L156.595 29.6961L157.278 30.7767L158.134 32.1708L157.408 19.0517C157.399 18.6454 157.54 18.2499 157.806 17.9419C158.072 17.6338 158.443 17.435 158.847 17.384C159.252 17.3329 159.66 17.4331 159.995 17.6653C160.329 17.8975 160.566 18.2452 160.658 18.6411L161.741 26.627L160.907 16.9012C160.911 16.4928 161.068 16.1007 161.348 15.8023C161.628 15.504 162.01 15.3212 162.418 15.2899C162.826 15.2587 163.231 15.3814 163.553 15.6337C163.875 15.886 164.091 16.2496 164.157 16.6527L165.078 26.3137L164.634 17.9927C164.684 17.6056 164.872 17.2491 165.162 16.9872C165.452 16.7252 165.826 16.5749 166.217 16.5632C166.608 16.5515 166.991 16.6791 167.296 16.9233C167.602 17.1674 167.81 17.512 167.884 17.8954L168.252 26.9404V20.5862C168.233 20.3542 168.263 20.1209 168.339 19.9009C168.416 19.6809 168.537 19.479 168.695 19.308C168.853 19.137 169.045 19.0005 169.259 18.9071C169.473 18.8138 169.703 18.7656 169.937 18.7656C170.17 18.7656 170.401 18.8138 170.615 18.9071C170.828 19.0005 171.02 19.137 171.179 19.308C171.337 19.479 171.458 19.6809 171.534 19.9009C171.61 20.1209 171.64 20.3542 171.621 20.5862L171.426 29.8474L171.881 39.5732L176.106 83.6203C176.165 85.0756 175.829 86.5197 175.135 87.8011C174.442 89.0826 173.415 90.1542 172.163 90.9036C170.911 91.6529 169.48 92.0523 168.02 92.06C166.56 92.0676 165.124 91.6832 163.865 90.947C163.366 90.6414 162.848 90.3671 162.315 90.1258L128.299 76.0666Z" fill="#F38F79"/>
<path d="M139.154 83.0369L150.128 62.8288L129.035 51.039C122.362 47.3 114.616 48.6183 111.204 54.6916C107.791 60.7648 111.377 67.508 118.061 71.247L139.154 83.0369Z" fill="#FFC200"/>
<path d="M122.655 48.9751L109.872 49.9801L101.573 53.4814L93.8599 51.104L75.7249 52.109L75.5732 106.141C75.5732 109.383 78.7149 111.825 82.4741 111.544L124.258 108.616C128.082 108.346 129.675 104.423 129.079 101.224L122.655 48.9751Z" fill="#FFC200"/>
<path d="M64.513 67.3569L56.4314 112.323C56.0619 114.442 56.5205 116.621 57.7129 118.413C58.9053 120.205 60.7408 121.473 62.8418 121.956C64.9428 122.439 67.1495 122.101 69.008 121.01C70.8665 119.92 72.2353 118.16 72.833 116.094L83.428 78.6389L64.513 67.3569Z" fill="#F38F79"/>
<path d="M82.5063 91.6819L59.9404 87.6943L63.8079 63.9202C65.0321 56.3556 70.8604 51.1469 77.7071 52.2492C84.5538 53.3514 87.5871 60.354 86.3738 67.8969L82.5063 91.6819Z" fill="#FFC200"/>
<path d="M80.0801 91.0228L83.4709 73.8081" stroke="#292526" stroke-width="0.5" stroke-linecap="round" stroke-linejoin="round"/>
<path d="M95.3555 27.8484C95.5953 27.5162 95.9019 27.2375 96.2556 27.0299C96.6093 26.8223 97.0025 26.6905 97.41 26.6427C97.8176 26.5949 98.2307 26.6323 98.623 26.7524C99.0153 26.8726 99.3783 27.0728 99.6888 27.3404" stroke="#292526" stroke-width="0.5" stroke-linecap="round" stroke-linejoin="round"/>
<path d="M107.305 27.2862C107.535 26.9562 107.83 26.6764 108.172 26.4637C108.514 26.2511 108.895 26.1102 109.294 26.0495C109.692 25.9889 110.099 26.0097 110.489 26.1109C110.879 26.212 111.244 26.3913 111.562 26.6378" stroke="#292526" stroke-width="0.5" stroke-linecap="round" stroke-linejoin="round"/>
<path d="M110.565 67.4109V87.284C110.565 88.2568 111.356 89.0454 112.331 89.0454H121.388C122.363 89.0454 123.154 88.2568 123.154 87.284V67.4109C123.154 66.4381 122.363 65.6494 121.388 65.6494H112.331C111.356 65.6494 110.565 66.4381 110.565 67.4109Z" fill="#292526"/>
<path d="M114.562 68.5024C114.562 67.8698 114.05 67.3569 113.419 67.3569C112.788 67.3569 112.276 67.8698 112.276 68.5024V69.6371C112.276 70.2697 112.788 70.7826 113.419 70.7826C114.05 70.7826 114.562 70.2697 114.562 69.6371V68.5024Z" fill="white"/>
<path d="M112.168 84.1176L123.976 83.7286C124.347 83.6177 124.671 83.3877 124.897 83.0743C125.123 82.7609 125.239 82.3817 125.226 81.9958C125.214 81.6099 125.074 81.2389 124.828 80.9406C124.583 80.6422 124.245 80.4333 123.868 80.3462L112.818 80.7136L112.168 84.1176Z" fill="#F38F79"/>
<path d="M112.276 87.4892L123.695 87.1109C124.122 87.066 124.516 86.8614 124.798 86.5384C125.081 86.2154 125.23 85.7978 125.216 85.3695C125.202 84.9412 125.027 84.534 124.724 84.2296C124.422 83.9252 124.016 83.7462 123.586 83.7285L112.168 84.1175L112.276 87.4892Z" fill="#F38F79"/>
<path d="M112.396 90.7854L123.814 90.4071C124.036 90.4001 124.254 90.3494 124.456 90.2582C124.659 90.1669 124.841 90.0367 124.993 89.8752C125.145 89.7136 125.263 89.5238 125.342 89.3166C125.42 89.1093 125.457 88.8887 125.45 88.6673C125.443 88.4459 125.392 88.2281 125.3 88.0263C125.209 87.8245 125.078 87.6426 124.916 87.4911C124.754 87.3396 124.564 87.2213 124.356 87.1432C124.149 87.065 123.927 87.0284 123.706 87.0355L112.276 87.4138L112.396 90.7854Z" fill="#F38F79"/>
<path d="M112.504 94.1457L123.922 93.7675C124.144 93.7604 124.362 93.7098 124.565 93.6185C124.767 93.5272 124.949 93.3971 125.101 93.2355C125.253 93.074 125.372 92.8842 125.45 92.6769C125.528 92.4697 125.565 92.249 125.558 92.0277C125.551 91.8063 125.5 91.5885 125.409 91.3866C125.317 91.1848 125.187 91.003 125.025 90.8514C124.863 90.6999 124.672 90.5817 124.465 90.5035C124.257 90.4254 124.036 90.3888 123.814 90.3959L112.396 90.7741L112.504 94.1457Z" fill="#F38F79"/>
<path d="M108.963 94.2675L121.533 93.8516L121.087 80.4373L108.517 80.8533L108.963 94.2675Z" fill="#F38F79"/>
<path d="M109.026 94.2649L67.6211 121.551C67.6211 121.551 57.3403 109.837 61.7495 103.396L108.528 80.8757C108.528 80.8757 111.659 74.3919 113.836 75.1051C117.379 76.283 112.666 82.1725 112.666 82.1725" fill="#F38F79"/>
<path d="M68.3799 101.095L79.7116 94.9458" stroke="#292526" stroke-width="0.5" stroke-linecap="round" stroke-linejoin="round"/>
<path d="M93.7839 50.3688L108.951 49.1909C108.951 49.1909 111.269 59.7812 100.804 59.7812C91.3897 59.7812 93.7839 50.3688 93.7839 50.3688Z" fill="#F38F79"/>
<path d="M195.076 30.1069H167.397C165.075 30.1069 163.193 31.9842 163.193 34.2998V64.9037C163.193 67.2194 165.075 69.0966 167.397 69.0966H195.076C197.397 69.0966 199.279 67.2194 199.279 64.9037V34.2998C199.279 31.9842 197.397 30.1069 195.076 30.1069Z" fill="white"/>
<path d="M199.279 41.3566H163.193V34.635C163.191 34.0394 163.306 33.4492 163.532 32.8981C163.758 32.3469 164.091 31.8457 164.511 31.4231C164.932 31.0005 165.432 30.6648 165.983 30.4353C166.534 30.2057 167.125 30.0869 167.722 30.0854H194.74C195.943 30.0883 197.096 30.5663 197.947 31.4148C198.797 32.2633 199.276 33.4134 199.279 34.6134V41.3566Z" fill="#F3516D"/>
<path d="M195.076 30.1069H167.397C165.075 30.1069 163.193 31.9842 163.193 34.2998V64.9037C163.193 67.2194 165.075 69.0966 167.397 69.0966H195.076C197.397 69.0966 199.279 67.2194 199.279 64.9037V34.2998C199.279 31.9842 197.397 30.1069 195.076 30.1069Z" stroke="#292526" stroke-width="0.5" stroke-linecap="round" stroke-linejoin="round"/>
<path d="M171.968 44.166H167.386C166.626 44.166 166.01 44.7805 166.01 45.5384V50.1096C166.01 50.8675 166.626 51.482 167.386 51.482H171.968C172.728 51.482 173.344 50.8675 173.344 50.1096V45.5384C173.344 44.7805 172.728 44.166 171.968 44.166Z" fill="#C3E3F9"/>
<path d="M183.245 44.166H178.663C177.903 44.166 177.287 44.7805 177.287 45.5384V50.1096C177.287 50.8675 177.903 51.482 178.663 51.482H183.245C184.005 51.482 184.621 50.8675 184.621 50.1096V45.5384C184.621 44.7805 184.005 44.166 183.245 44.166Z" fill="#C3E3F9"/>
<path d="M194.524 44.166H189.941C189.181 44.166 188.565 44.7805 188.565 45.5384V50.1096C188.565 50.8675 189.181 51.482 189.941 51.482H194.524C195.284 51.482 195.9 50.8675 195.9 50.1096V45.5384C195.9 44.7805 195.284 44.166 194.524 44.166Z" fill="#C3E3F9"/>
<path d="M171.968 53.168H167.386C166.626 53.168 166.01 53.7824 166.01 54.5404V59.1115C166.01 59.8695 166.626 60.4839 167.386 60.4839H171.968C172.728 60.4839 173.344 59.8695 173.344 59.1115V54.5404C173.344 53.7824 172.728 53.168 171.968 53.168Z" fill="#C3E3F9"/>
<path d="M183.245 53.168H178.663C177.903 53.168 177.287 53.7824 177.287 54.5404V59.1115C177.287 59.8695 177.903 60.4839 178.663 60.4839H183.245C184.005 60.4839 184.621 59.8695 184.621 59.1115V54.5404C184.621 53.7824 184.005 53.168 183.245 53.168Z" fill="#C3E3F9"/>
<path d="M194.524 53.168H189.941C189.181 53.168 188.565 53.7824 188.565 54.5404V59.1115C188.565 59.8695 189.181 60.4839 189.941 60.4839H194.524C195.284 60.4839 195.9 59.8695 195.9 59.1115V54.5404C195.9 53.7824 195.284 53.168 194.524 53.168Z" fill="#C3E3F9"/>
<path d="M178.978 56.734L180.483 58.2361L183.484 55.2319" stroke="#F3516D" stroke-width="0.5" stroke-linecap="round" stroke-linejoin="round"/>
<path d="M178.978 47.7321L180.483 49.2342L183.484 46.23" stroke="#F3516D" stroke-width="0.5" stroke-linecap="round" stroke-linejoin="round"/>
<path d="M106.264 20.2837C108.077 20.2978 109.887 20.435 111.681 20.6943C112.136 20.9645 112.092 22.6071 111.518 22.6179C110.944 22.6287 105.668 22.0235 105.668 22.0235C105.668 22.0235 105.376 20.5322 106.264 20.2837Z" fill="#292526"/>
<path d="M100.36 20.6836C98.5569 20.9219 96.7724 21.283 95.0189 21.7642C94.5964 22.0992 94.8348 23.7202 95.4198 23.6554C96.0048 23.5905 101.151 22.3694 101.151 22.3694C101.151 22.3694 101.237 20.8133 100.36 20.6836Z" fill="#292526"/>
<path d="M87.1758 27.373C87.1758 27.373 95.3549 23.8825 94.1849 15.7236C94.1849 15.7236 87.1758 18.0578 87.1758 27.373Z" fill="#292526"/>
<path d="M89.5264 15.7235C89.5264 15.7235 105.863 20.3594 115.212 19.2788L108.203 13.4541L91.8447 14.6104" fill="#292526"/>
<path d="M88.2913 26.8433C88.2913 26.692 87.3163 26.1841 87.208 26.1084C86.5243 25.6732 85.7498 25.3996 84.9438 25.3088C82.8963 25.2007 82.6797 27.5673 83.0263 29.0694C83.4922 31.1118 85.3447 32.3113 87.1972 33.0137L89.5263 34.4078L88.2913 26.8433Z" fill="#F38F79"/>
<path d="M132.188 68.3726V95.3671" stroke="#292526" stroke-width="0.5" stroke-linecap="round" stroke-linejoin="round"/>
<path d="M197.785 96.167H122.634C120.911 96.167 119.514 97.5604 119.514 99.2792V122.47C119.514 124.189 120.911 125.582 122.634 125.582H197.785C199.508 125.582 200.905 124.189 200.905 122.47V99.2792C200.905 97.5604 199.508 96.167 197.785 96.167Z" fill="white" stroke="#292526" stroke-width="0.5" stroke-linecap="round" stroke-linejoin="round"/>
<path d="M186.799 104.996H153.075C151.801 104.996 150.768 106.026 150.768 107.297V107.481C150.768 108.752 151.801 109.783 153.075 109.783H186.799C188.074 109.783 189.107 108.752 189.107 107.481V107.297C189.107 106.026 188.074 104.996 186.799 104.996Z" fill="#C3E3F9"/>
<path d="M186.799 112.874H153.075C151.801 112.874 150.768 113.904 150.768 115.175V115.359C150.768 116.63 151.801 117.661 153.075 117.661H186.799C188.074 117.661 189.107 116.63 189.107 115.359V115.175C189.107 113.904 188.074 112.874 186.799 112.874Z" fill="#C3E3F9"/>
<path d="M137.204 118.525C141.111 118.525 144.278 115.366 144.278 111.469C144.278 107.571 141.111 104.412 137.204 104.412C133.297 104.412 130.13 107.571 130.13 111.469C130.13 115.366 133.297 118.525 137.204 118.525Z" fill="#2ABE77"/>
<path d="M133.673 111.804L135.688 113.814L140.747 107.762" stroke="white" stroke-width="0.5" stroke-linecap="round" stroke-linejoin="round"/>
</svg>
