<svg width="116" height="105" viewBox="0 0 116 105" fill="none" xmlns="http://www.w3.org/2000/svg">
<path d="M74.6859 43.535C80.4339 43.535 85.0936 38.8529 85.0936 33.0772C85.0936 27.3015 80.4339 22.6194 74.6859 22.6194C68.938 22.6194 64.2783 27.3015 64.2783 33.0772C64.2783 38.8529 68.938 43.535 74.6859 43.535Z" fill="#292526"/>
<path d="M61.0231 1.98359L57.8083 2.53169C51.3833 3.62712 47.0586 9.74874 48.1487 16.2047L49.4962 24.1846C50.5864 30.6406 56.6787 34.9862 63.1037 33.8908L66.3185 33.3427C72.7435 32.2472 77.0682 26.1256 75.978 19.6696L74.6305 11.6897C73.5404 5.23375 67.4481 0.888165 61.0231 1.98359Z" fill="#292526"/>
<path d="M73.4137 39.3383L60.4078 41.56L58.1149 31.551L57.8394 30.3392L57.6533 29.5238L62.9465 27.4591L68.7831 25.1851L71.21 32.6132L73.4137 39.3383Z" fill="#F1AD8D"/>
<path d="M71.2095 32.6131C66.1248 33.0619 59.9308 31.5733 58.0324 31.1843L57.8389 30.339L62.9459 27.459L68.7825 25.2148L71.2095 32.6131Z" fill="#CF7C69"/>
<path d="M63.05 31.0798C60.3954 31.5327 57.6705 30.9076 55.4744 29.3421C53.2784 27.7766 51.7911 25.3988 51.3395 22.7315L49.8506 9.95477L67.3604 7.03735L71.3359 19.3129C71.787 21.977 71.168 24.7121 69.6146 26.9181C68.0612 29.1241 65.7003 30.6208 63.05 31.0798Z" fill="#F1AD8D"/>
<path d="M64.0839 18.7002C64.1195 18.1312 63.6894 17.6409 63.1231 17.6051C62.5568 17.5693 62.0689 18.0015 62.0333 18.5706C61.9976 19.1396 62.4278 19.6299 62.9941 19.6656C63.5604 19.7014 64.0483 19.2692 64.0839 18.7002Z" fill="#292526"/>
<path d="M56.3721 20.3452C56.9395 20.3452 57.3995 19.883 57.3995 19.3128C57.3995 18.7427 56.9395 18.2805 56.3721 18.2805C55.8047 18.2805 55.3447 18.7427 55.3447 19.3128C55.3447 19.883 55.8047 20.3452 56.3721 20.3452Z" fill="#292526"/>
<path d="M70.2119 16.0888C70.2119 15.9841 70.8 15.4829 70.867 15.4156C71.2868 15.0053 71.7969 14.7003 72.356 14.5254C73.7853 14.1513 74.2692 15.7971 74.2469 16.9042C74.2097 18.4003 73.0855 19.5299 71.887 20.2854C71.887 20.2854 71.4775 20.5098 71.4849 20.5173L70.2119 16.0888Z" fill="#F1AD8D"/>
<path d="M57.928 16.2382C58.0695 15.954 57.8238 15.6921 57.5111 15.7595C56.7666 15.924 54.9799 16.3654 54.5332 17.076C54.4141 17.2481 53.9228 18.0111 54.4439 17.9363C54.7078 17.8461 54.9582 17.7203 55.1884 17.5623C55.7244 17.293 56.2827 17.0985 56.8262 16.8666C57.1091 16.7394 57.727 16.5674 57.9206 16.3055C57.9255 16.2834 57.928 16.2609 57.928 16.2382Z" fill="#292526"/>
<path d="M61.1742 16.0513C61.1235 16.0042 61.0885 15.9427 61.0739 15.8749C61.0594 15.8072 61.066 15.7366 61.0929 15.6727C61.1198 15.6089 61.1656 15.555 61.2241 15.5183C61.2826 15.4816 61.351 15.464 61.4199 15.4678C62.2165 15.378 64.0106 15.2359 64.6955 15.752C64.8593 15.8867 65.5666 16.4552 65.0529 16.545C64.7706 16.5461 64.4897 16.5058 64.2191 16.4253C63.6235 16.343 63.0354 16.3355 62.4472 16.2832C62.0347 16.3086 61.6215 16.2474 61.2338 16.1036L61.1742 16.0513Z" fill="#292526"/>
<path d="M60.8541 24.1678C60.5867 24.234 60.3086 24.2442 60.0371 24.1979C59.7656 24.1515 59.5065 24.0497 59.2758 23.8985C59.1229 23.7639 59.0198 23.5812 58.9833 23.3802C58.9468 23.1792 58.979 22.9716 59.0748 22.7914C59.5438 21.4973 58.8738 18.1086 58.8664 18.0712C58.8576 18.0246 58.8676 17.9764 58.8941 17.9371C58.9206 17.8979 58.9615 17.8708 59.0078 17.8617C59.0309 17.8563 59.0548 17.8557 59.0781 17.86C59.1013 17.8644 59.1235 17.8735 59.1431 17.8869C59.1626 17.9002 59.1793 17.9175 59.1919 17.9376C59.2045 17.9578 59.2128 17.9803 59.2163 18.0039C59.2163 18.146 59.9161 21.5197 59.4098 22.9186C59.2907 23.2402 59.3205 23.4721 59.5066 23.6217C59.8027 23.7783 60.1323 23.8602 60.467 23.8602C60.8016 23.8602 61.1312 23.7783 61.4273 23.6217C61.4695 23.6012 61.5176 23.5967 61.5627 23.6091C61.6079 23.6215 61.6471 23.6499 61.673 23.6891C61.6846 23.7101 61.6919 23.7333 61.6945 23.7572C61.697 23.7811 61.6948 23.8053 61.6878 23.8283C61.6809 23.8514 61.6694 23.8728 61.6541 23.8912C61.6387 23.9097 61.6199 23.9249 61.5986 23.9359C61.364 24.052 61.1128 24.1302 60.8541 24.1678Z" fill="#292526"/>
<path d="M80.1875 66.6869H80.2694C80.3305 66.6649 80.3804 66.6195 80.4083 66.5607C80.4362 66.5018 80.4398 66.4342 80.4183 66.3727C80.4183 66.2755 77.0459 56.4012 76.8225 48.7112C76.8216 48.6788 76.8142 48.6468 76.801 48.6173C76.7878 48.5877 76.7688 48.561 76.7453 48.5388C76.7218 48.5165 76.6942 48.4992 76.664 48.4877C76.6338 48.4762 76.6017 48.4708 76.5694 48.4718C76.5371 48.4728 76.5054 48.4801 76.4759 48.4934C76.4465 48.5067 76.42 48.5257 76.3978 48.5494C76.3757 48.573 76.3584 48.6007 76.347 48.6311C76.3356 48.6614 76.3302 48.6937 76.3312 48.7261C76.5545 56.4909 79.9195 66.4326 79.9493 66.5298C79.9687 66.577 80.0018 66.6172 80.0443 66.6453C80.0868 66.6733 80.1367 66.6878 80.1875 66.6869Z" fill="#292526"/>
<path d="M82.667 35.6503L49.9552 35.5755C49.5215 35.5728 49.095 35.6874 48.7204 35.9071C48.3458 36.1269 48.0369 36.4438 47.826 36.8247L44.2377 43.3403C42.1164 47.1136 40.9005 51.3323 40.6866 55.6607C40.6097 57.1354 40.6521 58.6139 40.8132 60.0817C40.8132 60.1715 40.8132 60.2613 40.8504 60.351L44.9822 80.6532C45.0941 81.1993 45.3884 81.6906 45.8163 82.0457C46.2441 82.4008 46.7798 82.5984 47.3347 82.6056L80.1284 83.0695C80.7559 83.0801 81.3631 82.846 81.8226 82.4164C82.282 81.9868 82.558 81.3951 82.5926 80.7654L85.0642 38.2386C85.0844 37.9085 85.0376 37.5777 84.9266 37.2663C84.8156 36.955 84.6427 36.6696 84.4185 36.4275C84.1942 36.1853 83.9233 35.9916 83.6222 35.858C83.3211 35.7244 82.9962 35.6537 82.667 35.6503Z" fill="#F3516D"/>
<path d="M85.7938 36.2861C89.8884 37.9617 90.0522 43.1981 89.196 46.7588L82.7862 81.5508C82.146 84.0568 79.6222 85.6277 76.5774 85.4033C72.2669 85.0891 68.7232 81.3863 69.2146 77.7058L75.0512 40.7894C75.7435 36.4207 80.8655 34.2813 85.7938 36.301V36.2861Z" fill="#F1AD8D"/>
<path opacity="0.29" d="M67.748 23.5094C69.0144 23.5094 70.041 22.4778 70.041 21.2054C70.041 19.9329 69.0144 18.9014 67.748 18.9014C66.4817 18.9014 65.4551 19.9329 65.4551 21.2054C65.4551 22.4778 66.4817 23.5094 67.748 23.5094Z" fill="#F3516D"/>
<path opacity="0.29" d="M55.4416 25.5965C56.5312 25.5965 57.4144 24.709 57.4144 23.6142C57.4144 22.5194 56.5312 21.6318 55.4416 21.6318C54.352 21.6318 53.4688 22.5194 53.4688 23.6142C53.4688 24.709 54.352 25.5965 55.4416 25.5965Z" fill="#F3516D"/>
<path d="M80.2101 72.9033C80.2101 72.9033 86.0988 78.6185 87.9972 104L34.82 103.843C34.82 103.843 34.5223 86.301 41.8329 76.0302C41.8329 76.0302 65.827 91.2082 80.2101 72.9033Z" fill="#F3516D"/>
<path d="M67.5169 6.90259L67.8222 12.4157C67.8222 12.4157 61.5166 13.5827 61.3081 13.1638L60.7572 10.0893L60.6753 13.3583C60.6753 13.3583 58.9258 14.1064 58.0473 13.7548L56.3276 10.6429L56.5063 14.0989C56.5063 14.0989 51.7194 16.0737 50.4389 14.9517L49.5977 9.97709L67.5169 6.90259Z" fill="#292526"/>
<path d="M42.585 68.8416L77.1803 69.3951C80.4932 69.4849 83.3966 71.9684 83.5232 75.1925C83.5433 76.0113 83.3987 76.8257 83.0979 77.5869C82.7971 78.3482 82.3465 79.0405 81.7729 79.6224C81.1993 80.2044 80.5147 80.6639 79.7601 80.9734C79.0054 81.283 78.1963 81.4362 77.3813 81.4238C66.058 81.4238 41.4088 77.1973 40.3516 77.0701C38.885 76.8981 42.585 68.8416 42.585 68.8416Z" fill="#F1AD8D"/>
<path d="M27.5546 72.8588C27.6366 72.5595 27.8324 72.3047 28.0999 72.1493C28.3673 71.9939 28.6849 71.9505 28.9839 72.0285L33.205 73.2478L27.2493 71.3103C26.962 71.2201 26.7222 71.0188 26.5826 70.7509C26.443 70.4829 26.415 70.1702 26.5049 69.8816C26.5947 69.5929 26.795 69.3519 27.0616 69.2116C27.3283 69.0713 27.6395 69.0432 27.9268 69.1335L33.3837 70.9812L27.1153 68.565C26.8642 68.4425 26.6666 68.2316 26.56 67.9724C26.4534 67.7132 26.4452 67.4236 26.5371 67.1587C26.6289 66.8939 26.8144 66.6721 27.0582 66.5356C27.302 66.399 27.5873 66.3572 27.8598 66.4181L34.2101 68.7969L29.0807 66.5901C28.943 66.5321 28.818 66.4473 28.7131 66.3406C28.6081 66.2339 28.5252 66.1073 28.4692 65.9682C28.4131 65.8292 28.385 65.6803 28.3865 65.5303C28.3879 65.3802 28.4189 65.232 28.4777 65.094C28.5326 64.9529 28.6149 64.8242 28.7198 64.7154C28.8246 64.6065 28.9499 64.5196 29.0884 64.4598C29.2269 64.3999 29.3758 64.3683 29.5266 64.3668C29.6774 64.3652 29.8269 64.3937 29.9666 64.4507L38.5726 67.3905L38.0887 66.8594C38.8332 66.3283 39.7414 65.9692 40.5678 65.5054C41.0826 65.9197 41.6221 66.3019 42.1833 66.65C43.97 67.8169 46.263 69.1335 46.263 69.1335L44.0296 77.781L34.56 75.8884L28.3511 74.2951C28.0588 74.2064 27.8122 74.007 27.6636 73.7389C27.5149 73.4709 27.4758 73.1553 27.5546 72.8588Z" fill="#F1AD8D"/>
<path d="M37.8278 66.5899L37.2174 65.9316L36.8451 65.5277C35.3562 63.3882 36.3017 62.2287 36.6888 61.9819C36.7484 61.9819 36.793 61.9295 36.8079 61.937C38.0405 62.9874 39.2112 64.1089 40.3144 65.2958C40.4026 65.3848 40.4971 65.4674 40.5973 65.5426C39.7709 66.0064 38.8924 66.3655 38.1182 66.8966L37.8278 66.5899Z" fill="#F1AD8D"/>
<path d="M59.5738 32.3366L62.8941 37.8946C63.3557 37.8946 64.599 38.6427 62.7006 41.4329L44.6696 64.6226C43.6783 65.811 42.2794 66.5825 40.7494 66.7847C39.2193 66.9869 37.6695 66.6051 36.4061 65.7147C35.7503 65.2283 35.1994 64.6134 34.7868 63.9071C34.3742 63.2008 34.1083 62.4177 34.0054 61.6053C33.9024 60.7928 33.9644 59.9678 34.1876 59.1801C34.4109 58.3924 34.7907 57.6584 35.3042 57.0223C42.5107 48.0457 60.0056 31.8877 59.5738 32.3366Z" fill="#F1AD8D"/>
<path d="M50.603 33.7502L47.0519 30.5635C46.8798 30.3718 46.7726 30.1302 46.7459 29.8735C46.7191 29.6167 46.7741 29.358 46.9031 29.1347C47.32 28.656 47.8187 28.843 48.2952 29.2694L52.4791 33.249L47.8039 28.4091C47.5896 28.1968 47.4681 27.9077 47.466 27.6054C47.4639 27.3031 47.5814 27.0123 47.7927 26.797C48.004 26.5818 48.2917 26.4597 48.5925 26.4576C48.8934 26.4555 49.1828 26.5735 49.397 26.7858L54.169 31.6257L50.4467 27.4665C50.2703 27.2395 50.1856 26.954 50.2094 26.667C50.2333 26.38 50.3639 26.1125 50.5753 25.918C50.7868 25.7235 51.0634 25.6163 51.35 25.6177C51.6366 25.6191 51.9122 25.729 52.1218 25.9256L58.7103 32.2167L58.4869 31.536C59.4175 31.3863 60.363 31.4238 61.301 31.3564C61.5169 31.8053 61.8817 32.4187 62.2912 33.077C63.4302 34.8872 63.7801 38.9866 63.7801 38.9866L57.4 40.7744L56.8938 40.565L48.8461 34.6553C48.3771 34.2963 47.5656 33.1592 47.7294 32.5907C48.2356 30.8403 50.603 33.7502 50.603 33.7502Z" fill="#F1AD8D"/>
<path d="M58.3823 31.1395L58.1068 30.2792L57.9356 29.7556C57.4591 27.1822 58.8215 26.5314 59.2756 26.4716C59.3164 26.4561 59.3614 26.4561 59.4022 26.4716C60.0788 27.9329 60.6728 29.4314 61.1815 30.9599C61.2187 31.0572 61.2708 31.1769 61.3304 31.3115C60.3923 31.3788 59.4469 31.3115 58.5163 31.491L58.3823 31.1395Z" fill="#F1AD8D"/>
<path d="M58.7326 32.3365L52.4642 26.1725C52.1881 25.9116 51.8233 25.7664 51.4443 25.7664C51.0653 25.7664 50.7005 25.9116 50.4244 26.1725L50.0596 26.4867L50.0149 26.6587C50.2175 27.1568 50.5337 27.6001 50.9381 27.9529L53.8564 31.2144L49.6576 27.0253C49.536 26.903 49.3906 26.8073 49.2306 26.7441C49.0705 26.6809 48.8992 26.6515 48.7273 26.6578C48.5554 26.6641 48.3867 26.706 48.2317 26.7808C48.0766 26.8556 47.9386 26.9618 47.8262 27.0926V27.0926C47.663 27.2696 47.5723 27.5021 47.5723 27.7434C47.5723 27.9847 47.663 28.2172 47.8262 28.3942L52.293 33.0396" stroke="#292526" stroke-width="0.5" stroke-linecap="round" stroke-linejoin="round"/>
<path d="M58.6052 32.187L56.692 29.0526C56.569 28.8516 56.5082 28.6184 56.5175 28.3826C56.5268 28.1468 56.6057 27.9192 56.7441 27.7285V27.7285C56.8488 27.5816 56.9856 27.4607 57.1441 27.3752C57.3026 27.2897 57.4784 27.2419 57.6582 27.2354C57.838 27.2289 58.0168 27.2639 58.181 27.3377C58.3452 27.4115 58.4903 27.5222 58.6052 27.6612L61.7469 32.1496C63.1163 34.146 63.8249 36.5252 63.7718 38.9494" stroke="#292526" stroke-width="0.5" stroke-linecap="round" stroke-linejoin="round"/>
<path d="M46.2927 69.1705L37.7611 62.7896C37.4734 62.575 37.1141 62.4808 36.7586 62.5268C36.4032 62.5728 36.0794 62.7555 35.8553 63.0365C35.6365 63.3135 35.5302 63.6634 35.5579 64.0159C35.5855 64.3685 35.745 64.6974 36.0042 64.9365L37.8281 66.5897L31.1279 64.9889" stroke="#292526" stroke-width="0.5" stroke-linecap="round" stroke-linejoin="round"/>
<path d="M40.3516 77.0703L67.5171 81.0425" stroke="#292526" stroke-width="0.5" stroke-linecap="round" stroke-linejoin="round"/>
<path d="M63.0351 25.9034C61.8398 26.5716 60.4327 26.746 59.1117 26.3897C59.0822 26.382 59.0547 26.3677 59.0315 26.3478C59.0083 26.3279 58.9899 26.3029 58.9777 26.2748C58.9655 26.2467 58.9598 26.2162 58.9611 26.1855C58.9624 26.1549 58.9706 26.1249 58.9852 26.0979C59.283 25.6042 60.3103 24.4373 63.0127 25.4995C63.0542 25.513 63.0905 25.5388 63.1171 25.5735C63.1437 25.6082 63.1592 25.6501 63.1616 25.6938C63.164 25.7375 63.1532 25.7809 63.1307 25.8183C63.1081 25.8557 63.0748 25.8854 63.0351 25.9034Z" fill="white"/>
<path d="M114.999 80.7356H0.999023V91.343H114.999V80.7356Z" fill="white" stroke="#292526" stroke-width="0.5" stroke-linecap="round" stroke-linejoin="round"/>
<path d="M24.3012 66.7471C24.3012 66.6723 23.7503 59.2666 23.8694 51.3746C24.0332 40.655 25.2913 34.117 27.5917 31.9252C28.0573 31.4202 28.6439 31.0436 29.2956 30.8314C29.9473 30.6193 30.6423 30.5786 31.3141 30.7133C35.4682 31.6409 38.647 39.4581 38.7587 39.7872L37.9398 40.1164C37.375 38.7209 36.7055 37.3705 35.9372 36.0769C34.3143 33.4512 32.6615 31.8803 31.1503 31.5512C30.6181 31.4475 30.0683 31.484 29.5543 31.657C29.0404 31.83 28.5797 32.1337 28.2171 32.5386C26.1028 34.5808 24.8819 41.0515 24.7479 51.3746C24.6288 59.2441 25.1722 66.59 25.1797 66.6648L24.3012 66.7471Z" fill="#2ABE77"/>
<path d="M30.5319 30.6984C29.4475 30.7344 28.4195 31.1932 27.6658 31.9775C25.3579 34.1469 24.1072 40.6624 23.9434 51.3596C23.8318 58.8402 24.3157 65.8494 24.3678 66.6499L25.1122 66.59C25.0527 65.7896 24.5762 58.8252 24.6879 51.3746C24.8442 41.029 26.0503 34.5134 28.1794 32.5161C28.5479 32.1053 29.0154 31.7966 29.5369 31.6197C30.0584 31.4429 30.6164 31.4038 31.1573 31.5063C32.6462 31.8429 34.3511 33.4213 35.9814 36.0619C36.7568 37.3291 37.4386 38.6517 38.0213 40.0191L38.6987 39.7423C38.3488 38.897 35.2742 31.6708 31.3136 30.7657C31.0562 30.7153 30.7942 30.6927 30.5319 30.6984Z" fill="#2ABE77"/>
<path d="M22.2612 65.4829L23.0056 65.5427C23.0577 64.7947 23.43 59.2815 23.3406 53.3569C23.3236 50.2427 23.0923 47.1333 22.6483 44.0511C22.1421 40.8644 21.3827 38.8148 20.333 37.8498C19.9603 37.4463 19.4908 37.1458 18.9694 36.9768C18.448 36.8078 17.8922 36.7762 17.3551 36.8848C14.1763 37.588 11.727 43.3106 11.3994 44.0511L12.0769 44.3279C12.544 43.2483 13.0915 42.2055 13.7147 41.2085C15.0101 39.114 16.3278 37.8647 17.5264 37.5954C17.9498 37.5154 18.3867 37.5463 18.7948 37.6852C19.2029 37.8241 19.5686 38.0663 19.8565 38.3884C21.0254 39.488 22.4547 42.9739 22.6111 53.3495C22.6855 59.2666 22.3133 64.7797 22.2612 65.4829Z" fill="#2ABE77"/>
<path d="M5.62936 48.6066C6.03137 48.6066 6.06115 48.6589 6.08349 48.6889C6.09617 48.7048 6.10308 48.7246 6.10308 48.745C6.10308 48.7653 6.09617 48.7851 6.08349 48.8011C5.90481 49.0404 5.37624 49.1377 4.76578 49.2574C4.15532 49.3771 3.23218 49.5491 3.20985 49.9381C3.12796 51.2622 3.10562 52.5413 3.12051 53.7457C3.12051 53.7457 3.12051 53.7457 3.23218 53.8055C3.97722 53.8691 4.72718 53.8415 5.46558 53.7233C7.17041 53.4988 7.28208 53.2669 7.28952 53.2295C7.29697 53.1921 7.28952 53.0276 7.28952 52.8555C7.28952 51.6885 7.37141 51.3594 7.51286 51.2921C7.53137 51.2828 7.55175 51.278 7.57242 51.278C7.59308 51.278 7.61346 51.2828 7.63197 51.2921C7.82554 51.4342 7.89254 52.2945 7.89998 52.5563C7.90743 52.8181 7.95954 53.05 8.04143 53.1098C8.12332 53.1697 8.2871 53.1099 8.51044 53.05L8.87523 52.9528C9.82815 52.7358 9.85048 52.7283 9.83559 51.6661C9.83559 51.5614 9.83559 51.3818 9.76859 51.1649C9.66437 50.4917 9.59736 49.9531 9.76859 49.7511C9.77944 49.732 9.79637 49.7172 9.81665 49.7091C9.83692 49.701 9.85934 49.6999 9.88026 49.7062C9.93982 49.7062 10.0143 49.7586 10.1632 50.155C10.2154 50.287 10.2602 50.4219 10.2972 50.559C10.3373 50.7386 10.3622 50.9212 10.3716 51.1051C10.3716 51.3818 10.4461 51.726 10.4907 51.9953C10.5652 52.3842 10.6247 52.4665 10.6396 52.4815L10.8108 52.4366C11.0193 52.3768 11.3766 52.287 11.6744 52.1748C12.1285 51.9952 12.1658 51.883 12.1658 51.8531C12.1658 50.7236 12.0988 49.8708 12.0094 49.0853C11.9935 48.9645 11.9711 48.8447 11.9424 48.7263C11.6744 47.3723 11.6446 46.9534 11.801 46.8935C11.9573 46.8337 11.9797 46.9534 12.0541 47.0581C12.7167 48.3094 12.9768 49.7364 12.7986 51.1425C12.7986 51.2696 12.7986 51.4342 12.8953 51.4866C12.9921 51.5389 13.2676 51.4866 13.5877 51.2696C14.1758 50.8881 14.6746 50.2972 14.6523 50.1401C14.5329 48.5598 14.2434 46.9972 13.7887 45.4797C13.7143 45.2553 13.6473 45.0533 13.61 44.8962C13.5058 44.4923 13.5356 44.3801 13.61 44.3427C13.6845 44.3053 13.8185 44.3427 14.012 44.6194C14.7707 45.727 15.2206 47.0185 15.3149 48.3597C15.3149 48.7188 15.4191 48.8534 15.4861 48.8534C15.5531 48.8534 15.7392 48.8534 16.2306 47.8061C16.4665 47.3242 16.6632 46.8239 16.8187 46.31C16.9514 45.8395 16.9788 45.3454 16.899 44.8629C16.8192 44.3805 16.6342 43.9218 16.3571 43.5198C15.8062 42.7194 15.0841 41.9115 13.9302 41.9564H13.8632C13.1187 41.9564 12.9623 41.4028 12.8283 40.8118C12.7887 40.6004 12.7314 40.3927 12.6571 40.191C12.5868 40.0004 12.4806 39.8251 12.3444 39.6748C11.1384 38.4405 10.111 37.8645 9.12091 37.9393C8.13077 38.0141 7.42352 38.5677 6.61206 39.6748C6.61206 39.7272 6.61206 39.7496 6.61206 39.7646C6.70884 39.9366 7.52775 39.9815 7.76598 39.9665C8.34146 39.9694 8.9125 40.0679 9.45591 40.2583L9.84304 40.3705H10.0068C10.5503 40.4677 10.796 40.5351 10.8034 40.6697C10.8108 40.8044 10.662 40.8343 10.5949 40.8567C10.0279 41.036 9.41748 41.0202 8.86034 40.8118C8.43092 40.6684 7.98018 40.6 7.52775 40.6099H7.12574C6.6195 40.6099 5.76337 40.565 5.5698 40.7744C5.04305 41.3541 4.6312 42.0295 4.35633 42.7643C4.19999 43.1832 4.24466 43.2804 4.26699 43.2954C4.28932 43.3103 4.59456 43.258 4.80301 43.1682L5.13057 43.0485C5.8806 42.7712 6.66954 42.6146 7.46819 42.5847C8.05579 42.572 8.64086 42.6657 9.19535 42.8615C9.19535 42.8615 9.67925 43.056 9.67181 43.243C9.67053 43.2739 9.65873 43.3033 9.6384 43.3265C9.61807 43.3496 9.59044 43.3651 9.56014 43.3702C9.26865 43.4377 8.96571 43.4377 8.67423 43.3702C8.51175 43.3441 8.34741 43.3316 8.18288 43.3328C7.49656 43.3613 6.81275 43.4338 6.1356 43.5497C5.54003 43.647 4.92212 43.7667 4.25954 43.9088C3.7682 44.0135 3.67142 44.9187 3.59697 45.5769C3.59697 45.6742 3.59697 45.7789 3.59697 45.8612C3.88731 45.7939 4.63178 45.6592 5.34647 45.5695C7.11829 45.3301 7.28952 45.5096 7.34908 45.5695C7.37321 45.5917 7.38979 45.621 7.39647 45.6532C7.40315 45.6854 7.39959 45.7189 7.3863 45.749C7.30441 45.936 6.86518 45.9959 6.02393 46.0333H5.67403L5.19013 46.1081C4.40099 46.2278 3.50019 46.3549 3.39596 47.2227C3.33641 47.7463 3.27685 48.2999 3.23218 48.8684C3.23218 48.9207 3.23218 48.9282 3.23218 48.9357C3.23218 48.9432 3.8352 48.816 4.02132 48.7337L4.19254 48.6739C4.49115 48.6305 4.79184 48.603 5.09335 48.5916L5.62936 48.6066Z" fill="#2ABE77"/>
<path d="M17.2137 47.9783C17.2475 47.4754 17.3911 46.9861 17.6343 46.5453C17.8775 46.1044 18.2143 45.7228 18.6207 45.4274C19.5662 44.7467 20.4894 44.3427 21.5242 44.7616C21.6641 44.8445 21.8271 44.8791 21.9884 44.8602C22.1496 44.8413 22.3004 44.7699 22.4175 44.6569C22.8419 44.2829 23.0578 43.4675 23.7352 43.1608C26.259 41.919 28.3137 41.919 29.2815 45.1432C29.4304 45.6443 28.135 45.188 28.0085 45.1432C27.3338 44.9309 26.631 44.8224 25.924 44.8215C25.7527 44.8215 24.6063 44.5522 25.0827 44.9262C26.0952 45.7192 26.8694 45.2329 28.0606 45.7192C28.4254 45.8688 29.7431 46.1829 29.9068 46.5719C30.2207 47.3102 30.3876 48.1031 30.3982 48.9059C30.3982 50.0279 29.9441 49.3547 29.4527 48.9732C28.8362 48.4642 28.1458 48.053 27.4054 47.7539C26.8605 47.5465 26.2833 47.4376 25.7006 47.4322C25.6634 47.4322 25.0083 47.4846 25.2316 47.6566C25.6419 47.8576 26.0778 48.0011 26.527 48.083C27.1725 48.3406 27.7993 48.643 28.403 48.9882C28.9688 49.2949 29.5197 49.624 30.0706 49.9681C30.6215 50.3122 30.1972 51.6363 30.0706 52.2571C29.892 52.0926 26.5121 50.1551 26.5344 50.761C26.5344 51.0303 27.8372 51.4642 28.0233 51.5764C28.805 52.0327 30.0706 52.4516 29.8175 53.5588C29.6984 54.0974 29.5644 54.636 29.4229 55.1746C29.3113 55.5935 28.5594 54.7781 28.4402 54.6958C28.3211 54.6135 26.728 53.8954 26.7875 54.0899C26.9811 54.6958 29.3634 55.4364 29.14 56.1919C28.7827 57.4187 28.3956 58.6455 27.9415 59.8424C27.9415 59.9097 27.8149 59.9247 27.6734 59.9023C26.96 59.6738 26.2735 59.3678 25.6262 58.9896C25.3805 58.8625 23.9139 58.1219 23.9883 57.7928C24.033 57.5983 24.5914 56.0647 24.4425 55.9525C24.2936 55.8403 23.7873 56.9325 23.7576 57.0073C23.4002 57.8601 23.2588 57.5234 22.5887 57.0896C21.7326 56.536 21.6954 56.4911 22.0825 55.4439C22.2016 55.1222 22.9089 54.045 22.827 53.7084C22.7674 53.5139 22.1942 54.2993 22.1793 54.3143C22.0081 54.5686 21.3306 56.2144 21.1073 56.0498C20.8839 55.8852 19.7226 55.1521 19.8417 54.8379C20.1692 53.9627 20.5191 53.095 20.9211 52.2571C21.0254 52.0402 22.4101 49.8709 21.6656 50.4169C20.6149 51.3579 19.8834 52.6056 19.5737 53.9852C19.2238 55.2568 17.8242 52.7284 18.0028 52.3469C18.6552 50.8724 19.4639 49.473 20.4149 48.1728C20.6085 47.9259 21.4721 46.8263 20.5936 47.4247C19.5061 48.2166 18.6521 49.2893 18.122 50.5291C17.3105 52.1823 17.1467 48.6815 17.2137 47.9783Z" fill="#2ABE77"/>
<path d="M46.3884 46.8861C46.3884 46.9459 46.3437 46.9833 46.2767 47.0207C45.7631 47.275 43.5669 47.0207 43.2989 46.9534C43.0309 46.8861 40.9315 46.6542 40.8794 46.2053C40.8794 45.9585 40.8794 43.9612 40.6486 43.8564C40.4178 43.7517 40.2912 45.2777 40.2838 45.3526C40.2242 46.4971 39.919 46.1679 38.9438 45.936C37.7154 45.6518 37.6558 45.6144 37.6707 44.223C37.6707 43.7891 38.0578 42.2332 37.7973 41.8816C37.6484 41.6796 37.2985 42.8391 37.291 42.869C37.1943 43.2356 37.0826 45.4498 36.755 45.3451C36.4275 45.2403 34.7599 44.8738 34.7673 44.4549C34.7673 43.2954 34.8343 42.1284 34.9609 40.9764C34.9609 40.6847 35.7053 37.5578 35.0874 38.5004C34.1568 39.8917 34.0005 41.8741 34.1196 43.5647C34.2387 45.2553 31.581 42.8915 31.581 42.3678C31.7318 40.3639 32.0988 38.3824 32.6754 36.4582C32.8019 36.0842 33.3528 34.4384 32.5562 35.4633C31.6049 36.8447 31.0487 38.4617 30.9482 40.1386C30.7323 42.4426 29.087 38.4106 28.8711 37.5578C28.7037 36.9531 28.6703 36.3189 28.7732 35.6998C28.8761 35.0807 29.1128 34.4919 29.4667 33.9746C30.2856 32.7852 31.2088 31.925 32.5935 31.9773C32.8745 32.0095 33.157 31.9318 33.3826 31.7604C33.9856 31.2368 33.7474 29.9351 34.5142 29.1497C36.956 26.6287 39.3607 25.776 41.8397 29.1497C42.2194 29.6658 40.5071 29.6733 40.3508 29.6658C39.4713 29.6956 38.602 29.8648 37.7749 30.167C37.5739 30.2194 36.1222 30.3989 36.8369 30.6383C38.3259 31.1395 39.0703 30.2493 40.6635 30.3167C41.1399 30.3167 42.8224 30.1596 43.1798 30.5485C43.8589 31.2832 44.3876 32.1448 44.7357 33.0845C45.2419 34.3935 44.3858 33.8325 43.6562 33.5707C42.7214 33.2287 41.7394 33.0344 40.7454 32.9947C40.0207 32.9782 39.2992 33.0949 38.6162 33.3388C38.6162 33.3388 37.8717 33.6829 38.1546 33.7951C38.7199 33.8548 39.2906 33.8397 39.852 33.7502C40.7184 33.7828 41.5815 33.8753 42.4353 34.027C43.2244 34.1542 44.0061 34.3038 44.7953 34.4758C45.5844 34.6479 45.6365 36.3759 45.7631 37.1464C45.4876 37.0342 40.7156 36.1814 40.9762 36.8397C41.1027 37.1464 42.7926 37.1165 43.0532 37.1688C44.1625 37.3858 45.8152 37.3409 45.9864 38.7397C46.0658 39.428 46.1328 40.1162 46.1874 40.8044C46.2321 41.3355 45.0186 40.7071 44.8399 40.6622C44.6613 40.6174 42.4949 40.4378 42.6512 40.6622C43.1277 41.2831 46.2246 41.156 46.2767 42.1584C46.3735 43.6993 46.4107 45.3002 46.3884 46.8861Z" fill="#2ABE77"/>
<path d="M3.29198 53.8281C5.0186 50.63 7.20615 47.706 9.78372 45.1507C10.9475 43.964 12.1912 42.8593 13.506 41.8443L13.4614 41.7844C12.1468 42.8025 10.9032 43.9097 9.73905 45.0983C7.157 47.6589 4.96458 50.5878 3.23242 53.7907L3.29198 53.8281Z" fill="white" stroke="#292526" stroke-width="0.5" stroke-linecap="round" stroke-linejoin="round"/>
<path d="M27.6582 59.7676H27.7326C27.101 55.895 26.0087 52.1127 24.4793 48.5019C23.928 47.1832 23.2655 45.9144 22.499 44.7092L22.4395 44.7541C23.2055 45.94 23.8656 47.1916 24.4123 48.4944C25.9407 52.1076 27.0305 55.8925 27.6582 59.7676Z" fill="white" stroke="#292526" stroke-width="0.5" stroke-linecap="round" stroke-linejoin="round"/>
<path d="M46.248 47.0357H46.315C44.1101 42.8273 41.2838 38.9786 37.9324 35.6203C36.5564 34.1983 35.062 32.8969 33.4656 31.7305L33.4209 31.7903C35.0154 32.9564 36.5096 34.2551 37.8877 35.6727C41.2295 39.0144 44.0482 42.8456 46.248 47.0357Z" fill="white" stroke="#292526" stroke-width="0.5" stroke-linecap="round" stroke-linejoin="round"/>
<path d="M24.0324 80.6682C18.8956 80.6682 14.7266 77.4591 14.7266 73.5094V60.5605H33.3382V73.4794C33.3456 77.4591 29.1766 80.6682 24.0324 80.6682Z" fill="#FFC200"/>
<path d="M16.0373 91.3579H6.91016V103.858H16.0373V91.3579Z" fill="white" stroke="#292526" stroke-width="0.5" stroke-linecap="round" stroke-linejoin="round"/>
<path d="M106.988 91.3579H97.8613V103.858H106.988V91.3579Z" fill="white" stroke="#292526" stroke-width="0.5" stroke-linecap="round" stroke-linejoin="round"/>
</svg>
