<svg width="161" height="93" viewBox="0 0 161 93" fill="none" xmlns="http://www.w3.org/2000/svg">
<ellipse opacity="0.32" rx="59.5" ry="17" transform="matrix(-1 0 0 1 80.5 63)" fill="#C4D7E7"/>
<path d="M95.8613 24.1835L96.568 25.9899L97.1907 26.8791L106.51 40.2173L109.197 27.3972L108.966 27.1102C108.903 26.9701 108.854 26.8371 108.805 26.7111C108.385 25.6048 108.63 25.3247 109.33 24.7506C109.602 24.5265 109.945 24.2465 110.351 23.8614L110.372 23.8404C110.736 23.4763 111.142 23.1892 111.561 22.9302C113.192 21.1517 114.052 19.6604 114.423 18.4351C113.381 16.4326 112.471 16.2646 111.394 16.7547C110.575 17.1328 102.018 20.7806 97.9113 22.7341C97.0437 23.3363 96.3301 23.8404 95.8613 24.1835Z" fill="#FFDBCA"/>
<path d="M116.524 17.8128C116.118 19.1641 115.166 20.8165 113.361 22.791C113.039 23.1411 112.697 23.4982 112.326 23.8623C111.682 24.4994 110.619 24.3944 110.108 23.6452L109.555 22.833C108.184 20.8445 105.588 20.2214 103.496 21.2436C103.244 21.3697 102.999 21.5097 102.769 21.6848C100.054 23.6662 97.85 25.3676 96.9265 26.0818C96.6816 26.2709 96.5277 26.3899 96.4787 26.4319C96.4647 26.4389 96.4577 26.4459 96.4577 26.4459C96.4577 26.4459 95.0794 25.1366 95.2893 24.7375C95.3103 24.6955 95.5622 24.4994 95.982 24.1914C96.4997 23.8133 97.2903 23.2531 98.2488 22.588C103.426 18.9891 113.62 12.1765 114.264 12.1695C115.124 12.1625 115.446 13.4228 115.446 13.4228C116.363 14.1229 117.202 15.5583 116.524 17.8128Z" fill="white"/>
<path d="M96.4565 26.5079C96.4425 26.5079 96.4215 26.5009 96.4075 26.4869C96.1696 26.2629 95.0082 25.1146 95.2251 24.6945C95.2391 24.6665 95.2671 24.6175 95.9387 24.1204C96.4285 23.7633 97.1911 23.2172 98.2056 22.517C102.69 19.4012 113.563 12.0915 114.263 12.0845C114.27 12.0845 114.27 12.0845 114.277 12.0845C115.116 12.0845 115.459 13.1837 115.508 13.3658C116.117 13.8419 117.383 15.2002 116.592 17.8259C116.138 19.3382 115.067 21.0186 113.409 22.8321C113.087 23.1821 112.737 23.5462 112.366 23.9033C112.045 24.2254 111.597 24.3794 111.149 24.3374C110.701 24.2954 110.296 24.0504 110.044 23.6793L109.491 22.8671C108.169 20.9556 105.601 20.2834 103.516 21.3057C103.264 21.4247 103.026 21.5718 102.795 21.7398C100.018 23.7703 97.7858 25.4927 96.9532 26.1369C96.7223 26.3119 96.5614 26.4379 96.5054 26.4869C96.4915 26.4939 96.4915 26.5009 96.4845 26.5009C96.4845 26.5009 96.4705 26.5079 96.4565 26.5079ZM114.27 12.2245H114.263C113.682 12.2315 104.174 18.54 98.2826 22.629C97.2681 23.3292 96.5054 23.8683 96.0157 24.2324C95.449 24.6455 95.351 24.7365 95.337 24.7575C95.2111 25.0026 95.9387 25.8428 96.4565 26.3399C96.5194 26.2909 96.6524 26.1859 96.8763 26.0178C97.7088 25.3737 99.9407 23.6443 102.718 21.6208C102.949 21.4527 103.201 21.2987 103.46 21.1727C104.495 20.6685 105.685 20.5425 106.811 20.8296C107.952 21.1236 108.945 21.8168 109.61 22.783L110.163 23.5952C110.393 23.9383 110.757 24.1554 111.163 24.1974C111.576 24.2394 111.975 24.0924 112.269 23.8053C112.632 23.4412 112.982 23.0841 113.304 22.734C114.948 20.9416 116.005 19.2752 116.452 17.7838C117.229 15.2142 115.97 13.9049 115.396 13.4568C115.382 13.4498 115.375 13.4358 115.368 13.4218C115.368 13.4148 115.053 12.2245 114.27 12.2245Z" fill="#151E23"/>
<path d="M114.521 12C113.864 12 103.537 18.9107 98.3035 22.5655C97.331 23.2447 96.5334 23.8048 96.0086 24.1969C95.5818 24.512 95.33 24.7081 95.302 24.7571C95.0991 25.1702 96.5264 26.5565 96.5264 26.5565C96.5264 26.5565 96.5334 26.5495 96.5474 26.5425C96.8272 26.3324 100.402 23.6648 103.649 21.2702C105.79 19.6878 107.798 18.2245 108.623 17.6714C110.75 16.229 115.753 13.3303 115.753 13.3303C115.753 13.3303 115.396 12 114.521 12Z" fill="#151E23"/>
<path d="M89.3478 62.4262L89.3408 63.1964L101.823 62.5732L106.51 40.2099L109.204 27.3968L109.351 26.7036L108.812 26.7106L97.1909 26.8787L89.3478 62.4262Z" fill="#151E23"/>
<path d="M145.872 43.9767C145.389 43.2135 140.638 35.2106 138.162 31.3947C137.448 30.6175 136.86 29.9733 136.455 29.5532L134.761 30.4985L121.454 42.7444L126.652 52.0216L135.293 42.9474C136.643 42.1353 136.937 42.3103 137.679 42.9965C137.938 43.2415 138.26 43.5426 138.7 43.8927C138.707 43.8997 138.714 43.9067 138.721 43.9067C139.134 44.2218 139.47 44.5858 139.785 44.9639C141.765 46.3433 143.353 47.0014 144.612 47.2045C146.453 45.9092 146.501 44.9779 145.872 43.9767Z" fill="#FFDBCA"/>
<path d="M145.501 49.2071C144.109 48.983 142.346 48.2549 140.156 46.7285C139.771 46.4554 139.372 46.1614 138.959 45.8393C138.246 45.2791 138.204 44.2149 138.882 43.6127L139.617 42.9616C141.401 41.3372 141.681 38.6836 140.387 36.7371C140.233 36.506 140.058 36.282 139.855 36.0719C137.532 33.6423 135.559 31.6749 134.726 30.8557C134.51 30.6386 134.37 30.4986 134.321 30.4566C134.314 30.4426 134.307 30.4426 134.307 30.4426C134.307 30.4426 135.426 28.9022 135.846 29.0562C135.895 29.0702 136.119 29.2943 136.483 29.6724C136.93 30.1415 137.581 30.8417 138.372 31.7099C142.618 36.366 150.72 45.5802 150.818 46.2174C150.944 47.0646 149.734 47.5547 149.734 47.5547C149.132 48.5629 147.831 49.5782 145.501 49.2071Z" fill="white"/>
<path d="M146.453 49.3542C146.159 49.3542 145.837 49.3262 145.487 49.2702C143.934 49.0182 142.122 48.185 140.107 46.7776C139.715 46.5045 139.316 46.2105 138.903 45.8884C138.547 45.6083 138.33 45.1882 138.316 44.7331C138.302 44.278 138.484 43.8509 138.819 43.5498L139.554 42.8987C141.275 41.3373 141.597 38.6977 140.31 36.7652C140.156 36.5341 139.981 36.3101 139.785 36.114C137.406 33.6214 135.405 31.64 134.657 30.9048C134.447 30.7017 134.3 30.5547 134.251 30.5057C134.244 30.4917 134.237 30.4917 134.237 30.4917C134.209 30.4707 134.209 30.4287 134.23 30.4007C134.419 30.1346 135.398 28.8253 135.846 28.9863C135.881 29.0003 135.93 29.0143 136.511 29.6235C136.93 30.0646 137.567 30.7508 138.4 31.661C142.08 35.6939 150.762 45.5103 150.86 46.2035C150.979 47.0437 149.93 47.5338 149.755 47.6108C149.426 48.185 148.489 49.3542 146.453 49.3542ZM134.391 30.4357C134.454 30.4987 134.587 30.6317 134.769 30.8068C135.517 31.5419 137.518 33.5304 139.897 36.023C140.1 36.2331 140.275 36.4571 140.436 36.6952C141.072 37.6544 141.352 38.8167 141.219 39.972C141.079 41.1413 140.527 42.2195 139.659 43.0107L138.924 43.6619C138.617 43.9349 138.449 44.327 138.463 44.7331C138.477 45.1462 138.673 45.5243 138.994 45.7834C139.4 46.0984 139.806 46.3995 140.191 46.6656C142.185 48.0589 143.976 48.8851 145.508 49.1372C145.844 49.1932 146.159 49.2142 146.446 49.2142C148.433 49.2142 149.335 48.0659 149.65 47.5128C149.657 47.4988 149.671 47.4918 149.685 47.4848C149.699 47.4778 150.846 47.0087 150.728 46.2245C150.644 45.6503 143.129 37.0523 138.302 31.759C137.469 30.8488 136.833 30.1626 136.413 29.7215C135.93 29.2104 135.825 29.1334 135.797 29.1194C135.552 29.0283 134.818 29.8615 134.391 30.4357Z" fill="#151E23"/>
<path d="M150.993 46.4486C150.909 45.7974 142.688 36.4712 138.378 31.759C137.581 30.8838 136.916 30.1697 136.461 29.7005C136.09 29.3155 135.859 29.0914 135.811 29.0774C135.377 28.9304 134.194 30.5338 134.194 30.5338C134.194 30.5338 134.201 30.5408 134.208 30.5478C134.453 30.7998 137.567 33.9856 140.372 36.8913C142.219 38.8097 143.933 40.6022 144.598 41.3444C146.305 43.2628 149.838 47.8419 149.838 47.8419C149.838 47.8419 151.105 47.3238 150.993 46.4486Z" fill="#151E23"/>
<path d="M67.1408 51.0346C67.1408 51.0346 73.7104 47.5057 87.3396 51.5807C100.969 55.6627 106.146 53.4221 106.146 53.4221L128.563 36.0439L136.245 43.5638L112.758 64.8699C110.96 66.5013 108.623 67.4255 106.188 67.4605L61.3896 68.0837L67.1408 51.0346Z" fill="#F3516D"/>
<path d="M67.4625 59.7163C67.4625 59.7163 67.4555 59.7163 67.4625 59.7163C67.0077 59.6953 66.7558 59.6883 66.7558 59.6883C66.6999 59.6883 66.6509 59.6392 66.6579 59.5762C66.6579 59.5202 66.7069 59.4712 66.7698 59.4782C66.7698 59.4782 67.0147 59.4922 67.4695 59.5062C67.5255 59.5062 67.5744 59.5552 67.5674 59.6182C67.5604 59.6672 67.5185 59.7163 67.4625 59.7163Z" fill="#151E23"/>
<path d="M93.8322 60.3608C93.7763 60.3608 93.7273 60.3118 93.7273 60.2557C93.7273 60.1997 93.7763 60.1507 93.8322 60.1507C94.301 60.1507 94.7628 60.1507 95.2175 60.1437C95.2735 60.1437 95.3225 60.1927 95.3225 60.2487C95.3225 60.3048 95.2735 60.3538 95.2175 60.3538C94.7628 60.3538 94.301 60.3608 93.8322 60.3608ZM92.4469 60.3608C91.9852 60.3608 91.5234 60.3538 91.0546 60.3538C90.9987 60.3538 90.9497 60.3048 90.9497 60.2487C90.9497 60.1927 90.9987 60.1437 91.0546 60.1437C91.5234 60.1437 91.9852 60.1507 92.4399 60.1507C92.4959 60.1507 92.5449 60.1997 92.5449 60.2557C92.5519 60.3118 92.5029 60.3608 92.4469 60.3608ZM89.6693 60.3398C89.2076 60.3328 88.7458 60.3328 88.277 60.3258C88.2211 60.3258 88.1721 60.2768 88.1721 60.2207C88.1721 60.1647 88.2211 60.1157 88.277 60.1157C88.7458 60.1227 89.2076 60.1297 89.6693 60.1297C89.7253 60.1297 89.7743 60.1787 89.7743 60.2347C89.7743 60.2908 89.7253 60.3398 89.6693 60.3398ZM96.6098 60.3398C96.5539 60.3398 96.5049 60.2908 96.5049 60.2347C96.5049 60.1787 96.5539 60.1297 96.6098 60.1297C97.0926 60.1227 97.5544 60.1157 97.9951 60.1017C98.0511 60.1017 98.1001 60.1437 98.1001 60.2067C98.1001 60.2627 98.0581 60.3118 97.9951 60.3118C97.5544 60.3188 97.0926 60.3328 96.6098 60.3398ZM86.8917 60.3048C86.43 60.2978 85.9612 60.2908 85.4994 60.2838C85.4435 60.2838 85.3945 60.2347 85.3945 60.1787C85.3945 60.1227 85.4435 60.0737 85.4994 60.0737C85.9612 60.0807 86.423 60.0877 86.8847 60.0947C86.9407 60.0947 86.9897 60.1437 86.9897 60.1997C86.9967 60.2557 86.9477 60.3048 86.8917 60.3048ZM99.3804 60.2768C99.3245 60.2768 99.2755 60.2347 99.2755 60.1717C99.2755 60.1157 99.3175 60.0667 99.3804 60.0667C99.8632 60.0527 100.332 60.0317 100.766 60.0107C100.822 60.0107 100.871 60.0527 100.878 60.1087C100.878 60.1647 100.836 60.2137 100.78 60.2207C100.339 60.2417 99.8702 60.2557 99.3804 60.2768C99.3874 60.2768 99.3874 60.2768 99.3804 60.2768ZM84.1141 60.2487C83.6454 60.2417 83.1836 60.2277 82.7218 60.2207C82.6659 60.2207 82.6169 60.1717 82.6169 60.1157C82.6169 60.0597 82.6659 60.0107 82.7218 60.0107C83.1836 60.0247 83.6454 60.0317 84.1071 60.0387C84.1631 60.0387 84.2121 60.0877 84.2121 60.1437C84.2191 60.2067 84.1701 60.2487 84.1141 60.2487ZM81.3365 60.1857C80.8678 60.1717 80.406 60.1647 79.9442 60.1507C79.8883 60.1507 79.8393 60.1017 79.8393 60.0457C79.8393 59.9897 79.8883 59.9407 79.9442 59.9407C80.399 59.9547 80.8678 59.9687 81.3295 59.9757C81.3855 59.9757 81.4345 60.0247 81.4345 60.0807C81.4415 60.1367 81.3925 60.1857 81.3365 60.1857ZM102.158 60.1437C102.102 60.1437 102.06 60.1017 102.053 60.0457C102.046 59.9897 102.095 59.9407 102.151 59.9337C102.655 59.8987 103.124 59.8567 103.529 59.8146C103.585 59.8076 103.641 59.8496 103.641 59.9057C103.648 59.9617 103.606 60.0177 103.55 60.0177C103.138 60.0597 102.669 60.1017 102.165 60.1367C102.158 60.1437 102.158 60.1437 102.158 60.1437ZM78.5589 60.1087C78.0832 60.0947 77.6214 60.0807 77.1666 60.0667C77.1106 60.0667 77.0617 60.0177 77.0617 59.9617C77.0617 59.9057 77.1106 59.8566 77.1666 59.8566C77.6214 59.8707 78.0832 59.8847 78.5519 59.8987C78.6079 59.8987 78.6569 59.9477 78.6569 60.0037C78.6639 60.0667 78.6219 60.1087 78.5589 60.1087ZM75.7883 60.0247C75.3126 60.0107 74.8438 59.9967 74.396 59.9757C74.34 59.9757 74.2911 59.9267 74.2981 59.8707C74.2981 59.8146 74.347 59.7656 74.403 59.7726C74.8508 59.7866 75.3126 59.8006 75.7883 59.8216C75.8443 59.8216 75.8933 59.8707 75.8933 59.9267C75.8863 59.9757 75.8443 60.0247 75.7883 60.0247ZM73.0107 59.9267C72.521 59.9127 72.0592 59.8917 71.6184 59.8777C71.5624 59.8777 71.5135 59.8286 71.5205 59.7656C71.5205 59.7096 71.5694 59.6606 71.6324 59.6676C72.0732 59.6816 72.535 59.7026 73.0177 59.7166C73.0737 59.7166 73.1227 59.7656 73.1157 59.8286C73.1157 59.8847 73.0667 59.9267 73.0107 59.9267ZM104.915 59.8286C104.866 59.8286 104.824 59.7936 104.81 59.7446C104.796 59.6886 104.838 59.6326 104.894 59.6186C105.125 59.5766 105.32 59.5276 105.481 59.4786C105.684 59.4155 105.915 59.3245 106.181 59.1985C106.23 59.1775 106.293 59.1985 106.321 59.2475C106.342 59.3035 106.321 59.3595 106.272 59.3875C105.999 59.5136 105.754 59.6116 105.544 59.6746C105.376 59.7236 105.174 59.7796 104.936 59.8216C104.929 59.8286 104.922 59.8286 104.915 59.8286ZM70.2331 59.8286C69.7154 59.8076 69.2536 59.7936 68.8408 59.7726C68.7848 59.7726 68.7359 59.7236 68.7429 59.6606C68.7429 59.6046 68.7918 59.5556 68.8548 59.5626C69.2676 59.5766 69.7294 59.5976 70.2401 59.6186C70.2961 59.6186 70.3451 59.6676 70.3381 59.7306C70.3381 59.7796 70.2891 59.8286 70.2331 59.8286ZM107.454 58.7434C107.419 58.7434 107.384 58.7224 107.363 58.6944C107.335 58.6454 107.349 58.5823 107.398 58.5473C107.755 58.3373 108.154 58.0922 108.581 57.8192C108.63 57.7912 108.693 57.8052 108.728 57.8542C108.756 57.9032 108.742 57.9662 108.693 58.0012C108.266 58.2743 107.867 58.5193 107.503 58.7294C107.496 58.7434 107.475 58.7434 107.454 58.7434ZM109.805 57.252C109.77 57.252 109.735 57.238 109.721 57.203C109.686 57.154 109.7 57.091 109.749 57.056C110.113 56.8109 110.498 56.5449 110.89 56.2648C110.939 56.2298 111.002 56.2438 111.037 56.2928C111.072 56.3418 111.058 56.4048 111.009 56.4398C110.61 56.7199 110.225 56.986 109.861 57.231C109.84 57.245 109.826 57.252 109.805 57.252ZM112.072 55.6416C112.037 55.6416 112.009 55.6276 111.988 55.5996C111.953 55.5506 111.967 55.4876 112.009 55.4526C112.366 55.1935 112.744 54.9135 113.129 54.6264C113.178 54.5914 113.24 54.5984 113.275 54.6474C113.31 54.6964 113.303 54.7594 113.254 54.7944C112.87 55.0815 112.492 55.3616 112.135 55.6206C112.121 55.6416 112.1 55.6416 112.072 55.6416ZM114.311 53.9892C114.276 53.9892 114.248 53.9752 114.227 53.9472C114.192 53.8982 114.199 53.8352 114.248 53.8002C114.605 53.5271 114.976 53.2471 115.353 52.96C115.402 52.925 115.465 52.932 115.5 52.981C115.535 53.03 115.528 53.093 115.479 53.128C115.102 53.4151 114.731 53.7022 114.374 53.9682C114.353 53.9822 114.332 53.9892 114.311 53.9892ZM116.515 52.2948C116.487 52.2948 116.452 52.2808 116.431 52.2528C116.396 52.2038 116.403 52.1408 116.452 52.1058C116.816 51.8257 117.179 51.5386 117.543 51.2516C117.592 51.2166 117.655 51.2236 117.69 51.2726C117.725 51.3216 117.718 51.3846 117.669 51.4196C117.305 51.7067 116.935 51.9938 116.571 52.2738C116.557 52.2878 116.536 52.2948 116.515 52.2948ZM118.698 50.5724C118.67 50.5724 118.635 50.5584 118.614 50.5304C118.579 50.4884 118.586 50.4184 118.628 50.3834C118.992 50.0963 119.355 49.8022 119.719 49.5152C119.768 49.4801 119.831 49.4872 119.866 49.5292C119.901 49.5712 119.894 49.6412 119.852 49.6762C119.488 49.9633 119.125 50.2573 118.761 50.5444C118.747 50.5654 118.719 50.5724 118.698 50.5724ZM120.874 48.836C120.846 48.836 120.811 48.822 120.79 48.794C120.755 48.752 120.762 48.682 120.804 48.647C121.167 48.3529 121.524 48.0588 121.881 47.7717C121.923 47.7367 121.993 47.7437 122.028 47.7857C122.063 47.8278 122.056 47.8978 122.014 47.9328C121.657 48.2198 121.293 48.5139 120.937 48.808C120.916 48.829 120.895 48.836 120.874 48.836ZM123.029 47.0856C123.001 47.0856 122.966 47.0716 122.945 47.0436C122.91 47.0016 122.917 46.9315 122.959 46.8965C123.322 46.6025 123.679 46.3014 124.036 46.0143C124.078 45.9793 124.148 45.9863 124.183 46.0283C124.218 46.0703 124.211 46.1403 124.169 46.1754C123.819 46.4624 123.455 46.7565 123.092 47.0576C123.078 47.0716 123.057 47.0856 123.029 47.0856ZM125.176 45.3141C125.148 45.3141 125.114 45.3001 125.093 45.2791C125.058 45.2371 125.065 45.1671 125.107 45.1321C125.47 44.831 125.827 44.53 126.177 44.2429C126.219 44.2079 126.289 44.2149 126.324 44.2569C126.359 44.2989 126.352 44.3689 126.31 44.4039C125.96 44.691 125.603 44.9921 125.239 45.2931C125.225 45.3071 125.204 45.3141 125.176 45.3141ZM127.317 43.5357C127.289 43.5357 127.254 43.5217 127.233 43.5007C127.198 43.4587 127.205 43.3887 127.247 43.3537C127.618 43.0456 127.975 42.7445 128.311 42.4575C128.353 42.4225 128.423 42.4225 128.458 42.4715C128.493 42.5135 128.493 42.5835 128.444 42.6185C128.108 42.9056 127.751 43.1996 127.38 43.5147C127.366 43.5287 127.338 43.5357 127.317 43.5357ZM129.444 41.7433C129.416 41.7433 129.381 41.7293 129.367 41.7083C129.332 41.6663 129.332 41.5963 129.381 41.5612C129.773 41.2322 130.13 40.9311 130.445 40.658C130.487 40.623 130.557 40.623 130.592 40.672C130.627 40.714 130.627 40.7841 130.578 40.8191C130.263 41.0851 129.906 41.3862 129.514 41.7223C129.493 41.7363 129.472 41.7433 129.444 41.7433Z" fill="#151E23"/>
<path d="M131.501 39.9998C131.473 39.9998 131.445 39.9858 131.424 39.9648C131.389 39.9227 131.389 39.8527 131.438 39.8177C131.781 39.5237 131.97 39.3626 131.97 39.3626C132.012 39.3276 132.082 39.3276 132.117 39.3766C132.152 39.4186 132.152 39.4886 132.103 39.5237C132.103 39.5237 131.914 39.6847 131.571 39.9788C131.55 39.9928 131.522 39.9998 131.501 39.9998Z" fill="#151E23"/>
<path d="M67.1407 51.0342C67.1407 51.0342 58.64 49.1717 56.4781 43.0732L38.1123 61.2286L46.613 67.8522L67.3296 68.0062L67.1407 51.0342Z" fill="#FFC200"/>
<path d="M34.3686 63.7776L34.9983 62.5593L42.9183 47.2607C43.1771 46.7635 43.3591 46.2524 43.471 45.7343C43.9678 43.4517 43.0302 41.1412 40.8263 39.9929C38.1187 38.5856 35.3341 40.0279 33.9278 42.7306L25.4271 59.1495C24.1397 61.6421 25.1332 64.7019 27.631 65.9622C30.0937 67.2015 33.0952 66.2282 34.3686 63.7776Z" fill="#FFDBCA"/>
<path d="M34.998 62.5587L42.9181 47.26C43.1769 46.7629 43.3588 46.2517 43.4708 45.7336L39.7487 45.6216L34.998 62.5587Z" fill="#151E23"/>
<path d="M46.2839 40.3204L39.8891 42.813L37.6782 37.9749L37.4124 37.3867L37.2305 36.9946L39.7142 35.3912L42.0161 32.4155L44.4578 37.1347L46.2839 40.3204Z" fill="#FFDBCA"/>
<path d="M44.4577 37.1345C41.3863 37.4776 38.6017 37.7927 37.5942 37.7997L37.4053 37.3936L39.7071 35.3981L42.016 32.4224L44.4577 37.1345Z" fill="#151E23"/>
<path d="M37.8666 37.7227C35.2499 38.0798 33.9765 36.2104 33.6127 33.5917L32.8711 25.4348L35.9356 24.6226L40.6512 26.7651L42.1904 32.7095C42.5472 35.3211 40.4833 37.3656 37.8666 37.7227Z" fill="#FFDBCA"/>
<path d="M32.739 33.5861C32.7459 33.523 32.7529 33.46 32.7739 33.397C33.0048 32.5218 33.1238 31.6256 33.1867 30.7224L33.3057 29.028C33.3057 28.9509 33.3756 29.8822 33.4526 29.8332C33.4806 29.8192 33.5086 29.8122 33.5296 29.8192C33.6625 29.8682 33.6975 29.9872 33.7185 30.0992C33.9633 31.3105 34.0123 32.5638 34.3411 33.7611C34.3621 33.8451 34.3971 33.9361 34.4741 33.9712C34.551 33.9992 34.712 33.9782 34.698 34.0972C34.684 34.2162 34.4601 34.2722 34.3691 34.2932C33.9773 34.3773 33.4176 34.4613 33.0538 34.2582C32.8229 34.1252 32.718 33.8521 32.739 33.5861Z" fill="#FFDBCA"/>
<path d="M38.0697 32.3254C38.1326 32.7735 37.8178 33.1866 37.37 33.2496C36.9223 33.3126 36.5095 32.9975 36.4465 32.5494C36.3835 32.1013 36.6984 31.6882 37.1461 31.6252C37.6009 31.5622 38.0067 31.8773 38.0697 32.3254Z" fill="#FF87A5"/>
<path d="M34.9008 35.0549C34.7819 35.1039 34.7259 35.2229 34.7888 35.314C34.8098 35.349 34.8378 35.384 34.8658 35.419C34.9008 35.461 34.9428 35.503 34.9917 35.538C35.0057 35.545 35.0197 35.559 35.0337 35.566C35.0687 35.587 35.1037 35.608 35.1457 35.629C35.4955 35.8041 35.9503 35.7901 36.2791 35.566C36.419 35.468 36.517 35.356 36.5869 35.2299C36.6429 35.1249 36.6779 35.0129 36.6989 34.9009C36.7199 34.8028 36.7269 34.7048 36.7269 34.5998C36.7269 34.4738 36.5869 34.4037 36.447 34.4527L34.9008 35.0549Z" fill="white"/>
<path d="M33.6691 29.9805C33.6691 29.9805 35.5022 29.3643 35.7121 29.4064C35.915 29.4484 36.1179 30.0575 35.908 30.1345C35.6981 30.2185 33.6901 30.6947 33.6901 30.6947C33.6901 30.6947 33.3823 30.1835 33.6691 29.9805Z" fill="#151E23"/>
<path d="M34.2217 31.7301C34.2217 31.7301 35.2572 31.457 35.9708 31.5131C35.9708 31.5131 35.642 31.142 35.0333 31.191C34.4036 31.247 34.2217 31.7301 34.2217 31.7301Z" fill="#151E23"/>
<path d="M35.2988 31.7026C35.3337 31.9686 35.1518 32.2137 34.886 32.2487C34.6201 32.2837 34.3752 32.1017 34.3402 31.8356C34.3053 31.5695 34.4872 31.3245 34.753 31.2895C35.0189 31.2545 35.2638 31.4365 35.2988 31.7026Z" fill="#151E23"/>
<path d="M40.8963 67.8523H13.1973V63.9453L40.8963 65.3457V67.8523Z" fill="#151E24"/>
<path d="M16.9615 67.8033L13.6592 43.9136H10L13.1974 67.8523L16.9615 67.8033Z" fill="#151E24"/>
<path d="M34.7536 48.6257C34.8236 47.9185 34.9356 47.2254 35.0895 46.5392C35.1454 46.2801 35.2084 46.0141 35.2784 45.755C35.4603 45.0478 35.6842 44.3477 35.943 43.6475C36.2579 42.7933 36.6917 41.9811 37.2164 41.2389C37.5732 40.7348 37.7691 40.1397 37.7551 39.5235V39.5095L51.5872 37.8851L51.944 37.8291C55.2953 40.3357 57.5412 44.0466 58.1988 48.1776L58.4647 49.837L58.4997 50.04L58.6886 51.2023L58.8635 52.2806L60.6406 63.3502L36.6987 66.1649L36.083 58.001C34.8376 54.5771 34.4598 51.5174 34.7536 48.6257Z" fill="#FFC200"/>
<path d="M45.8569 64.2742L46.2907 62.9718L51.7479 46.6299C51.9298 46.0978 52.0278 45.5657 52.0628 45.0405C52.2027 42.709 50.9223 40.5665 48.5645 39.7753C45.675 38.802 43.1422 40.6575 42.1697 43.5492L36.3137 61.0814C35.4251 63.742 36.8804 66.6127 39.5461 67.4739C42.1697 68.3141 44.9823 66.8858 45.8569 64.2742Z" fill="#FFDBCA"/>
<path d="M43.4014 66.0241L43.3454 59.6315C43.3384 58.8263 42.6808 58.1752 41.8762 58.1822L23.9932 59.6735L24.7978 67.6485L41.4844 67.6695C42.289 67.6625 43.4084 66.8293 43.4014 66.0241Z" fill="#FFDBCA"/>
<path d="M24.7983 67.6548C24.7983 67.6548 20.0337 67.5148 19.0822 67.5008C18.2846 67.4868 16.2276 67.6198 16.2976 66.6046C16.3256 66.1985 16.3395 65.7434 16.9482 65.9954C16.9482 65.9954 15.7938 65.6453 15.9198 64.7071C16.0527 63.7759 17.5849 64.042 17.5849 64.042C17.5849 64.042 16.0667 63.6989 16.2696 62.7396C16.4165 62.0605 17.2911 61.6124 17.9697 61.8644C17.9697 61.8644 16.5494 60.016 18.0747 60.121C20.1037 60.268 25.6728 61.3113 25.6728 61.3113L24.7983 67.6548Z" fill="#FFDBCA"/>
<path d="M16.8635 67.305C16.8635 67.305 13.946 65.5616 13.8201 65.0155C13.6941 64.4694 13.974 63.9933 14.4777 64.2243C14.9815 64.4484 16.9475 66.0027 16.9475 66.0027L16.8635 67.305Z" fill="#FFDBCA"/>
<path d="M17.3046 66.1008C17.3046 66.1008 13.4845 63.8183 13.3166 63.1041C13.1487 62.3899 13.5195 61.7668 14.1772 62.0679C14.8419 62.3619 17.4096 64.3924 17.4096 64.3924L17.3046 66.1008Z" fill="#FFDBCA"/>
<path d="M17.7174 64.5321C17.7174 64.5321 13.2886 61.6964 13.1207 60.8422C12.9528 59.988 13.4075 59.2739 14.1772 59.6449C14.9468 60.023 17.9063 62.5086 17.9063 62.5086L17.7174 64.5321Z" fill="#FFDBCA"/>
<path d="M18.2557 62.894C18.2557 62.894 14.6875 60.4364 14.4286 59.6032C14.1698 58.77 14.5546 58.0138 15.3592 58.3079C16.1638 58.602 19.3612 60.7795 19.3612 60.7795L18.2557 62.894Z" fill="#FFDBCA"/>
<path d="M25.6515 61.5286C25.6515 61.5286 23.5036 58.8609 22.4331 58.4478C21.8664 58.2308 20.2082 57.8317 19.4386 57.6146C18.725 57.4116 18.0603 58.0907 18.2982 58.7909C18.3052 58.8049 18.3122 58.8189 18.3122 58.8329C18.4941 59.274 20.9639 60.6673 20.9639 60.6673C20.9639 60.6673 23.7415 62.6628 23.9514 62.6488C24.1683 62.6208 25.6515 61.5286 25.6515 61.5286Z" fill="#FFDBCA"/>
<path d="M34.8659 22.4743C38.5181 20.3668 45.5915 19.0995 48.3551 25.5621C51.3986 32.6898 53.1407 42.6392 53.1407 42.6392L49.9153 43.5914L49.5655 43.8085L45.1437 44.5437L44.64 42.2681L44.7799 44.5647L41.5056 44.9428C41.5056 44.9428 42.66 39.8875 42.562 37.9271C42.4921 36.4287 41.4076 28.8879 39.4766 29.147C35.6425 29.6581 32.8789 25.4361 32.8789 25.4361C32.8789 25.4361 33.2357 23.4126 34.8659 22.4743Z" fill="#292526"/>
<path d="M40.7707 30.3858C40.7567 30.3018 41.3864 29.7277 41.4424 29.6856C41.7922 29.4196 42.198 29.1605 42.6388 29.0835C43.7722 28.8875 44.234 30.6449 44.15 31.4991C44.0311 32.6614 42.9047 32.9974 41.9252 33.5156C41.9042 33.5226 41.5963 33.6626 41.5963 33.6696C41.5963 33.6696 40.7707 30.3928 40.7707 30.3858Z" fill="#FFDBCA"/>
<path d="M42.4006 32.7885C42.4146 32.7885 42.4286 32.7885 42.4356 32.7815C42.6735 32.6695 43.0583 32.3404 42.8624 31.8713C42.7574 31.6262 42.5405 31.5632 42.3446 31.5142C42.0578 31.4302 41.7849 31.3531 41.7569 30.751C41.7359 30.3799 41.8409 30.1208 42.0648 29.9878C42.3166 29.8338 42.6525 29.8828 42.7014 29.9178C42.7504 29.9458 42.8064 29.9318 42.8344 29.8828C42.8624 29.8338 42.8484 29.7778 42.7994 29.7498C42.6735 29.6797 42.2677 29.6377 41.9598 29.8198C41.7639 29.9388 41.526 30.2049 41.554 30.758C41.589 31.5072 41.9738 31.6122 42.2886 31.7032C42.4915 31.7592 42.6175 31.8012 42.6804 31.9483C42.8554 32.3614 42.3726 32.5994 42.3516 32.6064C42.3026 32.6274 42.2816 32.6905 42.3026 32.7395C42.3236 32.7675 42.3586 32.7885 42.4006 32.7885Z" fill="#151E23"/>
<path d="M24.3493 59.7159C24.3143 59.7159 24.2793 59.6879 24.2793 59.6528C24.2793 59.6108 24.3073 59.5828 24.3423 59.5758L37.0968 58.5116L41.6935 44.7603C41.7075 44.7253 41.7425 44.7043 41.7845 44.7183C41.8195 44.7323 41.8405 44.7673 41.8265 44.8093L37.2158 58.6026C37.2088 58.6306 37.1808 58.6446 37.1528 58.6516L24.3493 59.7159C24.3493 59.7159 24.3563 59.7159 24.3493 59.7159Z" fill="#151E23"/>
</svg>
