<svg width="180" height="115" viewBox="0 0 180 115" fill="none" xmlns="http://www.w3.org/2000/svg">
<path d="M180 114.812H0V115H180V114.812Z" fill="#292526"/>
<path d="M116.714 101.735C116.71 101.736 116.707 101.735 116.703 101.734C116.699 101.733 116.696 101.731 116.693 101.728C116.665 101.727 116.638 101.719 116.614 101.707C116.589 101.694 116.567 101.677 116.55 101.655C116.532 101.634 116.519 101.609 116.512 101.583C116.505 101.557 116.503 101.529 116.507 101.502C116.536 101.219 119.875 73.2779 133.859 46.4054C140.815 33.0256 149.271 22.0731 158.988 13.8373C159.033 13.8039 159.089 13.7882 159.144 13.7935C159.2 13.7987 159.252 13.8244 159.289 13.8655C159.324 13.9088 159.341 13.9642 159.336 14.0198C159.331 14.0753 159.304 14.1265 159.26 14.1624C149.586 22.3581 141.166 33.266 134.23 46.6037C120.289 73.3984 116.958 101.268 116.922 101.544C116.918 101.596 116.894 101.644 116.855 101.68C116.817 101.715 116.767 101.735 116.714 101.735Z" fill="#F7F9FF"/>
<path fill-rule="evenodd" clip-rule="evenodd" d="M149.367 23.6795C149.367 23.6795 161.158 -9.36125 173.243 4.44344C181.568 13.9554 155.802 24.198 149.367 23.6795Z" fill="#F7F9FF"/>
<path fill-rule="evenodd" clip-rule="evenodd" d="M141.288 34.0458C141.288 34.0458 130.424 5.87337 143.512 6.38682C158.446 6.96994 144.792 31.3675 141.288 34.0458Z" fill="#F7F9FF"/>
<path fill-rule="evenodd" clip-rule="evenodd" d="M131.067 52.3668C131.067 52.3668 112.916 28.1463 125.657 25.1415C140.2 21.71 133.712 48.8511 131.067 52.3668Z" fill="#F7F9FF"/>
<path fill-rule="evenodd" clip-rule="evenodd" d="M116.669 99.3921C116.669 99.3921 92.7764 80.6783 104.289 74.4968C117.424 67.4404 118.296 95.3165 116.669 99.3921Z" fill="#FFC200"/>
<path fill-rule="evenodd" clip-rule="evenodd" d="M122.733 74.5365C122.733 74.5365 101.888 52.5431 114.196 48.111C128.239 43.0443 124.95 70.7434 122.733 74.5365Z" fill="#FFC200"/>
<path fill-rule="evenodd" clip-rule="evenodd" d="M135.962 42.96C135.962 42.96 166.4 44.3284 161.8 32.1908C156.554 18.3416 137.432 38.8261 135.962 42.96Z" fill="#F7F9FF"/>
<path fill-rule="evenodd" clip-rule="evenodd" d="M119.079 88.1409C119.079 88.1409 149.38 84.9787 142.994 73.6609C135.708 60.745 119.904 83.8363 119.079 88.1409Z" fill="#F7F9FF"/>
<path fill-rule="evenodd" clip-rule="evenodd" d="M127.087 62.018C127.087 62.018 157.525 63.3863 152.925 51.2488C147.679 37.3983 128.557 57.8853 127.087 62.018Z" fill="#F7F9FF"/>
<path d="M112.399 114.567C112.327 114.496 112.327 114.425 112.399 114.347C112.399 114.347 112.692 113.845 113.207 112.974C113.207 112.904 113.279 112.826 113.35 112.904C113.428 112.904 113.428 113.045 113.428 113.116C113.191 113.594 112.921 114.055 112.621 114.497V114.497C112.621 114.568 112.549 114.568 112.478 114.568H112.399V114.567ZM113.643 112.394C113.602 112.355 113.576 112.302 113.572 112.246V112.175C113.793 111.743 114.016 111.234 114.229 110.725C114.229 110.654 114.308 110.583 114.38 110.654C114.418 110.657 114.453 110.674 114.48 110.701C114.506 110.729 114.521 110.765 114.522 110.803V110.803C114.229 111.376 114.015 111.885 113.793 112.323H113.865C113.811 112.331 113.76 112.356 113.722 112.394H113.643ZM114.601 110.072C114.559 110.035 114.531 109.985 114.522 109.93C114.522 109.92 114.524 109.91 114.528 109.9C114.532 109.89 114.538 109.882 114.545 109.874C114.552 109.867 114.561 109.861 114.571 109.858C114.58 109.854 114.591 109.852 114.601 109.852V109.852C114.744 109.421 114.887 108.911 115.108 108.409C115.108 108.331 115.18 108.26 115.259 108.331C115.296 108.335 115.331 108.352 115.357 108.379C115.383 108.406 115.398 108.441 115.401 108.478V108.478C115.179 109.059 115.036 109.49 114.814 110C114.814 110.071 114.743 110.071 114.671 110.071H114.6L114.601 110.072ZM115.473 107.749C115.402 107.679 115.33 107.679 115.33 107.608V107.537C115.552 107.028 115.623 106.518 115.766 106.016C115.766 105.938 115.845 105.867 115.916 105.938C115.954 105.942 115.989 105.959 116.015 105.986C116.042 106.013 116.057 106.049 116.06 106.086V106.086C115.916 106.596 115.766 107.098 115.623 107.679C115.583 107.718 115.53 107.743 115.473 107.749V107.749ZM116.06 105.364C115.988 105.286 115.916 105.286 115.988 105.216V105.145C116.06 104.636 116.138 104.126 116.21 103.624C116.21 103.475 116.281 103.475 116.353 103.475C116.503 103.475 116.503 103.553 116.503 103.624C116.446 104.161 116.348 104.693 116.21 105.216H116.281C116.209 105.286 116.138 105.364 116.138 105.364H116.06ZM116.353 102.753C116.353 102.243 116.431 101.663 116.431 101.161C116.431 101.013 116.574 101.013 116.646 101.013C116.718 101.013 116.718 101.083 116.718 101.161C116.718 101.663 116.646 102.243 116.646 102.753C116.643 102.79 116.628 102.824 116.601 102.85C116.575 102.877 116.54 102.892 116.503 102.895V102.895C116.466 102.893 116.43 102.878 116.402 102.853C116.375 102.827 116.357 102.793 116.352 102.756L116.353 102.753ZM116.503 100.291V100.072C116.503 99.6398 116.503 99.1301 116.431 98.6907C116.431 98.5489 116.503 98.5489 116.574 98.5489C116.646 98.4786 116.718 98.5489 116.718 98.6198C116.796 99.1295 116.796 99.6386 116.796 100.07V100.289C116.792 100.327 116.775 100.362 116.747 100.388C116.72 100.414 116.684 100.429 116.646 100.431V100.431C116.574 100.365 116.503 100.365 116.503 100.294V100.291ZM116.353 97.7511C116.346 97.237 116.274 96.7258 116.138 96.2296V96.2296C116.138 96.1587 116.209 96.0884 116.281 96.0174C116.319 96.0197 116.355 96.0351 116.382 96.0609C116.41 96.0868 116.427 96.1214 116.431 96.1587C116.574 96.7393 116.574 97.2483 116.646 97.7511V97.8289L116.574 97.8992C116.431 97.9024 116.352 97.9024 116.352 97.7542L116.353 97.7511ZM115.988 95.3596V95.2887C115.845 94.7865 115.766 94.3472 115.623 93.8381C115.552 93.7672 115.623 93.6969 115.695 93.626C115.733 93.6282 115.769 93.6437 115.796 93.6695C115.823 93.6954 115.841 93.73 115.845 93.7672V93.7672C115.988 94.2769 116.138 94.7859 116.281 95.2887C116.279 95.3261 116.263 95.3616 116.237 95.3888C116.211 95.416 116.176 95.4332 116.138 95.4374V95.4374C116.06 95.4406 115.988 95.4406 115.988 95.3628V95.3596ZM42.046 94.9987H40.9487C40.9112 94.9963 40.8758 94.9807 40.8489 94.9546C40.822 94.9286 40.8055 94.8939 40.8022 94.8568V94.8568C40.8051 94.819 40.8214 94.7833 40.8482 94.7562C40.875 94.729 40.9105 94.7119 40.9487 94.7081H42.561C42.5991 94.7119 42.6347 94.729 42.6615 94.7562C42.6883 94.7833 42.7045 94.819 42.7075 94.8568V94.8568C42.6993 94.9111 42.6729 94.961 42.6326 94.9987H42.046ZM43.3652 94.8568C43.2935 94.7859 43.3652 94.7081 43.44 94.7081C43.9743 94.6511 44.5118 94.6276 45.0491 94.6378V94.6378C45.1239 94.6378 45.1956 94.6378 45.2704 94.7859C45.2672 94.823 45.2506 94.8577 45.2237 94.8837C45.1968 94.9097 45.1614 94.9254 45.1239 94.9278V94.9278C44.5379 94.9278 44.0229 94.9278 43.5117 94.9987C43.3652 95.0018 43.3652 94.9309 43.3652 94.8575V94.8568ZM39.998 94.9278C39.4868 94.9278 38.9718 94.9278 38.4606 94.8568C38.4218 94.8547 38.3852 94.8382 38.3581 94.8107C38.331 94.7831 38.3153 94.7465 38.3141 94.7081V94.7081C38.317 94.6709 38.3334 94.6361 38.3604 94.6101C38.3874 94.5841 38.423 94.5687 38.4606 94.5669C38.9947 94.6243 39.5319 94.648 40.069 94.6378V94.6378C40.1078 94.6398 40.1443 94.6562 40.1714 94.6836C40.1986 94.711 40.2143 94.7475 40.2155 94.7859V94.7859C40.2129 94.8232 40.1966 94.8583 40.1696 94.8844C40.1425 94.9106 40.1068 94.926 40.069 94.9278H39.998ZM45.8533 94.7081C45.7816 94.6378 45.8533 94.5669 45.9281 94.5669C46.5142 94.5669 47.0254 94.4959 47.612 94.4181C47.6831 94.4181 47.6831 94.4959 47.6831 94.5669C47.7586 94.5669 47.7585 94.5668 47.7585 94.6378C47.6831 94.6378 47.6831 94.7081 47.612 94.7081C47.1008 94.7859 46.5142 94.7859 45.9998 94.8568C45.9617 94.8542 45.9259 94.838 45.899 94.8112C45.872 94.7844 45.8558 94.7489 45.8533 94.7112V94.7081ZM37.5796 94.7891H37.508C36.993 94.7112 36.4818 94.7112 35.9706 94.6409C35.8241 94.6409 35.8241 94.57 35.8241 94.4991C35.8254 94.4607 35.8412 94.4243 35.8683 94.3969C35.8954 94.3695 35.9319 94.3531 35.9706 94.3509V94.3509C36.4818 94.4212 37.0684 94.4991 37.5796 94.4991C37.6173 94.501 37.653 94.5164 37.68 94.5426C37.707 94.5687 37.7234 94.6037 37.7261 94.6409V94.6409C37.7261 94.7891 37.6545 94.7891 37.5796 94.7891V94.7891ZM48.3427 94.4991C48.3427 94.4212 48.3427 94.3509 48.4143 94.3509C49.0004 94.28 49.5116 94.28 50.0266 94.2091V94.1312C50.0976 94.1312 50.1731 94.2091 50.2448 94.28C50.242 94.3173 50.2255 94.3523 50.1984 94.3783C50.1712 94.4044 50.1354 94.4196 50.0976 94.4212V94.4212C49.5864 94.4991 49.0004 94.57 48.4892 94.6409H48.4143C48.3446 94.6409 48.3446 94.57 48.3446 94.4991H48.3427ZM33.4793 94.28C33.4407 94.2773 33.4044 94.2606 33.3774 94.2332C33.3504 94.2058 33.3345 94.1695 33.3328 94.1312V94.1312C33.3328 94.0603 33.4076 93.99 33.4793 94.0603C34.0653 94.1312 34.5765 94.2091 35.0915 94.28C35.1289 94.2824 35.1643 94.2979 35.1911 94.3238C35.218 94.3497 35.2346 94.3843 35.238 94.4212V94.4212C35.2363 94.4595 35.2204 94.4958 35.1934 94.5232C35.1663 94.5506 35.1301 94.5673 35.0915 94.57C34.5481 94.5136 34.0098 94.4167 33.4812 94.28H33.4793ZM50.8308 94.2091C50.7591 94.1312 50.8308 94.0603 50.9025 94.0603C51.4885 93.99 52.0035 93.9191 52.5141 93.8412C52.5895 93.7703 52.6612 93.8412 52.6612 93.9191V93.99C52.6612 94.0603 52.6612 94.0603 52.5896 94.0603C52.0583 94.1883 51.52 94.2853 50.9773 94.3509V94.3509C50.9404 94.348 50.9058 94.3321 50.8797 94.3061C50.8536 94.28 50.8379 94.2456 50.8352 94.2091H50.8308ZM30.9912 93.8412C30.9163 93.7703 30.8446 93.7703 30.8446 93.6291C30.8721 93.5999 30.9063 93.5776 30.9442 93.5641C30.9822 93.5505 31.0228 93.5461 31.0628 93.5512C31.5778 93.7 32.089 93.7703 32.6751 93.9191V93.8412C32.7136 93.8825 32.7386 93.9344 32.7467 93.99V93.99V94.0603C32.7467 94.1312 32.6751 94.1312 32.5996 94.1312C32.0193 94.0603 31.5043 93.9191 30.9931 93.8412H30.9912ZM53.2473 93.8412C53.25 93.804 53.2664 93.7691 53.2934 93.7431C53.3204 93.7171 53.3561 93.7018 53.3938 93.7C53.905 93.5513 54.42 93.4803 55.0022 93.4094C55.0777 93.3391 55.1487 93.4094 55.1487 93.4803C55.1464 93.5184 55.1303 93.5544 55.1034 93.5817C55.0765 93.609 55.0406 93.6258 55.0022 93.6291C54.491 93.7703 53.9798 93.8412 53.4654 93.9191H53.3938C53.3208 93.9191 53.3208 93.9191 53.2492 93.8412H53.2473ZM30.1121 93.6291C29.6009 93.4803 29.0859 93.4094 28.5747 93.2613C28.4282 93.1903 28.4282 93.1194 28.4282 93.0485C28.4282 92.9782 28.5747 92.9003 28.6502 92.9782C29.1614 93.1194 29.6719 93.2613 30.1869 93.3391C30.2586 93.4094 30.3334 93.4094 30.3334 93.4803V93.5512C30.2966 93.5949 30.2441 93.6229 30.1869 93.6291H30.1121V93.6291ZM55.7354 93.4094C55.7354 93.2613 55.7354 93.1903 55.8819 93.1903C56.3931 93.1194 56.9075 92.9782 57.4187 92.9003C57.4941 92.8294 57.5652 92.9003 57.5652 92.9782C57.5652 93.0485 57.5652 93.1194 57.4941 93.1194C56.9649 93.2729 56.4264 93.3935 55.8819 93.4803C55.8274 93.4722 55.7768 93.4474 55.7373 93.4094H55.7354ZM115.329 92.9782C115.107 92.4685 114.964 92.0297 114.743 91.5276C114.671 91.4498 114.743 91.3788 114.814 91.3085C114.885 91.3085 114.964 91.3085 114.964 91.3788C115.178 91.8885 115.4 92.3976 115.55 92.9003H115.622C115.622 92.9782 115.55 93.0485 115.471 93.1194C115.435 93.1164 115.4 93.1004 115.374 93.0745C115.349 93.0486 115.333 93.0145 115.33 92.9782H115.329ZM27.6956 92.9782C27.1844 92.8294 26.6732 92.6882 26.1582 92.5388C26.0866 92.4679 26.0117 92.3969 26.0117 92.3191C26.0414 92.2922 26.0766 92.272 26.1149 92.2599C26.1533 92.2477 26.1938 92.2439 26.2337 92.2488V92.2488C26.7443 92.3969 27.2555 92.6097 27.7705 92.6882V92.7585C27.8422 92.7585 27.8422 92.7585 27.917 92.8294C27.9171 92.839 27.9152 92.8485 27.9114 92.8574C27.9077 92.8663 27.9021 92.8743 27.8951 92.8809C27.8881 92.8876 27.8798 92.8927 27.8707 92.8961C27.8616 92.8994 27.8518 92.9009 27.8422 92.9003V92.9003C27.8422 92.9782 27.7705 92.9782 27.6956 92.9782V92.9782ZM58.1518 92.8294C58.1544 92.7922 58.1708 92.7572 58.1979 92.7311C58.2249 92.7051 58.2607 92.6898 58.2983 92.6882V92.6882C58.8018 92.532 59.3152 92.4089 59.8351 92.3197V92.3197C59.9106 92.2494 59.9816 92.3197 60.0533 92.3976C60.0508 92.4343 60.035 92.4688 60.0087 92.4949C59.9825 92.521 59.9476 92.5368 59.9106 92.5394C59.3956 92.6882 58.8844 92.8294 58.3694 92.9788C58.3002 92.9782 58.2248 92.9003 58.1537 92.8294H58.1518ZM60.5683 92.2494C60.5709 92.2121 60.5872 92.1771 60.6143 92.1509C60.6413 92.1248 60.6771 92.1093 60.7148 92.1076V92.1076C61.226 91.9594 61.7404 91.8176 62.2516 91.6682C62.291 91.6634 62.3309 91.6673 62.3687 91.6795C62.4064 91.6918 62.4409 91.7121 62.4697 91.7391V91.817C62.4697 91.817 62.3981 91.8879 62.3232 91.9588C61.812 92.107 61.3008 92.2488 60.7865 92.3191H60.7148C60.6596 92.3142 60.6081 92.2894 60.5702 92.2494H60.5683ZM25.2792 92.2494C24.768 92.0297 24.2568 91.8885 23.7418 91.6688C23.6907 91.6074 23.6651 91.5291 23.6701 91.4498V91.4498C23.7418 91.4498 23.8166 91.3788 23.8883 91.3788C24.4033 91.5985 24.9145 91.8182 25.4257 91.9594C25.4673 91.9987 25.4937 92.0511 25.5005 92.1076V92.1076C25.4257 92.1785 25.4257 92.2494 25.354 92.2494H25.2792V92.2494ZM62.9847 91.5985C62.987 91.5605 63.0031 91.5245 63.03 91.4972C63.0569 91.4698 63.0928 91.453 63.1312 91.4498C63.6424 91.3085 64.1536 91.0888 64.668 91.0179C64.7397 90.9476 64.8145 91.0179 64.8862 91.0888C64.885 91.1273 64.8693 91.1639 64.8422 91.1914C64.815 91.2189 64.7785 91.2354 64.7397 91.2376C64.2285 91.3788 63.7141 91.5276 63.2029 91.6688H63.1312C63.076 91.6638 63.0245 91.6388 62.9866 91.5985H62.9847ZM22.9376 91.3788C22.4264 91.1667 21.9862 90.9476 21.4788 90.7279C21.4034 90.7279 21.3323 90.5867 21.4034 90.5089C21.4034 90.4379 21.4788 90.4379 21.5505 90.4379C22.0579 90.657 22.5761 90.8773 23.0873 91.0888C23.1271 91.1296 23.1533 91.1816 23.1621 91.2376V91.2376C23.0873 91.3085 23.0873 91.3788 23.0156 91.3788H22.9407H22.9376ZM65.4012 90.8767C65.4023 90.8389 65.4175 90.8028 65.4438 90.7753C65.4702 90.7479 65.5058 90.731 65.5439 90.7279V90.7279C66.0687 90.5935 66.5834 90.4235 67.0845 90.2189C67.1225 90.2227 67.158 90.2396 67.1848 90.2667C67.2116 90.2938 67.2279 90.3293 67.231 90.367C67.231 90.4379 67.231 90.5089 67.1561 90.5089C66.6449 90.657 66.1306 90.8767 65.6194 91.0179H65.5439L65.4012 90.8767ZM114.378 90.7279C114.156 90.2189 113.863 89.7864 113.641 89.2773C113.57 89.2773 113.57 89.1361 113.641 89.1361C113.72 89.0652 113.791 89.0652 113.863 89.1361C114.156 89.6383 114.378 90.1479 114.599 90.5867V90.657C114.599 90.7279 114.599 90.7989 114.521 90.7989C114.449 90.7989 114.38 90.7988 114.38 90.7279H114.378ZM20.6676 90.367C20.1564 90.1479 19.6452 89.858 19.2089 89.6383C19.1334 89.6383 19.0624 89.497 19.1334 89.497C19.1334 89.3552 19.2805 89.3552 19.2805 89.4261C19.7917 89.6383 20.3061 89.858 20.7456 90.077C20.8173 90.1479 20.8922 90.1479 20.8922 90.2189C20.8925 90.2289 20.8908 90.2388 20.8872 90.2482C20.8836 90.2575 20.8782 90.2661 20.8712 90.2733C20.8643 90.2806 20.8559 90.2864 20.8466 90.2904C20.8374 90.2944 20.8274 90.2965 20.8173 90.2967V90.2967C20.8175 90.306 20.8157 90.3153 20.8122 90.324C20.8087 90.3326 20.8034 90.3405 20.7967 90.347C20.79 90.3536 20.782 90.3588 20.7732 90.3622C20.7645 90.3656 20.7551 90.3673 20.7456 90.367H20.6708H20.6676ZM67.8138 90.1479C67.8138 90.077 67.8138 90.0061 67.8893 90.0061C68.4005 89.8579 68.9865 89.6383 69.4261 89.497C69.4977 89.497 69.6443 89.497 69.6443 89.568C69.6443 89.6383 69.5726 89.7161 69.5726 89.787C69.0614 89.9282 68.547 90.077 67.9604 90.2189V90.2967C67.9229 90.2924 67.888 90.2754 67.8617 90.2487C67.8354 90.2219 67.8191 90.187 67.8157 90.1498L67.8138 90.1479ZM70.2303 89.4261C70.1586 89.3552 70.2303 89.2773 70.3058 89.207C70.817 89.0652 71.3282 88.8461 71.8425 88.6974C71.9142 88.6974 71.989 88.6974 71.989 88.7752V88.8461C71.989 88.9164 71.989 88.9164 71.9142 88.9873C71.403 89.1361 70.8918 89.3552 70.3768 89.497C70.3223 89.4888 70.2718 89.464 70.2322 89.4261H70.2303ZM18.3996 89.2083C17.9053 88.9695 17.4391 88.6775 17.0093 88.3377C16.9377 88.3377 16.9377 88.1965 17.0093 88.1965C17.0093 88.1186 17.0842 88.0477 17.1558 88.1186C17.5954 88.4086 18.1072 88.6986 18.5461 88.9886C18.5563 88.9887 18.5663 88.9908 18.5756 88.9947C18.585 88.9987 18.5934 89.0045 18.6004 89.0118C18.6075 89.019 18.613 89.0276 18.6166 89.037C18.6202 89.0464 18.6219 89.0564 18.6216 89.0664V89.0664V89.2083C18.5461 89.2083 18.5461 89.2786 18.4744 89.2786L18.3996 89.2083ZM72.5776 88.6277C72.5733 88.5883 72.5774 88.5484 72.5896 88.5107C72.6019 88.473 72.622 88.4382 72.6486 88.4086V88.4086C73.1598 88.2668 73.6748 88.0477 74.186 87.9065C74.2609 87.8286 74.3326 87.9065 74.4074 87.9768V88.0477C74.4074 88.1186 74.3326 88.1186 74.3326 88.1965C73.8099 88.3317 73.2965 88.4994 72.7952 88.6986H72.7241C72.6486 88.6974 72.5776 88.6974 72.5776 88.6264V88.6277ZM113.135 88.5574C112.842 88.118 112.549 87.6868 112.256 87.2549C112.185 87.1771 112.185 87.1068 112.256 87.0359C112.296 87.0316 112.336 87.0357 112.375 87.0479C112.413 87.0601 112.448 87.0802 112.478 87.1068C112.771 87.4677 113.057 87.9768 113.429 88.4086H113.35C113.361 88.4084 113.371 88.4102 113.381 88.414C113.39 88.4178 113.399 88.4236 113.407 88.4308C113.414 88.4381 113.42 88.4468 113.424 88.4564C113.427 88.4659 113.429 88.4762 113.429 88.4865V88.4865C113.429 88.5574 113.429 88.5574 113.35 88.6277H113.279C113.207 88.6264 113.207 88.6264 113.135 88.5561V88.5574ZM74.9903 87.7577C74.9186 87.7577 74.9903 87.6159 75.0651 87.6159C75.5763 87.4677 76.0165 87.2549 76.5239 87.1068H76.5993C76.671 87.0359 76.7458 87.1068 76.7458 87.1771V87.2549C76.7459 87.2646 76.7441 87.2741 76.7403 87.2829C76.7365 87.2918 76.7309 87.2998 76.7239 87.3064C76.7169 87.3131 76.7086 87.3182 76.6995 87.3216C76.6904 87.3249 76.6807 87.3264 76.671 87.3259C76.671 87.3968 76.5993 87.3968 76.5993 87.3259C76.0881 87.5456 75.648 87.6868 75.1336 87.9065H75.0632C74.9903 87.9052 74.9903 87.8274 74.9903 87.7565V87.7577ZM16.2762 87.8274C15.8404 87.5443 15.4719 87.1759 15.0324 86.8156C14.9607 86.7446 14.9607 86.6737 15.0324 86.5959C15.0456 86.5793 15.0624 86.5659 15.0816 86.5567C15.1007 86.5475 15.1218 86.5427 15.1431 86.5427C15.1644 86.5427 15.1854 86.5475 15.2046 86.5567C15.2238 86.5659 15.2406 86.5793 15.2538 86.5959V86.5959C15.6329 86.976 16.0498 87.3173 16.4981 87.6146V87.6146V87.7565V87.8274C16.4592 87.8685 16.4078 87.8958 16.3516 87.9052V87.9052C16.352 87.8952 16.3503 87.8852 16.3466 87.8758C16.343 87.8664 16.3375 87.8578 16.3305 87.8506C16.3234 87.8433 16.315 87.8375 16.3057 87.8335C16.2964 87.8296 16.2863 87.8275 16.2762 87.8274V87.8274ZM77.335 86.9637C77.2602 86.8859 77.335 86.8156 77.4067 86.8156C77.9217 86.5959 78.4329 86.4546 78.9441 86.235C79.019 86.235 79.0906 86.2349 79.0906 86.3059L79.1655 86.3837C79.1622 86.4207 79.1456 86.4553 79.1187 86.4812C79.0918 86.5072 79.0564 86.5227 79.0189 86.5249C78.5039 86.6737 77.9927 86.8859 77.4816 87.0346C77.4099 87.0346 77.335 87.0346 77.335 86.9637V86.9637ZM111.741 86.5959C111.377 86.1647 111.012 85.8037 110.648 85.365C110.569 85.365 110.569 85.2231 110.648 85.2231C110.648 85.1528 110.791 85.1528 110.791 85.2231C111.155 85.584 111.52 85.945 111.892 86.3837C111.963 86.4546 111.963 86.4546 111.963 86.5249L111.892 86.5959H111.741V86.5959ZM79.6767 86.1646C79.6717 86.1248 79.6758 86.0844 79.6888 86.0464C79.7017 86.0083 79.7232 85.9737 79.7515 85.945V85.945C80.274 85.8092 80.7874 85.6415 81.2889 85.4428C81.3606 85.4428 81.5071 85.4428 81.5071 85.5137V85.584C81.5071 85.655 81.4354 85.655 81.4354 85.7328C80.9204 85.874 80.4092 86.0937 79.898 86.235H79.8232C79.7515 86.235 79.6767 86.2349 79.6767 86.1646V86.1646ZM14.3747 86.235C14.01 85.8037 13.6415 85.4428 13.2768 85.075C13.202 85.0041 13.202 84.8622 13.2768 84.8622C13.2887 84.8443 13.3049 84.8297 13.324 84.8195C13.343 84.8094 13.3643 84.8041 13.3859 84.8041C13.4076 84.8041 13.4288 84.8094 13.4479 84.8195C13.4669 84.8297 13.4831 84.8443 13.495 84.8622C13.8635 85.2231 14.2282 85.655 14.5929 86.0159C14.6677 86.0159 14.6677 86.0159 14.6677 86.0937C14.6677 86.1647 14.6677 86.1647 14.5929 86.235H14.3747ZM82.0931 85.365C82.0183 85.294 82.0931 85.2231 82.1648 85.1528C82.6792 85.0041 83.1904 84.7844 83.7054 84.6431C83.777 84.6431 83.8481 84.6431 83.8481 84.7141V84.7844C83.8437 84.8409 83.8184 84.8939 83.777 84.9331C83.2533 85.0678 82.7396 85.2381 82.2396 85.4428H82.1667L82.0931 85.365ZM109.983 84.7844C109.563 84.4459 109.123 84.1315 108.667 83.8428V83.8428C108.667 83.7725 108.595 83.7016 108.667 83.6307C108.667 83.5529 108.817 83.5529 108.889 83.6307C109.325 83.9207 109.768 84.2816 110.133 84.5722C110.205 84.6431 110.205 84.6431 110.205 84.7141V84.7844C110.187 84.806 110.165 84.8241 110.141 84.8374C110.116 84.8508 110.089 84.8592 110.061 84.8622V84.8622C109.983 84.8622 109.983 84.8622 109.983 84.7844V84.7844ZM84.4347 84.5722C84.4292 84.5325 84.4331 84.492 84.4461 84.454C84.4591 84.4159 84.4808 84.3814 84.5096 84.3532V84.3532C85.0208 84.2044 85.5358 84.0632 86.047 83.8435C86.118 83.8435 86.1935 83.9213 86.2645 83.9922C86.2645 84.0632 86.2645 84.1335 86.1935 84.1335C85.6785 84.2822 85.1673 84.4944 84.5812 84.6431C84.5096 84.6431 84.4347 84.6431 84.4347 84.5722V84.5722ZM12.6908 84.3532C12.3261 83.9922 12.0331 83.5535 11.6652 83.1216C11.5936 83.0513 11.6652 82.9735 11.7401 82.9026C11.7401 82.8316 11.8866 82.9026 11.8866 82.9735C12.2513 83.4129 12.5443 83.7732 12.909 84.2044V84.2822V84.4241H12.7625C12.753 84.4242 12.7436 84.4225 12.7348 84.419C12.7261 84.4155 12.7181 84.4103 12.7114 84.4037C12.7047 84.3971 12.6994 84.3892 12.6959 84.3805C12.6924 84.3718 12.6906 84.3625 12.6908 84.3532V84.3532ZM86.8512 83.7732C86.7795 83.7022 86.8512 83.6313 86.926 83.6313C87.4372 83.4826 87.9484 83.2635 88.4634 83.1919C88.5345 83.121 88.6099 83.1919 88.681 83.2629C88.6798 83.3013 88.664 83.3379 88.6369 83.3654C88.6098 83.393 88.5732 83.4094 88.5344 83.4116V83.4116C88.011 83.5461 87.4975 83.7162 86.9977 83.9207V83.9207C86.9597 83.9169 86.9243 83.9 86.8975 83.8731C86.8708 83.8462 86.8544 83.8108 86.8512 83.7732V83.7732ZM107.938 83.4123C107.494 83.1216 106.986 82.9026 106.542 82.6835C106.471 82.6126 106.4 82.5417 106.471 82.4707C106.471 82.3929 106.542 82.3929 106.614 82.3929C107.129 82.6126 107.643 82.9026 108.08 83.1216C108.151 83.1926 108.151 83.1926 108.151 83.2635V83.3413C108.151 83.4122 108.08 83.4123 108.008 83.4123H107.936H107.938ZM89.2702 83.0513C89.1985 83.0513 89.2702 82.9735 89.3412 82.9026C89.8562 82.7613 90.3674 82.6126 90.8824 82.4707V82.5416C90.9534 82.4707 91.0289 82.5417 91.0999 82.6126C91.0976 82.6507 91.0816 82.6866 91.0547 82.714C91.0278 82.7413 90.9918 82.7581 90.9534 82.7613V82.7613C90.4423 82.9026 89.9279 83.0513 89.4167 83.1926C89.379 83.1908 89.3433 83.1755 89.3163 83.1495C89.2894 83.1234 89.2729 83.0885 89.2702 83.0513V83.0513ZM91.6866 82.4707C91.6866 82.3929 91.6866 82.3226 91.7577 82.3226C92.3443 82.1807 92.8587 82.0326 93.3699 81.9617C93.4416 81.8907 93.5164 81.9617 93.5164 82.0326C93.5164 82.1104 93.5164 82.1807 93.4416 82.1807C92.8587 82.3226 92.3443 82.3929 91.8331 82.5416C91.7551 82.5416 91.6841 82.5417 91.6841 82.4707H91.6866ZM11.1566 82.3929V82.3226C10.8629 81.8907 10.5699 81.452 10.2769 81.0208C10.2052 80.9498 10.2769 80.872 10.3517 80.872C10.4234 80.8011 10.4989 80.8011 10.4989 80.872C10.7881 81.3114 11.0811 81.8198 11.3741 82.2529C11.4496 82.2529 11.4496 82.2529 11.4496 82.3238C11.4496 82.3335 11.4476 82.343 11.4438 82.3518C11.44 82.3606 11.4343 82.3686 11.4272 82.3752C11.4202 82.3818 11.4118 82.3868 11.4027 82.3901C11.3935 82.3934 11.3838 82.3947 11.3741 82.3941V82.3941C11.375 82.4039 11.3738 82.4138 11.3707 82.4232C11.3675 82.4325 11.3624 82.4411 11.3558 82.4484C11.3491 82.4557 11.341 82.4616 11.3319 82.4656C11.3228 82.4697 11.313 82.4718 11.3031 82.472C11.2251 82.4707 11.2251 82.3929 11.154 82.3929H11.1566ZM105.738 82.3226H105.667C105.16 82.1807 104.645 82.0326 104.201 81.8907C104.058 81.8907 104.058 81.8198 104.058 81.742C104.061 81.7053 104.077 81.6708 104.103 81.6448C104.129 81.6189 104.164 81.6032 104.201 81.6007C104.754 81.7244 105.294 81.895 105.817 82.1104L105.887 82.1782V82.2492C105.887 82.3201 105.816 82.3201 105.737 82.3201L105.738 82.3226ZM94.1031 81.9617C94.1031 81.8198 94.1031 81.742 94.2496 81.742C94.7608 81.6717 95.272 81.6008 95.858 81.5298C95.9329 81.452 96.0045 81.5298 96.0045 81.6007V81.6717C95.9648 81.7104 95.9133 81.7351 95.858 81.742C95.3468 81.8907 94.8325 81.9617 94.2496 82.0326C94.1716 82.0326 94.1005 82.0326 94.1005 81.9617H94.1031ZM101.714 81.5298C101.676 81.5257 101.641 81.5085 101.615 81.4813C101.589 81.4541 101.573 81.4185 101.571 81.3811V81.3811C101.574 81.3444 101.59 81.3099 101.616 81.284C101.642 81.258 101.677 81.2423 101.714 81.2398C102.3 81.3108 102.815 81.3811 103.401 81.452C103.473 81.452 103.473 81.5298 103.473 81.6007C103.47 81.6374 103.454 81.6719 103.428 81.6978C103.402 81.7238 103.367 81.7395 103.33 81.742V81.742C102.812 81.6717 102.297 81.5298 101.711 81.5298H101.714ZM96.588 81.5298C96.588 81.452 96.588 81.3811 96.7383 81.3811C97.2527 81.3108 97.7607 81.3108 98.3468 81.2398C98.3846 81.2421 98.4204 81.2575 98.4479 81.2833C98.4754 81.3092 98.4928 81.3438 98.4971 81.3811V81.3811C98.4933 81.4192 98.4763 81.4549 98.4488 81.4821C98.4214 81.5092 98.3854 81.5261 98.3468 81.5298V81.5298C97.8394 81.5298 97.3244 81.6008 96.7383 81.6717C96.6998 81.6701 96.6632 81.6549 96.635 81.6289C96.6069 81.6029 96.5891 81.5677 96.5848 81.5298H96.588ZM99.9622 81.452H99.2258C99.1889 81.4494 99.1541 81.4336 99.1279 81.4077C99.1017 81.3818 99.0858 81.3474 99.0831 81.3108V81.3108C99.0854 81.2733 99.101 81.2379 99.1271 81.2106C99.1532 81.1834 99.1882 81.1662 99.2258 81.162H100.835C100.874 81.1646 100.91 81.1812 100.938 81.2085C100.965 81.2359 100.982 81.2722 100.985 81.3108C100.985 81.452 100.914 81.452 100.835 81.452H99.9622ZM9.83672 80.2989V80.2211C9.5437 79.7892 9.25069 79.3505 9.03251 78.8483C9.03251 78.7705 9.03251 78.6996 9.10354 78.6996C9.11685 78.6831 9.13373 78.6698 9.15295 78.6606C9.17216 78.6515 9.19321 78.6467 9.21453 78.6467C9.23585 78.6467 9.2569 78.6515 9.27612 78.6606C9.29533 78.6698 9.31222 78.6831 9.32553 78.6996V78.6996C9.5437 79.2093 9.83672 79.6411 10.0581 80.1502C10.0581 80.1502 10.1297 80.2211 10.0581 80.2211V80.3698H9.98323C9.92738 80.3625 9.87537 80.3376 9.83482 80.2989H9.83672ZM8.66782 78.0487V78.1196V78.0487C8.3748 77.6175 8.15282 77.1071 7.93464 76.5981C7.93464 76.5278 7.93464 76.4569 8.08178 76.4569C8.08178 76.3859 8.15281 76.4569 8.22829 76.5278C8.44583 76.959 8.66782 77.4693 8.886 77.9784V78.0487C8.88601 78.0583 8.88404 78.0679 8.8802 78.0767C8.87636 78.0856 8.87074 78.0936 8.86368 78.1002C8.85661 78.1068 8.84826 78.112 8.83912 78.1153C8.82998 78.1187 8.82025 78.1201 8.81052 78.1196V78.1196C8.73759 78.1196 8.66592 78.1196 8.66592 78.0487H8.66782ZM7.64162 75.806C7.42027 75.2963 7.20209 74.7872 7.05558 74.2844C6.98074 74.2066 7.05558 74.1363 7.12725 74.1363C7.20209 74.0654 7.27376 74.1363 7.27376 74.2066C7.49511 74.7163 7.71329 75.226 7.85979 75.7281C7.85979 75.806 7.8598 75.8769 7.78813 75.8769C7.71139 75.8769 7.63972 75.8769 7.63972 75.806H7.64162ZM6.76256 73.4835V73.4126C6.54438 72.9029 6.39787 72.3939 6.25136 71.962C6.17589 71.8911 6.25136 71.8132 6.32303 71.7429C6.36287 71.7381 6.40329 71.7419 6.4415 71.7541C6.47971 71.7662 6.51481 71.7864 6.54438 71.8132V71.8132C6.69089 72.3939 6.8374 72.8326 6.98074 73.3348V73.4126C6.98074 73.4835 6.98074 73.5538 6.90907 73.5538C6.8355 73.5557 6.76066 73.5557 6.76066 73.4854L6.76256 73.4835ZM5.95835 71.092C5.81184 70.5824 5.66469 70.0802 5.58985 69.5705C5.51818 69.4293 5.58985 69.4293 5.66469 69.3515C5.70283 69.3553 5.73842 69.3722 5.76529 69.3992C5.79216 69.4263 5.80863 69.4618 5.81184 69.4996V69.4996C5.95835 70.0017 6.10485 70.5114 6.25136 71.0211V71.092C6.25136 71.1623 6.25136 71.1623 6.17589 71.1623H6.10485C6.02748 71.1642 6.02748 71.1642 5.95644 71.0939L5.95835 71.092ZM5.37167 68.7006C5.22516 68.1909 5.15032 67.6178 5.00699 67.1081C5.00699 67.0378 5.00699 66.96 5.15032 66.96C5.22517 66.96 5.22517 66.96 5.29683 67.0378C5.37167 67.6178 5.51818 68.1199 5.66469 68.6296C5.66142 68.6666 5.64483 68.7012 5.61794 68.7272C5.59105 68.7531 5.55565 68.7686 5.51818 68.7709C5.44144 68.7727 5.36977 68.7727 5.36977 68.7024L5.37167 68.7006ZM4.86048 66.2381C4.71397 65.7285 4.63913 65.1485 4.56746 64.6463C4.56866 64.6079 4.58438 64.5713 4.6115 64.5438C4.63862 64.5162 4.67518 64.4997 4.71397 64.4976V64.4976C4.71397 64.4976 4.86048 64.5685 4.86048 64.6463C4.92307 65.1591 5.0199 65.6671 5.15032 66.1672V66.2381C5.14766 66.2748 5.13168 66.3093 5.10534 66.3353C5.079 66.3612 5.04407 66.3769 5.00699 66.3794C4.96935 66.378 4.93352 66.3631 4.9062 66.3374C4.87888 66.3118 4.86195 66.2771 4.85858 66.24L4.86048 66.2381ZM4.42095 63.7757C4.34611 63.266 4.27444 62.757 4.1996 62.1839C4.20137 62.1457 4.21726 62.1094 4.24427 62.082C4.27128 62.0545 4.30751 62.0379 4.34611 62.0352C4.3849 62.0373 4.42146 62.0538 4.44858 62.0814C4.4757 62.1089 4.49141 62.1455 4.49262 62.1839V62.1839C4.56746 62.6861 4.63913 63.266 4.71397 63.7757C4.71069 63.8127 4.6941 63.8473 4.66721 63.8733C4.64032 63.8992 4.60493 63.9147 4.56746 63.917V63.917C4.52978 63.9157 4.49387 63.9008 4.46652 63.8752C4.43917 63.8495 4.42228 63.8148 4.41904 63.7776L4.42095 63.7757ZM4.12793 61.3133V61.2355C4.05309 60.8043 4.05309 60.2237 3.98142 59.7146C3.98416 59.6773 4.00056 59.6424 4.02755 59.6162C4.05453 59.5901 4.09023 59.5746 4.12793 59.5727V59.5727C4.16545 59.5752 4.20086 59.5908 4.22774 59.6168C4.25462 59.6428 4.27118 59.6775 4.27444 59.7146V59.7146C4.34611 60.2237 4.34611 60.8043 4.42095 61.3133C4.41769 61.3504 4.40113 61.3851 4.37425 61.4111C4.34737 61.4371 4.31196 61.4528 4.27444 61.4552V61.4552C4.23671 61.4538 4.20079 61.4388 4.17345 61.413C4.14612 61.3872 4.12925 61.3524 4.12603 61.3152L4.12793 61.3133ZM3.90658 58.844C3.90658 58.3418 3.90658 57.7619 3.83491 57.2522C3.83766 57.215 3.85409 57.1801 3.88108 57.1541C3.90808 57.128 3.94378 57.1127 3.98142 57.111C4.01889 57.1132 4.05429 57.1287 4.08118 57.1546C4.10806 57.1806 4.12466 57.2152 4.12793 57.2522C4.1996 57.7619 4.1996 58.3418 4.1996 58.844C4.1996 58.9218 4.1996 58.9928 4.12793 58.9928C3.97952 58.9946 3.90468 58.9237 3.90468 58.8459L3.90658 58.844ZM3.83491 56.3816V55.3704V54.7898C3.83491 54.6485 3.90658 54.6485 3.98142 54.6485C4.05309 54.6485 4.12793 54.6485 4.12793 54.7898V55.3704V56.3816C4.12616 56.4198 4.11027 56.4561 4.08326 56.4835C4.05626 56.511 4.02002 56.5276 3.98142 56.5303C3.94261 56.5287 3.90584 56.5126 3.87837 56.4855C3.8509 56.4583 3.83471 56.4219 3.83301 56.3835L3.83491 56.3816ZM3.83491 53.9198C3.83491 53.3392 3.90658 52.837 3.90658 52.2571C3.90835 52.2188 3.92424 52.1825 3.95125 52.1551C3.97826 52.1277 4.0145 52.111 4.05309 52.1083V52.1083C4.09188 52.1105 4.12844 52.127 4.15556 52.1545C4.18268 52.182 4.19839 52.2186 4.1996 52.2571V52.2571C4.1996 52.837 4.12793 53.3392 4.12793 53.9198C4.12793 53.9901 4.05309 53.9901 3.98142 53.9901C3.92567 53.9842 3.87348 53.9601 3.83301 53.9217L3.83491 53.9198ZM3.98142 51.3865C3.99309 50.8509 4.04204 50.3167 4.12793 49.7877V49.7877C4.13067 49.7505 4.14707 49.7155 4.17405 49.6894C4.20104 49.6632 4.23674 49.6478 4.27444 49.6459V49.6459C4.34611 49.6459 4.34611 49.7168 4.34611 49.7877C4.34611 50.3677 4.27444 50.8774 4.27444 51.3865C4.27118 51.4235 4.25462 51.4582 4.22774 51.4843C4.20086 51.5103 4.16545 51.5259 4.12793 51.5283V51.5283C3.97952 51.5302 3.97952 51.4593 3.97952 51.3883L3.98142 51.3865ZM4.1996 48.924C4.27444 48.3441 4.27444 47.835 4.34611 47.3253C4.34937 47.2883 4.36593 47.2536 4.39281 47.2276C4.41969 47.2015 4.4551 47.1859 4.49262 47.1835V47.1835C4.63913 47.1835 4.63913 47.2544 4.63913 47.3253C4.56746 47.9053 4.49262 48.415 4.49262 48.924C4.49262 48.995 4.34611 49.0659 4.27444 49.0659C4.1977 49.0678 4.1977 48.9969 4.1977 48.9259L4.1996 48.924ZM4.63913 46.6016C4.60053 46.5989 4.56429 46.5822 4.53729 46.5548C4.51028 46.5274 4.49439 46.4911 4.49262 46.4529V46.4529V46.3826C4.56746 45.8804 4.63913 45.3707 4.78564 44.861C4.78891 44.824 4.8055 44.7894 4.83239 44.7635C4.85928 44.7376 4.89468 44.7221 4.93215 44.7198C5.00699 44.7198 5.07866 44.7901 5.00699 44.861C4.93215 45.441 4.86048 45.9507 4.78564 46.4529C4.78443 46.4913 4.76872 46.5279 4.7416 46.5554C4.71448 46.583 4.67792 46.5994 4.63913 46.6016ZM5.00699 44.1392C4.96541 44.0999 4.93894 44.0476 4.93215 43.9911V43.9911V43.9201C5.07866 43.4105 5.15032 42.9083 5.29683 42.3986C5.29683 42.3283 5.37167 42.2574 5.44334 42.3283C5.51818 42.3283 5.58985 42.3986 5.51818 42.4696C5.44334 42.9792 5.29683 43.4883 5.22516 44.0689C5.15032 44.0689 5.15032 44.1392 5.07866 44.1392H5.00509H5.00699ZM5.58985 41.7477C5.51818 41.6774 5.44334 41.6774 5.44334 41.5996V41.5287C5.58985 41.019 5.73636 40.5168 5.88287 40.0071C5.8864 39.9702 5.90307 39.9358 5.9299 39.9099C5.95674 39.884 5.992 39.8684 6.02938 39.8659C6.10485 39.9368 6.17589 40.0071 6.17589 40.0781C6.02938 40.5878 5.88287 41.0968 5.73636 41.5996C5.735 41.6379 5.71922 41.6744 5.69212 41.7018C5.66501 41.7292 5.62854 41.7456 5.58985 41.7477ZM6.25136 39.3562C6.17589 39.2859 6.10485 39.2859 6.10485 39.2081V39.1372H6.17589C6.32303 38.635 6.46954 38.1253 6.61605 37.6157C6.69089 37.5454 6.76256 37.4744 6.8374 37.5454C6.90907 37.5454 6.90907 37.6157 6.90907 37.6866C6.76256 38.1963 6.54438 38.7053 6.39787 39.2081C6.39609 39.2463 6.38017 39.2825 6.35315 39.3098C6.32613 39.3371 6.2899 39.3537 6.25136 39.3562V39.3562ZM7.05558 36.9648C7.01793 36.963 6.98224 36.9477 6.95524 36.9217C6.92825 36.8956 6.91182 36.8607 6.90907 36.8235V36.8235C7.12725 36.3138 7.27376 35.8048 7.49511 35.2951C7.56678 35.2242 7.64162 35.1539 7.71329 35.2242C7.78813 35.2242 7.78813 35.2951 7.78813 35.3729C7.56678 35.8751 7.3486 36.3848 7.20209 36.8945C7.20209 36.9648 7.12725 36.9648 7.05558 36.9648V36.9648ZM7.93464 34.6423C7.8598 34.6423 7.85979 34.5714 7.85979 34.5011V34.4302C8.08178 33.9205 8.29933 33.4817 8.52131 32.9796C8.52131 32.9086 8.59235 32.9087 8.66782 32.9087C8.73949 32.9796 8.81052 33.0505 8.73949 33.1208C8.52131 33.6305 8.29932 34.0623 8.08178 34.5714C8.08162 34.581 8.07953 34.5904 8.07563 34.5992C8.07173 34.608 8.06611 34.6159 8.05908 34.6225C8.05205 34.6291 8.04377 34.6343 8.03471 34.6377C8.02565 34.6411 8.01599 34.6427 8.0063 34.6423H7.93464V34.6423ZM8.95513 32.4027L8.88409 32.3318V32.183C9.17711 31.7518 9.39529 31.2415 9.68831 30.8103C9.68831 30.7325 9.83482 30.7325 9.83482 30.7325C9.90966 30.8103 9.98133 30.8812 9.90966 30.9522C9.68831 31.3915 9.39529 31.8937 9.17711 32.3331C9.17711 32.404 9.10164 32.404 9.0306 32.404H8.95513V32.4027ZM10.1278 30.2303C10.1278 30.1525 10.0562 30.1525 10.0562 30.0816L10.1278 30.0113C10.4209 29.5794 10.7139 29.1407 11.0075 28.6303C11.017 28.6206 11.0284 28.6129 11.041 28.6077C11.0536 28.6024 11.0671 28.5997 11.0808 28.5997C11.0944 28.5997 11.108 28.6024 11.1206 28.6077C11.1331 28.6129 11.1445 28.6206 11.154 28.6303V28.6303C11.2251 28.6303 11.2251 28.7785 11.2251 28.7785C10.9321 29.2882 10.639 29.72 10.3492 30.1512C10.3492 30.2291 10.2743 30.2291 10.2027 30.2291H10.1278V30.2303ZM11.5181 28.1345C11.4471 28.1345 11.4471 28.0566 11.4471 27.9857V27.9154C11.8117 27.4836 12.1048 27.0448 12.4695 26.6136C12.4695 26.6136 12.616 26.5358 12.616 26.6136C12.6442 26.6408 12.6657 26.6741 12.6787 26.7109C12.6917 26.7477 12.6958 26.7871 12.6908 26.8257V26.8257C12.3503 27.2448 12.0327 27.6817 11.7394 28.1345H11.5175H11.5181ZM13.0555 26.1748C12.9838 26.1039 12.9838 26.1039 12.9838 26.033V25.9627C13.3485 25.5233 13.717 25.163 14.0817 24.7243H14.2992C14.2992 24.8021 14.3747 24.873 14.2992 24.9433C13.9352 25.3042 13.5705 25.743 13.202 26.1748H13.0555ZM97.4639 25.6727C97.4263 25.6686 97.3913 25.6515 97.3652 25.6244C97.3391 25.5973 97.3235 25.5619 97.3212 25.5246V25.5246C97.3212 25.4536 97.3929 25.4536 97.4639 25.4536V25.3789L97.5426 25.4499H97.6142C98.0506 25.4499 98.5656 25.3789 99.08 25.3789C99.1171 25.3814 99.152 25.3972 99.1783 25.4233C99.2045 25.4494 99.2203 25.484 99.2227 25.5208V25.5208C99.2203 25.5582 99.2047 25.5935 99.1786 25.6206C99.1525 25.6477 99.1176 25.6648 99.08 25.6689H97.4639V25.6727ZM94.9764 25.6727C94.9384 25.6688 94.9029 25.6519 94.8761 25.6249C94.8493 25.5978 94.833 25.5623 94.8299 25.5246V25.5246C94.8332 25.4875 94.8497 25.4528 94.8766 25.4268C94.9035 25.4007 94.9389 25.3851 94.9764 25.3827V25.3827C95.4908 25.3827 96.0775 25.3827 96.5848 25.4536C96.6635 25.4536 96.7352 25.4536 96.7352 25.5246C96.7324 25.563 96.7156 25.5992 96.688 25.6264C96.6604 25.6536 96.6237 25.6701 96.5848 25.6727H94.9783H94.9764ZM99.959 25.6727C99.8804 25.6727 99.8804 25.5949 99.8804 25.5246C99.8804 25.4536 99.8804 25.3827 99.959 25.3827C100.538 25.3827 101.053 25.3827 101.639 25.3049C101.711 25.3049 101.711 25.3827 101.711 25.4536C101.711 25.5246 101.711 25.5949 101.639 25.5949C101.053 25.5949 100.538 25.6727 99.959 25.6727ZM92.4166 25.5246C92.407 25.5249 92.3974 25.5233 92.3883 25.5199C92.3793 25.5165 92.3711 25.5113 92.3641 25.5047C92.3571 25.4981 92.3515 25.4902 92.3477 25.4814C92.3439 25.4726 92.3419 25.4632 92.3418 25.4536V25.3789C92.3418 25.3011 92.4166 25.2308 92.4883 25.3011C92.9995 25.3011 93.5855 25.3011 94.1005 25.3789C94.1716 25.3789 94.247 25.3789 94.247 25.5208C94.247 25.5911 94.1716 25.5911 94.1005 25.5911C93.5139 25.5911 92.9995 25.5911 92.4166 25.5208V25.5246ZM102.368 25.3827C102.368 25.3049 102.447 25.3049 102.519 25.3049V25.2346C103.034 25.2346 103.541 25.1636 104.127 25.1636C104.127 25.1636 104.199 25.1636 104.278 25.3049C104.237 25.3459 104.184 25.3732 104.127 25.3827C103.595 25.4654 103.058 25.5128 102.519 25.5246V25.5246C102.48 25.5221 102.444 25.5061 102.416 25.4794C102.389 25.4526 102.372 25.417 102.368 25.3789V25.3827ZM89.9253 25.3827C89.8873 25.3789 89.8518 25.3619 89.825 25.3349C89.7982 25.3078 89.7819 25.2723 89.7788 25.2346C89.7788 25.1636 89.9253 25.0927 89.9253 25.0927C90.5114 25.1636 91.0264 25.1636 91.6086 25.2346C91.6841 25.2346 91.6841 25.3049 91.6841 25.3827C91.6841 25.4536 91.6841 25.5246 91.5376 25.5246C91.0044 25.4376 90.4656 25.3889 89.9253 25.3789V25.3827ZM105.007 25.3049C104.935 25.3049 104.864 25.3049 104.864 25.2346V25.1636C104.864 25.0927 104.935 25.0927 105.007 25.0149C105.521 25.0149 106.029 24.9439 106.615 24.8736C106.615 24.8736 106.694 24.8736 106.766 25.0149C106.766 25.0149 106.694 25.1636 106.615 25.1636C106.083 25.2461 105.546 25.2933 105.007 25.3049V25.3049ZM87.4385 25.1636C87.3999 25.1609 87.3636 25.1443 87.3366 25.1168C87.3096 25.0894 87.2937 25.0531 87.292 25.0149V25.0149C87.292 24.8736 87.3668 24.8736 87.4385 24.8736C88.0245 24.9439 88.5357 24.9439 89.0507 25.0149C89.0889 25.0187 89.1245 25.0357 89.1513 25.0629C89.178 25.0901 89.1943 25.1258 89.1972 25.1636V25.1636C89.194 25.2006 89.1774 25.2353 89.1505 25.2612C89.1236 25.2871 89.0882 25.3026 89.0507 25.3049V25.3049C88.5345 25.2308 87.9484 25.1599 87.4372 25.1599L87.4385 25.1636ZM84.9491 24.8705C84.9103 24.8683 84.8737 24.8518 84.8466 24.8243C84.8195 24.7968 84.8038 24.7602 84.8026 24.7217C84.8053 24.6845 84.8217 24.6495 84.8487 24.6234C84.8757 24.5972 84.9114 24.5818 84.9491 24.5799V24.5799C85.5358 24.6508 86.047 24.7217 86.5582 24.7217C86.633 24.7996 86.7047 24.8705 86.7047 24.9408C86.7047 25.0117 86.633 25.0117 86.5582 25.0117C86.0193 24.9996 85.4817 24.9524 84.9491 24.8705V24.8705ZM107.352 24.8705C107.352 24.7996 107.352 24.7217 107.494 24.7217L109.032 24.5096C109.072 24.5043 109.112 24.5078 109.151 24.52C109.189 24.5321 109.224 24.5526 109.253 24.5799V24.5799C109.251 24.6166 109.235 24.6513 109.209 24.6774C109.183 24.7035 109.148 24.7192 109.11 24.7217C108.595 24.8705 108.009 24.9408 107.494 25.0117C107.423 25.0111 107.352 25.0111 107.352 24.8705ZM84.0694 24.7211C83.5582 24.6502 82.9715 24.5793 82.4572 24.509C82.3855 24.509 82.3107 24.509 82.3107 24.4311V24.3602C82.3139 24.3232 82.3305 24.2886 82.3574 24.2627C82.3843 24.2367 82.4197 24.2212 82.4572 24.219V24.219C83.0432 24.3602 83.5582 24.3602 84.0694 24.4311C84.2159 24.509 84.2159 24.509 84.2159 24.6502C84.1758 24.6884 84.1245 24.7132 84.0694 24.7211ZM109.839 24.509V24.4311C109.839 24.3602 109.839 24.3602 109.91 24.3602V24.2893H109.982C110.497 24.219 111.011 24.148 111.519 23.9993C111.598 23.9993 111.669 23.9993 111.669 24.0702C111.669 24.219 111.669 24.219 111.519 24.2893C111.012 24.3602 110.497 24.509 109.982 24.5793C109.911 24.5793 109.84 24.5793 109.84 24.509H109.839ZM81.5813 24.3602C80.9952 24.2893 80.4802 24.219 79.969 24.148C79.9309 24.1442 79.8953 24.1272 79.8685 24.1C79.8417 24.0728 79.8255 24.0371 79.8225 23.9993C79.8258 23.9623 79.8424 23.9277 79.8693 23.9017C79.8962 23.8758 79.9316 23.8603 79.969 23.858V23.858C80.5551 23.9993 81.0663 24.0702 81.5813 24.148C81.6187 24.1504 81.654 24.166 81.6809 24.1919C81.7078 24.2178 81.7244 24.2523 81.7278 24.2893C81.7278 24.3602 81.653 24.3602 81.5813 24.3602ZM14.669 24.2893V24.219V24.148C15.0633 23.7408 15.4779 23.3535 15.9115 22.9874H16.058C16.0746 22.9998 16.0882 23.0158 16.0975 23.0342C16.1068 23.0526 16.1117 23.0729 16.1117 23.0935C16.1117 23.1141 16.1068 23.1344 16.0975 23.1529C16.0882 23.1713 16.0746 23.1873 16.058 23.1996V23.1996C15.6872 23.5832 15.2959 23.947 14.8859 24.2893V24.2893C14.8861 24.2986 14.8843 24.3079 14.8808 24.3166C14.8773 24.3253 14.872 24.3332 14.8653 24.3398C14.8586 24.3464 14.8506 24.3516 14.8419 24.3551C14.8331 24.3586 14.8237 24.3604 14.8142 24.3602V24.3602C14.7394 24.3602 14.7394 24.3602 14.6677 24.2893H14.669ZM112.258 23.9993V23.929C112.258 23.8587 112.329 23.8587 112.4 23.7808C112.921 23.6983 113.435 23.5777 113.938 23.4199V23.4199C114.016 23.349 114.087 23.4199 114.159 23.4909C114.159 23.5687 114.087 23.639 114.016 23.7099C113.501 23.8587 112.987 23.929 112.479 24.0708H112.4C112.327 24.0702 112.256 24.0702 112.256 23.9993H112.258ZM77.4828 23.7802C77.408 23.7802 77.3363 23.6384 77.3363 23.6384C77.408 23.4902 77.4828 23.4902 77.5545 23.4902C78.0735 23.549 78.5874 23.646 79.0919 23.7802V23.7802C79.1301 23.7836 79.1659 23.8003 79.1928 23.8275C79.2197 23.8547 79.2358 23.8904 79.2384 23.9283V23.9283C79.2384 23.9993 79.1667 23.9993 79.0919 23.9993C78.5794 23.929 77.9927 23.858 77.4816 23.7802H77.4828ZM74.9915 23.3484C74.9199 23.3484 74.9199 23.2774 74.9199 23.1996C74.9227 23.1625 74.9392 23.1276 74.9662 23.1016C74.9931 23.0756 75.0288 23.0603 75.0664 23.0584V23.0584C75.5776 23.1996 76.1642 23.2774 76.6754 23.3484C76.7503 23.3484 76.7503 23.4193 76.7503 23.4902C76.7485 23.5284 76.7326 23.5646 76.7056 23.5919C76.6785 23.6193 76.6423 23.6358 76.6038 23.6384C76.0913 23.4896 75.5072 23.4193 74.9903 23.3484H74.9915ZM114.674 23.3484V23.2774C114.673 23.2676 114.674 23.2576 114.678 23.2483C114.681 23.2389 114.686 23.2303 114.693 23.223C114.699 23.2156 114.708 23.2098 114.717 23.2058C114.726 23.2018 114.736 23.1997 114.746 23.1996C115.332 22.9874 115.846 22.8393 116.354 22.6975C116.354 22.6975 116.504 22.6975 116.504 22.7684C116.575 22.8393 116.504 22.9096 116.433 22.9874C115.918 23.1293 115.403 23.2774 114.888 23.4193H114.817C114.744 23.4193 114.744 23.4193 114.673 23.3484H114.674ZM72.5789 22.909C72.5034 22.8387 72.4317 22.8387 72.4317 22.7678C72.4317 22.619 72.5034 22.5481 72.5789 22.619C73.0901 22.6968 73.6761 22.8387 74.1873 22.909C74.2257 22.9124 74.2615 22.9292 74.2884 22.9565C74.3153 22.9838 74.3314 23.0197 74.3338 23.0577V23.0577C74.2622 23.1287 74.1873 23.199 74.1157 23.199C73.5994 23.0584 73.0888 22.9874 72.5776 22.9096L72.5789 22.909ZM70.087 22.4068C70.0484 22.4041 70.0121 22.3875 69.9851 22.36C69.9581 22.3326 69.9422 22.2963 69.9404 22.2581C70.0153 22.1871 70.0153 22.1168 70.1618 22.1168C70.673 22.2581 71.1842 22.3359 71.6992 22.4778C71.7367 22.48 71.7721 22.4955 71.7989 22.5215C71.8258 22.5474 71.8424 22.582 71.8457 22.619C71.8439 22.6572 71.828 22.6935 71.801 22.721C71.774 22.7484 71.7378 22.765 71.6992 22.7678V22.7678C71.1119 22.6196 70.6007 22.5481 70.0857 22.4075L70.087 22.4068ZM117.09 22.5481C117.09 22.4778 117.09 22.4068 117.162 22.4068C117.686 22.2444 118.199 22.0507 118.699 21.8269V21.8269C118.771 21.8269 118.842 21.8269 118.842 21.9681C118.921 21.9681 118.842 22.1168 118.771 22.1168C118.263 22.3359 117.748 22.4778 117.233 22.6968C117.195 22.6929 117.16 22.6758 117.134 22.6485C117.107 22.6213 117.092 22.5857 117.089 22.5481H117.09ZM16.5692 22.6196C16.5597 22.6198 16.5504 22.6181 16.5416 22.6146C16.5329 22.6111 16.525 22.6058 16.5183 22.5992C16.5117 22.5926 16.5065 22.5847 16.503 22.576C16.4995 22.5673 16.4979 22.558 16.4981 22.5487V22.5487C16.498 22.5394 16.4997 22.5302 16.5032 22.5216C16.5067 22.513 16.5119 22.5052 16.5186 22.4986C16.5252 22.492 16.5331 22.4869 16.5418 22.4834C16.5505 22.4799 16.5598 22.4782 16.5692 22.4784V22.4784C16.9914 22.1193 17.4317 21.7816 17.8884 21.4666V21.4666C17.9601 21.3887 18.0349 21.3887 18.0349 21.4666C18.0516 21.4789 18.0651 21.4949 18.0744 21.5133C18.0838 21.5317 18.0886 21.552 18.0886 21.5726C18.0886 21.5932 18.0838 21.6136 18.0744 21.632C18.0651 21.6504 18.0516 21.6664 18.0349 21.6787V21.6787C17.5954 21.9687 17.1558 22.3365 16.7157 22.6203H16.7912C16.7157 22.6981 16.7157 22.6981 16.6446 22.6981C16.6344 22.6982 16.6242 22.6962 16.6147 22.6922C16.6053 22.6883 16.5968 22.6825 16.5897 22.6751C16.5826 22.6677 16.5771 22.659 16.5736 22.6495C16.5701 22.6399 16.5686 22.6298 16.5692 22.6196V22.6196ZM67.5976 21.9687C67.5227 21.8978 67.5227 21.8978 67.5227 21.8275V21.7566C67.5227 21.6787 67.5976 21.6078 67.6692 21.6787C68.1842 21.7566 68.7703 21.8978 69.2815 21.9687C69.3531 21.9687 69.3531 22.0465 69.3531 22.1175C69.3503 22.1546 69.3338 22.1895 69.3068 22.2155C69.2798 22.2415 69.2442 22.2568 69.2066 22.2587V22.2587C68.6954 22.1175 68.1088 22.0459 67.5976 21.9687ZM119.427 21.6787C119.427 21.6078 119.427 21.5369 119.506 21.5369C120.013 21.3178 120.528 21.0975 120.964 20.886C121.004 20.8806 121.045 20.8842 121.084 20.8965C121.122 20.9088 121.157 20.9294 121.186 20.9569V20.9569C121.191 20.9964 121.187 21.0365 121.174 21.0743C121.162 21.1122 121.142 21.147 121.115 21.1766C120.6 21.3887 120.092 21.6078 119.578 21.8275H119.506C119.463 21.7888 119.435 21.7361 119.427 21.6787V21.6787ZM66.7217 21.7566C66.2105 21.6787 65.6955 21.5369 65.1843 21.4666C65.1462 21.4626 65.1106 21.4455 65.0839 21.4184C65.0571 21.3912 65.0408 21.3556 65.0378 21.3178V21.3178C65.0378 21.2469 65.1843 21.1766 65.2598 21.1766C65.771 21.2469 66.2822 21.3887 66.7965 21.4666C66.8682 21.5369 66.943 21.6078 66.943 21.6787C66.943 21.7566 66.8682 21.7566 66.7965 21.7566H66.7217ZM64.3052 21.2469C63.794 21.1766 63.2828 21.0278 62.6968 20.9569C62.6213 20.9569 62.6213 20.886 62.6213 20.8081C62.6248 20.7712 62.6415 20.7367 62.6684 20.7109C62.6952 20.685 62.7305 20.6694 62.7678 20.6669V20.6669C63.2828 20.8081 63.794 20.886 64.3801 21.0278C64.4517 21.0278 64.4517 21.0987 64.4517 21.1766C64.4517 21.2469 64.3801 21.2469 64.3052 21.2469V21.2469ZM18.5461 21.1766V21.0987C18.5461 21.0278 18.5461 20.9569 18.6216 20.9569C19.0598 20.665 19.5038 20.3769 20.0112 20.1572C20.0829 20.0869 20.1577 20.0869 20.1577 20.1572C20.2294 20.235 20.1577 20.306 20.1577 20.3769C19.6465 20.596 19.2063 20.886 18.7675 21.1766L18.692 21.2469C18.6216 21.2469 18.6216 21.1766 18.5461 21.1766ZM121.7 20.7372V20.665C121.7 20.5941 121.7 20.5232 121.772 20.5232C122.287 20.3041 122.723 20.0838 123.238 19.8653C123.309 19.7944 123.38 19.7944 123.38 19.8653C123.459 19.9432 123.38 20.0141 123.38 20.085C122.873 20.3041 122.358 20.5941 121.921 20.8062H121.843C121.772 20.8081 121.7 20.8081 121.7 20.7378V20.7372ZM60.2772 20.4466C60.2394 20.445 60.2036 20.4297 60.1764 20.4037C60.1493 20.3776 60.1328 20.3426 60.13 20.3053V20.3053C60.13 20.2344 60.2017 20.1566 60.3482 20.1566C60.8632 20.3053 61.3744 20.3763 61.8856 20.5244C61.9233 20.5263 61.959 20.5418 61.986 20.5679C62.013 20.594 62.0294 20.629 62.0321 20.6663V20.6663C62.0294 20.7035 62.0129 20.7384 61.9859 20.7644C61.9589 20.7904 61.9232 20.8058 61.8856 20.8075V20.8075C61.3002 20.665 60.7884 20.596 60.2772 20.4472V20.4466ZM57.789 20.0154C57.7503 20.0132 57.7137 19.9967 57.6866 19.9692C57.6595 19.9416 57.6437 19.905 57.6425 19.8666C57.7136 19.7254 57.789 19.7254 57.8607 19.7254C58.3681 19.7957 58.8863 19.9444 59.4723 20.0154C59.544 20.0154 59.544 20.0863 59.544 20.1566C59.5428 20.195 59.5271 20.2316 59.4999 20.2591C59.4728 20.2867 59.4363 20.3032 59.3975 20.3053V20.3053C58.8863 20.1572 58.3002 20.0869 57.789 20.016V20.0154ZM20.8909 19.9444C20.816 19.9444 20.7444 19.9444 20.7444 19.8666C20.7347 19.8669 20.7251 19.8653 20.7161 19.8619C20.707 19.8585 20.6988 19.8534 20.6918 19.8468C20.6849 19.8402 20.6793 19.8322 20.6755 19.8234C20.6716 19.8147 20.6696 19.8052 20.6695 19.7957L20.7444 19.7254C21.2421 19.4531 21.7554 19.2097 22.2818 18.9966C22.3534 18.9966 22.4283 18.9966 22.4283 19.0745C22.4333 19.1131 22.4292 19.1525 22.4162 19.1893C22.4032 19.2261 22.3817 19.2594 22.3534 19.2866C21.8422 19.5057 21.4021 19.726 20.8909 19.9444V19.9444ZM56.9094 19.7957C56.395 19.7254 55.8838 19.6544 55.3726 19.5057C55.2261 19.5057 55.2261 19.4354 55.2261 19.3644C55.2273 19.326 55.243 19.2894 55.2701 19.2619C55.2972 19.2343 55.3338 19.2179 55.3726 19.2157V19.2157C55.8838 19.3644 56.4698 19.4354 56.981 19.5766C57.0194 19.58 57.0552 19.5968 57.0821 19.6241C57.109 19.6514 57.1251 19.6873 57.1275 19.7254V19.7254C57.0559 19.7957 57.0559 19.7957 56.981 19.7957H56.9094V19.7957ZM123.967 19.5766C123.957 19.5768 123.948 19.5751 123.939 19.5716C123.93 19.568 123.923 19.5628 123.916 19.5562C123.909 19.5496 123.904 19.5417 123.9 19.533C123.897 19.5243 123.895 19.515 123.895 19.5057V19.5057C123.967 19.5057 123.967 19.4354 124.039 19.4354C124.483 19.1448 124.996 18.9257 125.434 18.6357C125.454 18.6165 125.481 18.6058 125.509 18.6058C125.537 18.6058 125.563 18.6165 125.584 18.6357V18.6357C125.655 18.7135 125.655 18.8548 125.584 18.8548C125.069 19.1448 124.626 19.4354 124.118 19.6544H124.04C124.03 19.6546 124.02 19.6526 124.011 19.6487C124.001 19.6448 123.993 19.639 123.986 19.6318C123.979 19.6245 123.974 19.6159 123.971 19.6065C123.967 19.5971 123.966 19.5871 123.967 19.5772V19.5766ZM54.4219 19.3644C53.9069 19.2866 53.3957 19.1448 52.8807 19.0745C52.8425 19.0705 52.807 19.0534 52.7803 19.0263C52.7535 18.9991 52.7372 18.9635 52.7342 18.9257C52.7375 18.8887 52.7541 18.854 52.781 18.828C52.8079 18.802 52.8432 18.7864 52.8807 18.7838H52.9561C53.4673 18.9257 53.9817 18.9966 54.4929 19.0745C54.5646 19.0745 54.6394 19.2157 54.6394 19.2157C54.6365 19.2535 54.6202 19.2892 54.5934 19.3164C54.5667 19.3436 54.5311 19.3606 54.4929 19.3644H54.4219V19.3644ZM23.0143 18.8548C23.0143 18.7838 23.0143 18.7135 23.086 18.7135C23.586 18.5088 24.0997 18.3386 24.6234 18.2039C24.6982 18.1329 24.7699 18.2039 24.7699 18.2748C24.8447 18.3457 24.7699 18.4235 24.6982 18.4235C24.1832 18.5648 23.672 18.7838 23.1608 18.9257C23.086 18.9263 23.0143 18.9263 23.0143 18.8554V18.8548ZM50.3913 18.6363C50.3361 18.6286 50.2848 18.6038 50.2448 18.5654V18.5654V18.4945C50.3196 18.4242 50.3913 18.3463 50.4661 18.3463C50.9773 18.4945 51.4885 18.5654 52.0746 18.6363C52.15 18.6363 52.15 18.7142 52.15 18.8554C52.1099 18.8936 52.0586 18.9184 52.0035 18.9263C51.4904 18.8554 50.9044 18.7142 50.3913 18.6363ZM49.5116 18.4945C49.0004 18.4242 48.4892 18.3463 47.9032 18.2754C47.8277 18.2754 47.8277 18.2045 47.8277 18.1336C47.8296 18.0953 47.8457 18.0591 47.8728 18.0318C47.8999 18.0045 47.9362 17.988 47.9748 17.9854C48.4892 18.0557 49.0721 18.1336 49.5864 18.2045C49.6581 18.2754 49.7336 18.3463 49.6581 18.4242C49.6583 18.4335 49.6565 18.4428 49.653 18.4514C49.6494 18.4601 49.6441 18.4679 49.6375 18.4745C49.6308 18.4811 49.6228 18.4862 49.614 18.4897C49.6052 18.4931 49.5959 18.4947 49.5864 18.4945H49.5116ZM126.088 18.3463V18.2754L126.159 18.2045C126.603 17.9145 127.118 17.6245 127.555 17.3345C127.564 17.325 127.575 17.3174 127.588 17.3122C127.6 17.307 127.613 17.3044 127.626 17.3044C127.64 17.3044 127.653 17.307 127.665 17.3122C127.678 17.3174 127.689 17.325 127.698 17.3345V17.3345C127.777 17.4048 127.777 17.4757 127.698 17.5536C127.262 17.8436 126.747 18.1336 126.311 18.4242H126.239C126.161 18.4242 126.161 18.4242 126.09 18.3463H126.088ZM25.3559 18.1336V18.0557C25.3588 18.0186 25.3753 17.9837 25.4023 17.9577C25.4292 17.9317 25.4648 17.9164 25.5024 17.9145C26.0136 17.7657 26.5286 17.6954 27.0398 17.5536C27.1109 17.5536 27.1863 17.6245 27.2574 17.6954C27.2549 17.7334 27.2388 17.7692 27.2119 17.7964C27.185 17.8236 27.1492 17.8403 27.1109 17.8436V17.8436C26.5997 17.9145 26.0885 18.0557 25.5741 18.2045H25.5024C25.447 18.1974 25.3956 18.1725 25.3559 18.1336ZM45.4131 17.9145C45.3421 17.9145 45.3421 17.8436 45.3421 17.7657C45.3448 17.7285 45.3613 17.6936 45.3883 17.6676C45.4153 17.6416 45.451 17.6262 45.4886 17.6245V17.6245C45.9998 17.6954 46.5858 17.7657 47.1008 17.9145C47.1719 17.9145 47.2435 17.9145 47.1719 18.0557C47.1719 18.1336 47.1008 18.1336 47.0254 18.1336C46.5142 18.0557 45.9998 17.9854 45.4131 17.9145ZM42.9256 17.6245C42.854 17.6245 42.854 17.5536 42.854 17.4757C42.8567 17.4385 42.8732 17.4036 42.9001 17.3776C42.9271 17.3516 42.9628 17.3363 43.0005 17.3345C43.5117 17.4048 44.0229 17.4757 44.6089 17.5536C44.6467 17.5553 44.6824 17.5708 44.7094 17.5969C44.7365 17.6231 44.7528 17.6581 44.7554 17.6954V17.6954C44.6844 17.7657 44.6844 17.8436 44.5379 17.8436C44.0229 17.7657 43.5117 17.6954 42.9256 17.6245ZM27.8441 17.6245V17.5536C27.8441 17.4757 27.8441 17.4048 27.9189 17.4048C28.5049 17.3345 29.0161 17.2636 29.5273 17.1857C29.6028 17.1857 29.7493 17.2636 29.7493 17.3345C29.7458 17.3714 29.7291 17.4059 29.7023 17.4318C29.6754 17.4576 29.6402 17.4732 29.6028 17.4757C29.0878 17.5536 28.5049 17.6245 27.9906 17.6954H27.9189C27.9092 17.6958 27.8996 17.6942 27.8906 17.6908C27.8816 17.6874 27.8733 17.6822 27.8663 17.6756C27.8594 17.669 27.8538 17.6611 27.85 17.6523C27.8461 17.6435 27.8441 17.6341 27.8441 17.6245V17.6245ZM40.4375 17.4048C40.3627 17.4048 40.3627 17.3345 40.3627 17.2636C40.3644 17.2253 40.3803 17.189 40.4073 17.1616C40.4343 17.1342 40.4706 17.1175 40.5092 17.1148H40.584C41.0236 17.1857 41.6102 17.1857 42.1214 17.2636C42.1588 17.2661 42.1941 17.2817 42.2209 17.3076C42.2477 17.3334 42.2644 17.3679 42.2679 17.4048V17.4048C42.2679 17.4757 42.1214 17.5536 42.046 17.5536C41.5348 17.4757 41.0236 17.4757 40.4375 17.4048ZM30.3354 17.2636C30.3354 17.1857 30.3353 17.1148 30.407 17.1148H30.4819C30.9931 17.0445 31.5043 17.0445 32.0909 17.0445C32.1658 16.9736 32.1658 17.0445 32.2374 17.1148C32.235 17.1529 32.2189 17.1888 32.192 17.2161C32.1651 17.2433 32.1293 17.2602 32.0909 17.2636C31.5043 17.3345 30.9931 17.3345 30.4819 17.4048C30.4442 17.4031 30.4085 17.3877 30.3815 17.3617C30.3545 17.3357 30.3381 17.3008 30.3354 17.2636V17.2636ZM37.9462 17.2636C37.9079 17.2602 37.872 17.2433 37.8451 17.2161C37.8183 17.1888 37.8021 17.1529 37.7997 17.1148V17.1148C37.8026 17.0777 37.8191 17.0428 37.846 17.0168C37.873 16.9908 37.9086 16.9755 37.9462 16.9736V16.9736C38.5291 16.9736 39.0435 17.0445 39.6301 17.0445C39.7018 17.0445 39.7018 17.1148 39.7018 17.1857C39.7004 17.2242 39.6846 17.2608 39.6574 17.2884C39.6301 17.3159 39.5935 17.3323 39.5547 17.3345V17.3345C39.0466 17.3345 38.531 17.2636 37.9494 17.2636H37.9462ZM32.8228 17.1148V17.0445C32.8228 16.9736 32.8945 16.9736 32.9693 16.9736C33.4805 16.9027 34.0666 16.9027 34.5778 16.9027C34.6155 16.9044 34.6513 16.9198 34.6783 16.946C34.7053 16.9721 34.7217 17.0072 34.7243 17.0445V17.0445C34.7215 17.0817 34.7051 17.1166 34.6781 17.1426C34.6511 17.1687 34.6154 17.184 34.5778 17.1857V17.1857C34.0666 17.1857 33.4805 17.1857 32.9693 17.2636C32.931 17.2602 32.8951 17.2433 32.8682 17.2161C32.8414 17.1888 32.8253 17.1529 32.8228 17.1148V17.1148ZM35.4575 17.1857C35.42 17.1834 35.3847 17.1678 35.3579 17.1419C35.331 17.116 35.3144 17.0815 35.311 17.0445V17.0445C35.3142 17.0074 35.3308 16.9728 35.3577 16.9467C35.3845 16.9207 35.4199 16.9051 35.4575 16.9027V16.9027C35.9718 16.9027 36.5547 16.9027 37.0697 16.9736C37.1071 16.9761 37.1423 16.9917 37.1692 17.0176C37.196 17.0434 37.2127 17.0779 37.2162 17.1148V17.1148C37.2162 17.1857 37.1407 17.1857 37.0697 17.1857H35.4575ZM128.212 17.0445V16.9736C128.212 16.9027 128.212 16.9027 128.284 16.8248C128.741 16.5346 129.183 16.2203 129.607 15.8833V15.8833C129.678 15.8833 129.749 15.8833 129.749 15.9542C129.821 16.0321 129.821 16.1024 129.749 16.1733C129.313 16.4633 128.87 16.7533 128.434 17.0439C128.434 17.0532 128.432 17.0625 128.429 17.0711C128.425 17.0798 128.42 17.0876 128.413 17.0942C128.406 17.1008 128.399 17.1059 128.39 17.1094C128.381 17.1128 128.372 17.1144 128.362 17.1142V17.1142C128.285 17.1148 128.285 17.0445 128.212 17.0445Z" fill="#C4D7E7"/>
<path fill-rule="evenodd" clip-rule="evenodd" d="M155.144 3.28857L134.127 12.3718L134.931 5.34174L155.144 3.28857Z" fill="#B3001E"/>
<path fill-rule="evenodd" clip-rule="evenodd" d="M155.222 3.30728L132.949 0L134.901 5.54058L155.222 3.30728Z" fill="#F3516D"/>
<path fill-rule="evenodd" clip-rule="evenodd" d="M135.212 7.86934L134.142 12.2801L138.36 11.3737L136.007 7.81348L135.212 7.86934Z" fill="#153059"/>
<path fill-rule="evenodd" clip-rule="evenodd" d="M155.194 3.29053L138.79 16.0363L135.265 7.86385L155.194 3.29053Z" fill="#F3516D"/>
<path d="M65.7402 104.179C65.6921 104.179 65.6455 104.163 65.6079 104.133C65.5702 104.104 65.5438 104.063 65.5328 104.016C65.5011 103.891 62.1193 90.7921 54.2586 74.9788C47.0092 60.3889 34.3549 40.436 15.2484 28.2238C15.2248 28.2091 15.2044 28.1898 15.1883 28.1672C15.1723 28.1445 15.161 28.119 15.1551 28.092C15.1492 28.065 15.1488 28.0371 15.154 28.0099C15.1591 27.9828 15.1696 27.9569 15.185 27.9338C15.2176 27.8897 15.2654 27.8589 15.3194 27.8473C15.3734 27.8358 15.4298 27.8442 15.478 27.871C34.6707 40.1398 47.3714 60.1636 54.6461 74.8025C62.5246 90.6584 65.9134 103.783 65.9489 103.918C65.9622 103.972 65.9536 104.029 65.9248 104.076C65.8961 104.124 65.8496 104.158 65.7954 104.173C65.7789 104.172 65.7605 104.179 65.7402 104.179Z" fill="#F7F9FF"/>
<path fill-rule="evenodd" clip-rule="evenodd" d="M25.638 35.8135C25.638 35.8135 10.5323 6.63047 1.06947 20.926C-5.45115 30.7769 19.7351 37.0895 25.638 35.8135Z" fill="#F7F9FF"/>
<path fill-rule="evenodd" clip-rule="evenodd" d="M34.4385 44.429C34.4385 44.429 40.9566 16.9615 28.8845 19.0542C15.1082 21.4413 30.85 42.3784 34.4385 44.429Z" fill="#F7F9FF"/>
<path fill-rule="evenodd" clip-rule="evenodd" d="M46.2285 60.1535C46.2285 60.1535 60.0036 35.4484 47.8084 34.237C33.8932 32.8523 43.3338 57.2197 46.2285 60.1535Z" fill="#F7F9FF"/>
<path fill-rule="evenodd" clip-rule="evenodd" d="M65.5192 101.982C65.5192 101.982 85.3138 81.6748 73.8575 77.3651C60.7846 72.4478 63.4953 98.4045 65.5192 101.982Z" fill="#FFC200"/>
<path fill-rule="evenodd" clip-rule="evenodd" d="M56.7564 79.6829C56.7564 79.6829 73.3101 56.7096 61.3369 54.1179C47.6747 51.1583 54.222 76.439 56.7564 79.6829Z" fill="#FFC200"/>
<path fill-rule="evenodd" clip-rule="evenodd" d="M40.5024 52.0351C40.5024 52.0351 12.4481 57.0697 15.1817 45.2435C17.3704 35.7611 28.0637 41.1586 34.8761 46.4738C37.7549 48.7215 39.9417 50.9517 40.5024 52.0351Z" fill="#F7F9FF"/>
<path fill-rule="evenodd" clip-rule="evenodd" d="M61.8643 91.846C61.8643 91.846 33.3654 92.662 37.8584 81.3743C42.983 68.4929 60.554 87.9556 61.8643 91.846Z" fill="#F7F9FF"/>
<path fill-rule="evenodd" clip-rule="evenodd" d="M51.1392 68.6125C51.1392 68.6125 23.0848 73.6447 25.8184 61.8204C28.9351 48.327 49.2542 64.9607 51.1392 68.6125Z" fill="#F7F9FF"/>
<path d="M78.9842 106.17H61.3213V114.713H78.9842V106.17Z" fill="#E8EFF5"/>
<path fill-rule="evenodd" clip-rule="evenodd" d="M61.3213 108.994L78.9842 112.6V106.17H61.3213V108.994Z" fill="#292526"/>
<path d="M118.366 106.17H100.703V114.713H118.366V106.17Z" fill="#E8EFF5"/>
<path fill-rule="evenodd" clip-rule="evenodd" d="M100.703 108.994L118.366 112.6V106.17H100.703V108.994Z" fill="#292526"/>
<path fill-rule="evenodd" clip-rule="evenodd" d="M46.7656 39.9758C46.7645 39.0542 46.947 38.1415 47.3029 37.2899C47.6587 36.4382 48.1809 35.6645 48.8394 35.0129C49.4979 34.3613 50.2799 33.8447 51.1404 33.4927C52.001 33.1406 52.9233 32.9601 53.8545 32.9614H122.006C122.937 32.9603 123.86 33.1409 124.72 33.493C125.581 33.8451 126.362 34.3617 127.021 35.0132C127.679 35.6648 128.202 36.4385 128.557 37.2901C128.913 38.1416 129.096 39.0543 129.095 39.9758V82.8204H46.7656V39.9758Z" fill="#E8EFF5"/>
<path d="M84.3794 23.6445H91.9122L91.8228 30.6526L84.2119 30.3495L84.3794 23.6445Z" fill="#FFDBCA"/>
<path d="M85.4648 27.1085C86.3915 27.4851 89.1688 28.0381 91.9081 28.5309V23.665H91.5535L88.8003 25.5713L85.756 26.4501L85.4648 27.1085Z" fill="#292526"/>
<path d="M82.0591 21.6601C82.1059 22.6897 82.3229 23.7047 82.7016 24.6648C83.2039 25.9001 84.0652 26.8153 85.4079 27.1756C85.9787 27.3287 86.5679 27.3921 87.1552 27.4266C90.2421 27.6181 93.4037 25.6534 93.5046 21.898C93.5832 18.9064 92.7803 14.3871 87.7831 14.7217C85.7916 14.8547 82.72 16.1653 82.72 16.1653C82.5646 16.8508 82.4276 17.5406 82.3026 18.2311C82.1016 19.3439 81.9938 20.5096 82.0591 21.6607V21.6601Z" fill="#FFDBCA"/>
<path d="M89.7777 21.3249C89.7662 21.459 89.7018 21.5832 89.5986 21.6707C89.4953 21.7582 89.3615 21.8019 89.2259 21.7926C89.1591 21.789 89.0937 21.7723 89.0334 21.7436C88.9732 21.7149 88.9192 21.6747 88.8747 21.6253C88.8302 21.5759 88.796 21.5183 88.7741 21.4557C88.7522 21.3932 88.743 21.327 88.747 21.2609C88.7584 21.1268 88.8226 21.0025 88.9259 20.915C89.0292 20.8275 89.1632 20.7837 89.2988 20.7933C89.3656 20.7969 89.431 20.8135 89.4912 20.8422C89.5515 20.8709 89.6054 20.9111 89.6499 20.9606C89.6945 21.01 89.7286 21.0676 89.7506 21.1301C89.7725 21.1927 89.7817 21.2589 89.7777 21.3249V21.3249Z" fill="#292526"/>
<path d="M84.957 21.2307C84.9453 21.3648 84.8809 21.489 84.7775 21.5765C84.6742 21.6639 84.5402 21.7077 84.4046 21.6983C84.3378 21.6947 84.2724 21.6781 84.2121 21.6494C84.1519 21.6207 84.0979 21.5805 84.0534 21.531C84.0089 21.4816 83.9747 21.424 83.9528 21.3615C83.9309 21.2989 83.9217 21.2327 83.9257 21.1667C83.9372 21.0325 84.0016 20.9082 84.105 20.8207C84.2084 20.7332 84.3424 20.6895 84.4781 20.699C84.5449 20.7026 84.6103 20.7193 84.6706 20.748C84.7309 20.7767 84.7848 20.8169 84.8293 20.8663C84.8738 20.9157 84.908 20.9734 84.9299 21.0359C84.9518 21.0984 84.961 21.1646 84.957 21.2307V21.2307Z" fill="#292526"/>
<path d="M86.8782 23.6032C86.5662 23.5838 86.2231 23.4846 86.0639 23.2831C85.9738 23.1689 85.906 22.9774 86.0969 22.7125C86.518 22.1263 86.5928 20.3719 86.5935 20.3543C86.5954 20.3292 86.6073 20.3058 86.6265 20.2892C86.6457 20.2727 86.6708 20.2643 86.6962 20.2658C86.7216 20.2658 86.746 20.2758 86.7639 20.2936C86.7819 20.3113 86.792 20.3354 86.792 20.3606C86.792 20.4347 86.714 22.1846 86.2618 22.8136C86.1577 22.958 86.1457 23.076 86.2237 23.1751C86.3943 23.3911 86.9436 23.4777 87.2575 23.3948C87.2822 23.3878 87.3086 23.3904 87.3314 23.4021C87.3541 23.4137 87.3715 23.4336 87.3799 23.4576C87.3831 23.4695 87.3839 23.4819 87.3822 23.494C87.3805 23.5062 87.3763 23.5179 87.3699 23.5285C87.3635 23.539 87.355 23.5482 87.345 23.5554C87.3349 23.5626 87.3235 23.5678 87.3114 23.5706C87.1695 23.603 87.0234 23.6138 86.8782 23.6026V23.6032Z" fill="#292526"/>
<path d="M86.9638 23.6549H86.8744C86.4881 23.6261 86.1697 23.4993 86.0232 23.3078C85.9414 23.2087 85.8329 22.9896 86.0518 22.6852C86.3987 22.2044 86.5097 20.9094 86.542 20.3784C86.5401 20.3575 86.5427 20.3364 86.5496 20.3166C86.5565 20.2967 86.5676 20.2786 86.5821 20.2632C86.5966 20.2479 86.6142 20.2357 86.6337 20.2276C86.6532 20.2194 86.6743 20.2154 86.6955 20.2159C86.7146 20.2156 86.7335 20.2191 86.7511 20.2261C86.7688 20.2331 86.7849 20.2435 86.7985 20.2567C86.8122 20.2698 86.823 20.2855 86.8305 20.3029C86.8379 20.3202 86.8418 20.3389 86.842 20.3577C86.8281 20.6716 86.7386 22.2408 86.3061 22.8408C86.1697 23.0247 86.2427 23.1101 86.263 23.1453C86.4164 23.3292 86.9384 23.4214 87.2422 23.3436C87.3316 23.3436 87.4071 23.3643 87.428 23.4422C87.4335 23.4597 87.4354 23.4781 87.4335 23.4963C87.4317 23.5145 87.4261 23.5322 87.4173 23.5482C87.397 23.583 87.3638 23.6085 87.3247 23.6192C87.2064 23.6465 87.0851 23.6585 86.9638 23.6549ZM86.8813 23.5558C87.0217 23.5663 87.1628 23.5542 87.2993 23.52C87.3053 23.5187 87.311 23.5162 87.316 23.5126C87.321 23.509 87.3253 23.5045 87.3285 23.4993C87.3247 23.4497 87.3031 23.4497 87.2708 23.4422C86.9352 23.52 86.3663 23.4422 86.1843 23.2018C86.0911 23.0888 86.1019 22.9469 86.2198 22.7843C86.6454 22.1899 86.731 20.5416 86.7418 20.3577C86.7386 20.3081 86.6454 20.3012 86.6454 20.3502C86.6131 20.9233 86.4989 22.2395 86.138 22.7417C85.9985 22.93 85.9877 23.1026 86.1019 23.2513C86.2344 23.4139 86.5236 23.5275 86.8813 23.5558V23.5558Z" fill="#153059"/>
<path d="M88.6362 19.0537C88.6362 19.0537 90.6962 19.1497 90.8826 19.2652C91.0691 19.3807 91.0317 20.0411 90.79 20.0392C90.5484 20.0373 88.373 19.7517 88.373 19.7517C88.373 19.7517 88.2651 19.1447 88.6362 19.0537V19.0537Z" fill="#292526"/>
<path d="M85.7927 18.8963C85.7927 18.8963 83.7371 18.7425 83.536 18.8335C83.335 18.9245 83.276 19.5867 83.5164 19.6125C83.7568 19.6382 85.9538 19.62 85.9538 19.62C85.9538 19.62 86.144 19.0312 85.7927 18.8956V18.8963Z" fill="#292526"/>
<path d="M89.6171 24.0717C89.7808 24.0026 89.9342 24.044 89.952 24.1595C89.9586 24.2072 89.9613 24.2552 89.9602 24.3033C89.958 24.3707 89.946 24.4375 89.9247 24.5016C89.9184 24.5205 89.9114 24.5399 89.9044 24.5587C89.8863 24.6052 89.8651 24.6516 89.841 24.6981C89.7099 24.9317 89.5313 25.1359 89.3167 25.2979C89.102 25.4599 88.8557 25.5763 88.5935 25.6396C88.3947 25.6891 88.1877 25.6966 87.9859 25.6616C87.847 25.6359 87.7135 25.5875 87.5907 25.5185C87.4905 25.4626 87.396 25.3972 87.3085 25.3233C87.2007 25.2341 87.2933 25.054 87.4816 24.9743L89.6171 24.0717Z" fill="white"/>
<path d="M94.3267 19.8534C94.3267 19.8534 96.5085 12.2923 90.3119 11.6746C83.0512 10.9509 81.2296 12.9532 80.1914 12.082C80.1914 12.082 79.3263 14.7811 82.3034 14.8438C81.4379 14.9632 80.5597 14.7409 79.8584 14.2249C79.8584 14.2249 79.2007 18.0538 82.3681 17.8611C85.5355 17.6684 89.8749 16.5543 90.5777 17.6339C91.2804 18.7135 92.2191 21.0064 92.9554 20.9719C93.6918 20.9374 94.3267 19.8565 94.3267 19.8565V19.8534Z" fill="#292526"/>
<path d="M91.3409 20.5414C91.3326 20.4391 92.1749 19.8578 92.2535 19.8127C92.7146 19.5471 93.2391 19.3011 93.7821 19.2684C95.1679 19.1862 95.4672 21.2965 95.2376 22.2813C94.9275 23.6189 93.5214 23.8637 92.2688 24.3326C92.2453 24.3414 91.8533 24.4638 91.854 24.4713C91.8546 24.4789 91.3409 20.5426 91.3409 20.5389V20.5414Z" fill="#FFDBCA"/>
<path d="M83.5142 20.7595C83.5225 20.6578 82.6802 20.0766 82.6015 20.0314C82.1398 19.7659 81.6153 19.5198 81.073 19.4872C79.6866 19.405 79.3879 21.5152 79.6143 22.5001C79.9244 23.8377 81.3305 24.0825 82.5838 24.5514C82.6073 24.5601 82.9986 24.6825 82.9979 24.6901L83.5117 20.757L83.5142 20.7595Z" fill="#FFDBCA"/>
<path d="M92.7194 13.5426C92.66 12.611 92.7993 11.6775 93.1285 10.8027C93.4671 11.3789 93.7105 12.0048 93.8496 12.6569C93.8577 12.7201 93.8807 12.7806 93.9169 12.8333C93.9803 12.8956 94.062 12.9364 94.1503 12.95C94.7594 13.1141 95.3479 13.3458 95.9046 13.6405L93.2211 13.4886C93.182 13.49 93.1433 13.4797 93.1101 13.4591C93.084 13.434 93.0657 13.4019 93.0575 13.3668L92.8082 12.6054L92.7194 13.5426Z" fill="#292526"/>
<path d="M129.144 79.313H46.7178V94.7289H129.144V79.313Z" fill="#E8EFF5"/>
<path d="M129.145 87.8296H46.8896V108.943H129.145V87.8296Z" fill="#E8EFF5"/>
<path fill-rule="evenodd" clip-rule="evenodd" d="M64.7607 66.3695L74.7183 66.1855H104.857L117.88 68.6028C117.88 68.6028 108.199 74.0009 107.398 74.2237C106.596 74.4465 85.6126 76.0973 85.2663 76.2894C84.92 76.4815 73.4695 72.5421 72.9938 72.2503C72.5181 71.9584 64.7607 66.3695 64.7607 66.3695Z" fill="#F3516D"/>
<path d="M104.643 61.6567H74.0352V66.188H104.643V61.6567Z" fill="#F3516D"/>
<path d="M104.738 66.2821H73.9395V61.5625H104.738V66.2821ZM74.1297 66.0938H104.548V61.7508H74.1297V66.0938Z" fill="#292526"/>
<path fill-rule="evenodd" clip-rule="evenodd" d="M102.531 29.918H75.1147L73.3389 61.8113L105.712 61.758L102.531 29.918Z" fill="#FFC200"/>
<path d="M76.7359 31.9509C73.8932 30.489 70.4791 32.1699 69.7783 35.378L65.4115 55.9762C63.9984 62.5819 65.6234 63.5818 66.9806 64.5999C69.7123 66.6506 74.1146 64.3978 74.8382 62.049L79.2931 37.799C79.8893 35.4678 78.8206 33.0236 76.7359 31.9509Z" fill="#FFDBCA"/>
<path d="M77.1172 47.5951L67.0791 47.5568L67.3994 45.4521L77.1172 47.5951Z" fill="#292526"/>
<path d="M77.8321 47.7915L66.1836 45.6837L68.1497 34.9635C68.8157 31.6299 72.8196 29.3444 76.0365 30.0343C79.2534 30.7241 80.5992 33.9353 79.9339 37.2684L77.8321 47.7915Z" fill="#FFC200"/>
<path d="M100.704 32.1738C103.831 30.6335 107.705 32.187 108.598 35.3393L114.329 55.5633C116.237 62.1245 113.654 63.3466 112.038 64.2191C109.745 65.4575 104.818 63.4615 103.929 61.1597L98.0452 38.0427C97.2987 35.7548 98.4099 33.3005 100.704 32.1713V32.1738Z" fill="#FFDBCA"/>
<path d="M100.034 47.8881L111.785 45.1181L109.859 35.7656C109.001 32.4571 105.259 29.2452 101.687 30.0405C98.1146 30.8358 96.4668 34.1336 97.325 37.4421L100.034 47.8881Z" fill="#FFC200"/>
<path d="M101.193 47.5697L111.975 47.1931L111.4 45.2222L101.193 47.5697Z" fill="#292526"/>
<path d="M88.2157 48.6181L83.2794 41.9019L82.5735 42.4505L66.3294 54.9973C64.7552 56.5608 65.2892 62.3368 67.8287 63.5815C70.4925 64.8877 72.4967 64.7402 74.0233 63.3109C79.5184 58.1683 88.5087 48.3143 88.2157 48.6187V48.6181Z" fill="#FFDBCA"/>
<path d="M87.7757 49.1021C87.7757 49.1021 89.3695 45.6579 90.0272 44.675C90.5784 43.8508 92.1285 41.8799 91.2957 41.0106C90.9627 40.6635 90.6044 40.2573 90.3691 41.1141C90.3691 41.1141 90.9107 39.6127 90.0989 38.8802C89.2871 38.1477 88.4201 39.9567 88.4201 39.9567C88.4201 39.9567 89.2243 38.0943 88.3389 37.4108C87.7161 36.93 86.7533 37.4064 86.4679 38.3316C86.4679 38.3316 86.0372 35.1762 85.0504 36.8252C83.7343 39.0258 80.624 45.6579 80.624 45.6579L87.7757 49.1021Z" fill="#FFDBCA"/>
<path d="M94.4707 49.7541L88.5983 50.3768C87.6837 50.4735 86.8579 49.7529 86.7533 48.7662L85.3948 35.9532C85.2901 34.9671 85.9465 34.089 86.8605 33.9917L92.7335 33.369C93.6481 33.2724 94.4739 33.993 94.5785 34.9797L95.9371 47.7926C96.0417 48.7787 95.3853 49.6569 94.4707 49.7541Z" fill="#292526"/>
<path d="M87.9322 35.7906L86.7417 35.9161C86.4779 35.9437 86.24 35.736 86.2096 35.4516L86.1975 35.3355C86.1671 35.0505 86.3567 34.7976 86.6199 34.7706L87.8104 34.645C88.0743 34.6174 88.3121 34.8252 88.3425 35.1095L88.3546 35.2263C88.385 35.5106 88.196 35.7636 87.9322 35.7912V35.7906Z" fill="#F7F9FF"/>
<path d="M87.1418 35.2933C87.143 35.3679 87.1222 35.4413 87.082 35.5044C87.0418 35.5676 86.9839 35.6178 86.9154 35.6489C86.8468 35.6801 86.7706 35.6909 86.696 35.6799C86.6214 35.669 86.5516 35.6368 86.4952 35.5873C86.4387 35.5378 86.3981 35.4731 86.3781 35.4011C86.3582 35.3291 86.3598 35.2529 86.3828 35.1819C86.4058 35.1108 86.4493 35.0479 86.5078 35.0008C86.5663 34.9537 86.6374 34.9245 86.7124 34.9167C86.8197 34.9106 86.9251 34.9469 87.0055 35.0174C87.0859 35.088 87.1349 35.1871 87.1418 35.2933Z" fill="#292526"/>
<path d="M88.1359 35.1873C88.1371 35.2619 88.1163 35.3353 88.0761 35.3984C88.0359 35.4616 87.978 35.5118 87.9095 35.543C87.841 35.5741 87.7648 35.5849 87.6902 35.5739C87.6155 35.563 87.5458 35.5308 87.4893 35.4813C87.4329 35.4318 87.3922 35.3671 87.3722 35.2951C87.3523 35.2231 87.3539 35.147 87.377 35.0759C87.4 35.0048 87.4434 34.9419 87.5019 34.8948C87.5604 34.8477 87.6315 34.8185 87.7066 34.8107C87.8138 34.8048 87.9191 34.8411 87.9995 34.9116C88.0799 34.9821 88.1289 35.0812 88.1359 35.1873Z" fill="#292526"/>
<path d="M92.5806 50.3853L94.6387 49.3615L98.481 45.3945L110.162 54.71C110.91 55.4683 114.743 58.1328 114.339 59.798C114.015 61.1312 115.094 62.4199 112.385 64.0224C110.917 64.8905 108.707 65.96 105.708 63.6665C100.722 59.8539 92.8616 50.6181 92.5806 50.3853ZM92.5806 50.3853C92.5679 50.3777 92.5711 50.3777 92.5806 50.3853V50.3853Z" fill="#FFDBCA"/>
<path d="M95.2476 52.6942C93.8231 51.8675 92.8432 50.4483 91.073 49.5357C90.8402 49.4158 90.1679 49.0963 89.9136 49.0291C88.7282 48.726 87.5714 47.8189 86.9466 47.2183C86.5959 46.8799 85.4638 45.7457 85.9953 45.0006C86.7779 43.899 89.006 46.7136 90.2237 47.1655C88.7054 46.6056 88.0312 46.0294 86.8198 45.1105C86.6435 44.9762 86.4557 44.8356 86.249 44.6862C85.9033 44.4351 84.8403 42.7667 85.734 42.1252C86.5585 41.5358 86.8293 42.542 87.8536 43.3009C88.054 43.4496 89.5388 44.383 89.7519 44.624C89.7899 44.6667 87.6177 43.4867 87.102 43.046C86.2483 42.3154 85.0376 40.5485 86.0517 39.8109C86.8242 39.246 87.2948 40.6269 87.6132 41.0079C88.5868 42.183 88.3825 42.2112 89.4734 42.7818C89.75 42.9261 91.7567 43.8865 91.0711 43.3046C90.754 43.0341 89.2394 42.2457 88.4637 41.3368C87.5758 40.293 86.8712 38.6729 87.4604 38.2128C88.2614 37.5852 89.3415 39.6364 90.1083 40.2076C91.2436 41.0531 92.7493 41.9394 94.104 42.3116C98.1993 43.4352 97.9919 47.3771 100.057 47.7097L95.2476 52.6942Z" fill="#FFDBCA"/>
<path fill-rule="evenodd" clip-rule="evenodd" d="M95.8867 43.9692C95.2893 43.6773 94.8231 43.4243 94.8231 43.4243C94.8231 43.4243 94.78 43.2649 94.7153 43.0051C94.4901 42.1062 94.0011 40.0123 94.1051 39.2038C94.1901 38.5416 94.7508 38.3414 95.1491 38.283C95.2621 38.2683 95.3767 38.2925 95.4738 38.3515C95.5708 38.4104 95.6445 38.5006 95.6825 38.6069C95.8994 39.1799 96.3428 40.3556 96.6707 41.2293C96.7588 41.4666 97.4705 42.8381 97.9316 43.7118C98.4821 44.5991 98.9603 45.5282 99.3618 46.4906L98.3965 47.0712C98.3965 47.0712 95.8931 46.146 95.8906 45.9753C95.8886 45.9012 95.8347 44.9226 95.8867 43.9692Z" fill="#FFDBCA"/>
<path d="M92.2711 50.3468C92.258 50.3468 92.2451 50.3443 92.233 50.3393C92.0428 50.2552 87.4864 48.2679 86.0891 46.3786C85.7003 45.8551 85.5519 45.4427 85.6338 45.1188C85.6883 44.9054 85.8437 44.7366 86.0961 44.6167C86.112 44.6089 86.1299 44.6058 86.1475 44.6079C85.8346 44.1839 85.5745 43.724 85.3731 43.2383C85.2266 42.8956 85.2221 42.6006 85.3598 42.3595C85.5342 42.0563 85.8881 41.9327 86.0726 41.8869C85.6623 41.0458 85.5779 40.4281 85.8228 40.049C86.0676 39.6699 86.5458 39.6837 86.5661 39.6856C86.5911 39.6869 86.6146 39.6979 86.6314 39.7162C86.6483 39.7346 86.6572 39.7587 86.6562 39.7835C86.6559 39.7959 86.6531 39.8082 86.648 39.8196C86.6428 39.8309 86.6354 39.8411 86.6262 39.8496C86.6169 39.858 86.6061 39.8645 86.5942 39.8687C86.5824 39.8729 86.5698 39.8746 86.5572 39.8739C86.5534 39.8739 86.1678 39.862 85.9826 40.1513C85.8291 40.3905 85.7669 40.9045 86.3403 41.9948C86.7443 42.7669 87.5352 43.6005 88.1396 44.0838L90.0481 45.6116L89.9282 45.7584L88.0198 44.23C87.4001 43.7348 86.5883 42.878 86.1716 42.0821L86.1602 42.0601C86.0251 42.0896 85.6762 42.1857 85.5259 42.4537C85.4194 42.642 85.4276 42.878 85.55 43.1636C86.1843 44.6456 86.9079 45.117 86.9156 45.122L89.4677 46.759C89.4889 46.7726 89.5038 46.7941 89.509 46.8185C89.5143 46.843 89.5095 46.8686 89.4957 46.8895C89.4819 46.9105 89.4602 46.9252 89.4355 46.9304C89.4107 46.9356 89.3849 46.9308 89.3637 46.9172L86.8122 45.2802C86.7951 45.2695 86.5585 45.1151 86.2325 44.7152C86.2303 44.7306 86.2243 44.7452 86.215 44.7577C86.2057 44.7702 86.1934 44.7802 86.1792 44.7868C85.9775 44.8822 85.8621 45.0058 85.8196 45.1634C85.7562 45.4258 85.8957 45.7967 86.2439 46.2662C87.6113 48.111 92.2635 50.1453 92.3104 50.1654C92.3303 50.1742 92.3465 50.1894 92.3564 50.2086C92.3663 50.2277 92.3693 50.2496 92.3648 50.2707C92.3604 50.2918 92.3488 50.3107 92.3319 50.3243C92.3151 50.3379 92.2941 50.3454 92.2724 50.3456L92.2711 50.3468Z" fill="#292526"/>
<path d="M95.2147 76.5522C95.2147 76.5522 100.354 80.965 103.59 80.7223C106.834 80.4857 110.42 79.3287 111.309 83.4124C111.585 84.6753 110.577 87.3095 110.577 87.3095C110.577 87.3095 111.849 91.451 112.2 93.3523C112.69 95.9547 114.151 99.9596 112.51 101.172C110.999 102.291 109.364 101.125 107.111 97.0522C105.771 94.6371 101.72 91.7592 100.245 90.8622C98.7629 89.9722 89.3022 85.9232 89.3022 85.9232L95.2147 76.5522Z" fill="#FFDBCA"/>
<path d="M111.295 83.3735C110.406 79.2898 104.795 79.8389 101.551 80.0755L97.9432 90.0625C99.4185 90.9595 105.757 94.5982 107.097 97.0133C109.35 101.086 110.985 102.252 112.496 101.133C114.137 99.9207 112.676 95.9158 112.186 93.3134C111.836 91.412 110.563 87.2706 110.563 87.2706C110.563 87.2706 111.571 84.6364 111.295 83.3735Z" fill="white"/>
<path d="M100.599 88.8408C100.571 88.8391 100.542 88.8308 100.526 88.8202L99.2601 88.2529C99.1556 88.211 99.112 88.091 99.1612 87.9881C99.2104 87.8851 99.3544 87.8459 99.4256 87.8937L100.692 88.461C100.796 88.5029 100.84 88.6229 100.791 88.7258C100.749 88.7939 100.675 88.8407 100.599 88.8408Z" fill="#292526"/>
<path d="M101.155 87.271C101.134 87.268 101.106 87.2663 101.09 87.2557L99.8479 86.7782C99.7435 86.7364 99.6944 86.6241 99.729 86.517C99.7716 86.4152 99.8907 86.3535 99.9976 86.4084L101.24 86.8858C101.344 86.9277 101.393 87.04 101.359 87.1471C101.319 87.2282 101.239 87.2762 101.155 87.271Z" fill="#292526"/>
<path d="M101.726 85.8804C101.704 85.8775 101.683 85.8745 101.662 85.8716L100.434 85.432C100.324 85.3978 100.274 85.279 100.31 85.1784C100.344 85.0713 100.465 85.0162 100.569 85.058L101.797 85.4976C101.907 85.5318 101.957 85.6506 101.921 85.7512C101.889 85.8311 101.809 85.8856 101.726 85.8804Z" fill="#292526"/>
<path d="M102.196 84.5363C102.175 84.5349 102.154 84.5336 102.137 84.5241L100.956 84.1216C100.855 84.0858 100.796 83.971 100.83 83.8664C100.866 83.7681 100.974 83.6996 101.091 83.7448L102.273 84.1473C102.374 84.1831 102.433 84.2979 102.398 84.4026C102.365 84.4863 102.288 84.5401 102.196 84.5363Z" fill="#292526"/>
<path d="M102.605 83.2567C102.584 83.2563 102.569 83.2539 102.552 83.2452L101.304 82.855C101.193 82.8194 101.135 82.7054 101.173 82.6036C101.203 82.4976 101.309 82.4515 101.428 82.4706L102.669 82.8627C102.78 82.8983 102.838 83.0124 102.8 83.1141C102.779 83.2036 102.691 83.2584 102.605 83.2567Z" fill="#292526"/>
<path d="M102.983 81.9991C102.968 81.9979 102.952 81.9967 102.937 81.9955L101.707 81.6732C101.6 81.644 101.532 81.5349 101.562 81.4304C101.588 81.3346 101.674 81.2791 101.769 81.2777C101.784 81.2789 101.799 81.28 101.814 81.2812L103.044 81.6036C103.151 81.6328 103.219 81.7419 103.189 81.8463C103.157 81.9447 103.071 82.0001 102.983 81.9991Z" fill="#292526"/>
<path d="M100.137 90.3108C100.116 90.3119 100.089 90.3067 100.068 90.301L98.6791 89.7297C98.5745 89.6877 98.5265 89.5741 98.5675 89.4692C98.6093 89.3779 98.7079 89.3244 98.8261 89.3656L100.215 89.9369C100.32 89.9789 100.368 90.0925 100.327 90.1974C100.29 90.2679 100.225 90.3126 100.137 90.3108Z" fill="#292526"/>
<path d="M100.761 91.7249C100.74 91.726 100.713 91.721 100.692 91.7155C100.587 91.6684 100.539 91.5519 100.58 91.4502C100.61 91.3757 102.625 85.4665 103.936 79.0125C104.358 76.9813 104.671 76.5661 105.024 76.5726L105.031 76.5722C105.63 76.6045 105.907 78.4041 106.028 79.9011C106.003 80.1476 104.796 84.3094 110.887 86.4954C110.991 86.5293 111.046 86.6454 111.012 86.7468C110.97 86.8485 110.838 86.9023 110.754 86.8673C104.344 84.5735 105.624 79.9438 105.634 79.8969C105.509 78.4531 105.22 77.0915 104.995 76.9717C105.003 76.9845 104.735 77.1587 104.335 79.0959C103.006 85.5841 100.986 91.5266 100.943 91.6085C100.921 91.6827 100.842 91.7269 100.761 91.7249Z" fill="#292526"/>
<path fill-rule="evenodd" clip-rule="evenodd" d="M64.2598 62.3163C61.9727 61.5929 59.4866 61.8278 57.3721 62.9739C55.2659 64.1191 53.7178 66.0618 53.0997 68.3618C51.8862 72.8755 54.4921 77.5308 59.0149 78.9002C71.7761 82.7652 95.1551 89.8531 95.1551 89.8531L101.001 74.2815L78.4864 66.815C78.4864 66.815 70.7558 64.3714 64.2598 62.3163Z" fill="#F3516D"/>
<path d="M95.1659 89.9538C95.1595 89.9538 95.1467 89.9538 95.1404 89.9475L77.1001 84.4736C77.049 84.4609 77.0234 84.4041 77.0362 84.3535C77.049 84.3029 77.1064 84.2776 77.1575 84.2903L95.1084 89.7326L100.881 74.3538L70.1394 64.272C70.0883 64.253 70.0627 64.2024 70.0755 64.1519C70.0947 64.1013 70.1458 64.076 70.1969 64.0887L101.035 74.1958C101.06 74.2021 101.079 74.2211 101.092 74.2464C101.105 74.2717 101.105 74.2969 101.098 74.3222L95.2553 89.8906C95.2425 89.9285 95.2042 89.9538 95.1659 89.9538Z" fill="#292526"/>
<path d="M81.7544 79.98C81.7544 79.98 75.7755 83.0222 72.6742 82.003C69.5643 80.9878 66.3272 78.9917 64.5592 82.7471C64.0129 83.9088 64.4193 86.7057 64.4193 86.7057C64.4193 86.7057 62.0382 89.5453 60.4543 90.5464C57.0136 92.7393 54.2759 95.6059 55.3951 97.357C56.9614 99.8097 61.6676 98.8366 66.5439 95.5754C68.7901 94.073 72.0755 93.1748 73.7155 92.665C75.3554 92.1551 85.4697 90.5165 85.4697 90.5165L81.7544 79.98Z" fill="#FFDBCA"/>
<path d="M75.3372 82.1349C75.3372 82.1349 74.6348 82.2613 72.674 82.0045C69.564 80.9893 66.3269 78.9932 64.559 82.7486C64.0127 83.9103 64.419 86.7072 64.419 86.7072C64.419 86.7072 62.0379 89.5468 60.454 90.5479C57.0133 92.7408 54.2757 95.6074 55.3948 97.3585C56.9612 99.8113 61.6674 98.8381 66.5436 95.5769C68.7899 94.0745 72.0753 93.1764 73.7152 92.6665C75.3552 92.1567 76.4867 92.0587 76.4867 92.0587L75.3372 82.1349Z" fill="white"/>
<path d="M73.8693 90.6164C73.7662 90.6241 73.6667 90.5519 73.6492 90.4541C73.6317 90.3415 73.7021 90.2358 73.8144 90.2105L75.1706 89.9629C75.1797 89.96 75.1856 89.9631 75.1947 89.9602C75.2978 89.9525 75.3974 90.0246 75.4149 90.1225C75.4324 90.2351 75.362 90.3408 75.2497 90.3661L73.8936 90.6137C73.8845 90.6166 73.8754 90.6194 73.8693 90.6164Z" fill="#292526"/>
<path d="M73.6648 88.9578C73.5526 88.9683 73.4562 88.8903 73.4387 88.7777C73.4273 88.6681 73.5036 88.5654 73.6189 88.549L74.932 88.3837C74.932 88.3837 74.9321 88.3837 74.9412 88.3809C75.0534 88.3703 75.1498 88.4484 75.1673 88.561C75.1847 88.6736 75.1022 88.7732 74.987 88.7896L73.6648 88.9578C73.6708 88.9608 73.6708 88.9608 73.6648 88.9578Z" fill="#292526"/>
<path d="M73.4242 87.4716C73.312 87.4821 73.2154 87.4041 73.198 87.2915C73.1866 87.1819 73.2691 87.0822 73.3843 87.0658L74.679 86.9358C74.7912 86.9253 74.8877 87.0034 74.9052 87.116C74.9166 87.2256 74.8341 87.3252 74.7189 87.3416L73.4242 87.4716Z" fill="#292526"/>
<path d="M74.4884 85.9436L73.2481 86.0461C73.1377 86.0575 73.0323 85.9713 73.0235 85.8578C73.0147 85.7443 73.0988 85.6476 73.2093 85.6362L74.4497 85.5338C74.5601 85.5224 74.6654 85.6085 74.6741 85.722C74.6829 85.8355 74.5988 85.9322 74.4884 85.9436Z" fill="#292526"/>
<path d="M74.4357 84.6253L73.135 84.7066C73.0242 84.7131 72.9248 84.6317 72.9158 84.5142C72.9085 84.4059 72.9915 84.3093 73.1061 84.2974C73.1061 84.2974 73.1061 84.2973 73.1155 84.2956L74.4123 84.2197C74.5232 84.2132 74.6226 84.2948 74.6317 84.4122C74.6295 84.5223 74.5466 84.6189 74.4357 84.6253Z" fill="#292526"/>
<path d="M74.3115 83.377L74.302 83.3779L73.0324 83.3995C72.917 83.4024 72.8194 83.3091 72.8212 83.2006C72.8177 83.088 72.9041 83.0035 73.0088 82.9924L73.0185 82.9914L74.2881 82.9698C74.4034 82.967 74.5011 83.0603 74.4993 83.1687C74.507 83.2762 74.4216 83.3701 74.3115 83.377Z" fill="#292526"/>
<path d="M73.9864 92.1597C73.8804 92.1726 73.7839 92.1017 73.7725 91.996C73.7571 91.8815 73.8294 91.7839 73.9441 91.7669L75.4271 91.5499C75.4271 91.5499 75.4334 91.5521 75.4358 91.5457C75.5418 91.5328 75.6384 91.6038 75.6498 91.7095C75.6652 91.824 75.5928 91.9215 75.4781 91.9385L73.9951 92.1556C73.9888 92.1533 73.9888 92.1533 73.9864 92.1597Z" fill="#292526"/>
<path d="M73.0419 92.8363C73.0606 92.9414 73.1575 93.0113 73.2628 92.9998C73.2692 93.0021 73.2691 93.002 73.2732 93.0105C73.3895 92.9889 73.4629 92.8885 73.4401 92.7749C73.4208 92.6906 72.5793 88.7192 72.7049 82.1322C72.6405 82.0429 72.469 81.9155 72.298 82.1201C72.1736 88.7427 73.029 92.7543 73.0419 92.8363Z" fill="#153059"/>
<path d="M64.7304 86.4188C70.7421 85.9452 71.1319 81.453 71.1282 81.4457C71.0918 81.3796 70.9698 81.2723 70.7732 81.3723C70.7603 81.5468 70.3949 85.6239 64.6892 86.0757C64.5878 86.0872 64.5126 86.1677 64.529 86.2631C64.5398 86.3565 64.631 86.4249 64.7304 86.4188Z" fill="#153059"/>
<path fill-rule="evenodd" clip-rule="evenodd" d="M112.886 65.3583C115.193 64.7048 117.67 65.0207 119.734 66.2194C121.803 67.4271 123.278 69.4169 123.825 71.7243C124.905 76.2971 122.12 80.8807 117.539 82.0791C104.639 85.4548 81.1246 91.6172 81.1246 91.6172L75.7559 75.8453C75.7559 75.8453 99.5273 69.1288 112.886 65.3583Z" fill="#F3516D"/>
<path d="M75.7528 75.9402C75.7081 75.9402 75.6698 75.9149 75.6634 75.8707C75.6506 75.8201 75.6762 75.7695 75.7273 75.7506L110.224 66.0101C110.275 65.9974 110.326 66.0227 110.345 66.0733C110.358 66.1238 110.333 66.1744 110.282 66.1934L75.7784 75.9402C75.772 75.9402 75.7592 75.9402 75.7528 75.9402Z" fill="#292526"/>
<path fill-rule="evenodd" clip-rule="evenodd" d="M137.587 105.353C137.587 106.285 137.212 107.18 136.546 107.839C135.88 108.498 134.977 108.868 134.035 108.868H123.983C123.041 108.868 122.138 108.498 121.472 107.839C120.806 107.18 120.432 106.285 120.432 105.353V68.0624C120.432 67.1302 120.806 66.2361 121.472 65.5769C122.138 64.9177 123.041 64.5474 123.983 64.5474H134.037C134.979 64.5474 135.883 64.9177 136.549 65.5769C137.215 66.2361 137.589 67.1302 137.589 68.0624L137.587 105.353Z" fill="#E8EFF5"/>
<path d="M120.431 103.769C120.406 103.769 120.382 103.759 120.364 103.741C120.346 103.723 120.336 103.699 120.336 103.674V67.4758C120.337 66.6193 120.681 65.7981 121.293 65.1925C121.905 64.5868 122.735 64.2461 123.6 64.2451H130.534C130.559 64.2451 130.583 64.255 130.601 64.2727C130.619 64.2904 130.629 64.3143 130.629 64.3393C130.629 64.3642 130.619 64.3882 130.601 64.4058C130.583 64.4235 130.559 64.4334 130.534 64.4334H123.6C122.785 64.4343 122.004 64.7551 121.428 65.3254C120.851 65.8958 120.527 66.6692 120.526 67.4758V103.675C120.526 103.7 120.516 103.724 120.498 103.741C120.48 103.759 120.456 103.769 120.431 103.769Z" fill="#292526"/>
<path fill-rule="evenodd" clip-rule="evenodd" d="M163.223 92.0039C162.438 91.5062 161.597 90.7894 161.008 89.792C159.572 87.3635 159.055 86.4508 157.661 86.695C156.266 86.9391 157.538 90.5747 158.015 91.7629C158.042 91.828 158.074 91.891 158.111 91.9512L153.686 92.056C152.514 92.0837 151.564 92.9461 151.508 94.0326C151.475 94.676 151.71 95.1556 152.129 95.5064C151.916 95.6217 151.736 95.7881 151.605 95.9903C151.474 96.1926 151.396 96.4242 151.379 96.6639C151.374 96.7637 151.37 96.839 151.368 96.871C151.318 97.6475 151.685 98.2042 152.324 98.5972C151.682 98.9568 151.309 99.4759 151.353 100.211C151.42 101.299 152.378 102.157 153.553 102.18C155.816 102.225 160.423 102.225 163.223 102.219V92.0039Z" fill="#F7F9FF"/>
<path d="M169.106 91.3882H163.982V102.794H169.106V91.3882Z" fill="#F7F9FF"/>
<path d="M166.545 102.061C167.128 102.061 167.601 101.622 167.601 101.081C167.601 100.54 167.128 100.101 166.545 100.101C165.962 100.101 165.489 100.54 165.489 101.081C165.489 101.622 165.962 102.061 166.545 102.061Z" fill="#F7F9FF"/>
<path d="M14.1693 9.96533C13.3727 9.96533 12.5939 9.73159 11.9315 9.29365C11.2691 8.85572 10.7527 8.23324 10.4477 7.50492C10.1426 6.7766 10.0626 5.97513 10.2178 5.20182C10.3729 4.42851 10.7562 3.71808 11.3193 3.16033C11.8823 2.60258 12.5998 2.22255 13.381 2.06828C14.1623 1.91402 14.9722 1.99244 15.7084 2.29363C16.4446 2.59482 17.0741 3.10527 17.5172 3.76044C17.9603 4.41562 18.1973 5.1861 18.198 5.97451C18.1977 7.03218 17.7732 8.0465 17.0179 8.79475C16.2625 9.54299 15.238 9.964 14.1693 9.96533V9.96533ZM14.1693 2.28874C13.4316 2.28861 12.7105 2.50504 12.0971 2.91064C11.4838 3.31624 11.0058 3.89278 10.7236 4.56732C10.4414 5.24185 10.3677 5.98407 10.5119 6.70005C10.656 7.41603 11.0116 8.07361 11.5334 8.58957C12.0553 9.10554 12.7201 9.45671 13.4437 9.59865C14.1673 9.74059 14.9172 9.66692 15.5985 9.38696C16.2798 9.10701 16.8619 8.63335 17.2711 8.02591C17.6803 7.41848 17.8983 6.70456 17.8974 5.97451C17.8954 4.99694 17.5018 4.06004 16.803 3.36914C16.1042 2.67825 15.1571 2.28973 14.1693 2.28874V2.28874Z" fill="#E8EFF5"/>
<path d="M169.107 73.8352C166.712 73.8352 164.761 71.7688 164.761 69.2217C164.761 66.6745 166.712 64.6157 169.107 64.6157C171.502 64.6157 173.447 66.6814 173.447 69.2217C173.447 71.7619 171.502 73.8352 169.107 73.8352ZM169.107 64.8988C166.87 64.8988 165.048 66.8371 165.048 69.2217C165.048 71.6063 166.871 73.5527 169.107 73.5527C171.343 73.5527 173.161 71.6069 173.161 69.2217C173.161 66.8365 171.34 64.8988 169.107 64.8988V64.8988Z" fill="#E8EFF5"/>
<path d="M72.7079 5.54808C72.1725 5.5482 71.649 5.39113 71.2038 5.09674C70.7586 4.80235 70.4116 4.38387 70.2068 3.89426C70.002 3.40465 69.9485 2.86591 70.0532 2.34622C70.1578 1.82653 70.4159 1.34925 70.7948 0.974764C71.1736 0.600279 71.6562 0.345428 72.1814 0.242458C72.7066 0.139489 73.2509 0.193029 73.7454 0.396305C74.2399 0.599581 74.6623 0.943456 74.9593 1.38441C75.2562 1.82537 75.4143 2.3436 75.4136 2.87351C75.4135 3.22498 75.3434 3.57299 75.2074 3.89765C75.0713 4.22231 74.872 4.51726 74.6207 4.76564C74.3695 5.01402 74.0712 5.21097 73.743 5.34522C73.4148 5.47947 73.063 5.54841 72.7079 5.54808V5.54808ZM72.7079 0.48893C72.2321 0.488806 71.767 0.628275 71.3713 0.88971C70.9755 1.15114 70.667 1.52281 70.4847 1.95773C70.3023 2.39265 70.2544 2.87131 70.3468 3.3332C70.4393 3.79509 70.6681 4.21949 71.0042 4.55275C71.3403 4.88601 71.7687 5.11318 72.2353 5.20554C72.7018 5.29791 73.1856 5.25132 73.6253 5.07167C74.0651 4.89202 74.4413 4.58737 74.7062 4.19623C74.971 3.80509 75.1128 3.34501 75.1136 2.87414C75.1136 2.2423 74.8603 1.63628 74.4092 1.18909C73.9582 0.741905 73.3463 0.490094 72.7079 0.48893Z" fill="#E8EFF5"/>
<path d="M22.4958 104.704C21.9472 104.704 21.4108 104.543 20.9546 104.242C20.4984 103.94 20.1428 103.511 19.9329 103.01C19.7229 102.508 19.6679 101.956 19.775 101.423C19.882 100.891 20.1462 100.401 20.5342 100.018C20.9222 99.6336 21.4165 99.3721 21.9546 99.2661C22.4928 99.1602 23.0506 99.2146 23.5575 99.4224C24.0644 99.6302 24.4977 99.9821 24.8025 100.434C25.1073 100.885 25.27 101.416 25.27 101.959C25.2692 102.687 24.9766 103.385 24.4566 103.899C23.9365 104.414 23.2313 104.704 22.4958 104.704V104.704ZM22.4958 99.5109C22.0066 99.5109 21.5284 99.6545 21.1216 99.9235C20.7149 100.192 20.3978 100.575 20.2106 101.022C20.0234 101.469 19.9744 101.962 20.0698 102.436C20.1653 102.911 20.4009 103.347 20.7468 103.69C21.0927 104.032 21.5335 104.265 22.0133 104.36C22.4931 104.454 22.9905 104.406 23.4424 104.22C23.8944 104.035 24.2807 103.721 24.5525 103.319C24.8243 102.916 24.9694 102.443 24.9694 101.959C24.9685 101.31 24.7077 100.688 24.244 100.229C23.7803 99.7699 23.1516 99.5117 22.4958 99.5109V99.5109Z" fill="#F7F9FF"/>
<path fill-rule="evenodd" clip-rule="evenodd" d="M37.8368 68.0624C37.8368 67.1302 38.211 66.2361 38.8771 65.5769C39.5432 64.9177 40.4466 64.5474 41.3886 64.5474H51.4425C52.3845 64.5474 53.2879 64.9177 53.954 65.5769C54.6201 66.2361 54.9943 67.1302 54.9943 68.0624V105.353C54.9943 106.285 54.6201 107.18 53.954 107.839C53.2879 108.498 52.3845 108.868 51.4425 108.868H41.3848C40.4428 108.868 39.5394 108.498 38.8733 107.839C38.2072 107.18 37.833 106.285 37.833 105.353L37.8368 68.0624Z" fill="#E8EFF5"/>
<path d="M54.9929 103.769C54.9676 103.769 54.9434 103.759 54.9256 103.741C54.9077 103.723 54.8977 103.699 54.8977 103.674V67.4758C54.8969 66.6692 54.5727 65.8958 53.9964 65.3254C53.4201 64.7551 52.6386 64.4343 51.8236 64.4334H44.8901C44.8648 64.4334 44.8406 64.4235 44.8228 64.4058C44.8049 64.3882 44.7949 64.3642 44.7949 64.3393C44.7949 64.3143 44.8049 64.2904 44.8228 64.2727C44.8406 64.255 44.8648 64.2451 44.8901 64.2451H51.8236C52.689 64.2461 53.5188 64.5868 54.1308 65.1925C54.7427 65.7981 55.087 66.6193 55.088 67.4758V103.675C55.0878 103.7 55.0777 103.724 55.0599 103.741C55.0421 103.759 55.018 103.769 54.9929 103.769V103.769Z" fill="#292526"/>
<path d="M67.8971 53.2835C67.8824 53.2834 67.8678 53.28 67.8546 53.2734C67.8415 53.2669 67.8299 53.2575 67.821 53.2458C67.8058 53.226 67.7992 53.2009 67.8027 53.1762C67.8061 53.1515 67.8193 53.1291 67.8394 53.114L79.5779 44.2844C79.5879 44.2769 79.5992 44.2714 79.6113 44.2683C79.6234 44.2651 79.636 44.2643 79.6484 44.266C79.6608 44.2676 79.6728 44.2717 79.6836 44.2779C79.6944 44.2842 79.7038 44.2924 79.7114 44.3023C79.719 44.3121 79.7245 44.3234 79.7277 44.3354C79.7309 44.3473 79.7317 44.3598 79.73 44.3721C79.7284 44.3843 79.7243 44.3962 79.718 44.4069C79.7117 44.4176 79.7033 44.4269 79.6933 44.4344L67.9548 53.2641C67.9383 53.2767 67.918 53.2835 67.8971 53.2835Z" fill="#292526"/>
<path d="M109.698 54.8041C109.676 54.804 109.655 54.7967 109.638 54.7834L99.757 46.9015C99.7464 46.8941 99.7374 46.8846 99.7307 46.8736C99.7239 46.8626 99.7195 46.8504 99.7177 46.8376C99.7159 46.8249 99.7168 46.8119 99.7202 46.7995C99.7237 46.7871 99.7297 46.7755 99.7379 46.7655C99.7461 46.7555 99.7562 46.7472 99.7677 46.7412C99.7793 46.7353 99.7919 46.7317 99.8049 46.7307C99.8178 46.7298 99.8308 46.7315 99.8431 46.7357C99.8554 46.7399 99.8667 46.7466 99.8763 46.7553L109.758 54.6352C109.778 54.6511 109.79 54.6738 109.793 54.6986C109.795 54.7234 109.788 54.7482 109.772 54.7677C109.764 54.779 109.752 54.7881 109.739 54.7944C109.727 54.8007 109.712 54.804 109.698 54.8041V54.8041Z" fill="#292526"/>
</svg>
