<svg width="130" height="91" viewBox="0 0 130 91" fill="none" xmlns="http://www.w3.org/2000/svg">
<path d="M129.924 88.3818H0.0764194C0.0356607 88.3818 -3.21593e-06 88.3417 -3.21593e-06 88.2959C-3.21593e-06 88.2501 0.0356607 88.21 0.0764194 88.21H129.924C129.964 88.21 130 88.2501 130 88.2959C130 88.3417 129.964 88.3818 129.924 88.3818Z" fill="#2D292A"/>
<path d="M78.7695 60.1116C78.7695 60.1116 80.0005 64.9169 82.5389 67.4786C82.8871 67.8412 83.4707 68.9994 83.621 68.8496C83.8438 68.6345 84.0706 68.5555 83.8312 68.226C83.8312 68.226 84.2036 68.881 84.8874 68.5957C85.579 68.3203 85.2488 67.4047 85.2488 67.4047C85.2488 67.4047 85.6404 68.2934 86.3486 67.9604C86.8456 67.7264 87.1173 67.076 86.8676 66.7074C86.8676 66.7074 88.3803 67.2105 88.1754 66.2704C87.8881 65.0164 85.0018 58.3234 85.0018 58.3234L78.7695 60.1116Z" fill="#FFDBCA"/>
<path d="M80.7797 65.1193C80.7797 65.1193 81.1603 66.2403 81.3517 66.7705C81.9731 68.5586 83.4847 71.3731 86.0431 70.9952C86.7997 70.8816 82.384 65.0108 82.384 65.0108L80.7797 65.1193Z" fill="#FFDBCA"/>
<path d="M83.959 68.6652C83.959 68.6652 86.445 72.6584 87.832 71.2011C88.619 70.373 85.4865 68.017 85.4865 68.017L83.959 68.6652Z" fill="#FFDBCA"/>
<path d="M84.6632 61.6546C84.6632 61.6546 85.4272 59.2323 85.7975 60.0504C87.0681 62.81 91.7302 64.0669 91.1715 64.7815C89.7558 66.6391 85.1261 63.0201 84.3529 63.5632C83.5755 64.0813 84.6632 61.6546 84.6632 61.6546Z" fill="#FFDBCA"/>
<path d="M87.1925 64.1571C87.1925 64.1571 88.9143 66.3584 89.3544 66.6803C89.9935 67.1509 91.3798 68.6083 90.86 69.1181C89.8522 70.102 88.9381 68.7146 88.2877 68.2125C87.8059 67.8373 87.0927 67.1615 86.8103 67.5552C86.5344 67.936 86.6668 67.6217 86.6668 67.6217C86.6668 67.6217 86.53 67.2427 86.672 67.0172C86.8018 66.7888 85.0437 65.1989 85.0437 65.1989L87.1925 64.1571Z" fill="#FFDBCA"/>
<path d="M85.7106 66.7833C85.7106 66.7833 86.4356 66.6696 86.9137 67.1132C87.3918 67.5569 90.2633 69.8758 89.9238 70.48C89.0669 72.0815 86.1811 68.6944 85.7502 68.5638C85.3324 68.4378 84.4375 67.3211 84.4375 67.3211L85.7106 66.7833Z" fill="#FFDBCA"/>
<path d="M89.1503 70.8927C88.676 70.8887 87.7487 70.6426 86.266 69.2564C86.147 69.1511 86.0545 69.0324 85.9702 68.8966L84.9655 67.3219C84.9397 67.2746 84.9518 67.2242 84.9922 67.1988C85.0326 67.1734 85.0875 67.1853 85.1202 67.2265L86.125 68.8012C86.1992 68.9159 86.2929 69.0233 86.3936 69.1247C88.5537 71.1352 89.4397 70.6597 89.4523 70.6586C89.4927 70.6332 89.5532 70.6501 89.5803 70.6863C89.6061 70.7336 89.594 70.784 89.5535 70.8094C89.534 70.8166 89.407 70.8876 89.1503 70.8927Z" fill="#292526"/>
<path d="M87.1458 71.4895C86.0836 71.491 85.3253 70.6482 84.8495 70.1169C84.767 70.0194 84.6946 69.943 84.621 69.8778C84.1287 69.3808 83.5054 68.1805 83.474 68.1282C83.4482 68.081 83.4672 68.0244 83.5133 68.004C83.5594 67.9837 83.6143 67.9955 83.64 68.0428C83.6444 68.0589 84.2791 69.2693 84.7487 69.7462C84.8154 69.8175 84.8934 69.8989 84.9759 69.9964C85.4913 70.5629 86.3504 71.507 87.5152 71.2661C87.56 71.2569 87.6123 71.2909 87.6254 71.3392C87.6386 71.3876 87.6013 71.4402 87.5565 71.4494C87.429 71.4711 87.2833 71.4889 87.1458 71.4895Z" fill="#292526"/>
<path fill-rule="evenodd" clip-rule="evenodd" d="M80.5133 64.3423C80.5133 64.3423 73.278 50.5099 72.711 48.7025C72.3845 47.6474 71.6616 40.112 72.1863 35.139C72.4088 33.036 72.7672 31.1014 73.1121 29.5559C73.5811 27.4447 75.4273 25.9126 77.6042 25.8285C78.9295 25.7741 80.2139 26.2906 81.1296 27.249C82.0436 28.2028 82.4961 29.5056 82.3741 30.824C82.2504 32.1378 82.0976 33.5986 81.9048 35.084C81.3719 39.2105 81.0027 45.0628 81.191 46.4458C81.5771 49.2844 86.3426 61.2035 86.3426 61.2035L80.5133 64.3423Z" fill="#FFDBCA"/>
<path d="M80.5157 64.4382C80.5045 64.4372 80.4981 64.4344 80.4869 64.4334C80.4629 64.4269 80.4453 64.4079 80.4325 64.3873C80.1389 63.8209 73.1876 50.528 72.6254 48.734C72.2655 47.5849 71.5841 40.0292 72.0991 35.1356C72.2892 33.3225 72.601 31.4401 73.0265 29.5418C73.5052 27.3968 75.3787 25.8347 77.586 25.7446C77.5908 25.7428 77.5956 25.7411 77.6068 25.7421C78.9593 25.688 80.2694 26.2155 81.2026 27.1928C82.1342 28.1656 82.5963 29.4952 82.4709 30.8349C82.3309 32.3468 82.1702 33.7853 82.0033 35.0996C81.4688 39.2216 81.1028 45.0524 81.2927 46.44C81.6693 49.2365 86.3901 61.0604 86.4379 61.1797C86.4539 61.2245 86.4378 61.2707 86.3977 61.2953L80.5669 64.4297C80.5461 64.4322 80.5317 64.4374 80.5157 64.4382ZM77.6321 25.9201C77.6273 25.9218 77.6225 25.9236 77.6113 25.9225C75.4777 26.0062 73.6651 27.5109 73.2025 29.5793C72.7787 31.4669 72.47 33.3431 72.2784 35.1517C71.7423 40.2451 72.4925 47.705 72.7951 48.6777C73.3271 50.3865 79.9464 63.0663 80.5464 64.2197L86.2219 61.1668C85.7787 60.0579 81.4645 49.1942 81.0942 46.4612C80.9059 45.0629 81.2687 39.208 81.8049 35.0753C81.9782 33.7637 82.1357 32.3315 82.2757 30.8196C82.3977 29.5316 81.9484 28.253 81.0519 27.3181C80.1763 26.3807 78.9271 25.8716 77.6321 25.9201Z" fill="#FFDBCA"/>
<path fill-rule="evenodd" clip-rule="evenodd" d="M72.4156 14.7327C72.4156 14.7327 74.3641 6.20577 66.8389 4.90874C61.4777 3.985 59.3549 9.84074 55.3655 9.39233C49.3452 8.71347 47.4758 13.0884 43.8124 13.0108C41.6025 12.9614 37.6376 12.9464 33.593 14.4023C30.5956 15.4812 27.9309 19.3664 28.3036 22.5282V22.5282C28.8808 27.4241 32.2443 29.9313 36.6922 32.0486C39.3873 33.3315 42.1474 34.4392 43.3841 34.2892C50.1426 33.4621 60.0394 34.0232 64.2917 31.7918C68.9879 29.3299 72.4156 14.7327 72.4156 14.7327Z" fill="#292526"/>
<path fill-rule="evenodd" clip-rule="evenodd" d="M70.3439 14.602C70.3439 14.602 71.5876 8.94655 68.2072 7.0942C61.7584 3.56324 56.7228 14.028 62.0065 17.508C69.3809 22.3759 64.3798 18.3628 64.3798 18.3628L70.3439 14.602Z" fill="#292526"/>
<path d="M60.5687 27.4704C57.7484 26.3318 60.1234 22.879 62.7405 15.5167L68.9196 19.1837C68.9196 19.1837 68.67 19.7981 68.2959 20.7855C68.1753 21.0942 68.0417 21.4392 67.9062 21.8163C67.2552 23.5475 66.3965 25.8837 65.6957 28.0474C65.2327 29.4696 61.3327 27.7783 60.5687 27.4704Z" fill="#FFDBCA"/>
<path fill-rule="evenodd" clip-rule="evenodd" d="M68.2568 22.2061C68.2568 22.2061 67.3069 21.479 65.357 19.3351C64.4473 18.3358 63.3307 16.7623 63.5552 15.9504C64.0712 14.0065 70.3148 18.4586 70.3148 18.4586L68.2568 22.2061Z" fill="#292526"/>
<path fill-rule="evenodd" clip-rule="evenodd" d="M65.2035 9.63214C64.7291 10.3775 62.6174 13.4396 63.2502 16.2047C63.3834 16.7897 63.3941 17.5785 63.7524 18.0736C64.7238 19.3961 66.0676 19.9084 66.9262 20.0719C67.8713 20.252 70.5931 19.8897 71.3541 16.7217C71.3679 16.6722 71.7722 14.1756 71.7706 13.6197C71.7401 10.7406 70.6751 9.99505 69.5244 8.82388C68.8202 8.10965 66.5759 7.49904 65.2035 9.63214Z" fill="#FFDBCA"/>
<path d="M66.7166 14.3102C66.6655 14.5051 66.7842 14.7144 66.9738 14.7638C67.1633 14.8132 67.3697 14.6886 67.4208 14.4937C67.4719 14.2988 67.3531 14.0894 67.1635 14.04C66.974 13.9906 66.7714 14.1014 66.7166 14.3102Z" fill="#292526"/>
<path d="M66.3905 13.3839C66.3752 13.3192 66.3811 13.2282 66.4233 13.1756C66.4656 13.1231 66.5222 13.0735 66.6008 13.0593C66.9652 12.9823 67.569 12.8481 67.6841 12.8723C67.9717 12.9329 68.0456 13.3327 67.7675 13.4278C67.6711 13.4536 67.0885 13.5616 66.7418 13.6269C66.5735 13.6376 66.4144 13.5426 66.3905 13.3839Z" fill="#292526"/>
<path d="M70.6524 14.4198C70.6918 14.6169 70.5609 14.8197 70.3688 14.8592C70.1767 14.8987 69.9782 14.7637 69.9387 14.5666C69.8993 14.3696 70.0302 14.1666 70.2223 14.1271C70.4144 14.0876 70.6129 14.2227 70.6524 14.4198Z" fill="#292526"/>
<path d="M71.053 13.5304C71.0721 13.4666 71.0572 13.3778 71.0327 13.3209C71.0082 13.264 70.9401 13.2139 70.8625 13.1957C70.5032 13.1002 69.9083 12.9352 69.792 12.9535C69.5012 12.9992 69.4035 13.3946 69.6755 13.5038C69.7702 13.5345 70.3455 13.6721 70.6878 13.7551C70.8382 13.7619 71.0027 13.6751 71.053 13.5304Z" fill="#292526"/>
<path d="M68.708 16.7797C68.5783 16.7779 68.431 16.7451 68.2688 16.6599C68.2219 16.6324 68.207 16.5801 68.2347 16.533C68.2625 16.486 68.3149 16.4709 68.3618 16.4984C68.625 16.6395 68.8567 16.6324 68.9905 16.4904C69.1002 16.3671 69.1027 16.1799 68.9941 16.0148C68.687 15.5437 68.9188 14.6422 68.9234 14.6067C68.9369 14.5579 68.9842 14.5278 69.033 14.5411C69.0818 14.5544 69.1117 14.6014 69.0981 14.6502C69.0972 14.6573 68.8782 15.5171 69.1448 15.9111C69.3019 16.1471 69.2874 16.4266 69.1188 16.6147C69.035 16.7052 68.8892 16.7735 68.708 16.7797Z" fill="#2D292A"/>
<path fill-rule="evenodd" clip-rule="evenodd" d="M67.739 17.6612C67.3248 17.0059 67.0925 16.5661 66.8843 16.3373C66.6762 16.1086 65.8105 16.9139 66.3136 17.6845C66.9009 18.5761 67.8131 17.7827 67.739 17.6612Z" fill="white"/>
<path fill-rule="evenodd" clip-rule="evenodd" d="M59.9166 12.9507C59.9166 12.9507 60.5982 13.6785 63.5062 12.7511C64.9347 12.2968 68.0324 10.5796 68.6278 8.09024L63.8111 7.02176C63.8111 7.02176 62.0722 9.29687 61.8001 9.4384C61.5279 9.57992 59.9166 12.9507 59.9166 12.9507Z" fill="#292526"/>
<path d="M62.784 16.3616C61.0922 15.7975 60.3446 14.6605 60.5082 13.6734C60.6867 12.5965 61.7423 11.876 62.8696 12.0615C63.3769 12.145 63.8089 12.3912 64.1074 12.7446C64.3056 12.8878 63.751 16.8157 62.784 16.3616Z" fill="#FFDBCA"/>
<path d="M61.5289 14.9029C61.5074 14.9036 61.4786 14.8973 61.4637 14.8763C61.2575 14.6678 60.9951 13.9599 61.2314 13.4018C61.3732 13.0683 61.7429 12.6708 62.7251 12.6629C62.7752 12.6614 62.8193 12.703 62.8207 12.753C62.822 12.8031 62.7801 12.8473 62.7299 12.8488C62.0274 12.8555 61.5811 13.0621 61.4055 13.4753C61.2033 13.968 61.4492 14.5976 61.6038 14.7504C61.6406 14.7851 61.6349 14.8425 61.6 14.8793C61.5789 14.8943 61.5576 14.9021 61.5289 14.9029Z" fill="#2D292A"/>
<path fill-rule="evenodd" clip-rule="evenodd" d="M68.0354 8.21393C68.0354 8.21393 69.3855 12.0649 72.295 13.011C72.295 13.011 72.6363 11.4767 72.1302 9.97297C71.7718 8.91722 71.1065 7.37057 70.2718 6.49597C69.8063 6.00734 67.8216 5.47303 67.0888 5.19869L68.0354 8.21393Z" fill="#292526"/>
<path fill-rule="evenodd" clip-rule="evenodd" d="M44.5643 59.2629L45.1707 49.4544L54.7739 47.1628L52.511 55.6036L44.5643 59.2629Z" fill="#F3516D"/>
<path fill-rule="evenodd" clip-rule="evenodd" d="M47.6848 50.9046C53.2943 51.4463 74.7911 45.4083 75.5006 43.3751C76.1618 41.4926 77.46 37.725 77.7313 36.7624C78.9361 32.464 75.2447 23.1373 75.2447 23.1373L52.1403 20.5883C52.1403 20.5883 49.4473 22.354 47.7767 24.4707C46.4461 26.1565 42.7068 33.2085 41.8575 40.1114C41.1754 45.6683 42.0819 50.3599 47.6848 50.9046Z" fill="#FFC200"/>
<path fill-rule="evenodd" clip-rule="evenodd" d="M83.4335 31.8106C77.1834 36.3083 67.959 46.1373 64.8907 49.0069C62.1069 51.6106 59.4972 56.5725 59.2451 58.9558C59.0798 60.5313 59.0675 64.4578 62.2153 66.9582C63.886 68.2838 66.3907 69.374 69.9463 68.7029C73.4528 68.0385 79.4976 60.5268 81.404 58.8913C82.6828 57.0311 87.2391 51.3343 88.7141 49.1876L83.4335 31.8106Z" fill="#F3516D"/>
<path d="M75.0971 69.0572L66.7245 69.0183L65.4821 67.0188L68.8592 56.2051L78.9325 59.5983L75.0971 69.0572Z" fill="#FFDBCA"/>
<path fill-rule="evenodd" clip-rule="evenodd" d="M67.7287 58.9616L78.2154 62.0267L66.9048 62.3209L67.7287 58.9616Z" fill="#2D292A"/>
<path d="M83.6679 70.7979C83.1621 70.4314 82.5787 70.1518 81.9652 69.9397C80.6458 69.5021 78.3802 68.8437 77.646 68.562C77.1585 68.3875 77.7906 65.325 77.7906 65.325C76.9475 64.7143 74.944 64.3352 73.7094 65.4244C73.2212 65.8569 72.8848 66.7748 72.215 66.8614C71.5173 66.9635 70.1446 66.5053 69.5175 65.9974C68.82 65.4206 67.4828 65.5419 66.4828 65.5681L63.919 75.1296C63.919 75.1296 82.9874 75.8446 83.3154 75.278C83.5386 74.8857 84.5023 73.1178 84.4515 72.7057C84.3735 72.0417 84.253 71.2932 83.6679 70.7979Z" fill="#153059"/>
<path d="M84.213 73.4029C84.213 73.4029 69.4102 73.4663 65.7688 73.4895C65.2561 73.4884 64.5985 73.4881 64.5985 73.4881L64.4829 73.3738C64.4829 73.3738 64.5309 73.2548 64.5979 73.2506L84.2123 73.1655C84.2793 73.1613 84.3185 73.2224 84.328 73.2798C84.322 73.3602 84.2723 73.4103 84.213 73.4029Z" fill="#010001"/>
<path d="M78.1561 64.9702C77.9495 64.8923 77.7567 64.8886 77.5416 64.9836C76.666 65.3401 75.9029 66.9577 75.6218 67.6152C76.6113 67.1149 78.4711 66.011 78.5158 65.3625C78.5274 65.221 78.4397 65.113 78.2571 65.0189C78.23 65.0038 78.1953 64.9772 78.1561 64.9702ZM75.3563 67.978C75.3367 67.9745 75.3291 67.963 75.3215 67.9514C75.2868 67.9246 75.2686 67.8702 75.2896 67.8226C75.3239 67.7159 76.2471 65.2552 77.4686 64.7655C77.783 64.637 78.0858 64.6499 78.377 64.8044C78.641 64.9439 78.7621 65.1296 78.7598 65.3651C78.7057 66.3708 75.782 67.8079 75.4587 67.9758C75.4271 67.9805 75.3879 67.9734 75.3563 67.978Z" fill="#292526"/>
<path d="M73.0914 65.3307C72.9599 65.3249 72.8344 65.3592 72.7034 65.4253C72.5167 65.5226 72.4225 65.6331 72.4236 65.7768C72.4007 66.439 74.1433 67.5559 75.0648 68.0791C74.8555 67.4098 74.2416 65.7692 73.4024 65.3948C73.3071 65.3616 73.1921 65.3321 73.0914 65.3307ZM75.269 68.441C75.2494 68.4447 75.2382 68.4367 75.2157 68.4204C74.9095 68.2527 72.16 66.783 72.1801 65.7615C72.1951 65.5223 72.3278 65.3325 72.598 65.1884C72.8961 65.0288 73.2065 65.021 73.4985 65.1606C74.6492 65.6709 75.3479 68.1587 75.3739 68.2669C75.3911 68.315 75.3691 68.3705 75.333 68.398C75.3193 68.4417 75.2998 68.4454 75.269 68.441Z" fill="#292526"/>
<path fill-rule="evenodd" clip-rule="evenodd" d="M74.2149 45.9194C75.9676 45.4979 77.2713 45.1863 77.4005 45.1497H77.4066C77.4066 45.1497 77.4066 45.1497 77.4066 45.1558C77.259 45.6873 71.7734 65.2983 71.7734 65.2983L83.3719 66.954C85.961 58.8591 91.5942 48.6259 93.3223 41.1358C93.8143 38.9975 93.3653 36.7493 92.08 34.9532C90.8009 33.157 88.8145 31.9962 86.619 31.7457C85.4444 31.6113 84.5588 31.4953 83.1444 31.3486L74.2149 45.9194Z" fill="#F3516D"/>
<path fill-rule="evenodd" clip-rule="evenodd" d="M83.2787 66.868C83.371 66.6114 83.7585 65.5728 84.3734 64.0149C84.6994 63.184 85.0929 62.2066 85.5357 61.1191C86.741 58.1744 88.3155 54.4049 89.9082 50.4399C90.8553 48.0756 91.8086 45.638 92.6941 43.2737C93.1185 42.1251 93.3337 40.6833 93.2906 39.2782C93.2476 37.818 92.9279 36.3945 92.2822 35.3987C91.6549 34.4395 91.0274 33.7247 90.271 33.2421C89.5023 32.7595 88.5984 32.509 87.4361 32.4845L83.7092 32.399C83.6662 32.399 83.6231 32.3563 83.6292 32.3135C83.6292 32.2646 83.6663 32.228 83.7155 32.2341L87.4361 32.3196C88.6414 32.3501 89.5639 32.6067 90.3572 33.1077C91.1321 33.6026 91.7777 34.3296 92.4234 35.3132C93.0814 36.3273 93.4136 37.7752 93.4566 39.2782C93.4997 40.7016 93.2784 42.174 92.8479 43.3348C91.9685 45.6991 91.0091 48.1367 90.062 50.5071C88.4753 54.4721 86.8948 58.2416 85.6894 61.1863C85.2405 62.2738 84.8531 63.2513 84.5272 64.0821C83.8138 65.8966 83.414 66.9963 83.414 66.9963C83.4017 67.0329 83.3649 67.0513 83.328 67.0513L71.7726 65.3956C71.748 65.3956 71.7294 65.3773 71.7171 65.359C71.7048 65.3406 71.6987 65.3162 71.7049 65.2979L75.9297 47.593C75.942 47.5502 75.9852 47.5197 76.0282 47.5319C76.0713 47.5441 76.102 47.5869 76.0897 47.6296L71.8831 65.249L83.2787 66.868Z" fill="#292526"/>
<path fill-rule="evenodd" clip-rule="evenodd" d="M68.8523 31.5285C62.6032 36.0257 53.3805 45.8543 50.3128 48.7237C47.5296 51.3274 44.9207 56.2892 44.6689 58.6727C44.5038 60.2482 44.4919 64.175 47.6398 66.676C49.3106 68.0019 51.8152 69.0925 55.3705 68.4217C58.8767 67.7578 64.9201 60.2462 66.8262 58.6109C68.1047 56.7507 72.66 51.054 74.1346 48.9073L68.8523 31.5285Z" fill="#F3516D"/>
<path d="M53.255 68.7179C51.1341 68.7145 49.231 68.0582 47.5828 66.7453C46.2042 65.6515 45.2748 64.1719 44.8238 62.3432C44.4389 60.7816 44.507 59.3648 44.582 58.655C44.8267 56.2925 47.4158 51.3042 50.2547 48.6477C51.0319 47.9213 52.2388 46.7131 53.6318 45.3224C57.8134 41.1366 64.1394 34.809 68.806 31.4494C68.8325 31.4297 68.8638 31.4277 68.8923 31.439C68.9208 31.4504 68.9451 31.4692 68.9531 31.4988L74.2294 48.8791C74.2374 48.9086 74.232 48.9354 74.2189 48.9579C73.4578 50.0724 71.8653 52.1366 70.3254 54.1362C68.8845 56.008 67.5222 57.7703 66.9121 58.6673C66.9078 58.6748 66.9035 58.6823 66.8975 58.6839C66.3968 59.115 65.5906 59.9694 64.6573 60.9653C62.012 63.7726 58.0135 68.0233 55.4035 68.5176C54.6498 68.6493 53.9426 68.7178 53.255 68.7179ZM68.8042 31.6777C64.1543 35.0518 57.9046 41.3085 53.7581 45.4595C52.3608 46.8578 51.1582 48.0585 50.3767 48.7924C47.5685 51.4217 45.0083 56.3516 44.7615 58.683C44.5959 60.2334 44.5578 64.1102 47.6981 66.6069C49.8396 68.3071 52.417 68.891 55.354 68.3347C57.9045 67.8562 61.8782 63.6311 64.5088 60.8404C65.4833 59.8082 66.2484 58.9901 66.755 58.5574C67.3769 57.6572 68.7333 55.8965 70.1698 54.0321C71.6908 52.0566 73.2584 50.018 74.0315 48.9003L68.8042 31.6777Z" fill="#292526"/>
<path d="M65.2347 73.7002L56.8515 73.665L55.6099 71.6658L58.9903 60.8504L69.0619 64.2405L65.2347 73.7002Z" fill="#FFDBCA"/>
<path fill-rule="evenodd" clip-rule="evenodd" d="M57.7172 63.6578L68.3474 66.6724L57.1342 66.8549L57.7172 63.6578Z" fill="#2D292A"/>
<path d="M72.3506 76.1373C71.8448 75.7709 71.2614 75.4912 70.6478 75.279C69.3284 74.8414 67.063 74.1832 66.3287 73.9014C65.8412 73.7269 66.4733 70.6645 66.4733 70.6645C65.6302 70.0538 63.6267 69.6746 62.3922 70.7638C61.9039 71.1963 61.5675 72.1142 60.8977 72.2008C60.2 72.303 58.8273 71.8447 58.2002 71.3368C57.5028 70.7601 56.1654 70.8813 55.1654 70.9074L52.6017 80.469C52.6017 80.469 71.67 81.184 71.998 80.6174C72.2212 80.2251 73.185 78.4573 73.1342 78.0452C73.0562 77.3812 72.9357 76.6327 72.3506 76.1373Z" fill="#153059"/>
<path d="M72.7818 79.1764C72.7818 79.1764 57.8882 78.947 54.2242 78.8982C53.7085 78.887 53.047 78.8736 53.047 78.8736L52.9326 78.7564C52.9326 78.7564 52.9828 78.6379 53.0503 78.635L72.7852 78.9378C72.8527 78.9349 72.891 78.9971 72.8996 79.055C72.9002 79.1243 72.8493 79.1736 72.7818 79.1764Z" fill="#010001"/>
<path d="M68.7692 71.3623C68.5626 71.2844 68.3698 71.2807 68.1547 71.3756C67.2791 71.7322 66.516 73.3498 66.2348 74.0073C67.2244 73.507 69.0842 72.403 69.1289 71.7546C69.1405 71.6131 69.0528 71.5052 68.8703 71.4111C68.8355 71.3844 68.8084 71.3693 68.7692 71.3623ZM65.9618 74.3585C65.9422 74.355 65.9347 74.3434 65.9271 74.3318C65.8924 74.3051 65.8741 74.2506 65.895 74.203C65.9293 74.0963 66.8525 71.6355 68.0741 71.1459C68.3885 71.0174 68.6913 71.0304 68.9825 71.1849C69.2465 71.3243 69.3676 71.5101 69.3653 71.7456C69.3112 72.7513 66.3876 74.1884 66.0642 74.3563C66.0326 74.361 66.001 74.3655 65.9618 74.3585Z" fill="#292526"/>
<path d="M63.2896 71.633C63.1581 71.6272 63.0326 71.6615 62.9016 71.7276C62.715 71.8249 62.6207 71.9353 62.6218 72.079C62.5989 72.7412 64.3416 73.8581 65.263 74.3813C65.0537 73.712 64.4398 72.0715 63.6007 71.6971C63.494 71.6557 63.3903 71.6343 63.2896 71.633ZM65.4672 74.7433C65.4476 74.747 65.4364 74.7388 65.4139 74.7225C65.1077 74.5548 62.3582 73.0852 62.3783 72.0638C62.3933 71.8245 62.5261 71.6347 62.7963 71.4906C63.0943 71.331 63.4048 71.3232 63.6967 71.4628C64.8474 71.9731 65.5462 74.461 65.5722 74.5691C65.5893 74.6172 65.5674 74.6728 65.5312 74.7002C65.5176 74.744 65.498 74.7477 65.4672 74.7433Z" fill="#292526"/>
<path fill-rule="evenodd" clip-rule="evenodd" d="M59.6436 45.6362C61.3963 45.2147 62.7001 44.9031 62.8292 44.8665H62.8354C62.8354 44.8665 62.8354 44.8665 62.8354 44.8726C62.6878 45.4041 57.2021 65.0151 57.2021 65.0151L68.8006 66.6707C69.7293 63.7627 71.2298 60.6286 72.6197 57.3967C75.1103 51.6295 77.644 45.6485 78.751 40.8526C79.243 38.7143 78.794 36.4661 77.5087 34.6699C76.2296 32.8738 74.2432 31.713 72.0477 31.4625C70.8731 31.3281 69.9876 31.2121 68.5731 31.0654L59.6436 45.6362Z" fill="#F3516D"/>
<path fill-rule="evenodd" clip-rule="evenodd" d="M68.881 66.7039C68.881 66.7039 71.4392 60.6312 74.0405 54.363C75.2459 51.461 76.4574 48.5163 77.4352 46.1215C77.8411 45.1134 78.3823 43.7877 78.7144 42.4131C78.9235 41.5394 79.0526 40.6475 79.0219 39.8044C78.9788 38.6803 78.8435 37.7639 78.6836 37.0491C78.4807 36.1449 78.2348 35.5584 78.0749 35.2835C77.6137 34.5015 76.9739 33.7378 76.2175 33.1757C75.4303 32.5831 74.5263 32.2105 73.5731 32.241L67.6078 32.4365C67.5586 32.4365 67.5219 32.4793 67.528 32.522C67.528 32.5709 67.5648 32.6076 67.614 32.6015L73.5793 32.406C74.4956 32.3754 75.3628 32.742 76.1192 33.3101C76.8572 33.86 77.4782 34.6053 77.9271 35.369C78.087 35.6378 78.3208 36.206 78.5176 37.0857C78.6775 37.7883 78.8066 38.6986 78.8496 39.8105C78.8804 40.6414 78.7512 41.515 78.5421 42.3703C78.21 43.7388 77.6751 45.0584 77.2692 46.0542C76.2914 48.4552 75.0799 51.3938 73.8745 54.2958C71.2732 60.564 68.7147 66.6367 68.7147 66.6367C68.6963 66.6794 68.7149 66.7222 68.758 66.7466C68.8133 66.765 68.8625 66.7466 68.881 66.7039Z" fill="#292526"/>
<path fill-rule="evenodd" clip-rule="evenodd" d="M68.8132 66.5877L57.2086 64.9256C57.1655 64.9195 57.1225 64.95 57.1163 64.9928C57.1102 65.0417 57.1409 65.0784 57.1901 65.0845L68.7947 66.7466C68.8377 66.7527 68.8808 66.7222 68.8869 66.6733C68.8931 66.6427 68.8624 66.6 68.8132 66.5877Z" fill="#292526"/>
<path fill-rule="evenodd" clip-rule="evenodd" d="M57.2818 65.0368L64.0095 41.7174C64.0218 41.6746 63.9973 41.6257 63.9543 41.6135C63.9112 41.6013 63.8682 41.6257 63.8498 41.6685L57.1218 64.994C57.1095 65.0368 57.1342 65.0795 57.1773 65.0978C57.2203 65.1101 57.2695 65.0795 57.2818 65.0368Z" fill="#292526"/>
<path fill-rule="evenodd" clip-rule="evenodd" d="M57.7379 33.009C57.7379 32.5919 57.9102 32.1884 58.2054 31.8892C58.5068 31.5945 58.9125 31.4268 59.3369 31.4268C66.9257 31.4268 99.0215 31.4268 99.0215 31.4268V34.5958C99.0215 34.5958 66.9257 34.5958 59.3369 34.5958C58.9125 34.5958 58.5068 34.428 58.2054 34.1333C57.9102 33.8296 57.7379 33.4261 57.7379 33.009Z" fill="white"/>
<path fill-rule="evenodd" clip-rule="evenodd" d="M75.0745 17.3972C75.141 17.1305 75.3802 16.9463 75.6596 16.9463C79.0517 16.9463 99.6907 16.9463 103.941 16.9463C104.127 16.9463 104.3 17.0287 104.413 17.1741C104.526 17.3147 104.566 17.5038 104.526 17.6832C103.708 21.0189 100.389 34.5316 100.389 34.5316H70.8707C70.8707 34.5316 74.4027 20.1559 75.0745 17.3972Z" fill="white"/>
<path d="M100.383 34.624H70.8646C70.838 34.624 70.8113 34.6095 70.7914 34.5901C70.7714 34.5659 70.7647 34.5368 70.7714 34.5125C70.7714 34.5125 74.3032 20.1369 74.9816 17.3781C75.0548 17.0727 75.3343 16.8545 75.6535 16.8545H103.935C104.147 16.8545 104.347 16.9515 104.48 17.1163C104.613 17.2812 104.66 17.4993 104.606 17.703C103.788 21.0387 100.469 34.5513 100.469 34.5513C100.462 34.595 100.429 34.624 100.383 34.624ZM70.9844 34.4398H100.31C100.569 33.3925 103.642 20.8544 104.427 17.6593C104.467 17.509 104.427 17.349 104.334 17.2278C104.234 17.1066 104.094 17.0339 103.935 17.0339H75.6535C75.4207 17.0339 75.2144 17.189 75.1612 17.4169C74.5227 20.0351 71.317 33.0871 70.9844 34.4398Z" fill="#292526"/>
<path d="M90.5706 26.1053C90.7837 25.2089 90.2249 24.3106 89.3225 24.0989C88.4201 23.8872 87.5159 24.4423 87.3028 25.3388C87.0897 26.2352 87.6485 27.1335 88.5509 27.3452C89.4533 27.5569 90.3575 27.0017 90.5706 26.1053Z" fill="#292526"/>
<path d="M66.9335 39.1162C66.9335 39.1162 69.8677 39.4949 72.9691 37.3569C73.4062 37.065 74.712 36.6414 74.5817 36.4788C74.3958 36.2386 74.3523 36.0107 73.9683 36.2018C73.9683 36.2018 74.7139 35.9215 74.5337 35.2291C74.3652 34.5302 73.3554 34.7388 73.3554 34.7388C73.3554 34.7388 74.3477 34.4678 74.122 33.7463C73.9633 33.2397 73.3326 32.9005 72.906 33.0968C72.906 33.0968 73.6885 31.7004 72.6746 31.7854C71.3197 31.9122 65.3329 34.1122 65.3329 34.1122L66.9335 39.1162Z" fill="#FFDBCA"/>
<path d="M70.2064 38.7591C70.2064 38.7591 71.4386 38.5267 72.0235 38.4057C73.9914 38.021 77.1803 36.9017 77.2241 34.3925C77.2352 33.6503 70.3677 37.2011 70.3677 37.2011L70.2064 38.7591Z" fill="#FFDBCA"/>
<path d="M74.4353 36.1293C74.4353 36.1293 79.0173 34.212 77.7373 32.7025C77.0098 31.8458 74.0215 34.5809 74.0215 34.5809L74.4353 36.1293Z" fill="#FFDBCA"/>
<path d="M67.2552 34.6098C67.2552 34.6098 64.4515 33.8969 65.3431 33.5652C66.7543 33.0203 70.9748 28.0927 71.6233 28.7161C73.3154 30.3014 68.7561 34.3271 69.1894 35.1365C69.596 35.947 67.2552 34.6098 67.2552 34.6098Z" fill="#FFDBCA"/>
<path d="M70.3124 32.4686C70.3124 32.4686 72.8987 31.0736 73.3091 30.6881C73.9083 30.1289 75.6626 28.9679 76.1046 29.5295C76.9568 30.6177 75.356 31.3322 74.722 31.8987C74.2491 32.3178 73.4236 32.9238 73.7852 33.2429C74.1346 33.5541 73.8299 33.3891 73.8299 33.3891C73.8299 33.3891 73.412 33.4755 73.2015 33.3118C72.9859 33.1594 71.03 34.6625 71.03 34.6625L70.3124 32.4686Z" fill="#FFDBCA"/>
<path d="M72.786 34.2072C72.786 34.2072 72.7914 33.4955 73.3351 33.0881C73.8787 32.6807 76.7838 30.1925 77.3549 30.5917C78.8759 31.6083 74.8561 33.9825 74.6466 34.3819C74.4439 34.7691 73.1282 35.4974 73.1282 35.4974L72.786 34.2072Z" fill="#FFDBCA"/>
<path d="M73.2135 34.9991L73.1416 34.8265C73.1416 34.8265 74.4794 34.2468 74.9776 34.0279C75.0972 33.9799 75.2129 33.9122 75.3119 33.8345C77.798 31.9882 77.4604 31.0738 77.4553 31.0664C77.4358 31.0245 77.4523 30.9656 77.5059 30.9464C77.5596 30.9273 77.6039 30.9499 77.6234 30.9918C77.6429 31.0338 78.0545 32.0274 75.4209 33.978C75.3095 34.0654 75.1763 34.1353 75.0443 34.1931C74.5513 34.4194 73.2135 34.9991 73.2135 34.9991Z" fill="#292526"/>
<path d="M73.7763 36.5269C73.7361 36.5241 73.703 36.504 73.6887 36.4695C73.6753 36.4227 73.6971 36.3714 73.7445 36.3571C73.762 36.3548 75.1306 35.8884 75.7136 35.4885C75.7992 35.4328 75.8973 35.3674 76.0128 35.2997C76.6907 34.8711 77.8256 34.1643 77.775 33.0021C77.7679 32.9504 77.8123 32.9041 77.8638 32.9095C77.9164 32.9026 77.9585 32.9497 77.9605 32.9939C78.014 34.2569 76.8296 35.0026 76.1207 35.4554C76.0052 35.5231 75.9133 35.5836 75.8328 35.6467C75.2312 36.0612 73.8751 36.5179 73.8215 36.5371C73.7937 36.5245 73.7824 36.5221 73.7763 36.5269Z" fill="#292526"/>
<path fill-rule="evenodd" clip-rule="evenodd" d="M50.0094 41.0495C50.8801 40.8838 52.5349 39.5526 54.7764 38.5029C60.1608 35.9743 67.7753 32.5333 67.7753 32.5333L71.6011 38.0178C71.6011 38.0178 54.9512 47.8703 53.0606 48.5497L50.0094 41.0495Z" fill="#FFDBCA"/>
<path fill-rule="evenodd" clip-rule="evenodd" d="M51.8964 49.0703C50.6729 49.6385 49.2404 49.5471 48.097 48.8324C46.9535 48.1178 46.2528 46.8716 46.2345 45.5337C46.1798 40.1822 46.2728 32.7718 46.6728 29.5523C46.9066 27.6768 47.2388 25.9418 47.5709 24.4878C48.1368 21.9769 50.4302 20.2233 53.0185 20.3269C54.1435 20.3695 55.1948 20.8765 55.9263 21.7194C56.6639 22.5624 57.0143 23.6681 56.8973 24.78C56.725 26.3989 56.5035 28.3233 56.2081 30.2782C55.8082 32.9724 55.0944 38.825 54.5406 43.1381C54.2207 45.6367 53.9561 47.6161 53.8392 48.1781C53.8454 48.172 53.0092 48.557 51.8964 49.0703Z" fill="#FFDBCA"/>
<path fill-rule="evenodd" clip-rule="evenodd" d="M54.8376 41.6379L56.984 24.7883C56.9901 24.7456 56.9594 24.7028 56.9102 24.6967C56.8672 24.6906 56.8242 24.7273 56.818 24.77L54.6717 41.6196C54.6655 41.6684 54.7024 41.7051 54.7454 41.7112C54.7945 41.7112 54.8314 41.6806 54.8376 41.6379Z" fill="#292526"/>
<path fill-rule="evenodd" clip-rule="evenodd" d="M83.6604 85.6475L86.2573 80.7956H81.0703L83.6604 85.6475Z" fill="#2D292A"/>
<path d="M84.5929 87.131C85.8237 86.6431 86.4233 85.2563 85.9322 84.0337C85.4411 82.8111 84.0453 82.2155 82.8145 82.7034C81.5837 83.1914 80.9841 84.5781 81.4752 85.8007C81.9663 87.0233 83.3621 87.6189 84.5929 87.131Z" fill="white"/>
<path d="M83.6612 87.6026C83.6441 87.6022 83.6214 87.6017 83.6043 87.6014C82.8881 87.5862 82.2176 87.2951 81.717 86.776C81.2219 86.2626 80.9522 85.5845 80.9677 84.8673C80.983 84.1557 81.276 83.4896 81.7986 82.9922C82.3153 82.5003 82.9979 82.2323 83.7198 82.2476C85.2034 82.2791 86.3827 83.5019 86.3509 84.9759C86.3356 85.6875 86.0425 86.3536 85.52 86.851C85.0147 87.3375 84.355 87.6003 83.6612 87.6026ZM83.6588 82.4385C83.0105 82.436 82.3967 82.6828 81.9264 83.1305C81.4445 83.5892 81.1695 84.2105 81.1551 84.8769C81.1407 85.5433 81.3888 86.1701 81.8504 86.6545C82.3121 87.1332 82.9374 87.4064 83.6082 87.4207C83.6253 87.421 83.6423 87.4214 83.665 87.4219C84.3133 87.4243 84.9272 87.1775 85.3975 86.7298C85.8794 86.2711 86.1544 85.6498 86.1688 84.9834C86.1984 83.611 85.097 82.469 83.7156 82.4397C83.6929 82.4392 83.6758 82.4388 83.6588 82.4385Z" fill="#2D292A"/>
<path d="M84.1454 85.4206C84.4172 85.1619 84.4265 84.7332 84.166 84.4631C83.9055 84.1931 83.474 84.1839 83.2022 84.4426C82.9303 84.7014 82.9211 85.1301 83.1816 85.4001C83.442 85.6702 83.8735 85.6794 84.1454 85.4206Z" fill="white"/>
<path d="M83.6606 86.3978C83.6485 86.3976 83.6395 86.3974 83.6274 86.3971C83.2335 86.3887 82.8641 86.2273 82.5913 85.9444C82.3185 85.6615 82.1718 85.291 82.1803 84.8966C82.1975 84.0989 82.857 83.4594 83.6572 83.4614C83.6693 83.4616 83.6785 83.4618 83.6906 83.4621C84.5057 83.4794 85.152 84.1527 85.1346 84.9594C85.1174 85.7602 84.4579 86.3967 83.6606 86.3978ZM83.6593 83.6451C83.3259 83.644 83.0079 83.7698 82.7665 84.0025C82.5158 84.2412 82.3755 84.5604 82.3681 84.9036C82.3529 85.611 82.9193 86.1983 83.6313 86.2134C83.6404 86.2136 83.6495 86.2138 83.6586 86.214C84.3588 86.2139 84.9346 85.6568 84.9497 84.9585C84.9649 84.251 84.3986 83.6638 83.6866 83.6487C83.6776 83.6455 83.6684 83.6453 83.6593 83.6451Z" fill="#2D292A"/>
<path fill-rule="evenodd" clip-rule="evenodd" d="M58.136 85.6475L60.7329 80.7956H55.5459L58.136 85.6475Z" fill="#2D292A"/>
<path d="M58.0666 87.9075C59.7211 87.9426 61.091 86.6386 61.1265 84.9949C61.1619 83.3513 59.8495 81.9903 58.195 81.9552C56.5405 81.9201 55.1705 83.224 55.135 84.8677C55.0996 86.5114 56.4121 87.8724 58.0666 87.9075Z" fill="white"/>
<path d="M58.1357 87.6025C58.1187 87.6022 58.096 87.6017 58.0789 87.6013C57.3627 87.5861 56.6922 87.2951 56.1915 86.7759C55.6965 86.2626 55.4267 85.5845 55.4422 84.8673C55.4577 84.1501 55.7506 83.4896 56.2732 82.9922C56.79 82.5003 57.4725 82.2323 58.1945 82.2476C59.6781 82.2791 60.8574 83.5019 60.8255 84.9759C60.7882 86.4441 59.5916 87.6052 58.1357 87.6025ZM58.1335 82.4384C57.4852 82.436 56.8713 82.6829 56.401 83.1305C55.9191 83.5893 55.6441 84.2105 55.6297 84.8769C55.6153 85.5433 55.8634 86.1701 56.325 86.6545C56.7867 87.1332 57.412 87.4064 58.0828 87.4206C59.4641 87.4499 60.6138 86.3556 60.6434 84.9833C60.673 83.6109 59.5716 82.4689 58.1903 82.4396C58.1676 82.4391 58.1505 82.4388 58.1335 82.4384Z" fill="#2D292A"/>
<path d="M58.229 85.6327C58.5983 85.5594 58.8379 85.2024 58.7641 84.8354C58.6903 84.4685 58.331 84.2304 57.9617 84.3038C57.5924 84.3771 57.3528 84.734 57.4266 85.101C57.5004 85.468 57.8597 85.706 58.229 85.6327Z" fill="white"/>
<path d="M58.1333 86.3948C58.1212 86.3946 58.1122 86.3944 58.1001 86.3941C57.285 86.3768 56.6385 85.7034 56.6559 84.8966C56.6734 84.0869 57.3512 83.4448 58.1632 83.462C58.9783 83.4794 59.6246 84.1526 59.6073 84.9594C59.5931 85.7572 58.9336 86.3968 58.1333 86.3948ZM58.1319 83.6451C57.4317 83.6453 56.8558 84.2022 56.8408 84.9006C56.8256 85.608 57.392 86.1953 58.104 86.2104C58.816 86.2286 59.4071 85.6629 59.4224 84.9555C59.4376 84.248 58.8713 83.6608 58.1593 83.6457C58.1502 83.6455 58.141 83.6453 58.1319 83.6451Z" fill="#2D292A"/>
<path fill-rule="evenodd" clip-rule="evenodd" d="M38.0733 78.7064C38.0719 78.4129 38.2015 78.1394 38.4315 77.9529C38.6552 77.7665 38.9544 77.6929 39.2417 77.7533C41.3467 78.1809 45.7876 79.0194 48.3839 79.0996C57.3337 79.381 82.7372 79.3052 91.7537 79.1847C95.3416 79.1365 99.9631 78.6303 102.464 78.3711C102.826 78.3333 103.188 78.4243 103.464 78.6289C103.733 78.8284 103.897 79.116 103.898 79.4198C103.901 80.1046 103.286 80.6894 102.469 80.7758C99.9681 81.0349 95.3779 81.541 91.815 81.5839C82.8109 81.7044 57.4197 81.7801 48.4637 81.4988C45.8549 81.4186 41.4018 80.5801 39.2782 80.1527C38.5723 80.0119 38.0766 79.4067 38.0733 78.7064Z" fill="#F3516D"/>
</svg>
