<svg xmlns="http://www.w3.org/2000/svg" width="153" height="120" fill="none" viewBox="0 0 153 120">
    <g clip-path="url(#clip0)">
        <path stroke="#292526" stroke-linecap="round" stroke-linejoin="round" stroke-width=".5" d="M.25.25H115.76V119.75H.25zM.25 9.75L115.76 9.75"/>
        <circle cx="92.508" cy="5" r="2.5" stroke="#292526" stroke-linecap="round" stroke-linejoin="round" stroke-width=".5"/>
        <circle cx="100.509" cy="5" r="2.5" stroke="#292526" stroke-linecap="round" stroke-linejoin="round" stroke-width=".5"/>
        <circle cx="108.509" cy="5" r="2.5" stroke="#292526" stroke-linecap="round" stroke-linejoin="round" stroke-width=".5"/>
        <path fill="#F3516D" d="M27.825 90.729c-.314.829-7.531 15.755-10.57 28.804h25.318l1.626-7.325.614 7.325h23.12s.856-13.746-2.168-23.885l-37.94-4.919z"/>
        <path stroke="#292526" stroke-linecap="round" stroke-linejoin="round" stroke-width=".5" d="M26.503 98.5c-2 5-6.1 16-6.5 20M28.503 98.5c-2 5-6.1 16-6.5 20"/>
        <path fill="#292526" d="M69.659 34.974s1.583 8.923-8.7 23.487c-10.299 14.563-31.494-6.925-31.494-6.925l23.25-22.33 16.944 5.768z"/>
        <path fill="#292526" d="M66.133 43.146c4.68-4.684 4.68-12.278 0-16.962-4.678-4.684-12.264-4.684-16.943 0-4.678 4.684-4.678 12.278 0 16.962 4.679 4.684 12.265 4.684 16.943 0z"/>
        <path fill="#292526" d="M60.516 23.009s-10.227-3.084-18.57 7.981c-3.852 5.097-9.7 7.353-15.705 8.867-5.848 1.47-13.18 2.184-17.6 6.724-5.991 6.14-5.292 17.22.199 23.445 3.994 4.511 10.013 6.368 15.875 6.696 23.934 1.356 35.744-40.235 35.744-40.235l.057-13.478z"/>
        <path fill="#292526" d="M65.95 29.377s-11.296 8.039-17.472 6.211c-6.176-1.827 3.195-18.847 17.473-6.21z"/>
        <path fill="#292526" d="M59.333 26.87c3.965-.965 6.398-4.964 5.435-8.933-.964-3.97-4.959-6.405-8.924-5.44-3.965.964-6.398 4.963-5.435 8.932.964 3.97 4.959 6.405 8.924 5.44z"/>
        <path fill="#F1AD8D" d="M103.89 94.171l-3.338-10.623-27.785 4.84c-2.924.914-4.564 8.339-3.566 11.251.942 2.742 6.533 3.97 9.314 3.184 10.028-2.827 25.931-8.838 25.375-8.652z"/>
        <path stroke="#292526" stroke-linecap="round" stroke-linejoin="round" stroke-width=".5" d="M76.007 87.986l27.809-5.027"/>
        <path fill="#F1AD8D" d="M70.9 55.406c-5.15-.386-9.315 4.155-8.473 9.266l5.392 32.754c.47 2.684 2.653 4.754 5.362 5.054 3.852.442 9.571-2.884 9.272-6.754l-4.25-33.367c-.471-3.755-3.524-6.668-7.304-6.953zM103.891 94.168s8.002-3.44 9.371-4.054c1.141-.514.299 0-.314-1.471-.242-.585-.499-1.256-1.269-.571 0 0 1.54-1.1.87-2.427-.671-1.314-2.796-.143-2.796-.143s2.083-1.27 1.284-2.599c-.557-.928-2.083-1.156-2.967-.428 0 0 1.17-3.455-1.041-2.527-2.938 1.242-10.655 5.611-10.655 5.611l7.517 8.61z"/>
        <path fill="#F1AD8D" d="M111.793 90.357s5.647-1.356 6.118-2.099c.471-.742.285-1.584-.57-1.513-.856.086-6.176 1.313-6.176 1.313l.628 2.3zM111.151 88.06s9.5-2.699 10.127-3.998c.628-1.3.186-2.641-1.241-2.37-1.426.271-10.84 3.441-10.84 3.441l1.954 2.927zM104.575 81.12s5.862-4.313 7.232-4.884c1.355-.57 5.848-1.67 6.661-.385.813 1.285-3.495 2.484-5.192 3.398-1.484.8-2.311 1.842-1.769 2.698.542.871-2.439 1.757-2.439 1.757s-1.084-.043-1.44-.5c-.386-.443-3.053-2.085-3.053-2.085z"/>
        <path fill="#F1AD8D" d="M107.771 83.503s4.579-3.17 6.076-3.77c1.498-.599 5.863-2.055 7.046-1.184 1.184.87.257 1.642-1.226 2.241-1.484.6-7.046 3.084-7.76 3.798-.713.714-4.15 1.642-4.15 1.642l.014-2.727z"/>
        <path fill="#FFC200" d="M127.296 91.757c14.195 0 25.703-11.52 25.703-25.73 0-14.209-11.508-25.728-25.703-25.728s-25.702 11.52-25.702 25.729c0 14.21 11.507 25.728 25.702 25.728z"/>
        <path fill="#292526" d="M121.076 67.585c.664-1.822-.274-3.838-2.094-4.503-1.821-.664-3.834.275-4.498 2.097-.664 1.823.274 3.839 2.094 4.503 1.821.664 3.835-.274 4.498-2.097zM138.698 58.888c.359-1.907-.895-3.743-2.799-4.102-1.904-.358-3.739.896-4.097 2.803-.358 1.906.895 3.742 2.799 4.101 1.905.359 3.739-.896 4.097-2.802z"/>
        <path fill="#fff" d="M138.607 69.584c-2.895 1.87-9.228 5.596-15.304 6.653-1.441.257-1.883 2.113-.685 2.97 2.753 1.956 6.875 4.04 10.783 2.741 4.436-1.47 8.359-7.039 7.731-11.236-.185-1.186-1.526-1.771-2.525-1.128z"/>
        <path fill="#F1AD8D" d="M99.155 84.688s3.452-4.312 3.965-5.854c.514-1.542 2.154-3.413 2.995-2.613.842.8-1.84 6.653-1.212 7.867.627 1.214-5.748.6-5.748.6z"/>
        <path fill="#292526" d="M64.43 42.85c4.311-4.316 4.311-11.313 0-15.629-4.31-4.316-11.3-4.316-15.61 0-4.312 4.316-4.312 11.313 0 15.628 4.31 4.316 11.3 4.316 15.61 0z"/>
        <path fill="#F1AD8D" d="M60.944 42.742l-11.082-1.685-1.655 11.88 11.282 1.17 1.455-11.365z"/>
        <path fill="#292526" d="M59.203 47.81c-1.355.415-6.66.757-10.497.971l1.17-7.724.485.072 3.294 3.598 3.936 2.013 1.612 1.07z"/>
        <path fill="#F1AD8D" d="M66.008 40.658c-.485 4.554-4.564 7.852-9.114 7.367-4.55-.486-7.845-4.569-7.36-9.123.485-4.555 5.306-10.623 9.856-10.138 2.938.314 7.46 6.51 7.46 6.51s-.671 3.756-.842 5.384z"/>
        <path stroke="#292526" stroke-linecap="round" stroke-linejoin="round" stroke-width=".5" d="M60.218 38.241c-.008.025-.563 2.522-.212 3.493.155.445-.007.691-.17.815-.29.218-.8.242-1.236.155-.23-.048-.435-.128-.583-.217"/>
        <path fill="#F8FDFF" d="M70.087 55.462l1.911 4.726c1.141 3.841 1.34 6.64 1.155 10.11-.071 1.213-.228 2.426-.499 3.611l-3.608 15.549-2.625 9.88-37.94-4.554 5.562-44.961 36.044 5.64z"/>
        <path fill="#F1AD8D" d="M53.185 57.219c2.71.442 5.291-1.028 6.375-3.413l-10.81-4.768-.457 3.455c.47 2.37 2.367 4.312 4.892 4.726z"/>
        <path fill="#292526" d="M56.422 38.772c-.043.414.257.8.685.842.413.043.798-.257.841-.685.043-.414-.257-.8-.684-.843-.428-.042-.8.257-.842.686zM61.613 39.328c-.042.414.257.8.685.843.414.043.799-.257.841-.686.043-.414-.256-.8-.684-.842-.428-.043-.799.257-.842.685zM58.22 35.502s-3.053.086-3.324.257c-.27.172-.256 1.185.1 1.185.357 0 3.58-.356 3.58-.356s.185-.928-.357-1.086zM61.956 35.83s2.924.872 3.152 1.114c.228.243-.057 1.2-.4 1.114-.342-.086-3.365-1.285-3.365-1.285s.043-.942.613-.942z"/>
        <path fill="#fff" d="M58.504 44.882c.243.128.343.357.214.5-.057.057-.114.114-.17.157-.086.057-.172.114-.286.157-.029.014-.057.028-.086.028-.07.029-.157.043-.228.072-.756.17-1.711-.029-2.382-.557-.285-.229-.485-.471-.613-.714-.114-.2-.171-.414-.214-.628-.028-.186-.043-.357-.028-.543 0-.214.313-.285.599-.143l3.194 1.67z"/>
        <path fill="#292526" d="M49.862 29.805c1.084-.985 2.396-1.67 3.737-2.256.67-.3 1.369-.571 2.082-.685 1.07-.172 2.168-.015 3.238.157 1.07.171 2.182.342 3.095.913.742.457 1.298 1.128 1.854 1.8.756.899 1.798.228 2.553 1.127.928 1.114 1.156 4.027.685 5.383-.285.8-.014.7-.171 1.542l-.1.671c-.4-1.028.043-1.17-.741-1.942-.329-.314-.842-.4-1.142-.742-.427-.514-.156-1.285-.3-1.928-.156-.656-.812-1.156-1.483-1.127-.556.028-1.098.356-1.625.185-.928-.3-.885-1.813-1.77-2.213-.627-.271-1.326.171-1.782.685-.456.514-.87 1.128-1.526 1.328-.913.286-2.14-.314-2.739.414-.442.543-.185 1.485-.713 1.942-.171.157-.4.214-.628.286-.798.228-1.583.456-2.382.685-.185.057-.356.1-.542.114-.584.043-1.155-.357-1.426-.87-.285-.515-.328-1.143-.257-1.728.171-1.443.999-2.756 2.083-3.741z"/>
        <path fill="#292526" d="M48.535 33.161c-.286.871.185 1.814 1.055 2.1.87.285 1.811-.186 2.096-1.057.286-.871-.185-1.813-1.055-2.099-.884-.3-1.811.186-2.096 1.056z"/>
        <path fill="#F1AD8D" d="M51.387 37.589c.029-.129-.97-.971-1.055-1.043-.542-.385-1.17-.77-1.854-.856-1.726-.258-2.353 2.441-2.182 3.755.228 1.756 1.968 2.227 3.48 2.97.028.014.499.214.499.228 0-.029 1.112-5.054 1.112-5.054z"/>
        <path stroke="#292526" stroke-linecap="round" stroke-linejoin="round" stroke-width=".5" d="M48.005 37.253c.138-.146.649-.348 1.106-.202.298.09.692.37.84 1.133.213 1.033-.255 1.324-.627 1.549-.245.146-.394.258-.426.482-.085.628.617.774.65.785"/>
        <path fill="#F1AD8D" d="M51.13 94.357s4.237-3.241 6.02-3.47c.941-.114 3.594-.1 4.85-.157 1.155-.043 1.91 1.228 1.283 2.199-.014.014-.028.043-.043.057-.442.6-4.707 1.785-4.707 1.785s-4.949 1.984-5.263 1.884c-.3-.085-2.14-2.298-2.14-2.298z"/>
        <path fill="#fff" d="M56.551 108.762l19.783 4.583c2.168.543 2.668-1.042 3.195-3.212l5.706-23.059c.542-2.17.898-3.983-1.27-4.526l-19.997-4.74c-2.168-.543-2.539 1.056-3.08 3.227l-5.706 23.058c-.542 2.171-.799 4.127 1.37 4.669z"/>
        <rect width="25.31" height="31.458" x="61.195" y="77.455" stroke="#292526" stroke-linecap="round" stroke-linejoin="round" stroke-width=".5" rx="2.75" transform="rotate(13.176 61.195 77.455)"/>
        <path fill="#292526" d="M73.148 95.582c.554-1.484-.2-3.137-1.683-3.692-1.484-.554-3.135.201-3.688 1.686-.554 1.485.2 3.138 1.683 3.692 1.484.554 3.135-.2 3.688-1.686z"/>
        <path fill="#F1AD8D" d="M30.392 92.286l10.284-33.31c1.241-4.012-1.227-8.224-5.334-9.095-3.78-.8-7.517 1.556-8.43 5.311l-8.159 33.924c-.256 1.185-.157 2.399.271 3.498.214.543.5 1.057.87 1.528 1.113 1.428 2.796 2.27 4.607 2.313 2.653.071 5.078-1.642 5.891-4.17z"/>
        <path fill="#F1AD8D" d="M58.49 98.998c-.028-2.656-1.825-5.026-4.378-5.754h-.015l-28.555-6.825c-1.497-.357-3.052-.114-4.364.671-1.327.8-2.268 2.056-2.653 3.541-.357 1.385-.214 2.813.413 4.07l.214.385c.799 1.356 2.083 2.313 3.609 2.698l27.4 6.154 2.767.6c2.025.371 2.582-.486 3.88-1.571 1.112-.956 1.697-2.327 1.683-3.97z"/>
        <path stroke="#292526" stroke-linecap="round" stroke-linejoin="round" stroke-width=".5" d="M25.502 86.5L53.004 93"/>
        <path fill="#F1AD8D" d="M50.147 103.952s7.26 1.556 8.714 1.884c1.213.271 4.28 1.242 4.55-.314.114-.628.257-1.313-.77-1.156 0 0 1.883-.1 2.026-1.571.142-1.471-2.268-1.628-2.268-1.628s2.424.043 2.481-1.485c.029-1.085-1.126-2.084-2.253-1.956 0 0 2.838-2.284.485-2.684-3.124-.528-11.953-1.028-11.953-1.028l-1.012 9.938z"/>
        <path fill="#F1AD8D" d="M62.285 106.378s5.063-1.556 5.463-2.342c.399-.785.142-1.599-.7-1.442-.855.157-4.392 1.771-4.392 1.771l-.37 2.013z"/>
        <path fill="#F1AD8D" d="M62.071 104.393s6.632-2.042 7.146-3.055c.513-1.028.185-2.1-.927-1.9-1.113.2-5.762 2.328-5.762 2.328l-.457 2.627z"/>
        <path fill="#F1AD8D" d="M62.028 101.852s7.759-2.655 8.33-3.883c.57-1.228.142-2.484-1.156-2.199-1.312.286-6.717 2.956-6.717 2.956l-.457 3.126z"/>
        <path fill="#F1AD8D" d="M61.814 99.167s6.318-2.4 7.017-3.556c.699-1.156.4-2.455-.927-2.313-1.326.143-6.974 2.256-6.974 2.256l.884 3.613z"/>
    </g>
    <defs>
        <clipPath id="clip0">
            <path fill="#fff" d="M0 0H152.999V120H0z"/>
        </clipPath>
    </defs>
</svg>
