<svg xmlns="http://www.w3.org/2000/svg" width="155" height="125" fill="none" viewBox="0 0 155 125">
    <path stroke="#292526" stroke-linecap="round" stroke-linejoin="round" stroke-width=".5" d="M21.25.25H133.75V124.75H21.25zM21.25 9.75L133.75 9.75M119.25 102.75L154.75 102.75M119.25 114.75L154.75 114.75M119.25 110.75L154.75 110.75M119.25 106.75L144.75 106.75"/>
    <path fill="#FFD0BA" d="M66.06 53.498c-2.308-5.42-9.09-7.267-13.829-3.751l-30.405 22.56c-2.486 1.89-3.426 5.172-2.32 8.081 1.56 4.137 7.942 8.206 11.7 5.875l31.62-21.733c3.579-2.44 4.919-7.06 3.233-11.032z"/>
    <path fill="#FDC155" d="M48.943 76.528L36.828 60.435 52.093 48.66c4.835-3.723 11.328-3.282 15.071 1.544 3.73 4.827 1.879 10.825-2.956 14.549L48.943 76.528z"/>
    <path stroke="#292526" stroke-linecap="round" stroke-linejoin="round" stroke-width=".5" d="M37 60.5c3.667 4.667 11.2 14.4 12 16l1.5-1"/>
    <path fill="#292526" d="M47.797 74.886L34.19 63.139 37.077 61l10.72 13.886zM100.802 123.055v1.531H49.137c.262-3.089.414-6.495.414-6.495.221.11 1.064-1.6 2.183-4.22 11.272 2.027 49.068 9.184 49.068 9.184z"/>
    <path fill="#FFD0BA" d="M76.655 34.8l12.764 1.008-1.229 13.61-12.847-1.613L76.655 34.8z"/>
    <path fill="#292526" d="M77.276 40.882c1.396.8 7.211 2.55 11.439 3.792l.704-8.867-.552-.041-4.6 3.13-4.905 1.227-2.086.759z"/>
    <path fill="#FFD0BA" d="M71.433 31.174c-.387 5.198 3.053 9.887 8.233 10.521 5.18.635 9.905-3.047 10.54-8.219.636-5.17-3.163-13.155-8.343-13.79-3.343-.413-8.662 2-8.662 2s-1.602 7.198-1.768 9.488z"/>
    <path stroke="#292526" stroke-linecap="round" stroke-linejoin="round" stroke-width=".5" d="M77 36c.667.833 2.7 2.1 5.5.5"/>
    <path fill="#FDC155" d="M46.898 118.422l57.261 4.896.58-73.708-44.261-3.255-.636 4.951c-2.265 3.958-3.218 7.02-3.909 10.908-.249 1.365-5.056 2.813-5.07 4.206l-3.965 52.002z"/>
    <path fill="#FFD0BA" d="M81.545 52.879c-3.136-.207-5.623-2.51-6.217-5.434L88.59 44.95l-.387 3.958c-1.133 2.51-3.744 4.165-6.658 3.972z"/>
    <path fill="#292526" d="M84.985 30.925c-.056.482-.498.813-.967.758-.484-.055-.815-.496-.76-.965.055-.482.497-.813.967-.758.47.055.815.482.76.965zM78.257 30.25c-.055.483-.497.814-.967.759-.483-.055-.815-.496-.76-.965.056-.482.498-.813.967-.758.484.055.83.482.76.965z"/>
    <path stroke="#292526" stroke-linecap="round" stroke-linejoin="round" stroke-width=".5" d="M80.076 30c0 .026-.245 2.573-.88 3.387-.285.375-.207.66-.09.828.207.297.686.478 1.126.53.233.026.453.013.621-.026"/>
    <path fill="#292526" d="M83.272 26.873s3.467.372 3.771.593c.304.22.18 1.364-.221 1.337-.4-.028-4.048-.73-4.048-.73s-.138-1.076.498-1.2zM79.308 26.376s-3.454-.469-3.8-.331c-.345.138-.51 1.282-.096 1.35.4.07 4.103.249 4.103.249s.373-.993-.207-1.268zM72.455 73.122l9.643 4.04c1.312.552 2.832-.069 3.384-1.379l8.013-19.016c.552-1.31-.07-2.827-1.382-3.379l-9.642-4.04c-1.313-.552-2.832.069-3.385 1.379l-8.012 19.016c-.553 1.324.069 2.827 1.381 3.379z"/>
    <path fill="#F8FDFF" d="M89.088 55.36l2.431 1.021c.263.11.553-.014.664-.262l.303-.73c.111-.263-.013-.552-.262-.663l-2.431-1.02c-.263-.11-.553.014-.663.262l-.304.73c-.11.263.014.553.262.663z"/>
    <path fill="#292526" d="M90.87 55.126c-.139.33.013.717.345.854.331.138.718-.013.856-.344.138-.331-.014-.717-.345-.855-.332-.151-.719 0-.857.345zM89.309 54.464c-.138.33.014.716.345.854.332.138.718-.014.857-.344.138-.331-.014-.717-.346-.855-.331-.138-.718.014-.856.345z"/>
    <path fill="#FFD0BA" d="M100.637 52.713c5.484-2.193 11.576 1.31 12.419 7.143l5.429 37.426c.414 3.089-1.257 6.068-4.103 7.35-4.034 1.807-11.424.166-12.433-4.137l-6.88-37.716c-.773-4.247 1.548-8.453 5.568-10.066z"/>
    <path fill="#FDC155" d="M96.369 81.066l19.975-2.786-2.403-19.1c-.76-6.053-5.664-10.328-11.715-9.57-6.064.759-9.007 6.303-8.247 12.357l2.39 19.099z"/>
    <path fill="#292526" d="M98.344 80.72l17.931 1.338-.511-3.558-17.42 2.22z"/>
    <path fill="#FFD0BA" d="M84.212 79.135l9.85-8.012 23.484 22.009c2.21 2.703-.87 10.798-3.647 12.935-2.611 2.013-8.731-.317-10.899-2.813-7.792-8.95-19.202-24.643-18.788-24.119z"/>
    <path fill="#FFD0BA" d="M84.212 79.136s-2.363-4.66-3.385-6.026c-.856-1.145-3.302-3.903-1.796-4.91.608-.4 1.257-.882 1.575.263 0 0-.773-2.014.69-2.855 1.465-.841 2.764 1.614 2.764 1.614s-1.188-2.51.4-3.282c1.12-.538 2.708.206 3.095 1.447 0 0 1.063-4.026 2.57-1.75 2.016 3.02 6.658 12.01 6.658 12.01l-12.571 3.49z"/>
    <path stroke="#292526" stroke-linecap="round" stroke-linejoin="round" stroke-width=".5" d="M94 64c.333 3 1 7.2 1 8"/>
    <path fill="#FFD0BA" d="M79.058 70.572s-4.545-4.84-4.517-5.833c.028-1.007.719-1.696 1.492-1.075.774.62 5.084 5.116 5.084 5.116l-2.059 1.792z"/>
    <path fill="#FFD0BA" d="M81.104 68.778s-7.377-8.522-7.17-10.15c.207-1.627 1.492-2.633 2.666-1.489 1.188 1.145 8.178 10.067 8.178 10.067l-3.674 1.572zM91.726 66.295s-2.887-7.777-3.826-9.184c-.94-1.393-4.531-5.254-6.12-4.537-1.589.717 1.782 4.551 2.832 6.482.912 1.696 1.05 3.199 0 3.681-1.064.483 1.23 3.2 1.23 3.2s1.05.634 1.685.427c.635-.179 4.2-.069 4.2-.069z"/>
    <path fill="#FFD0BA" d="M87.21 66.56s-2.39-5.889-3.44-7.392c-1.05-1.517-4.31-5.626-5.982-5.53-1.671.097-1.27 1.407-.235 2.91 1.036 1.503 4.794 7.35 5.015 8.481.235 1.13 2.942 4.165 2.942 4.165l1.7-2.634z"/>
    <path fill="#AF4205" d="M89.572 30.608c0-.662-.18-1.31-.36-1.959-.635-2.344-1.892-4.302-3.992-5.516-1.7-.993-3.398-1.42-5.319-.979-1.92.442-3.923 1.641-5.801 1.048-5.54-1.751-5.347-7.005-4.545-9.474.138.552 4.254 1.807 4.71 1.835 1.838.137 2.418-.028 4.241-.345 1.796-.317 3.592-1.2 5.402-1.227 2.348-.042 4.641 1.089 6.41 2.564 1.947 1.614 2.97 4.041 3.343 6.496.442 2.923-1.092 5.86-2.722 8.177-.11.152-.22.303-.373.414-.304.207-.76.165-1.022-.11-.263-.263-.276-.718-.055-1.021l.082.097z"/>
    <path fill="#AF4205" d="M89.571 16.045c-1.27-2.055-3.91-2.827-6.34-2.854-2.432-.028-4.836.51-7.24.358.678.29 1.355.566 2.031.855-1.726.483-3.577.483-5.304-.027.373.772 1.132 1.31 1.948 1.6.815.289 1.685.358 2.541.413 3.136.234 6.286.483 9.422.717l2.942-1.062z"/>
    <path fill="#AF4205" d="M89.42 16.115c-.429-.675-1.023-1.227-1.7-1.64-.704-.428-1.492-.704-2.279-.883-.843-.193-1.7-.262-2.556-.249-1.077.014-2.155.124-3.232.221-1.078.097-2.169.193-3.26.152-.139 0-.277-.014-.401-.014.028-.11.041-.207.07-.317.676.29 1.353.565 2.03.855.152.069.124.276-.028.317-1.354.386-2.804.469-4.2.234-.4-.069-.8-.151-1.187-.275.069-.07.138-.152.207-.221.331.69.98 1.172 1.671 1.448.884.345 1.838.414 2.763.482l5.954.456c1.12.082 2.238.165 3.37.262.208.013.18.344-.027.33-2.03-.151-4.061-.317-6.092-.468-1.008-.083-2.017-.152-3.025-.235-.967-.069-1.962-.124-2.887-.455-.843-.303-1.63-.855-2.031-1.682-.07-.138.069-.262.207-.22 1.313.385 2.708.482 4.061.275.387-.055.774-.138 1.147-.248-.014.11-.014.207-.028.317-.676-.29-1.353-.566-2.03-.855-.166-.069-.125-.331.069-.317 1.091.069 2.196 0 3.288-.11 1.105-.097 2.196-.221 3.315-.249.898-.027 1.796.028 2.68.207.843.166 1.658.441 2.404.855.718.4 1.367.938 1.85 1.614.07.096.125.179.18.275.042.07 0 .18-.082.221-.083.041-.166 0-.222-.083z"/>
    <path fill="#AF4205" d="M89.571 16.045c3.647-.29 4.656 4.744 5.043 7.392.027-.097-.153-.138-.208-.056-.055.083-.027.194-.014.29.677 2.51-.442 5.392-2.624 6.799-.07-.207-.055-.428-.042-.649.207-3.447.07-6.908-.414-10.315l-1.74-3.46z"/>
    <path fill="#AF4205" d="M89.544 15.88c.677-.055 1.353.069 1.947.4.553.303 1.009.758 1.368 1.268.4.566.705 1.186.94 1.82.248.649.441 1.325.593 2 .139.607.249 1.214.332 1.82.014.07.014.138.027.207-.11 0-.22.014-.331.014.014-.041.014.055.028.055.013.028.055.028.013.014h.014c-.027 0 .028-.014.014-.014.014 0 .014-.013.014.028s.014.083.028.11c.027.124.069.262.096.386.056.262.083.538.097.8.027.552-.014 1.103-.124 1.627-.221 1.076-.691 2.097-1.396 2.938-.4.482-.87.896-1.381 1.227-.097.069-.207-.028-.235-.11-.097-.331-.041-.704-.028-1.048l.042-1.062c.027-.717.027-1.434.027-2.151-.013-1.435-.082-2.869-.22-4.303-.07-.8-.166-1.613-.277-2.413-.027-.207.29-.276.318-.07.193 1.421.331 2.855.414 4.29.083 1.447.11 2.882.07 4.33l-.042 1.2c-.014.206-.028.4-.028.606-.014.18-.014.372.042.552-.083-.042-.152-.083-.235-.11.94-.607 1.671-1.504 2.141-2.51.47-1.007.677-2.152.567-3.255-.014-.151-.042-.317-.07-.469-.027-.151-.082-.303-.11-.468-.041-.18.014-.414.235-.456.166-.027.359.083.331.276-.027.18-.304.207-.331.014-.083-.58-.18-1.172-.304-1.751-.138-.649-.318-1.31-.525-1.931-.221-.634-.497-1.241-.856-1.806-.318-.497-.719-.966-1.216-1.297-.511-.33-1.091-.496-1.713-.496-.083 0-.152 0-.235.014-.083 0-.18-.042-.193-.124 0-.042.055-.138.152-.152z"/>
    <path fill="#FFD0BA" d="M88.7 30.607c.015-.152 1.327-.828 1.451-.883.705-.29 1.506-.551 2.28-.482 1.989.165 1.989 3.323 1.464 4.73-.718 1.903-2.763 1.958-4.641 2.385-.042.014-.622.11-.622.11l.069-5.86zM74.086 28.664c.014-.151-1.174-1.02-1.285-1.09-.65-.399-1.395-.771-2.183-.827-1.989-.151-2.486 2.965-2.182 4.44.4 1.987 2.417 2.373 4.2 3.09.027.014.593.207.593.207 0-.014.857-5.82.857-5.82z"/>
    <path stroke="#292526" stroke-linecap="round" stroke-linejoin="round" stroke-width=".5" d="M70 28.553c.138-.146.649-.348 1.106-.202.298.09.692.37.84 1.134.213 1.032-.255 1.323-.627 1.548-.245.146-.394.258-.425.482-.086.629.616.775.648.786M92 31.253c-.138-.146-.649-.348-1.106-.203-.298.09-.692.37-.84 1.134-.213 1.032.255 1.324.627 1.548.245.146.394.258.425.483.086.628-.616.774-.648.785"/>
    <path fill="#FFD0BA" d="M6.133 52.396l11.425-5.558 17.82 26.78c1.534 3.145-3.315 10.316-6.506 11.764-3.012 1.365-8.427-2.303-9.96-5.213-5.54-10.494-13.055-28.366-12.779-27.773z"/>
    <path fill="#FFD0BA" d="M6.133 52.396s-1.244-5.088-1.92-6.647c-.58-1.31-2.321-4.55-.622-5.185.677-.262 1.423-.565 1.464.607 0 0-.29-2.137 1.326-2.62 1.617-.483 2.307 2.206 2.307 2.206s-.58-2.716 1.133-3.102c1.202-.276 2.583.813 2.694 2.11 0 0 1.948-3.669 2.915-1.117 1.27 3.406 3.73 13.21 3.73 13.21l-13.027.538z"/>
    <path fill="#FFD0BA" d="M3.08 42.881S-.235 37.145.013 36.165c.249-.979 1.092-1.489 1.7-.703.607.772 3.77 6.15 3.77 6.15l-2.403 1.27zM5.484 41.612S.262 31.642.828 30.098c.58-1.545 2.045-2.22 2.943-.841.884 1.392 5.663 11.666 5.663 11.666l-3.95.69zM16.397 41.613s-1.036-8.233-1.63-9.805c-.594-1.572-3.219-6.15-4.918-5.805-1.7.345.69 4.84 1.27 6.95.512 1.862.305 3.351-.842 3.585-1.146.235.47 3.393.47 3.393s.884.855 1.547.813c.65-.055 4.103.87 4.103.87z"/>
    <path fill="#FFD0BA" d="M11.92 40.827s-.98-6.275-1.657-7.985-2.9-6.467-4.558-6.757c-1.658-.29-1.561 1.076-.885 2.772.677 1.696 2.984 8.246 2.943 9.39-.028 1.145 1.906 4.73 1.906 4.73l2.252-2.15zM18.539 48.55s-.705-6.248-.263-8.054c.442-1.793 0-4.592-1.298-4.344-1.299.248-2.266 7.53-3.62 8.315-1.353.786 5.18 4.082 5.18 4.082z"/>
    <path stroke="#292526" stroke-linecap="round" stroke-linejoin="round" stroke-width=".5" d="M18.5 48.5c3.5 5.167 10.8 16 12 18M94 71c5 5 15.8 14 17 16"/>
    <circle cx="110.5" cy="5" r="2.5" stroke="#292526" stroke-linecap="round" stroke-linejoin="round" stroke-width=".5"/>
    <circle cx="118.5" cy="5" r="2.5" stroke="#292526" stroke-linecap="round" stroke-linejoin="round" stroke-width=".5"/>
    <circle cx="126.5" cy="5" r="2.5" stroke="#292526" stroke-linecap="round" stroke-linejoin="round" stroke-width=".5"/>
</svg>
