<svg width="296" height="130" viewBox="0 0 296 130" fill="none" xmlns="http://www.w3.org/2000/svg">
<g clip-path="url(#clip0)">
<path d="M213.2 28.2001C213.247 29.0261 213.455 29.8348 213.815 30.5801C214.174 31.3254 214.676 31.9927 215.293 32.5438C215.91 33.0949 216.63 33.5191 217.411 33.7921C218.192 34.0651 219.019 34.1817 219.845 34.1351C220.671 34.0884 221.48 33.8796 222.225 33.5204C222.97 33.1612 223.638 32.6588 224.189 32.0417C224.74 31.4247 225.164 30.7051 225.437 29.9242C225.71 29.1432 225.827 28.3161 225.78 27.4901C225.54 23.9701 221.53 21.3401 218.06 22.0001C213.79 22.8201 213 24.6801 213.2 28.2001Z" fill="#262025"/>
<path d="M60.5198 63.18C62.5964 63.18 64.2798 61.4966 64.2798 59.42C64.2798 57.3434 62.5964 55.66 60.5198 55.66C58.4432 55.66 56.7598 57.3434 56.7598 59.42C56.7598 61.4966 58.4432 63.18 60.5198 63.18Z" stroke="#2E2223" stroke-width="0.5" stroke-linecap="round" stroke-linejoin="round"/>
<path d="M177 36.47C179.077 36.47 180.76 34.7865 180.76 32.7099C180.76 30.6334 179.077 28.95 177 28.95C174.924 28.95 173.24 30.6334 173.24 32.7099C173.24 34.7865 174.924 36.47 177 36.47Z" stroke="#2E2223" stroke-width="0.5" stroke-linecap="round" stroke-linejoin="round"/>
<path d="M266.71 77.49C268.787 77.49 270.47 75.8066 270.47 73.73C270.47 71.6534 268.787 69.97 266.71 69.97C264.634 69.97 262.95 71.6534 262.95 73.73C262.95 75.8066 264.634 77.49 266.71 77.49Z" stroke="#2E2223" stroke-width="0.5" stroke-linecap="round" stroke-linejoin="round"/>
<path d="M252.67 52.27L255.43 49.51L258.13 52.2L260.85 49.39L263.54 52.09" stroke="#2E2223" stroke-width="0.5" stroke-linecap="round" stroke-linejoin="round"/>
<path d="M127.56 23.11L130.33 20.34L133.03 23.04L135.74 20.22L138.44 22.92" stroke="#2E2223" stroke-width="0.5" stroke-linecap="round" stroke-linejoin="round"/>
<path d="M40.46 82.11L43.23 79.34L45.93 82.04L48.64 79.22L51.34 81.92" stroke="#2E2223" stroke-width="0.5" stroke-linecap="round" stroke-linejoin="round"/>
<path d="M184.37 82.7C184.37 82.62 184.55 74 185.57 64.85C186.94 52.45 189.13 45.02 192.07 42.75C192.668 42.2126 193.394 41.8382 194.179 41.6631C194.964 41.4879 195.78 41.5179 196.55 41.75C201.29 43.28 204.12 52.69 204.24 53.09L203.24 53.38C202.713 51.7069 202.061 50.0757 201.29 48.5C199.69 45.28 197.94 43.28 196.22 42.73C195.611 42.5505 194.966 42.5317 194.347 42.6754C193.729 42.8191 193.158 43.1204 192.69 43.55C190 45.63 187.92 53 186.59 65C185.59 74.11 185.4 82.68 185.4 82.76L184.37 82.7Z" fill="#1BBE75"/>
<path d="M195.61 41.66C194.344 41.5826 193.097 41.9983 192.13 42.82C189.21 45.07 187.03 52.49 185.65 64.82C184.65 73.48 184.48 81.64 184.46 82.58H185.31C185.31 81.65 185.54 73.58 186.5 64.9C187.83 52.9 189.95 45.52 192.65 43.45C193.128 43.0101 193.712 42.7015 194.344 42.5543C194.977 42.4071 195.637 42.4263 196.26 42.61C198 43.18 199.77 45.19 201.38 48.43C202.141 49.9836 202.786 51.5913 203.31 53.24L204.13 53C203.81 52 201.03 43.26 196.52 41.8C196.223 41.7203 195.917 41.6734 195.61 41.66V41.66Z" fill="#1BBE75"/>
<path d="M182.13 81L182.97 81.15C183.11 80.33 184.16 73.94 184.71 67.07C185.056 63.4743 185.153 59.859 185 56.25C184.77 52.5 184.11 50.07 183 48.81C182.61 48.2995 182.095 47.8974 181.505 47.6419C180.915 47.3863 180.27 47.2859 179.63 47.35C175.86 47.82 172.37 54.18 171.93 55L172.69 55.4C173.327 54.216 174.049 53.0797 174.85 52C176.59 49.72 178.26 48.42 179.69 48.24C180.191 48.194 180.694 48.2774 181.153 48.4823C181.612 48.6872 182.01 49.0067 182.31 49.41C183.55 50.82 184.83 55.02 183.86 67.07C183.32 73.86 182.27 80.22 182.13 81Z" fill="#1BBE75"/>
<path d="M164.64 59.63C165.11 59.63 165.14 59.74 165.16 59.78C165.174 59.7989 165.181 59.8216 165.181 59.845C165.181 59.8684 165.174 59.8912 165.16 59.91C164.675 60.1814 164.125 60.313 163.57 60.29C162.72 60.37 161.75 60.46 161.69 60.91C161.45 62.43 161.28 63.91 161.17 65.31C161.17 65.31 161.17 65.31 161.28 65.39C162.151 65.5454 163.037 65.5958 163.92 65.54C165.92 65.47 166.08 65.21 166.09 65.16C166.1 65.11 166.09 64.94 166.15 64.74C166.32 63.38 166.41 62.98 166.59 62.95C166.61 62.9395 166.632 62.934 166.655 62.934C166.678 62.934 166.7 62.9395 166.72 62.95C166.93 63.13 166.91 64.13 166.9 64.44C166.89 64.75 166.9 65.02 166.99 65.09C167.08 65.16 167.28 65.09 167.55 65.09L167.98 65.02C169.12 64.86 169.14 64.86 169.24 63.63C169.253 63.4336 169.253 63.2365 169.24 63.04C169.24 62.25 169.18 61.62 169.38 61.4C169.399 61.3875 169.422 61.3809 169.445 61.3809C169.468 61.3809 169.491 61.3875 169.51 61.4C169.58 61.4 169.67 61.48 169.8 61.95C169.86 62.19 169.91 62.42 169.91 62.44C169.91 62.46 169.91 62.78 169.91 63.08C169.91 63.38 169.91 63.8 169.91 64.13C169.91 64.46 170 64.68 170.02 64.7H170.23C170.567 64.6481 170.901 64.578 171.23 64.49C171.78 64.33 171.83 64.21 171.84 64.17C171.94 62.86 171.98 61.87 171.97 60.95C171.97 60.95 171.97 60.74 171.97 60.53C171.81 58.93 171.81 58.44 171.97 58.39C172.13 58.34 172.18 58.48 172.25 58.61C172.898 60.1272 173.055 61.809 172.7 63.42C172.7 63.57 172.7 63.76 172.78 63.84C172.86 63.92 173.21 63.84 173.61 63.66C174.173 63.4063 174.65 62.9925 174.98 62.47V62.47C175.014 60.6277 174.85 58.7871 174.49 56.98C174.43 56.7 174.38 56.47 174.35 56.28C174.27 55.8 174.35 55.67 174.41 55.63C174.47 55.59 174.65 55.69 174.85 56C175.624 57.3467 176.021 58.8769 176 60.43C176 60.84 176.08 61.01 176.15 61.02C176.22 61.03 176.45 61.02 177.15 59.88C177.479 59.3446 177.764 58.7826 178 58.2C178.208 57.6694 178.297 57.0992 178.259 56.5303C178.221 55.9615 178.057 55.4081 177.78 54.91C177.558 54.3613 177.195 53.8809 176.728 53.5174C176.261 53.1539 175.706 52.9202 175.12 52.84H175.04C174.15 52.76 174.04 52.1 173.97 51.4C173.947 51.1502 173.903 50.9027 173.84 50.66C173.784 50.4299 173.678 50.2148 173.53 50.03C172.26 48.46 171.1 47.68 169.97 47.65C169.356 47.6943 168.759 47.8731 168.221 48.1738C167.684 48.4745 167.219 48.8897 166.86 49.39C166.86 49.45 166.86 49.48 166.86 49.49C166.96 49.7 167.86 49.84 168.19 49.85C168.858 49.9215 169.509 50.1005 170.12 50.38L170.56 50.55L170.75 50.6C171.37 50.77 171.64 50.88 171.64 51.04C171.64 51.2 171.46 51.22 171.38 51.24C170.704 51.3787 170.001 51.2909 169.38 50.99C168.896 50.7757 168.378 50.6471 167.85 50.61L167.38 50.55C166.79 50.48 165.81 50.35 165.56 50.55C164.882 51.1622 164.329 51.8989 163.93 52.72C163.69 53.19 163.74 53.3 163.76 53.33C163.78 53.36 164.14 53.33 164.4 53.24L164.79 53.13C165.694 52.8969 166.628 52.8059 167.56 52.86C168.252 52.9053 168.93 53.0782 169.56 53.37C169.56 53.37 170.11 53.65 170.08 53.86C170.08 53.86 170.08 53.97 169.93 54C169.594 54.044 169.253 54.0133 168.93 53.91C168.746 53.8648 168.559 53.8314 168.37 53.81C167.568 53.7541 166.762 53.7541 165.96 53.81C165.25 53.81 164.52 53.92 163.73 54.01C163.15 54.08 162.94 55.11 162.78 55.87C162.78 55.99 162.73 56.1 162.71 56.2C163.06 56.15 163.94 56.08 164.78 56.05C166.86 55.98 167.05 56.2 167.11 56.28C167.132 56.3106 167.144 56.3473 167.144 56.385C167.144 56.4227 167.132 56.4594 167.11 56.49C167 56.7 166.48 56.72 165.49 56.67C165.357 56.6611 165.223 56.6611 165.09 56.67H164.52C163.58 56.67 162.52 56.76 162.31 57.76C162.17 58.36 162.05 58.99 161.93 59.64C161.93 59.7 161.93 59.72 161.93 59.73C161.93 59.74 162.65 59.65 162.87 59.59C162.937 59.5601 163.007 59.5399 163.08 59.53C163.433 59.5104 163.787 59.5104 164.14 59.53L164.64 59.63Z" fill="#1BBE75"/>
<path d="M178.19 60.19C178.285 59.611 178.506 59.06 178.838 58.5761C179.17 58.0923 179.604 57.6873 180.11 57.39C181.29 56.71 182.41 56.39 183.57 56.94C183.724 57.0471 183.907 57.1045 184.095 57.1045C184.283 57.1045 184.466 57.0471 184.62 56.94C185.15 56.55 185.5 55.63 186.32 55.32C189.4 54.16 191.78 54.39 192.55 58.24C192.67 58.83 191.21 58.16 191.07 58.08C190.309 57.7588 189.503 57.5564 188.68 57.48C188.49 57.48 187.18 57.02 187.68 57.48C188.76 58.48 189.68 58.03 191.05 58.73C191.46 58.94 192.96 59.45 193.11 59.92C193.389 60.8117 193.494 61.7486 193.42 62.68C193.33 63.98 192.84 63.15 192.31 62.68C191.659 62.0074 190.906 61.4405 190.08 61C189.473 60.696 188.816 60.5062 188.14 60.44C188.14 60.44 187.33 60.44 187.56 60.65C188.015 60.9264 188.507 61.1385 189.02 61.28C189.742 61.657 190.44 62.0778 191.11 62.54C191.73 62.96 192.34 63.41 192.94 63.86C193.54 64.31 192.94 65.86 192.7 66.51C192.51 66.31 188.79 63.69 188.76 64.35C188.76 64.66 190.19 65.35 190.4 65.45C191.25 66.07 192.68 66.7 192.26 67.95C192.06 68.57 191.85 69.17 191.62 69.78C191.39 70.39 190.62 69.23 190.53 69.12C190.44 69.01 188.63 68 188.68 68.23C188.83 68.95 191.52 70.07 191.18 70.93C190.63 72.31 190.03 73.68 189.38 75.02C189.38 75.09 189.23 75.1 189.07 75.02C188.249 74.7079 187.467 74.3018 186.74 73.81C186.47 73.63 184.84 72.62 184.96 72.24C185.04 72.02 185.86 70.31 185.7 70.16C185.54 70.01 184.83 71.22 184.78 71.31C184.27 72.25 184.15 71.85 183.41 71.31C182.48 70.58 182.41 70.52 183.01 69.31C183.18 68.95 184.12 67.78 184.01 67.38C184.01 67.15 183.21 67.99 183.19 68.01C182.96 68.29 181.99 70.11 181.75 69.9C181.51 69.69 180.24 68.71 180.41 68.35C180.89 67.35 181.41 66.41 181.95 65.48C182.1 65.25 183.95 62.89 183.04 63.48C181.707 64.4467 180.716 65.8126 180.21 67.38C179.66 68.81 178.31 65.73 178.57 65.31C179.487 63.6724 180.58 62.1399 181.83 60.74C182.09 60.47 183.21 59.3 182.13 59.85C180.773 60.6406 179.659 61.7891 178.91 63.17C177.84 65.07 178 61 178.19 60.19Z" fill="#1BBE75"/>
<path d="M212.27 62.18C212.27 62.24 212.21 62.28 212.13 62.32C211.5 62.55 208.98 61.97 208.68 61.91C208.38 61.85 206 61.3 206 60.81C206 60.52 206.24 58.17 206 58.06C205.76 57.95 205.42 59.67 205.41 59.79C205.21 61.11 204.89 60.69 203.79 60.32C202.38 59.85 202.32 59.8 202.49 58.19C202.55 57.69 203.16 55.93 202.89 55.49C202.74 55.24 202.21 56.49 202.2 56.58C202.05 56.99 201.67 59.58 201.3 59.39C200.93 59.2 199 58.62 199 58.14C199.15 56.79 199.33 55.45 199.6 54.14C199.68 53.8 200.86 50.26 200.02 51.29C198.886 52.9735 198.308 54.9708 198.37 57C198.32 58.91 195.45 55.86 195.58 55.26C195.973 52.9566 196.617 50.7032 197.5 48.54C197.69 48.12 198.5 46.28 197.5 47.38C196.244 48.8743 195.418 50.6822 195.11 52.61C194.61 55.26 193.11 50.4 192.98 49.4C192.847 48.6898 192.869 47.959 193.045 47.2581C193.221 46.5572 193.547 45.9028 194 45.34C195.09 44.05 196.25 43.16 197.86 43.34C198.186 43.4083 198.525 43.3511 198.81 43.18C199.57 42.64 199.43 41.1 200.41 40.28C203.53 37.64 206.41 36.91 208.93 41.1C209.32 41.75 207.33 41.56 207.13 41.54C206.121 41.4822 205.109 41.58 204.13 41.83C203.88 41.83 202.13 41.91 202.98 42.27C204.68 43.02 205.61 42.07 207.47 42.33C208.02 42.4 210 42.33 210.37 42.87C211.072 43.7956 211.588 44.8483 211.89 45.97C212.33 47.54 211.4 46.77 210.57 46.4C209.526 45.8943 208.409 45.5568 207.26 45.4C206.418 45.2942 205.564 45.345 204.74 45.55C204.74 45.55 203.74 45.87 204.15 46.03C204.808 46.1639 205.48 46.2109 206.15 46.17C207.163 46.3026 208.166 46.5064 209.15 46.78C210.057 47.0134 210.957 47.2734 211.85 47.56C212.85 47.86 212.62 49.86 212.68 50.77C212.37 50.61 206.92 49.09 207.15 49.87C207.26 50.24 209.23 50.4 209.53 50.49C210.79 50.86 212.72 50.99 212.76 52.63C212.76 53.44 212.76 54.24 212.76 55.05C212.76 55.67 211.41 54.8 211.21 54.73C211.01 54.66 208.51 54.21 208.66 54.46C209.15 55.24 212.77 55.46 212.72 56.58C212.6 58.48 212.48 60.34 212.27 62.18Z" fill="#1BBE75"/>
<path d="M161.3 65.41C163.664 61.9024 166.531 58.762 169.81 56.09C171.296 54.8484 172.859 53.7028 174.49 52.66V52.59C169.274 55.9239 164.779 60.2695 161.27 65.37L161.3 65.41Z" fill="white" stroke="#2E2223" stroke-width="0.5" stroke-linecap="round" stroke-linejoin="round"/>
<path d="M189 75H189.09C188.785 70.4442 187.932 65.9417 186.55 61.59C186.076 60.0076 185.46 58.4714 184.71 57H184.63C185.394 58.4734 186.024 60.013 186.51 61.6C187.877 65.95 188.713 70.4493 189 75V75Z" fill="white" stroke="#2E2223" stroke-width="0.5" stroke-linecap="round" stroke-linejoin="round"/>
<path d="M212.09 62.33H212.17C210.069 57.2217 207.206 52.4611 203.68 48.21C202.213 46.4173 200.604 44.7453 198.87 43.21L198.82 43.28C200.549 44.8139 202.151 46.4861 203.61 48.28C207.13 52.5082 209.989 57.2453 212.09 62.33V62.33Z" fill="white" stroke="#2E2223" stroke-width="0.5" stroke-linecap="round" stroke-linejoin="round"/>
<path d="M172.75 82.64L177.83 102.86H191.35L195.51 82.68L172.75 82.64Z" fill="#FFC200"/>
<path d="M197.38 80.89H170.78V85.03H197.38V80.89Z" fill="white" stroke="#2E2223" stroke-width="0.5" stroke-linecap="round" stroke-linejoin="round"/>
<path d="M-2.43018 103.23H298.43" stroke="#2E2223" stroke-width="0.5" stroke-linecap="round" stroke-linejoin="round"/>
<path d="M104.35 32.51H145.61C146.843 32.5087 148.063 32.7504 149.203 33.2212C150.342 33.692 151.377 34.3827 152.249 35.2538C153.121 36.125 153.813 37.1594 154.285 38.2981C154.757 39.4368 155 40.6574 155 41.89V91.89H95V41.89C95 39.4075 95.9841 37.0262 97.7367 35.2679C99.4893 33.5097 101.867 32.518 104.35 32.51Z" fill="white" stroke="#2E2223" stroke-width="0.5" stroke-linecap="round" stroke-linejoin="round"/>
<path d="M154.81 55.12V87.75C154.804 88.5201 154.494 89.2566 153.947 89.7983C153.4 90.34 152.66 90.6427 151.89 90.64H97.8898C97.1249 90.6348 96.3929 90.3286 95.852 89.7878C95.3112 89.2469 95.005 88.5149 94.9998 87.75V55.12C94.9985 54.7397 94.9221 54.3633 94.775 54.0125C94.628 53.6617 94.4131 53.3434 94.1427 53.0759C93.8724 52.8083 93.5519 52.5967 93.1996 52.4533C92.8473 52.3099 92.4701 52.2374 92.0898 52.24H86.6898C86.3094 52.2374 85.9323 52.3099 85.58 52.4533C85.2277 52.5967 84.9072 52.8083 84.6368 53.0759C84.3665 53.3434 84.1516 53.6617 84.0045 54.0125C83.8575 54.3633 83.7811 54.7397 83.7798 55.12V98.85C83.7811 99.2304 83.8575 99.6068 84.0045 99.9575C84.1516 100.308 84.3665 100.627 84.6368 100.894C84.9072 101.162 85.2277 101.373 85.58 101.517C85.9323 101.66 86.3094 101.733 86.6898 101.73H163.08C163.461 101.734 163.839 101.662 164.193 101.52C164.546 101.377 164.868 101.165 165.139 100.898C165.411 100.63 165.626 100.311 165.774 99.9599C165.922 99.6084 165.998 99.2312 166 98.85V55.12C165.998 54.7397 165.922 54.3633 165.775 54.0125C165.628 53.6617 165.413 53.3434 165.143 53.0759C164.872 52.8083 164.552 52.5967 164.2 52.4533C163.847 52.3099 163.47 52.2374 163.09 52.24H157.73C157.349 52.2361 156.97 52.3076 156.617 52.4504C156.263 52.5932 155.942 52.8046 155.67 53.0723C155.399 53.34 155.183 53.6587 155.035 54.0102C154.888 54.3616 154.811 54.7388 154.81 55.12V55.12Z" fill="white" stroke="#2E2223" stroke-width="0.5" stroke-linecap="round" stroke-linejoin="round"/>
<path d="M163.08 101.87H86.6899C85.8943 101.87 85.1312 101.554 84.5686 100.991C84.006 100.429 83.6899 99.6657 83.6899 98.87V55.12C83.6899 54.3244 84.006 53.5613 84.5686 52.9987C85.1312 52.4361 85.8943 52.12 86.6899 52.12H92.0499C92.8456 52.12 93.6086 52.4361 94.1713 52.9987C94.7339 53.5613 95.0499 54.3244 95.0499 55.12V87.75C95.0552 88.483 95.3508 89.1839 95.8718 89.6993C96.3929 90.2148 97.097 90.5027 97.8299 90.5H151.83C152.563 90.5027 153.267 90.2148 153.788 89.6993C154.309 89.1839 154.605 88.483 154.61 87.75V55.12C154.61 54.7218 154.689 54.3276 154.843 53.9603C154.997 53.5931 155.222 53.2601 155.506 52.9809C155.79 52.7016 156.127 52.4817 156.497 52.3339C156.866 52.1861 157.262 52.1134 157.66 52.12H163.02C163.816 52.12 164.579 52.4361 165.141 52.9987C165.704 53.5613 166.02 54.3244 166.02 55.12V98.85C166.025 99.6389 165.72 100.398 165.17 100.963C164.619 101.529 163.869 101.854 163.08 101.87Z" fill="white" stroke="#2E2223" stroke-width="0.5" stroke-linecap="round" stroke-linejoin="round"/>
<path d="M149.26 65.22H100.52C97.5873 65.22 95.21 67.5973 95.21 70.53V73.24C95.21 76.1726 97.5873 78.55 100.52 78.55H149.26C152.193 78.55 154.57 76.1726 154.57 73.24V70.53C154.57 67.5973 152.193 65.22 149.26 65.22Z" fill="white" stroke="#2E2223" stroke-width="0.5" stroke-linecap="round" stroke-linejoin="round"/>
<path d="M151.34 78.68H98.4398C97.5478 78.68 96.6921 78.3263 96.0604 77.6964C95.4287 77.0666 95.0725 76.212 95.0698 75.32V68.44C95.0725 67.5479 95.4287 66.6933 96.0604 66.0635C96.6921 65.4336 97.5478 65.08 98.4398 65.08H151.34C152.232 65.08 153.088 65.4336 153.719 66.0635C154.351 66.6933 154.707 67.5479 154.71 68.44V75.32C154.707 76.212 154.351 77.0666 153.719 77.6964C153.088 78.3263 152.232 78.68 151.34 78.68Z" fill="white" stroke="#2E2223" stroke-width="0.5" stroke-linecap="round" stroke-linejoin="round"/>
<path d="M151.34 92H98.4398C97.9973 92 97.5591 91.9129 97.1502 91.7435C96.7413 91.5741 96.3698 91.3259 96.0569 91.013C95.7439 90.7 95.4957 90.3285 95.3263 89.9197C95.157 89.5108 95.0698 89.0726 95.0698 88.63V81.77C95.0698 81.3275 95.157 80.8892 95.3263 80.4804C95.4957 80.0715 95.7439 79.7 96.0569 79.3871C96.3698 79.0741 96.7413 78.8259 97.1502 78.6565C97.5591 78.4872 97.9973 78.4 98.4398 78.4H151.34C152.234 78.4 153.091 78.7551 153.723 79.3871C154.355 80.0191 154.71 80.8762 154.71 81.77V88.64C154.707 89.5321 154.351 90.3867 153.719 91.0165C153.088 91.6463 152.232 92 151.34 92Z" fill="white" stroke="#2E2223" stroke-width="0.5" stroke-linecap="round" stroke-linejoin="round"/>
<path d="M112.82 101.81H95.1899V105.97H112.82V101.81Z" fill="white" stroke="#2E2223" stroke-width="0.5" stroke-linecap="round" stroke-linejoin="round"/>
<path d="M154.6 101.81H136.97V105.97H154.6V101.81Z" fill="white" stroke="#2E2223" stroke-width="0.5" stroke-linecap="round" stroke-linejoin="round"/>
<path d="M136.97 103.34V101.81H154.59V103.34" fill="white"/>
<path d="M136.97 103.34V101.81H154.59V103.34" stroke="#2E2223" stroke-width="0.5" stroke-linecap="round" stroke-linejoin="round"/>
<path d="M197.85 110.47L206.99 109.99L206 99.03L199.51 99.58L197.85 110.47Z" fill="#FEA78B"/>
<path d="M190.88 112.58C191.364 112.255 191.893 112.002 192.45 111.83C193.66 111.45 195.45 110.91 196.16 110.67C196.61 110.51 196.98 109.73 197.21 109.37L197.84 108.15C198.248 107.89 198.721 107.752 199.205 107.752C199.688 107.752 200.162 107.89 200.57 108.15L201.42 108.86C201.71 109.073 202.06 109.188 202.42 109.188C202.78 109.188 203.13 109.073 203.42 108.86C204.461 108.338 205.616 108.083 206.78 108.12V108.18V115.18C206.78 115.18 190.33 116 190.05 115.5C189.923 115.103 189.923 114.677 190.05 114.28C190.091 113.642 190.369 113.043 190.83 112.6L190.88 112.58Z" fill="#F54F6B"/>
<path d="M205.53 109.56C205.53 109.56 198.73 110.56 197.76 115.1L206.91 114.88L206.83 109.13L205.53 109.56Z" fill="#F54F6B"/>
<path d="M205.17 109.16C205.241 108.159 205.587 107.197 206.17 106.38C206.229 106.314 206.306 106.266 206.391 106.245C206.477 106.223 206.567 106.227 206.651 106.257C206.734 106.288 206.806 106.342 206.857 106.414C206.909 106.486 206.938 106.572 206.94 106.66V110.91H206.78C206.555 110.917 206.33 110.876 206.122 110.788C205.914 110.701 205.727 110.57 205.574 110.404C205.421 110.238 205.306 110.041 205.237 109.826C205.167 109.611 205.144 109.384 205.17 109.16V109.16Z" fill="#F54F6B"/>
<path d="M189.88 116V115.79C189.88 115.35 189.88 114.91 189.88 114.48H190.08L206.87 114.11H207.22C207.205 114.356 207.205 114.604 207.22 114.85V115.44C207.22 115.96 207.22 116.44 206.69 116.7C206.479 116.818 206.239 116.874 205.998 116.86C205.757 116.845 205.525 116.762 205.33 116.62C205.16 116.46 205 116.22 204.75 116.22C204.5 116.22 204.39 116.36 204.24 116.53C204.164 116.654 204.057 116.757 203.93 116.828C203.803 116.899 203.66 116.936 203.515 116.936C203.369 116.936 203.226 116.899 203.099 116.828C202.972 116.757 202.866 116.654 202.79 116.53C202.734 116.441 202.658 116.366 202.568 116.312C202.477 116.258 202.375 116.226 202.27 116.22C202.03 116.22 201.91 116.36 201.76 116.53C201.683 116.653 201.578 116.755 201.452 116.826C201.326 116.898 201.185 116.937 201.04 116.94C200.895 116.937 200.753 116.899 200.626 116.829C200.499 116.76 200.39 116.661 200.31 116.54C200.255 116.453 200.18 116.38 200.092 116.328C200.003 116.275 199.903 116.245 199.8 116.24C199.695 116.243 199.593 116.273 199.504 116.327C199.414 116.381 199.34 116.458 199.29 116.55C199.213 116.674 199.105 116.776 198.977 116.847C198.85 116.918 198.706 116.955 198.56 116.955C198.414 116.955 198.27 116.918 198.142 116.847C198.015 116.776 197.907 116.674 197.83 116.55C197.777 116.46 197.703 116.385 197.614 116.331C197.525 116.277 197.424 116.245 197.32 116.24C197.07 116.24 196.96 116.38 196.81 116.55C196.733 116.674 196.625 116.776 196.497 116.847C196.37 116.918 196.226 116.955 196.08 116.955C195.934 116.955 195.79 116.918 195.662 116.847C195.535 116.776 195.427 116.674 195.35 116.55C195.2 116.38 195.09 116.24 194.84 116.24C194.737 116.249 194.637 116.282 194.549 116.336C194.461 116.39 194.386 116.463 194.33 116.55C194.254 116.674 194.147 116.777 194.02 116.848C193.893 116.919 193.75 116.956 193.605 116.956C193.459 116.956 193.316 116.919 193.189 116.848C193.062 116.777 192.956 116.674 192.88 116.55C192.824 116.462 192.747 116.389 192.657 116.336C192.566 116.284 192.464 116.255 192.36 116.25C192.256 116.255 192.155 116.287 192.066 116.341C191.977 116.395 191.903 116.47 191.85 116.56C191.742 116.701 191.6 116.813 191.438 116.885C191.275 116.957 191.097 116.986 190.92 116.97C190.658 116.964 190.407 116.862 190.215 116.683C190.024 116.504 189.904 116.261 189.88 116V116Z" fill="#F0ECE3"/>
<path d="M196.33 110.58C196.33 110.58 197.76 107.79 198.18 106.58C198.6 105.37 200.84 105.4 200.3 107.58C199.76 109.76 198.73 111.13 197.73 111.16C197.468 111.18 197.204 111.138 196.961 111.037C196.718 110.936 196.502 110.78 196.33 110.58V110.58Z" fill="#F54F6B"/>
<path d="M189.87 115.11L207.21 114.78C207.238 114.778 207.263 114.765 207.282 114.745C207.3 114.724 207.31 114.698 207.31 114.67C207.31 114.641 207.299 114.613 207.278 114.592C207.257 114.572 207.229 114.56 207.2 114.56L189.87 114.9C189.856 114.9 189.842 114.903 189.829 114.909C189.817 114.914 189.805 114.922 189.796 114.933C189.786 114.943 189.779 114.955 189.775 114.969C189.77 114.982 189.769 114.996 189.77 115.01C189.769 115.024 189.77 115.037 189.774 115.05C189.779 115.063 189.786 115.075 189.796 115.084C189.806 115.094 189.817 115.101 189.83 115.106C189.843 115.11 189.857 115.112 189.87 115.11V115.11Z" fill="#292526"/>
<path d="M197.48 109.49C197.26 109.25 195.34 107.14 195.65 106.3C195.694 106.199 195.767 106.113 195.86 106.053C195.952 105.993 196.06 105.96 196.17 105.96C196.309 105.947 196.45 105.963 196.583 106.008C196.715 106.053 196.837 106.125 196.94 106.22C197.77 107.01 197.67 109.32 197.66 109.42C197.658 109.441 197.651 109.462 197.639 109.48C197.626 109.497 197.61 109.511 197.59 109.52V109.52C197.571 109.526 197.55 109.526 197.531 109.52C197.511 109.515 197.494 109.505 197.48 109.49V109.49ZM196.19 106.18C196.01 106.18 195.89 106.26 195.85 106.38C195.65 106.93 196.85 108.38 197.45 109.14C197.45 108.51 197.45 106.95 196.79 106.38C196.724 106.312 196.645 106.258 196.557 106.222C196.469 106.186 196.375 106.168 196.28 106.17L196.19 106.18Z" fill="#292526"/>
<path d="M198 109.76C197.99 109.743 197.985 109.724 197.985 109.705C197.985 109.686 197.99 109.667 198 109.65C198 109.56 198.74 107.35 199.8 106.91C199.929 106.852 200.069 106.822 200.21 106.822C200.351 106.822 200.491 106.852 200.62 106.91C200.721 106.951 200.808 107.02 200.872 107.108C200.936 107.197 200.973 107.301 200.98 107.41C200.98 108.31 198.44 109.6 198.15 109.75C198.131 109.77 198.105 109.783 198.077 109.785C198.049 109.786 198.022 109.778 198 109.76V109.76ZM199.85 107.11C199.09 107.43 198.48 108.87 198.26 109.46C199.12 109.01 200.73 108.03 200.73 107.46C200.73 107.34 200.66 107.24 200.49 107.15C200.38 107.1 200.261 107.073 200.14 107.07C200.045 107.066 199.95 107.08 199.86 107.11H199.85Z" fill="#292526"/>
<path d="M196.25 65.3799C197.405 64.7111 198.678 64.273 200 64.0899C205.75 63.1499 211.57 62.5199 217.34 61.6499L228.67 59.9299L232.67 59.3199L234.17 61.3799C234.918 62.4095 235.383 63.6175 235.518 64.8831C235.653 66.1487 235.454 67.4275 234.939 68.5918C234.425 69.756 233.614 70.7648 232.588 71.5174C231.561 72.2699 230.355 72.7397 229.09 72.8799L217.44 73.41L206.14 74.1099V75.7399L206.48 102.74L195.61 102.51C195.17 97.2799 194.81 89.3699 194.34 84.1399C194.1 81.4899 193.86 78.8299 193.51 76.1899C193.045 73.9203 193.005 71.5844 193.39 69.2999C193.574 68.4861 193.923 67.7185 194.415 67.0444C194.907 66.3703 195.531 65.8038 196.25 65.3799V65.3799Z" fill="#F54F6B"/>
<path d="M206.46 102.7L198.06 102.56L206.75 105.32L206.46 102.7Z" fill="#EF866A"/>
<path d="M229.61 120.15C244.251 120.15 256.12 108.25 256.12 93.57C256.12 78.8903 244.251 66.99 229.61 66.99C214.969 66.99 203.1 78.8903 203.1 93.57C203.1 108.25 214.969 120.15 229.61 120.15Z" fill="#C3E3F9"/>
<path d="M204.001 87.6884C204.001 87.6884 230.131 98.8831 245.001 71.9999" stroke="#262025" stroke-width="0.5" stroke-miterlimit="10"/>
<path d="M203.001 98.56C203.001 98.56 232.95 110.377 250.001 81.9999" stroke="#262025" stroke-width="0.5" stroke-miterlimit="10"/>
<path d="M208.001 108.688C208.001 108.688 237.955 119.883 255.001 92.9999" stroke="#262025" stroke-width="0.5" stroke-miterlimit="10"/>
<path d="M214.9 109.31L223.83 105.96L218.93 94.21L211.97 96.67L214.9 109.31Z" fill="#FEA78B"/>
<path d="M210.06 112.83C210.374 112.37 210.755 111.959 211.19 111.61C212.13 110.84 213.57 109.71 214.08 109.26C214.42 108.96 214.47 108.13 214.55 107.74L214.68 106.43C214.947 106.051 215.316 105.755 215.744 105.578C216.173 105.401 216.643 105.349 217.1 105.43L218.1 105.75C218.437 105.846 218.796 105.831 219.124 105.706C219.452 105.582 219.731 105.355 219.92 105.06C220.651 104.218 221.588 103.581 222.64 103.21V103.21L225.15 109.41C225.15 109.41 210.81 115.98 210.39 115.63C210.128 115.331 209.967 114.956 209.93 114.56C209.738 113.979 209.774 113.346 210.03 112.79L210.06 112.83Z" fill="#F54F6B"/>
<path d="M222 105C222 105 216.32 108.34 217 112.69L225.06 109.24L223 104.1L222 105Z" fill="#F54F6B"/>
<path d="M221.55 104.72C221.248 103.813 221.203 102.841 221.42 101.91C221.451 101.832 221.505 101.765 221.575 101.718C221.644 101.671 221.726 101.646 221.81 101.646C221.894 101.646 221.976 101.671 222.046 101.718C222.115 101.765 222.169 101.832 222.2 101.91L223.72 105.68L223.57 105.74C223.371 105.821 223.158 105.858 222.944 105.85C222.729 105.841 222.519 105.787 222.328 105.69C222.136 105.593 221.968 105.457 221.834 105.289C221.7 105.122 221.603 104.928 221.55 104.72V104.72Z" fill="#F54F6B"/>
<path d="M210.38 116.23C210.38 116.17 210.38 116.11 210.3 116.04L209.84 114.87L210 114.8L224.8 108.52L225.11 108.39C225.11 108.39 225.35 109 225.37 109.05L225.58 109.57C225.77 110.03 225.93 110.47 225.58 110.88C225.436 111.063 225.242 111.199 225.022 111.272C224.801 111.345 224.564 111.351 224.34 111.29C224.14 111.21 223.9 111.05 223.68 111.14C223.46 111.23 223.41 111.39 223.34 111.6C223.312 111.736 223.252 111.863 223.165 111.971C223.078 112.078 222.967 112.164 222.84 112.22C222.71 112.269 222.57 112.286 222.432 112.268C222.295 112.251 222.163 112.2 222.05 112.12C221.971 112.06 221.879 112.02 221.781 112.005C221.683 111.989 221.583 111.998 221.49 112.03C221.27 112.12 221.21 112.28 221.14 112.49C221.114 112.627 221.055 112.755 220.968 112.863C220.881 112.971 220.768 113.056 220.64 113.11C220.51 113.159 220.37 113.176 220.232 113.158C220.095 113.141 219.963 113.09 219.85 113.01C219.77 112.952 219.678 112.913 219.581 112.897C219.483 112.882 219.384 112.889 219.29 112.92C219.07 113.01 219.02 113.17 218.94 113.38C218.916 113.516 218.859 113.644 218.773 113.752C218.688 113.86 218.577 113.946 218.45 114C218.32 114.05 218.18 114.067 218.042 114.05C217.904 114.032 217.773 113.981 217.66 113.9C217.578 113.842 217.484 113.804 217.385 113.788C217.287 113.773 217.185 113.78 217.09 113.81C216.87 113.9 216.82 114.07 216.75 114.27C216.722 114.406 216.662 114.533 216.575 114.641C216.488 114.748 216.377 114.834 216.25 114.89C216.12 114.939 215.98 114.956 215.842 114.938C215.705 114.921 215.573 114.87 215.46 114.79C215.378 114.733 215.283 114.696 215.184 114.682C215.085 114.668 214.985 114.678 214.89 114.71C214.68 114.79 214.62 114.96 214.55 115.16C214.522 115.296 214.462 115.423 214.375 115.531C214.288 115.638 214.177 115.724 214.05 115.78C213.921 115.831 213.781 115.849 213.644 115.833C213.506 115.817 213.374 115.768 213.26 115.69C213.181 115.63 213.089 115.59 212.991 115.575C212.893 115.559 212.793 115.568 212.7 115.6C212.48 115.68 212.42 115.85 212.35 116.05C212.306 116.215 212.22 116.366 212.101 116.489C211.982 116.611 211.834 116.701 211.67 116.75C211.429 116.848 211.16 116.848 210.92 116.751C210.679 116.654 210.485 116.467 210.38 116.23V116.23Z" fill="#F0ECE3"/>
<path d="M214.2 109.12C214.344 107.711 214.418 106.296 214.42 104.88C214.36 103.63 216.42 102.88 216.65 104.99C216.88 107.1 216.51 108.71 215.65 109.09C215.428 109.21 215.181 109.276 214.929 109.281C214.677 109.286 214.427 109.231 214.2 109.12Z" fill="#F54F6B"/>
<path d="M210.06 115.44L225.35 109C225.374 108.987 225.393 108.966 225.402 108.94C225.411 108.914 225.41 108.885 225.4 108.86C225.391 108.851 225.381 108.844 225.37 108.84C225.359 108.835 225.347 108.832 225.335 108.832C225.323 108.832 225.311 108.835 225.299 108.84C225.288 108.844 225.278 108.851 225.27 108.86L210 115.25C209.983 115.27 209.975 115.294 209.975 115.32C209.975 115.346 209.983 115.37 210 115.39C210.006 115.402 210.014 115.413 210.025 115.421C210.035 115.43 210.047 115.436 210.06 115.44V115.44Z" fill="#292526"/>
<path d="M214.83 107.74C214.55 107.61 212.1 106.42 212.08 105.56C212.083 105.455 212.117 105.354 212.177 105.268C212.238 105.183 212.322 105.117 212.42 105.08C212.541 105.018 212.675 104.986 212.81 104.986C212.946 104.986 213.079 105.018 213.2 105.08C214.2 105.48 214.94 107.58 214.97 107.67C214.98 107.687 214.985 107.706 214.985 107.725C214.985 107.744 214.98 107.763 214.97 107.78C214.96 107.792 214.947 107.8 214.932 107.805C214.918 107.809 214.902 107.809 214.887 107.805C214.872 107.801 214.859 107.792 214.849 107.781C214.839 107.769 214.832 107.755 214.83 107.74V107.74ZM212.52 105.26C212.36 105.34 212.29 105.44 212.29 105.56C212.29 106.12 213.86 107.02 214.69 107.45C214.47 106.89 213.87 105.51 213.13 105.22C213.046 105.185 212.956 105.167 212.865 105.167C212.774 105.167 212.684 105.185 212.6 105.22L212.52 105.26Z" fill="#292526"/>
<path d="M215.41 107.8C215.391 107.794 215.374 107.782 215.361 107.766C215.349 107.75 215.341 107.73 215.34 107.71C215.34 107.62 215.19 105.4 215.97 104.64C216.065 104.542 216.181 104.468 216.31 104.423C216.438 104.378 216.575 104.363 216.71 104.38C216.813 104.377 216.915 104.405 217.002 104.46C217.09 104.516 217.159 104.596 217.2 104.69C217.52 105.49 215.72 107.54 215.52 107.77C215.515 107.779 215.508 107.787 215.5 107.794C215.491 107.8 215.482 107.805 215.471 107.808C215.461 107.811 215.451 107.812 215.44 107.81C215.43 107.809 215.419 107.805 215.41 107.8V107.8ZM216.11 104.8C215.54 105.36 215.52 106.86 215.53 107.46C216.13 106.75 217.22 105.31 217.01 104.79C217.01 104.68 216.86 104.62 216.69 104.6C216.578 104.574 216.462 104.574 216.35 104.6C216.259 104.644 216.178 104.705 216.11 104.78V104.8Z" fill="#292526"/>
<path d="M236.63 56.09L239.1 59.33C242.26 63.48 239.39 70.33 234.23 71.03L212.92 76.89L221.54 98.89L211.16 102.66L202.74 82.66C201.52 79.77 199.52 76.9 199.33 73.66C199.05 68.87 203.15 66.99 206.95 65.66L218.58 61.66L222.76 60.23L222.21 56.61L236.63 56.09Z" fill="#F54F6B"/>
<path d="M211.14 102.75L202.72 82.75C202.38 81.92 201.96 81.09 201.55 80.28C200.367 78.2712 199.605 76.0426 199.31 73.73C199.03 69.04 202.84 67.09 206.99 65.67L222.72 60.33L222.17 56.68L236.68 56L239.18 59.28C239.951 60.3123 240.409 61.5446 240.5 62.83C240.578 64.0998 240.363 65.3705 239.873 66.5443C239.382 67.718 238.628 68.7635 237.67 69.6C236.701 70.4304 235.514 70.9649 234.25 71.14L213.05 77L221.67 99L211.67 102.64C211.497 102.694 211.32 102.731 211.14 102.75V102.75Z" fill="#F54F6B"/>
<path d="M198.76 42.0801C198.721 41.6387 198.782 41.1941 198.94 40.7801C199.18 40.3001 200.16 40.3301 200.59 40.7201C201.02 41.1101 204.37 43.7801 204.37 43.7801L201.37 48.7801C201.37 48.7801 197.77 45.1401 197.58 44.8301C197.346 44.4101 197.139 43.9759 196.96 43.5301L198.76 42.0801Z" fill="#FEA78B"/>
<path fill-rule="evenodd" clip-rule="evenodd" d="M204 43.3801C206.65 45.0201 213.55 50.6001 213.55 50.6001L221.66 40.4201C222.027 39.9406 222.489 39.5409 223.016 39.2454C223.542 38.95 224.124 38.7649 224.725 38.7015C225.326 38.638 225.933 38.6976 226.51 38.8765C227.087 39.0555 227.622 39.35 228.081 39.7422C228.54 40.1344 228.915 40.616 229.183 41.1578C229.45 41.6995 229.604 42.29 229.636 42.8933C229.668 43.4966 229.576 44.1 229.367 44.6668C229.158 45.2336 228.836 45.7518 228.42 46.1901L217.71 55.1901C214.79 58.0201 212.36 57.7301 210.66 56.4001L201.4 48.7401L204 43.3801Z" fill="#FEA78B"/>
<path fill-rule="evenodd" clip-rule="evenodd" d="M197.04 47.02L204.28 39.24L203.34 38.36L196.1 46.14L197.04 47.02Z" fill="#262025"/>
<path fill-rule="evenodd" clip-rule="evenodd" d="M197.53 48.9L199.29 47.01L195.96 43.89L194.2 45.79L197.53 48.9Z" fill="#262025"/>
<path fill-rule="evenodd" clip-rule="evenodd" d="M196.72 48.8399L197.6 47.8899L195.12 45.5699L194.24 46.5199L196.72 48.8399Z" fill="#262025"/>
<path fill-rule="evenodd" clip-rule="evenodd" d="M205.6 40.23L203.84 42.12L200.5 39.01L202.26 37.11L205.6 40.23Z" fill="#262025"/>
<path fill-rule="evenodd" clip-rule="evenodd" d="M205.47 39.42L204.59 40.37L202.11 38.05L202.99 37.1L205.47 39.42Z" fill="#262025"/>
<path d="M199.91 39.81C200.421 39.9796 200.877 40.2836 201.23 40.69C201.375 40.8228 201.488 40.987 201.56 41.17C201.61 41.3455 201.612 41.5314 201.564 41.7077C201.517 41.884 201.422 42.0439 201.29 42.17C200.64 42.83 199.7 42.17 199.11 41.66C198.68 41.31 198.11 40.9 198.4 40.35C198.53 40.1416 198.72 39.9763 198.944 39.8749C199.168 39.7735 199.417 39.7405 199.66 39.78L199.91 39.81Z" fill="#FEA78B"/>
<path d="M199.31 41C199.853 41.2802 200.327 41.6762 200.7 42.16C200.853 42.3101 200.966 42.4956 201.03 42.7C201.065 42.8687 201.044 43.044 200.973 43.2004C200.901 43.3569 200.781 43.4863 200.63 43.57C199.84 44.04 198.84 43.15 198.23 42.57C197.77 42.12 197.23 41.57 197.57 41.09C197.91 40.61 198.45 40.72 199.02 40.9L199.31 41Z" fill="#FEA78B"/>
<path d="M198.21 41.85C198.721 42.0725 199.145 42.4551 199.42 42.94C199.61 43.28 199.82 43.94 199.42 44.22C198.76 44.78 197.69 44.06 197.21 43.57C197.001 43.3729 196.86 43.1159 196.804 42.8345C196.748 42.5531 196.782 42.2614 196.9 42C197.12 41.62 197.52 41.65 197.98 41.75C198.061 41.7719 198.138 41.8056 198.21 41.85V41.85Z" fill="#FEA78B"/>
<path d="M197.5 43.2299C198.32 43.6999 199.13 44.8599 198.45 45.2299C197.77 45.5999 197.24 44.9299 196.82 44.4399C196.587 44.2151 196.417 43.932 196.33 43.6199C196.33 43.4758 196.387 43.3374 196.488 43.2345C196.589 43.1317 196.726 43.0726 196.87 43.0699C197.09 43.0731 197.306 43.1279 197.5 43.2299V43.2299Z" fill="#FEA78B"/>
<path d="M199.28 45.4C200.479 45.4629 201.632 45.8844 202.59 46.61C202.59 46.61 201 44.76 201 43.88L199.28 45.4Z" fill="#FEA78B"/>
<path d="M202.59 46.67C201.644 45.9608 200.51 45.5468 199.33 45.48C199.321 45.48 199.311 45.4782 199.303 45.4746C199.294 45.4711 199.287 45.466 199.28 45.4595C199.274 45.453 199.269 45.4452 199.265 45.4368C199.262 45.4283 199.26 45.4192 199.26 45.41C199.26 45.3941 199.266 45.3788 199.277 45.3675C199.289 45.3563 199.304 45.35 199.32 45.35C200.395 45.3898 201.436 45.7369 202.32 46.35C201.663 45.6669 201.201 44.8212 200.98 43.9C200.98 43.8841 200.986 43.8688 200.997 43.8575C201.009 43.8463 201.024 43.84 201.04 43.84C201.058 43.84 201.076 43.8473 201.089 43.8605C201.102 43.8736 201.11 43.8914 201.11 43.91C201.11 44.75 202.68 46.57 202.7 46.59C202.709 46.6032 202.714 46.6189 202.714 46.635C202.714 46.651 202.709 46.6667 202.7 46.68L202.59 46.67Z" fill="#1D1D1B"/>
<path d="M200.87 42.68C200.86 42.6845 200.85 42.6868 200.84 42.6868C200.829 42.6868 200.819 42.6845 200.81 42.68C200.587 42.2407 200.275 41.8533 199.892 41.5431C199.509 41.2329 199.066 41.007 198.59 40.88C198.14 40.8 197.83 40.88 197.68 41.05C197.617 41.158 197.579 41.2782 197.566 41.4024C197.554 41.5267 197.569 41.652 197.61 41.77C197.616 41.7747 197.621 41.7807 197.625 41.7877C197.628 41.7946 197.63 41.8023 197.63 41.81C197.63 41.8178 197.628 41.8255 197.625 41.8324C197.621 41.8393 197.616 41.8454 197.61 41.85C197.599 41.8599 197.585 41.8653 197.57 41.8653C197.555 41.8653 197.541 41.8599 197.53 41.85C197.48 41.7091 197.462 41.5587 197.477 41.4098C197.493 41.261 197.541 41.1175 197.62 40.99C197.8 40.77 198.15 40.7 198.62 40.78C199.119 40.905 199.585 41.137 199.986 41.4598C200.386 41.7827 200.712 42.1888 200.94 42.65C200.949 42.6633 200.954 42.679 200.954 42.695C200.954 42.7111 200.949 42.7268 200.94 42.74L200.87 42.68Z" fill="#1D1D1B"/>
<path d="M199.54 44.2C199.529 44.1874 199.523 44.1714 199.523 44.155C199.523 44.1385 199.529 44.1226 199.54 44.11C199.646 43.8887 199.668 43.636 199.6 43.4C199.485 43.1065 199.312 42.8397 199.09 42.616C198.868 42.3924 198.602 42.2168 198.31 42.1C197.75 41.8 197.36 41.74 197.14 41.91C196.92 42.08 196.98 43.02 196.99 43.03C196.99 43.0466 196.985 43.0629 196.976 43.0771C196.967 43.0912 196.955 43.1026 196.94 43.11C196.931 43.1131 196.922 43.1142 196.913 43.1132C196.904 43.1122 196.895 43.1092 196.888 43.1044C196.88 43.0996 196.873 43.0931 196.869 43.0854C196.864 43.0777 196.861 43.069 196.86 43.06C196.86 43.06 196.63 42.14 197.06 41.81C197.32 41.6 197.76 41.66 198.37 41.98C198.678 42.1081 198.958 42.2973 199.192 42.5361C199.425 42.775 199.608 43.0586 199.73 43.37C199.811 43.64 199.782 43.9311 199.65 44.18C199.647 44.1918 199.642 44.2027 199.633 44.2112C199.624 44.2197 199.614 44.2254 199.602 44.2276C199.59 44.2297 199.577 44.2283 199.566 44.2233C199.555 44.2184 199.546 44.2103 199.54 44.2Z" fill="#1D1D1B"/>
<path d="M204.37 43.7C204.37 43.7 202.78 41.14 201.71 40.96C201.2 40.88 199.94 41.96 199.78 42.46C199.72 42.62 199.78 42.8 199.97 42.98C200.106 43.1383 200.296 43.2403 200.503 43.2662C200.71 43.292 200.919 43.2399 201.09 43.12C201.15 43.12 201.2 43.05 201.23 43.12C201.721 43.5235 202.185 43.9577 202.62 44.42L204.37 43.7Z" fill="#FEA78B"/>
<path d="M202.62 44.44C202.196 43.9763 201.738 43.5451 201.25 43.15C201.223 43.1467 201.196 43.1467 201.17 43.15C200.986 43.2814 200.76 43.3389 200.536 43.3111C200.311 43.2833 200.106 43.1722 199.96 43C199.76 42.77 199.69 42.58 199.76 42.41C199.92 41.97 201.21 40.78 201.76 40.88C202.85 41.05 204.4 43.54 204.47 43.64C204.479 43.6467 204.486 43.6556 204.491 43.6658C204.496 43.676 204.499 43.6873 204.498 43.6987C204.498 43.7101 204.495 43.7212 204.489 43.7311C204.484 43.741 204.476 43.7494 204.466 43.7555C204.456 43.7616 204.446 43.7653 204.434 43.7662C204.423 43.7672 204.411 43.7653 204.401 43.7608C204.39 43.7563 204.381 43.7493 204.374 43.7405C204.367 43.7316 204.362 43.7211 204.36 43.71C204.36 43.71 202.77 41.17 201.74 41C201.28 40.93 200.04 42 199.88 42.46C199.82 42.6 199.94 42.79 200.06 42.92C200.183 43.0586 200.353 43.1473 200.537 43.1694C200.721 43.1915 200.907 43.1455 201.06 43.04C201.117 42.9967 201.188 42.9754 201.26 42.98C201.763 43.3872 202.237 43.8282 202.68 44.3C202.686 44.3065 202.692 44.3143 202.695 44.3228C202.699 44.3314 202.701 44.3406 202.701 44.35C202.701 44.3593 202.699 44.3685 202.695 44.3771C202.692 44.3857 202.686 44.3934 202.68 44.4L202.62 44.44Z" fill="#1D1D1B"/>
<path d="M201.89 42.3199C201.674 42.7339 201.321 43.0594 200.89 43.2399L201.89 42.3199Z" fill="#FEA78B"/>
<path d="M200.85 43.3001C200.834 43.3001 200.819 43.2937 200.808 43.2825C200.796 43.2712 200.79 43.256 200.79 43.2401C200.79 43.2241 200.796 43.2089 200.808 43.1976C200.819 43.1864 200.834 43.1801 200.85 43.1801C201.279 43.0122 201.634 42.6965 201.85 42.2901C201.863 42.2795 201.879 42.2737 201.895 42.2737C201.912 42.2737 201.927 42.2795 201.94 42.2901C201.95 42.3011 201.955 42.3153 201.955 42.3301C201.955 42.3448 201.95 42.3591 201.94 42.3701C201.715 42.8244 201.33 43.1803 200.86 43.3701L200.85 43.3001Z" fill="#1D1D1B"/>
<path d="M198.66 45.06C198.654 45.0543 198.649 45.0474 198.645 45.0397C198.642 45.0319 198.64 45.0235 198.64 45.015C198.64 45.0065 198.642 44.998 198.645 44.9903C198.649 44.9825 198.654 44.9756 198.66 44.97C198.679 44.9217 198.679 44.8683 198.66 44.82C198.512 44.2506 198.155 43.7579 197.66 43.44C197.551 43.3332 197.421 43.2499 197.278 43.1949C197.135 43.1399 196.983 43.1144 196.83 43.12C196.695 43.1328 196.569 43.1973 196.48 43.3C196.474 43.3066 196.466 43.3119 196.457 43.3155C196.449 43.3191 196.439 43.321 196.43 43.321C196.421 43.321 196.412 43.3191 196.403 43.3155C196.394 43.3119 196.387 43.3066 196.38 43.3C196.37 43.2874 196.364 43.2714 196.364 43.255C196.364 43.2385 196.37 43.2226 196.38 43.21C196.491 43.0781 196.649 42.9954 196.82 42.98C196.991 42.971 197.162 42.9975 197.322 43.0577C197.482 43.118 197.628 43.2107 197.75 43.33C198.256 43.6768 198.614 44.2016 198.75 44.8C198.754 44.8457 198.748 44.8916 198.732 44.9348C198.717 44.9779 198.692 45.0172 198.66 45.05V45.06Z" fill="#1D1D1B"/>
<path d="M217.92 34.6L220.37 33.86L221.79 32.39L223.35 34.81L224.84 36.2L224.92 36.27C225.006 36.355 225.1 36.432 225.2 36.5C224.2 37.08 221.81 43.1 221.81 43.1C221.81 43.1 217.99 43.57 218.21 42.2C218.34 41.83 219.64 38.75 219.45 38.39L218 34.78L217.92 34.6Z" fill="#FEA78B"/>
<path d="M223.11 34.47C221.21 34.77 219.04 35.64 218.42 35.67L217.42 35.43L220.19 33.51L221.57 31.62L223.11 34.47Z" fill="#EF866A"/>
<path d="M222.61 22.61C222.61 22.61 226.28 19.09 229.28 22.88C231.211 24.9172 233.647 26.4076 236.34 27.2C238.34 27.66 240.95 27.85 242.53 29.39C244.67 31.48 244.53 35.39 242.66 37.57C241.956 38.323 241.111 38.9297 240.172 39.3553C239.233 39.7809 238.22 40.0169 237.19 40.05C230.49 40.59 226.24 28.23 224.87 23.79C224.54 22.7 223.72 22.86 222.62 22.61H222.61Z" fill="#262025"/>
<path d="M217.65 35.77C215.5 36.23 214.34 34.77 213.89 32.67L213 27.36L216.26 26.36L219.35 26.67L220.96 31.42C221.38 33.53 219.79 35.32 217.65 35.77Z" fill="#FEA78B"/>
<path d="M215.17 30.88C215.183 30.9849 215.157 31.0909 215.095 31.1769C215.034 31.263 214.942 31.3227 214.839 31.3441C214.735 31.3656 214.627 31.3472 214.537 31.2927C214.446 31.2382 214.38 31.1515 214.35 31.05C214.33 30.9413 214.353 30.8289 214.414 30.7372C214.476 30.6454 214.572 30.5818 214.68 30.56C214.787 30.5391 214.899 30.5608 214.99 30.6206C215.082 30.6803 215.146 30.7734 215.17 30.88V30.88Z" fill="#262025"/>
<path d="M213.27 32.3499C213.508 31.5217 213.563 30.6515 213.43 29.7999C213.418 29.7751 213.411 29.7477 213.411 29.7199C213.411 29.6922 213.418 29.6648 213.43 29.6399C213.455 29.6188 213.487 29.6072 213.52 29.6072C213.553 29.6072 213.585 29.6188 213.61 29.6399C213.654 29.6866 213.682 29.7462 213.69 29.8099C213.97 30.8099 214.08 31.8099 214.42 32.8099C214.42 32.8799 214.47 32.9499 214.54 32.9699C214.61 32.9899 214.73 32.9699 214.73 33.0599C214.73 33.1499 214.54 33.2199 214.47 33.2399C214.245 33.3009 214.013 33.3378 213.78 33.3499C213.67 33.3683 213.558 33.3586 213.453 33.3219C213.348 33.2852 213.254 33.2226 213.18 33.1399C213.116 33.028 213.094 32.8965 213.12 32.7699C213.145 32.6422 213.185 32.5179 213.24 32.3999L213.27 32.3499Z" fill="#FEA78B"/>
<path d="M215.24 33.9999C215.295 34.068 215.355 34.1316 215.42 34.1899L215.55 34.2499H215.64C215.807 34.2837 215.98 34.2768 216.143 34.2298C216.307 34.1828 216.457 34.0971 216.58 33.9799C216.676 33.8927 216.748 33.7826 216.79 33.6599C216.809 33.5676 216.809 33.4723 216.79 33.3799C216.8 33.3002 216.8 33.2197 216.79 33.1399C216.79 33.0699 216.79 33.0099 216.79 32.9399L215.24 33.9999Z" fill="#FCFCFF"/>
<path d="M213.65 29.73C214.186 29.4939 214.737 29.2935 215.3 29.13C215.47 29.13 215.68 29.64 215.51 29.72C215.34 29.8 213.7 30.31 213.7 30.31C213.7 30.31 213.42 29.91 213.65 29.73Z" fill="#262025"/>
<path d="M214.07 30.64C214.559 30.6402 215.047 30.7041 215.52 30.83C215.443 30.7103 215.342 30.6082 215.223 30.5306C215.104 30.453 214.97 30.4017 214.83 30.38C214.691 30.3492 214.547 30.3572 214.413 30.403C214.279 30.4489 214.16 30.5309 214.07 30.64V30.64Z" fill="#262025"/>
<path d="M213.28 25.67C213.7 23.5 217.69 22.54 217.69 22.54L219.11 24.76L219.95 24.63C221.74 24.37 224.62 29.89 221.24 30.75C220.09 31.04 219.65 27.75 218.33 28.03C214.73 28.78 213.02 27.35 213.02 27.35C213.02 26.78 213.108 26.2135 213.28 25.67Z" fill="#262025"/>
<path d="M219.21 29.4101C219.21 29.3201 219.82 28.7301 219.88 28.6901C220.229 28.3863 220.643 28.1673 221.09 28.0501C222.24 27.8201 222.75 29.5701 222.68 30.4301C222.58 31.6001 221.44 31.9801 220.45 32.5201L220.12 32.6901L219.21 29.4101Z" fill="#FEA78B"/>
<path d="M223.94 22.19C224.09 22.3692 224.165 22.5999 224.148 22.8333C224.132 23.0666 224.025 23.2842 223.85 23.44L223.2 24.03L221.31 23L222.76 22.06C222.94 21.9369 223.158 21.8823 223.374 21.9061C223.591 21.93 223.791 22.0307 223.94 22.19V22.19Z" fill="#262025"/>
<path fill-rule="evenodd" clip-rule="evenodd" d="M217.7 46.24C217.7 46.12 217.7 45.99 217.7 45.87C217.58 44.49 218.57 40.49 218.48 41.87C218.48 42.7 219.95 42.43 220.72 41.79C221.722 40.57 222.563 39.2255 223.22 37.79C223.75 36.79 224.22 35.49 224.22 35.49C227.86 36.9 229.78 36.91 231.22 40.54L236.39 56.85L222.17 57.85L219.54 50.45C218.456 49.3031 217.806 47.8145 217.7 46.24V46.24Z" fill="#FFC200"/>
<path d="M239.72 69.78C239.72 69.78 240.48 72.7 241.45 73.19C241.91 73.42 243.45 72.71 243.74 72.33C243.788 72.2464 243.814 72.1516 243.814 72.055C243.814 71.9585 243.788 71.8636 243.74 71.78C243.659 71.594 243.512 71.4439 243.328 71.3575C243.145 71.271 242.936 71.2542 242.74 71.31C242.692 71.3295 242.638 71.3295 242.59 71.31C242.243 70.7764 241.929 70.222 241.65 69.65L239.72 69.78Z" fill="#FEA78B"/>
<path d="M241.69 73.3C241.601 73.318 241.509 73.318 241.42 73.3C240.42 72.8 239.69 69.97 239.65 69.85C239.644 69.8376 239.641 69.8239 239.641 69.81C239.641 69.7961 239.644 69.7824 239.65 69.77C239.661 69.7601 239.675 69.7547 239.69 69.7547C239.705 69.7547 239.719 69.7601 239.73 69.77C239.73 69.77 240.5 72.66 241.43 73.13C241.85 73.34 243.36 72.66 243.64 72.29C243.73 72.17 243.64 71.96 243.64 71.8C243.564 71.6104 243.417 71.4586 243.229 71.378C243.041 71.2974 242.83 71.2945 242.64 71.37C242.607 71.3852 242.571 71.3931 242.535 71.3931C242.499 71.3931 242.463 71.3852 242.43 71.37C242.055 70.836 241.72 70.2744 241.43 69.69C241.424 69.6844 241.418 69.6774 241.415 69.6697C241.411 69.6619 241.41 69.6535 241.41 69.645C241.41 69.6365 241.411 69.6281 241.415 69.6203C241.418 69.6125 241.424 69.6056 241.43 69.6C241.441 69.5902 241.455 69.5847 241.47 69.5847C241.485 69.5847 241.499 69.5902 241.51 69.6C241.783 70.1635 242.094 70.7081 242.44 71.23V71.23H242.52C242.734 71.1567 242.968 71.1677 243.174 71.2605C243.38 71.3534 243.543 71.5212 243.63 71.73C243.75 72.01 243.76 72.21 243.63 72.35C243.087 72.8448 242.414 73.1744 241.69 73.3V73.3Z" fill="#1D1D1B"/>
<path d="M241.68 71.84C242.022 71.5041 242.472 71.3018 242.95 71.27L241.68 71.84Z" fill="#FEA78B"/>
<path d="M241.68 71.9H241.63C241.63 71.9 241.63 71.8299 241.63 71.8099C241.978 71.4578 242.445 71.2476 242.94 71.22C242.948 71.2164 242.957 71.2151 242.965 71.216C242.974 71.2168 242.982 71.22 242.989 71.225C242.996 71.2301 243.002 71.2369 243.005 71.2447C243.009 71.2526 243.011 71.2613 243.01 71.2699C243.01 71.2699 243.01 71.3399 242.95 71.3499C242.492 71.3801 242.06 71.5714 241.73 71.8899C241.723 71.8952 241.715 71.8988 241.706 71.9005C241.697 71.9023 241.688 71.9021 241.68 71.9Z" fill="#1D1D1B"/>
<path fill-rule="evenodd" clip-rule="evenodd" d="M247.62 68.61L238.56 74.16L239.23 75.26L248.29 69.71L247.62 68.61Z" fill="#262025"/>
<path fill-rule="evenodd" clip-rule="evenodd" d="M247.66 66.67L245.45 68.02L247.83 71.92L250.03 70.57L247.66 66.67Z" fill="#262025"/>
<path fill-rule="evenodd" clip-rule="evenodd" d="M248.42 66.95L247.32 67.63L249.09 70.53L250.19 69.86L248.42 66.95Z" fill="#262025"/>
<path fill-rule="evenodd" clip-rule="evenodd" d="M237.56 72.85L239.76 71.5L242.14 75.4L239.94 76.75L237.56 72.85Z" fill="#262025"/>
<path fill-rule="evenodd" clip-rule="evenodd" d="M237.46 73.66L238.57 72.98L240.33 75.89L239.23 76.56L237.46 73.66Z" fill="#262025"/>
<path d="M244.59 66.6C244.59 66.6 246.9 70.68 247 71C247.005 71.0565 247.005 71.1134 247 71.17C247.018 71.3773 246.971 71.5851 246.865 71.7644C246.759 71.9436 246.6 72.0854 246.41 72.17L244.61 72.93C244.526 73.3677 244.345 73.781 244.08 74.14C243.77 74.3232 243.41 74.4044 243.051 74.3721C242.692 74.3399 242.353 74.1957 242.08 73.96C241.78 73.46 239.68 69.78 239.68 69.78L244.59 66.6Z" fill="#FEA78B"/>
<path d="M242.92 74.78C242.439 74.4747 242.041 74.0557 241.76 73.56C241.524 73.1472 241.329 72.7117 241.18 72.26C241.18 71.91 241.93 72.34 242.18 72.16C242.98 71.7 243.7 72.63 244.18 73.23C244.66 73.83 244.89 74.11 244.5 74.57C244.335 74.7558 244.118 74.887 243.877 74.946C243.636 75.005 243.382 74.9889 243.15 74.9C243.071 74.866 242.994 74.8259 242.92 74.78V74.78Z" fill="#FEA78B"/>
<path d="M243.82 73.83C243.388 73.4076 243.047 72.9003 242.82 72.34C242.723 72.1507 242.668 71.9425 242.66 71.73C242.67 71.559 242.735 71.3959 242.845 71.2644C242.955 71.133 243.104 71.0403 243.27 71C244.16 70.76 244.98 72 245.41 72.71C245.74 73.26 245.84 73.8 245.41 74.16C244.98 74.52 244.62 74.33 244.11 74L243.82 73.83Z" fill="#FEA78B"/>
<path d="M245.11 73.2799C244.674 72.9297 244.368 72.444 244.24 71.9C244.15 71.52 244.11 70.9 244.54 70.66C245.33 70.29 246.16 71.2799 246.54 71.8799C246.688 72.1181 246.76 72.3956 246.748 72.6758C246.735 72.956 246.639 73.2259 246.47 73.4499C246.15 73.7599 245.77 73.6199 245.35 73.4499C245.264 73.4024 245.183 73.3454 245.11 73.2799Z" fill="#FEA78B"/>
<path fill-rule="evenodd" clip-rule="evenodd" d="M224.68 38.23C225.183 37.9009 225.748 37.6774 226.34 37.5732C226.933 37.469 227.54 37.4861 228.125 37.6236C228.711 37.761 229.262 38.0159 229.746 38.3729C230.23 38.7298 230.636 39.1813 230.94 39.7L244.78 67L239.67 69.88L223.53 44.6C223.172 44.1118 222.916 43.5557 222.78 42.9656C222.643 42.3755 222.628 41.7638 222.736 41.1678C222.844 40.5717 223.071 40.0039 223.406 39.4988C223.74 38.9937 224.174 38.562 224.68 38.23Z" fill="#FEA78B"/>
<path d="M243.61 75C243.451 74.9992 243.293 74.9756 243.14 74.93C241.94 74.61 241.23 72.57 241.2 72.48C241.192 72.4683 241.187 72.4543 241.188 72.44C241.188 72.4257 241.192 72.4118 241.2 72.4C241.213 72.391 241.229 72.3862 241.245 72.3862C241.261 72.3862 241.277 72.391 241.29 72.4C241.29 72.4 242 74.46 243.13 74.76C243.261 74.8181 243.403 74.8498 243.546 74.8531C243.69 74.8564 243.833 74.8313 243.966 74.7792C244.1 74.7272 244.222 74.6492 244.326 74.5498C244.43 74.4504 244.513 74.3316 244.57 74.2C244.581 74.1939 244.593 74.1906 244.605 74.1906C244.617 74.1906 244.629 74.1939 244.64 74.2C244.754 74.2236 244.871 74.2233 244.985 74.1992C245.098 74.1751 245.206 74.1277 245.3 74.06C245.457 73.9267 245.563 73.7429 245.6 73.54H245.66C246 73.69 246.17 73.54 246.18 73.54C246.77 73.09 246.46 72.15 246.46 72.14C246.453 72.1298 246.449 72.1176 246.449 72.105C246.449 72.0925 246.453 72.0802 246.46 72.07L246.65 71.91C247.31 71.27 246.36 70.1 246.35 70.09C246.339 70.0758 246.333 70.0582 246.333 70.04C246.333 70.0218 246.339 70.0042 246.35 69.99C246.365 69.9801 246.382 69.9749 246.4 69.9749C246.418 69.9749 246.435 69.9801 246.45 69.99C246.45 70.05 247.45 71.28 246.74 71.99L246.58 72.13C246.67 72.386 246.687 72.662 246.628 72.9269C246.57 73.1919 246.439 73.4353 246.25 73.63C246.167 73.6942 246.068 73.7339 245.964 73.7445C245.859 73.7551 245.754 73.7363 245.66 73.69C245.611 73.901 245.496 74.0905 245.33 74.23C245.123 74.3741 244.87 74.4349 244.62 74.4C244.518 74.5789 244.371 74.7282 244.194 74.8333C244.017 74.9385 243.816 74.9959 243.61 75V75Z" fill="#1D1D1B"/>
<path d="M246.59 72.18C246.583 72.1844 246.574 72.1867 246.565 72.1867C246.556 72.1867 246.548 72.1844 246.54 72.18L245.93 71.1C245.924 71.0954 245.919 71.0893 245.915 71.0824C245.912 71.0755 245.91 71.0678 245.91 71.06C245.91 71.0523 245.912 71.0446 245.915 71.0377C245.919 71.0307 245.924 71.0247 245.93 71.02C245.943 71.0095 245.959 71.0037 245.975 71.0037C245.992 71.0037 246.008 71.0095 246.02 71.02L246.63 72.09C246.641 72.1026 246.647 72.1186 246.647 72.135C246.647 72.1515 246.641 72.1674 246.63 72.18H246.59Z" fill="#1D1D1B"/>
<path d="M245.71 73.66C245.701 73.6644 245.69 73.6667 245.68 73.6667C245.67 73.6667 245.659 73.6644 245.65 73.66L244.8 72C244.794 71.9943 244.789 71.9874 244.785 71.9796C244.782 71.9719 244.78 71.9635 244.78 71.955C244.78 71.9465 244.782 71.938 244.785 71.9303C244.789 71.9225 244.794 71.9156 244.8 71.91C244.806 71.9036 244.813 71.8985 244.82 71.895C244.828 71.8915 244.837 71.8896 244.845 71.8896C244.854 71.8896 244.862 71.8915 244.87 71.895C244.878 71.8985 244.884 71.9036 244.89 71.91L245.74 73.51C245.751 73.5226 245.756 73.5385 245.756 73.555C245.756 73.5714 245.751 73.5874 245.74 73.6L245.71 73.66Z" fill="#1D1D1B"/>
<path d="M244.66 74.35L243.66 72.86C243.651 72.8533 243.643 72.8444 243.638 72.8342C243.633 72.824 243.631 72.8126 243.631 72.8013C243.632 72.7899 243.635 72.7787 243.641 72.7689C243.646 72.759 243.654 72.7506 243.664 72.7445C243.673 72.7384 243.684 72.7347 243.696 72.7337C243.707 72.7328 243.718 72.7347 243.729 72.7392C243.739 72.7437 243.749 72.7507 243.756 72.7595C243.763 72.7684 243.768 72.7789 243.77 72.79L244.77 74.28C244.781 74.2926 244.786 74.3086 244.786 74.325C244.786 74.3415 244.781 74.3574 244.77 74.37L244.66 74.35Z" fill="#1D1D1B"/>
<path d="M221.03 99.04L211.61 102.49L221.61 100.65L221.03 99.04Z" fill="#EF866A"/>
<path d="M214.37 53C214.349 53.0004 214.329 52.9949 214.311 52.9843C214.294 52.9737 214.279 52.9584 214.27 52.94L213.43 50.6C213.425 50.5875 213.423 50.5742 213.423 50.5609C213.424 50.5476 213.427 50.5345 213.433 50.5223C213.438 50.5102 213.446 50.4994 213.456 50.4904C213.466 50.4814 213.477 50.4744 213.49 50.47C213.515 50.4628 213.542 50.4649 213.566 50.4759C213.59 50.4869 213.609 50.5061 213.62 50.53L214.46 52.87C214.465 52.8825 214.467 52.8957 214.467 52.9091C214.466 52.9224 214.463 52.9355 214.457 52.9476C214.452 52.9598 214.444 52.9706 214.434 52.9796C214.424 52.9886 214.413 52.9955 214.4 53H214.37Z" fill="#1D1D1B"/>
<path d="M123.11 100.52L124.81 110.76L132.97 110.01L132.42 99.72L123.11 100.52Z" fill="#FFB693"/>
<path d="M140.45 112.82C139.958 112.513 139.422 112.284 138.86 112.14C137.64 111.81 135.8 111.33 135.12 111.14C134.67 111 134.27 110.24 134.03 109.9L133.35 108.71C132.937 108.461 132.462 108.336 131.98 108.348C131.498 108.361 131.03 108.51 130.63 108.78L129.8 109.52C129.522 109.749 129.177 109.883 128.817 109.901C128.457 109.919 128.1 109.82 127.8 109.62C126.744 109.144 125.586 108.938 124.43 109.02V109L124.66 116C124.66 116 141.08 116.18 141.34 115.67C141.46 115.276 141.46 114.854 141.34 114.46C141.271 113.827 140.968 113.242 140.49 112.82H140.45Z" fill="#F54F6B"/>
<path d="M141.58 116.19V116C141.58 115.57 141.58 115.13 141.53 114.7H141.34L124.6 115H124.25C124.25 115 124.25 115.69 124.25 115.74C124.25 115.79 124.25 116.13 124.25 116.33C124.25 116.84 124.25 117.33 124.82 117.56C125.036 117.669 125.279 117.713 125.52 117.689C125.761 117.664 125.99 117.571 126.18 117.42C126.33 117.26 126.49 117.01 126.73 117C126.833 117.004 126.934 117.033 127.025 117.083C127.115 117.133 127.192 117.204 127.25 117.29C127.333 117.409 127.444 117.506 127.573 117.572C127.702 117.638 127.845 117.672 127.99 117.67C128.135 117.664 128.276 117.621 128.4 117.546C128.524 117.471 128.628 117.366 128.7 117.24C128.85 117.07 128.96 116.93 129.2 116.92C129.304 116.92 129.407 116.946 129.498 116.997C129.589 117.048 129.665 117.121 129.72 117.21C129.805 117.326 129.917 117.421 130.045 117.487C130.174 117.553 130.316 117.588 130.46 117.59C130.604 117.581 130.744 117.538 130.868 117.463C130.992 117.388 131.095 117.284 131.17 117.16C131.32 116.99 131.43 116.85 131.67 116.84C131.774 116.84 131.877 116.866 131.968 116.917C132.059 116.968 132.135 117.041 132.19 117.13C132.275 117.246 132.387 117.341 132.515 117.407C132.644 117.473 132.786 117.508 132.93 117.51C133.074 117.499 133.213 117.454 133.336 117.38C133.46 117.305 133.564 117.202 133.64 117.08C133.78 116.9 133.9 116.76 134.14 116.76C134.244 116.762 134.346 116.789 134.436 116.84C134.527 116.89 134.604 116.962 134.66 117.05C134.745 117.166 134.857 117.261 134.985 117.327C135.114 117.393 135.256 117.428 135.4 117.43C135.542 117.413 135.679 117.366 135.802 117.292C135.924 117.218 136.029 117.118 136.11 117C136.16 116.908 136.232 116.83 136.319 116.773C136.406 116.715 136.506 116.68 136.61 116.67C136.713 116.676 136.813 116.705 136.903 116.755C136.994 116.805 137.071 116.875 137.13 116.96C137.211 117.081 137.322 117.179 137.451 117.245C137.58 117.312 137.725 117.344 137.87 117.34C138.014 117.331 138.154 117.288 138.278 117.213C138.402 117.138 138.506 117.034 138.58 116.91C138.631 116.82 138.704 116.744 138.791 116.688C138.878 116.633 138.977 116.599 139.08 116.59C139.32 116.59 139.44 116.71 139.6 116.88C139.743 117.045 139.932 117.164 140.142 117.222C140.353 117.279 140.576 117.273 140.783 117.203C140.99 117.133 141.172 117.004 141.305 116.83C141.438 116.657 141.516 116.448 141.53 116.23L141.58 116.19Z" fill="#C3E3F9"/>
<path d="M141.55 115.3L124.28 115.64C124.251 115.64 124.223 115.628 124.202 115.608C124.182 115.587 124.17 115.559 124.17 115.53C124.169 115.516 124.17 115.502 124.174 115.489C124.179 115.475 124.186 115.463 124.195 115.453C124.205 115.442 124.216 115.434 124.229 115.428C124.242 115.423 124.256 115.42 124.27 115.42L141.55 115.08C141.579 115.08 141.607 115.092 141.628 115.112C141.648 115.133 141.66 115.161 141.66 115.19C141.66 115.219 141.648 115.247 141.628 115.268C141.607 115.288 141.579 115.3 141.55 115.3Z" fill="#292526"/>
<path d="M133.69 110C133.67 109.992 133.652 109.978 133.64 109.961C133.628 109.943 133.621 109.922 133.62 109.9C133.62 109.81 133.41 107.51 134.21 106.7C134.306 106.596 134.424 106.516 134.556 106.465C134.688 106.415 134.83 106.396 134.97 106.41C135.08 106.407 135.188 106.435 135.282 106.492C135.376 106.548 135.452 106.631 135.5 106.73C135.84 107.55 134.01 109.73 133.8 109.96C133.796 109.97 133.789 109.979 133.782 109.987C133.774 109.994 133.764 110 133.754 110.004C133.743 110.008 133.732 110.009 133.722 110.009C133.711 110.008 133.7 110.005 133.69 110ZM134.82 106.62C134.631 106.627 134.453 106.706 134.32 106.84C133.74 107.44 133.75 108.99 133.77 109.62C134.39 108.87 135.49 107.35 135.26 106.81C135.226 106.751 135.176 106.702 135.116 106.668C135.056 106.635 134.989 106.618 134.92 106.62H134.82Z" fill="#292526"/>
<path d="M133.17 110.33C132.88 110.19 130.3 109.01 130.27 108.12C130.268 108.011 130.3 107.903 130.361 107.812C130.421 107.721 130.508 107.651 130.61 107.61C130.731 107.538 130.867 107.494 131.007 107.482C131.147 107.47 131.289 107.49 131.42 107.54C132.49 107.94 133.28 110.1 133.32 110.19C133.33 110.209 133.335 110.229 133.335 110.25C133.335 110.271 133.33 110.292 133.32 110.31C133.314 110.324 133.304 110.335 133.292 110.344C133.28 110.353 133.265 110.359 133.251 110.361C133.236 110.363 133.22 110.361 133.206 110.356C133.192 110.35 133.18 110.342 133.17 110.33ZM131 107.68C130.88 107.685 130.764 107.72 130.66 107.78C130.5 107.87 130.42 107.97 130.43 108.1C130.43 108.68 132.09 109.59 132.97 110.01C132.73 109.43 132.07 108.01 131.29 107.73C131.198 107.693 131.099 107.676 131 107.68V107.68Z" fill="#292526"/>
<path d="M65.3099 100.6L56.7299 110.54L49.9399 108.78L56.9799 99.89L65.3099 100.6Z" fill="#FFB693"/>
<path d="M41.9099 112.51C42.4351 112.186 43.0044 111.941 43.5999 111.78C44.8999 111.43 46.8699 110.93 47.5999 110.7C48.0799 110.55 48.4999 109.7 48.7599 109.37L49.4799 108.11C49.9189 107.846 50.4244 107.713 50.9366 107.727C51.4489 107.741 51.9463 107.902 52.3699 108.19L53.2499 108.97C53.5494 109.22 53.922 109.366 54.3116 109.386C54.7011 109.405 55.0866 109.298 55.4099 109.08C56.534 108.569 57.7685 108.349 58.9999 108.44V108.5L58.7499 115.9C58.7499 115.9 41.2699 116.1 40.9999 115.55C40.8653 115.131 40.8653 114.679 40.9999 114.26C41.0734 113.588 41.3942 112.968 41.8999 112.52L41.9099 112.51Z" fill="#F54F6B"/>
<path d="M40.71 116.09V115.87C40.71 115.4 40.71 114.94 40.71 114.47H41L58.82 114.77H59.19C59.174 115.03 59.174 115.29 59.19 115.55C59.19 115.76 59.19 115.97 59.19 116.18C59.19 116.73 59.19 117.24 58.57 117.49C58.3414 117.608 58.0834 117.657 57.8276 117.63C57.5717 117.603 57.3293 117.503 57.13 117.34C56.97 117.17 56.8 116.91 56.54 116.9C56.4297 116.902 56.3216 116.931 56.2255 116.985C56.1294 117.039 56.0484 117.116 55.99 117.21C55.8978 117.333 55.7786 117.433 55.6416 117.502C55.5046 117.572 55.3535 117.608 55.2 117.61C55.0473 117.598 54.8994 117.551 54.7676 117.473C54.6358 117.395 54.5237 117.288 54.44 117.16C54.29 116.97 54.17 116.82 53.91 116.81C53.7997 116.812 53.6916 116.841 53.5955 116.895C53.4994 116.949 53.4184 117.026 53.36 117.12C53.2719 117.247 53.1536 117.35 53.0156 117.42C52.8777 117.49 52.7245 117.524 52.57 117.52C52.4173 117.508 52.2694 117.461 52.1376 117.383C52.0058 117.305 51.8937 117.198 51.81 117.07C51.66 116.88 51.54 116.73 51.28 116.72C51.1701 116.723 51.0626 116.753 50.9668 116.807C50.871 116.861 50.7897 116.938 50.73 117.03C50.6389 117.155 50.5202 117.257 50.3831 117.328C50.246 117.399 50.0944 117.437 49.94 117.44C49.7881 117.426 49.6416 117.377 49.5117 117.297C49.3817 117.217 49.2716 117.109 49.19 116.98C49.03 116.79 48.91 116.64 48.65 116.64C48.39 116.64 48.27 116.77 48.1 116.94C48.0198 117.072 47.9068 117.182 47.7719 117.258C47.637 117.334 47.4848 117.374 47.33 117.374C47.1751 117.374 47.0229 117.334 46.888 117.258C46.7531 117.182 46.6401 117.072 46.56 116.94C46.5049 116.845 46.4282 116.765 46.336 116.706C46.2438 116.647 46.1389 116.611 46.03 116.6C45.77 116.6 45.64 116.73 45.47 116.91C45.3789 117.032 45.2613 117.131 45.1261 117.2C44.991 117.269 44.8418 117.307 44.69 117.31C44.5364 117.297 44.3879 117.249 44.2561 117.169C44.1242 117.089 44.0126 116.98 43.93 116.85C43.8749 116.755 43.7982 116.675 43.706 116.616C43.6139 116.557 43.5089 116.521 43.4 116.51C43.14 116.51 43.01 116.64 42.84 116.82C42.7199 116.964 42.5651 117.076 42.3902 117.144C42.2154 117.212 42.026 117.235 41.84 117.21C41.542 117.21 41.2561 117.092 41.0444 116.883C40.8328 116.673 40.7126 116.388 40.71 116.09V116.09Z" fill="#C3E3F9"/>
<path d="M40.7399 115.15L59.1299 115.51C59.1594 115.508 59.1874 115.496 59.2092 115.476C59.2311 115.456 59.2454 115.429 59.2499 115.4C59.2499 115.368 59.2372 115.338 59.2147 115.315C59.1922 115.293 59.1617 115.28 59.1299 115.28L40.7399 114.92C40.7107 114.92 40.6827 114.932 40.6621 114.952C40.6415 114.973 40.6299 115.001 40.6299 115.03C40.6298 115.06 40.641 115.089 40.6614 115.112C40.6818 115.134 40.7098 115.148 40.7399 115.15V115.15Z" fill="#292526"/>
<path d="M48.9999 109.51C48.7799 109.25 46.8299 106.94 47.1999 106.06C47.2496 105.955 47.3295 105.868 47.4293 105.809C47.5291 105.75 47.6443 105.723 47.7599 105.73C47.9087 105.716 48.0588 105.736 48.1989 105.788C48.3391 105.84 48.4659 105.923 48.5699 106.03C49.4199 106.9 49.2099 109.34 49.1999 109.45C49.1957 109.471 49.186 109.49 49.172 109.506C49.1579 109.522 49.14 109.533 49.1199 109.54V109.54C49.099 109.546 49.0769 109.547 49.0557 109.542C49.0346 109.536 49.0153 109.525 48.9999 109.51V109.51ZM47.7999 106C47.5999 106 47.4799 106.08 47.4299 106.2C47.1899 106.78 48.3699 108.39 49.0199 109.2C49.0199 108.54 49.0199 106.88 48.4299 106.2C48.2914 106.054 48.1011 105.968 47.8999 105.96L47.7999 106Z" fill="#292526"/>
<path d="M49.5898 109.82C49.5768 109.803 49.5698 109.782 49.5698 109.76C49.5698 109.738 49.5768 109.717 49.5898 109.7C49.5898 109.6 50.4698 107.3 51.5898 106.88C51.7293 106.827 51.8789 106.805 52.0278 106.818C52.1766 106.83 52.3208 106.875 52.4498 106.95C52.5579 106.993 52.6507 107.068 52.7166 107.164C52.7824 107.26 52.8183 107.374 52.8198 107.49C52.7698 108.49 50.0298 109.7 49.7198 109.84H49.6698C49.6559 109.843 49.6413 109.843 49.6274 109.84C49.6135 109.836 49.6006 109.829 49.5898 109.82ZM51.6598 107.09C50.8298 107.4 50.1298 108.9 49.8798 109.52C50.8098 109.07 52.5498 108.1 52.5798 107.52C52.5798 107.39 52.4998 107.28 52.3298 107.18C52.2355 107.095 52.1224 107.033 51.9998 107C51.8805 106.999 51.7631 107.03 51.6598 107.09V107.09Z" fill="#292526"/>
<path fill-rule="evenodd" clip-rule="evenodd" d="M132 73.62C131.32 71.39 114.08 64.37 112.38 63.33C112.02 63.11 110.92 62.52 109.99 62.02H88.9998L75.2498 78.02C73.3998 79.26 52.7998 103.78 52.7998 103.78L61.3598 107.87C61.3598 107.87 83.2898 87.79 85.0598 86.23C86.5698 84.9 97.3198 75.23 101.22 72.1L120.71 80.1C120.71 80.1 121.23 85.7 121.84 91.99C122.55 99.27 123.14 104.48 123.45 105.99L133.24 105.11C133.24 105.11 132.69 75.86 132 73.62Z" fill="#C3E3F9" stroke="#070505" stroke-width="0.5" stroke-miterlimit="10"/>
<path fill-rule="evenodd" clip-rule="evenodd" d="M79.8701 41.77C77.2001 41.77 76.5301 43.71 76.7201 46.37L74.6401 64.11C76.6704 64.7796 78.7456 65.3043 80.8501 65.68C81.3001 65.77 81.7501 65.83 82.2001 65.89L86.2001 46.33C86.2601 43.68 82.5201 41.72 79.8701 41.77Z" fill="#FEA78B"/>
<path fill-rule="evenodd" clip-rule="evenodd" d="M75.4002 61.96L68.1802 78.19L74.5302 78.57L82.2002 65.89L75.4002 61.96Z" fill="#FEA78B"/>
<path d="M74.5301 78.57C74.5301 78.57 75.0901 81.3 74.4001 82.29C73.7101 83.28 73.4001 84.68 72.5701 84.43C71.7401 84.18 72.3601 82.31 72.3001 81.65C72.2401 80.99 70.8901 76.45 70.8901 76.45L74.5301 78.57Z" fill="#FEA78B"/>
<path d="M68.65 77.14C68.65 77.14 65.72 80.85 65.74 81.51C65.74 82.35 65.5 85.62 66.41 85.51C67.32 85.4 67.83 82.13 68.06 81.77C68.29 81.41 70.26 77.46 70.26 77.46L68.65 77.14Z" fill="#FEA78B"/>
<path d="M70.9999 78.0001C70.9999 78.0001 69.3899 82.0001 69.1099 82.6001C68.8299 83.2001 68.6299 86.8901 67.9099 86.9001C67.1899 86.9101 67.5599 82.1501 67.5599 82.1501L68.2499 79.1501L70.8599 76.4301L70.9999 78.0001Z" fill="#FEA78B"/>
<path d="M71.5902 76.86C71.5902 76.86 68.3102 81.39 68.6802 82.18C69.0502 82.97 68.1402 87.18 69.0502 87.33C69.9602 87.48 70.6102 83 70.8802 82.44C71.1502 81.88 73.1602 78.27 73.1602 78.27L71.5902 76.86Z" fill="#FEA78B"/>
<path d="M73.1002 81.3301C74.3902 79.8901 71.1002 83.5301 71.0202 84.2501C70.9402 84.9701 71.6902 87.0401 70.7402 86.6401C70.269 86.3247 69.8853 85.8953 69.6248 85.3917C69.3642 84.8881 69.2354 84.3268 69.2502 83.7601C69.847 82.2445 70.5591 80.7768 71.3802 79.3701L72.0002 78.8101L73.1002 81.3301Z" fill="#FEA78B"/>
<path d="M66.3598 86.06C66.265 86.071 66.1688 86.0628 66.0772 86.0359C65.9856 86.0089 65.9003 85.9637 65.8266 85.903C65.7528 85.8423 65.692 85.7674 65.6479 85.6827C65.6038 85.598 65.5773 85.5052 65.5698 85.41L65.7398 81.51L67.1898 81.37V85C67.1707 85.2386 67.0819 85.4664 66.9343 85.6548C66.7867 85.8433 66.5869 85.9842 66.3598 86.06V86.06Z" fill="#FEA78B"/>
<path d="M67.84 87.0001C67.6468 87.0168 67.4547 86.9571 67.3051 86.8337C67.1555 86.7102 67.0603 86.533 67.04 86.3401L67.21 82.4501L68.66 82.3101L68.49 86.2001C68.5096 86.3923 68.4522 86.5844 68.3304 86.7344C68.2085 86.8843 68.0322 86.9799 67.84 87.0001V87.0001Z" fill="#FEA78B"/>
<path d="M69.29 87.32C68.54 87.39 68.5 86.97 68.46 86.57L68.67 82.77L70.12 82.63L70.06 86.71C70.1 87.11 69.7 87.28 69.29 87.32Z" fill="#FEA78B"/>
<path d="M70.7202 86.92C70.528 86.9366 70.3371 86.8766 70.189 86.7529C70.041 86.6293 69.9479 86.452 69.9302 86.26L70.1002 82.37L71.5502 82.23L71.3802 86.12C71.397 86.3132 71.3372 86.5053 71.2138 86.6549C71.0903 86.8046 70.9131 86.8997 70.7202 86.92V86.92Z" fill="#FEA78B"/>
<path d="M67.0799 85.45C67.0708 85.4552 67.0604 85.458 67.0499 85.458C67.0394 85.458 67.029 85.4552 67.0199 85.45C66.9171 84.2681 66.9709 83.0778 67.1799 81.91C67.1932 81.901 67.2088 81.8961 67.2249 81.8961C67.2409 81.8961 67.2566 81.901 67.2699 81.91C67.2797 81.921 67.2852 81.9352 67.2852 81.95C67.2852 81.9647 67.2797 81.979 67.2699 81.99C67.0752 83.1392 67.0248 84.3083 67.1199 85.47C67.1199 85.4859 67.1136 85.5012 67.1023 85.5124C67.0911 85.5237 67.0758 85.53 67.0599 85.53L67.0799 85.45Z" fill="#292526"/>
<path d="M68.4599 86.63C68.444 86.63 68.4287 86.6237 68.4175 86.6125C68.4062 86.6012 68.3999 86.586 68.3999 86.5701C68.3999 86.21 68.3999 83.0401 68.6199 82.7301C68.6252 82.7241 68.6315 82.7193 68.6386 82.7159C68.6457 82.7124 68.6535 82.7104 68.6614 82.7099C68.6693 82.7095 68.6772 82.7106 68.6846 82.7132C68.6921 82.7158 68.699 82.7198 68.7049 82.725C68.7108 82.7303 68.7156 82.7367 68.7191 82.7438C68.7225 82.7509 68.7245 82.7586 68.725 82.7665C68.7255 82.7744 68.7244 82.7823 68.7218 82.7898C68.7192 82.7973 68.7152 82.8041 68.7099 82.81C68.5144 84.0532 68.4507 85.3135 68.5199 86.5701C68.5199 86.586 68.5136 86.6012 68.5023 86.6125C68.4911 86.6237 68.4758 86.63 68.4599 86.63Z" fill="#292526"/>
<path d="M70.0602 86.77C70.0602 86.77 70.0602 86.77 70.0002 86.71C69.8825 85.4282 69.9026 84.1375 70.0602 82.86C70.0728 82.8494 70.0888 82.8436 70.1052 82.8436C70.1217 82.8436 70.1376 82.8494 70.1502 82.86C70.1601 82.871 70.1655 82.8853 70.1655 82.9C70.1655 82.9148 70.1601 82.929 70.1502 82.94C70.0115 84.1995 70.0115 85.4705 70.1502 86.73C70.1504 86.747 70.1444 86.7634 70.1334 86.7763C70.1223 86.7892 70.107 86.7976 70.0902 86.8L70.0602 86.77Z" fill="#292526"/>
<path d="M83.1401 33.0601L84.1401 35.6801L85.3801 39.2401C85.8382 39.7462 86.438 40.1027 87.1015 40.2632C87.7649 40.4237 88.4614 40.3808 89.1001 40.1401C89.776 39.967 90.3703 39.5637 90.781 38.9998C91.1916 38.4358 91.3929 37.7464 91.3501 37.0501L89.0001 30.8101L83.1401 33.0601Z" fill="#FEA78B"/>
<path d="M84.3701 36C86.4548 35.8686 88.529 35.6047 90.5801 35.21L88.9101 30.89L88.6401 30.99L87.2001 33.46L85.2001 35.13L84.3701 36Z" fill="#EF866A"/>
<path d="M78.8902 33C79.3944 33.8414 80.0329 34.5946 80.7802 35.23C81.2204 35.6398 81.7529 35.9374 82.3326 36.0975C82.9123 36.2577 83.522 36.2757 84.1102 36.15C84.6412 36.0207 85.1574 35.8364 85.6502 35.6C86.3339 35.3209 86.9512 34.901 87.4619 34.3675C87.9725 33.8341 88.3652 33.1991 88.6142 32.5039C88.8632 31.8087 88.9631 31.0688 88.9073 30.3324C88.8514 29.5961 88.6412 28.8797 88.2902 28.23C87.0002 25.69 84.2902 22.23 80.3902 24.72C79.0921 25.6959 77.9287 26.8392 76.9302 28.12C77.1202 28.76 77.3202 29.4 77.5302 30.03C77.874 31.0666 78.3301 32.0625 78.8902 33V33Z" fill="#FEA78B"/>
<path d="M84.4499 29.56C84.4894 29.6466 84.5023 29.743 84.4869 29.837C84.4715 29.9309 84.4285 30.0182 84.3633 30.0876C84.2982 30.1571 84.2139 30.2056 84.1211 30.227C84.0283 30.2484 83.9313 30.2417 83.8423 30.2079C83.7533 30.174 83.6765 30.1144 83.6214 30.0367C83.5664 29.9589 83.5358 29.8666 83.5334 29.7714C83.5309 29.6763 83.5569 29.5825 83.6079 29.5021C83.6589 29.4217 83.7327 29.3583 83.8199 29.32C83.9353 29.2691 84.0662 29.2658 84.1841 29.3107C84.302 29.3557 84.3975 29.4452 84.4499 29.56V29.56Z" fill="#292526"/>
<path d="M80.4999 31.57C80.5507 31.6855 80.554 31.8163 80.5091 31.9342C80.4642 32.0521 80.3747 32.1476 80.2599 32.2C80.1733 32.2395 80.0769 32.2524 79.9829 32.237C79.8889 32.2216 79.8017 32.1786 79.7322 32.1135C79.6628 32.0483 79.6143 31.964 79.5929 31.8712C79.5715 31.7785 79.5781 31.6814 79.612 31.5924C79.6459 31.5035 79.7055 31.4266 79.7832 31.3716C79.8609 31.3165 79.9532 31.2859 80.0484 31.2835C80.1436 31.2811 80.2374 31.307 80.3178 31.358C80.3981 31.4091 80.4615 31.4828 80.4999 31.57V31.57Z" fill="#292526"/>
<path d="M83.1301 32.72C83.0096 32.7879 82.8763 32.8301 82.7385 32.8439C82.6008 32.8577 82.4618 32.8427 82.3302 32.8C82.2002 32.8 82.0601 32.62 82.0901 32.31C82.0114 31.5478 81.7873 30.8078 81.4302 30.13C81.4172 30.1127 81.4102 30.0916 81.4102 30.07C81.4102 30.0483 81.4172 30.0273 81.4302 30.01C81.4467 29.9952 81.468 29.9871 81.4902 29.9871C81.5123 29.9871 81.5337 29.9952 81.5502 30.01C81.9267 30.717 82.158 31.4922 82.2302 32.29C82.2302 32.45 82.2302 32.56 82.3702 32.6C82.5363 32.6311 82.7073 32.6238 82.8702 32.5787C83.0331 32.5337 83.1836 32.452 83.3102 32.34C83.3177 32.3315 83.3269 32.3246 83.3372 32.32C83.3476 32.3153 83.3588 32.3129 83.3702 32.3129C83.3815 32.3129 83.3927 32.3153 83.4031 32.32C83.4134 32.3246 83.4226 32.3315 83.4302 32.34C83.4405 32.3462 83.4491 32.355 83.455 32.3655C83.461 32.376 83.4641 32.3879 83.4641 32.4C83.4641 32.4121 83.461 32.4239 83.455 32.4344C83.4491 32.445 83.4405 32.4538 83.4302 32.46C83.3466 32.564 83.245 32.652 83.1301 32.72Z" fill="#292526"/>
<path d="M82.5001 28.16C83.1201 27.8477 83.7617 27.5803 84.4201 27.36C84.6201 27.36 84.8901 27.94 84.6901 28.05C84.4901 28.16 82.6001 28.86 82.6001 28.86C82.6001 28.86 82.2401 28.4 82.5001 28.16Z" fill="#292526"/>
<path d="M80.11 29.26C79.4705 29.5296 78.8492 29.8402 78.25 30.19C78.13 30.35 78.38 30.93 78.59 30.85C78.8 30.77 80.59 29.8 80.59 29.8C80.59 29.8 80.46 29.22 80.11 29.26Z" fill="#292526"/>
<path d="M88 26.2C88 26.2 86.35 18.94 81 21.12C74.78 23.67 74.21 26.12 73 25.85C73.0332 26.1821 73.1524 26.4999 73.3459 26.7719C73.5394 27.0439 73.8004 27.2608 74.1033 27.4011C74.4062 27.5414 74.7404 27.6004 75.073 27.5721C75.4056 27.5439 75.7251 27.4294 76 27.24C75.6769 27.477 75.3095 27.6469 74.9197 27.7397C74.5298 27.8324 74.1253 27.8461 73.73 27.78C73.73 27.78 74.94 31.26 77.42 29.73C79.9 28.2 82.92 25.38 84 26C85.08 26.62 86.86 28.1 87.45 27.75C88.04 27.4 88 26.2 88 26.2Z" fill="#292526"/>
<path d="M86.6899 27.9C86.7957 27.6104 86.9368 27.335 87.1099 27.08C87.338 26.7245 87.6419 26.424 87.9999 26.2C88.9999 25.72 89.8799 27.2 89.9999 27.99C90.2099 29.08 89.2799 29.69 88.5299 30.42L88.2699 30.65L86.6899 27.9Z" fill="#FEA78B"/>
<path d="M83.87 21.63C83.4139 20.8786 83.1177 20.0412 83 19.17C83.5385 19.5021 84.0212 19.9172 84.43 20.4C84.4639 20.4529 84.5126 20.4946 84.57 20.52C84.6488 20.5399 84.7312 20.5399 84.81 20.52C85.381 20.3916 85.9647 20.3279 86.55 20.33L84.3 21.33C84.2641 21.3403 84.2259 21.3403 84.19 21.33C84.19 21.33 84.13 21.33 84.11 21.28L83.56 20.75L83.87 21.63Z" fill="#292526"/>
<path d="M83.0601 33.58C83.0601 33.58 84.7901 33.22 85.2201 32.14C85.2201 32.14 85.8201 33.99 84.1601 34.02C83.7523 34.0109 83.3616 33.8546 83.0601 33.58V33.58Z" fill="white"/>
<path d="M97.7999 32.7L81.1699 39.36L82.5799 45.32L87.0499 63.9399L110.76 62.43L97.7999 32.7Z" fill="#F54F6B"/>
<path fill-rule="evenodd" clip-rule="evenodd" d="M124.54 60.15L121.34 63.36L111.07 54.2299L102.46 46.58L102.87 33.7L117.54 49.61L124.54 60.15Z" fill="#FEA78B"/>
<path fill-rule="evenodd" clip-rule="evenodd" d="M127.61 64.77L121.4 66.17L111.07 54.23L117.54 49.61L124.54 60.15L127.61 64.77Z" fill="#FEA78B"/>
<path d="M121.4 66.16C121.4 66.16 121.28 68.95 122.12 69.81C122.96 70.67 123.51 72.01 124.27 71.63C125.03 71.25 124.14 69.51 124.09 68.84C124.04 68.17 124.66 63.49 124.66 63.49L121.4 66.16Z" fill="#FEA78B"/>
<path d="M127 63.8101C127 63.8101 130.49 67.0001 130.57 67.6701C130.65 68.3401 131.46 71.6701 130.57 71.7501C129.68 71.8301 128.62 68.6401 128.34 68.3101C128.06 67.9801 125.48 64.4201 125.48 64.4201L127 63.8101Z" fill="#FEA78B"/>
<path d="M124.76 65.0499C124.76 65.0499 126.98 68.6999 127.36 69.2899C127.74 69.8799 128.52 73.4499 129.23 73.2899C129.94 73.1299 128.82 68.5499 128.82 68.5499L127.67 65.7099L124.67 63.4399L124.76 65.0499Z" fill="#FEA78B"/>
<path d="M124 64C124 64 128 68 127.72 68.8C127.44 69.6 129.05 73.61 128.17 73.93C127.29 74.25 125.95 69.93 125.59 69.4C125.23 68.87 122.68 65.64 122.68 65.64L124 64Z" fill="#FEA78B"/>
<path d="M123.25 68.65C121.75 67.44 125.6 70.51 125.77 71.21C125.94 71.91 125.55 74.07 126.43 73.53C126.841 73.1393 127.148 72.6518 127.323 72.1121C127.497 71.5724 127.534 70.9976 127.43 70.44C126.601 69.0368 125.665 67.6995 124.63 66.44L123.92 66L123.25 68.65Z" fill="#FEA78B"/>
<path d="M130.66 72.26C130.853 72.2447 131.032 72.1545 131.159 72.0087C131.286 71.8629 131.351 71.6731 131.34 71.48L130.55 67.67L129.1 67.76L129.68 71.29C129.728 71.5311 129.847 71.7524 130.021 71.9253C130.196 72.0982 130.419 72.2148 130.66 72.26Z" fill="#FEA78B"/>
<path d="M129.35 73.4C129.543 73.3847 129.722 73.2944 129.849 73.1487C129.976 73.0029 130.041 72.8131 130.03 72.62L129.24 68.8L127.79 68.9L128.57 72.71C128.583 72.9046 128.672 73.0863 128.818 73.2155C128.964 73.3447 129.155 73.411 129.35 73.4Z" fill="#FEA78B"/>
<path d="M128 74C128.76 74 128.73 73.53 128.71 73.13L127.9 69.41L126.44 69.5L127.15 73.5C127.13 73.88 127.56 74 128 74Z" fill="#FEA78B"/>
<path d="M126.49 73.8C126.683 73.7846 126.862 73.6944 126.989 73.5486C127.116 73.4028 127.181 73.213 127.17 73.02L126.38 69.2L124.93 69.3L125.71 73.12C125.726 73.3128 125.816 73.4919 125.962 73.619C126.107 73.7461 126.297 73.811 126.49 73.8V73.8Z" fill="#FEA78B"/>
<path d="M129.84 71.77C129.831 71.7752 129.821 71.778 129.81 71.778C129.8 71.778 129.789 71.7752 129.78 71.77C129.691 70.6085 129.455 69.4628 129.08 68.36C129.07 68.349 129.065 68.3347 129.065 68.32C129.065 68.3052 129.07 68.291 129.08 68.28C129.086 68.2736 129.093 68.2685 129.101 68.265C129.108 68.2615 129.117 68.2596 129.125 68.2596C129.134 68.2596 129.142 68.2615 129.15 68.265C129.158 68.2685 129.165 68.2736 129.17 68.28C129.562 69.3963 129.805 70.5598 129.89 71.74C129.894 71.7479 129.895 71.7566 129.894 71.7652C129.893 71.7739 129.89 71.7821 129.885 71.7892C129.88 71.7963 129.873 71.8019 129.865 71.8055C129.858 71.8092 129.849 71.8107 129.84 71.81V71.77Z" fill="#292526"/>
<path d="M128.67 73.15C128.656 73.1502 128.642 73.1452 128.631 73.1361C128.62 73.1269 128.613 73.1141 128.61 73.1C128.474 71.8494 128.209 70.6162 127.82 69.42C127.814 69.4143 127.809 69.4074 127.805 69.3997C127.802 69.3919 127.8 69.3835 127.8 69.375C127.8 69.3665 127.802 69.358 127.805 69.3503C127.809 69.3425 127.814 69.3356 127.82 69.33C127.833 69.3194 127.849 69.3136 127.865 69.3136C127.882 69.3136 127.898 69.3194 127.91 69.33C128.31 70.5529 128.588 71.8123 128.74 73.09C128.745 73.1009 128.748 73.1129 128.748 73.125C128.748 73.1371 128.745 73.1491 128.74 73.16L128.67 73.15Z" fill="#292526"/>
<path d="M127.11 73.54C127.11 73.54 127.05 73.54 127.05 73.49C126.959 72.2248 126.741 70.9719 126.4 69.75C126.396 69.7381 126.395 69.7252 126.399 69.7131C126.402 69.7009 126.41 69.6902 126.42 69.6824C126.43 69.6747 126.442 69.6703 126.454 69.6698C126.467 69.6694 126.48 69.673 126.49 69.68C126.86 70.18 127.15 73.34 127.17 73.48C127.17 73.496 127.164 73.5112 127.152 73.5225C127.141 73.5337 127.126 73.54 127.11 73.54V73.54Z" fill="#292526"/>
<path fill-rule="evenodd" clip-rule="evenodd" d="M96.8098 33L92.2998 35.38L103.86 48.2L110.42 40.93L104.26 34.32C103.322 33.3326 102.093 32.6717 100.752 32.4341C99.4112 32.1966 98.0296 32.3949 96.8098 33Z" fill="#F54F6B"/>
<path d="M82.1999 39L78.9399 39.88C77.1099 40.49 76.4099 42.67 76.2499 44.54L75.1499 55.61H84.9999L85.9999 44.84L82.1999 39Z" fill="#F54F6B"/>
<path fill-rule="evenodd" clip-rule="evenodd" d="M124.02 105.96L132.78 106.45V105.17L124.02 105.96Z" fill="#FEA78B"/>
<path fill-rule="evenodd" clip-rule="evenodd" d="M53.6001 104.16L52.5801 105.45L59.6101 107.04L53.6001 104.16Z" fill="#FEA78B"/>
<path d="M222.65 60.3199C222.65 60.3199 202.29 67.3799 200.9 69.8499C199.51 72.3199 202.4 83.3599 204.22 86.8499" stroke="#2E2223" stroke-width="0.5" stroke-linecap="round" stroke-linejoin="round"/>
<path d="M97.9102 43.67L103.97 48.06" stroke="#2E2223" stroke-width="0.5" stroke-linecap="round" stroke-linejoin="round"/>
<path d="M83.4302 48.76L87.0502 63.94" stroke="#2E2223" stroke-width="0.5" stroke-linecap="round" stroke-linejoin="round"/>
</g>
<defs>
<clipPath id="clip0">
<rect width="296" height="130" fill="white"/>
</clipPath>
</defs>
</svg>
