<svg xmlns="http://www.w3.org/2000/svg" width="123" height="131" fill="none" viewBox="0 0 123 131">
    <g clip-path="url(#clip0)">
        <path fill="#151E23" d="M122.762 130.003H5.846c-.133 0-.238-.105-.238-.238V7.36c0-.134.105-.239.238-.239h116.907c.133 0 .238.105.238.239v122.414c.009.124-.105.229-.229.229zm-116.678-.477h116.431V7.598H6.085v121.928z"/>
        <path fill="#151E23" d="M116.077 38.797c-.133 0-.238-.105-.238-.238V15.526H90.102c-.133 0-.238-.105-.238-.239 0-.133.105-.238.238-.238h25.975c.133 0 .238.105.238.238V38.55c0 .134-.114.248-.238.248zM12.53 38.797c-.133 0-.238-.105-.238-.238V15.287c0-.133.105-.238.238-.238h25.975c.133 0 .238.105.238.238 0 .134-.105.239-.238.239H12.768v23.023c0 .134-.105.248-.238.248zM116.077 121.166H90.102c-.133 0-.238-.105-.238-.239 0-.133.105-.238.238-.238h25.737V97.666c0-.134.105-.239.238-.239s.238.105.238.239v23.261c0 .124-.114.239-.238.239zM38.505 121.166H12.53c-.133 0-.238-.105-.238-.239V97.666c0-.134.105-.239.238-.239s.238.105.238.239v23.023h25.737c.133 0 .238.105.238.238 0 .124-.105.239-.238.239zM63.262 4.363s11.425-1.145 13.025 7.766c.629 3.502 1.333 7.06 2.619 10.39.466 1.213 1.018 2.405 1.742 3.483 1.18 1.756 3.19 2.681 4.513 4.313 1.352 1.66 2.219 3.674 2.942 5.677.829 2.261 1.486 4.628 2.762 6.689 1.542 2.5 2.885 5.152 3.79 7.957.913 2.843.961 5.524 1.285 8.463.257 2.328 1.2 4.16 3.008 5.649l-4.894 2.28s-4.218-5.362-4.675-7.423c0 0 2.39 7.194 3.19 7.986 0 0-2.847 1.593-3.99 1.708-1.323.133-2.637.257-3.96.42-1.172.143-2.076.687-3.19 1.011-2.638.763-5.532.353-8.236.305-3.038-.057-6.085-.086-9.122-.095-9.34-.029-12.702-2.748-22.042-2.624 1.742-6.822-2.467-10.696-.667-17.508 1.78-6.727 3.713-13.415 5.618-20.104 1.228-4.322 1.38-9.255 1.847-13.73.247-2.414.857-5.152.628-7.585-.095-1.25 13.807-5.028 13.807-5.028z"/>
        <path fill="#FFC5A9" d="M66.033 41.094l-11.683-.43-.19-9.073-.03-1.098-.009-.744 4.96-.83 5.476-.906.771 6.86.705 6.22z"/>
        <path fill="#D17C68" d="M65.325 34.876c-4.494-.534-9.597-2.939-11.178-3.616l-.02-.763 4.952-1.575 5.475-.916.771 6.87z"/>
        <path fill="#FFC5A9" d="M58.596 32.757c-4.79 0-8.674-3.893-8.674-8.692V13.54l17.348.926v9.599c0 4.799-3.875 8.692-8.674 8.692z"/>
        <path fill="#151E23" d="M57.958 32.862c-1.048-.01-2.095-.276-3.038-.763-1.933-.992-3.494-2.557-4.294-4.313-.819-1.793-.886-3.988-.943-5.925-.01-.229-.01-.458-.019-.677-.085-2.5-.038-5.076.143-7.652.01-.067.067-.124.133-.124.067.01.124.067.124.133-.18 2.567-.228 5.133-.143 7.624.01.22.02.448.02.677.057 1.918.123 4.084.923 5.83.78 1.698 2.304 3.225 4.18 4.189.905.467 1.923.715 2.923.734.067 0 .124.058.124.134-.01.076-.067.133-.133.133z"/>
        <path fill="#151E23" d="M55.606 19.905c.19-.19.067-.477-.219-.515-.695-.086-2.275-.22-2.875.238-.153.115-.771.611-.314.687.219.038.514-.066.733-.095.514-.067 1.038-.076 1.561-.114.267-.02.829.009 1.067-.153l.047-.048zM59.872 20.087c-.172-.21-.02-.486.267-.486.704-.02 2.285 0 2.846.515.134.124.705.677.248.715-.219.02-.505-.123-.724-.171-.514-.115-1.028-.172-1.542-.267-.267-.048-.828-.077-1.047-.258l-.048-.048zM57.454 26.46c-.495 0-1.057-.134-1.333-.468-.153-.19-.286-.506-.01-.983.6-1.05.515-4.083.515-4.112 0-.086.066-.162.152-.162s.162.067.162.152c0 .125.085 3.15-.552 4.275-.153.258-.153.468-.02.63.296.353 1.181.448 1.667.267.085-.029.171.01.2.095.028.086-.01.172-.096.2-.18.068-.428.106-.685.106z"/>
        <path fill="#F2564A" d="M63.424 26.42c.82 0 1.485-.666 1.485-1.488s-.665-1.488-1.485-1.488c-.82 0-1.486.666-1.486 1.488s.665 1.489 1.486 1.489zM51.798 26.42c.82 0 1.485-.666 1.485-1.488s-.665-1.488-1.485-1.488c-.82 0-1.486.666-1.486 1.488s.666 1.489 1.486 1.489z"/>
        <path fill="#151E23" d="M55.368 22.272c.029 0 .067-.01.086-.029.057-.047.067-.143.019-.2-.029-.029-.628-.763-1.495-.782-.533-.01-1.047.248-1.514.772-.057.058-.047.153.01.2.057.058.152.048.2-.009.41-.458.847-.687 1.295-.677.733.019 1.266.668 1.276.677.038.029.076.048.123.048zM62.585 22.272c.029 0 .067-.01.086-.029.057-.047.066-.143.019-.2-.029-.029-.629-.763-1.495-.782-.533-.01-1.047.248-1.514.772-.057.058-.048.153.01.2.057.058.152.048.2-.009.409-.458.847-.687 1.294-.677.733.019 1.267.668 1.276.677.048.029.086.048.124.048zM76.45 17.024c.409-.23-.61-4.77-.724-5.296-.286-1.316-.686-2.623-1.343-3.807-1.352-2.404-3.923-3.74-6.57-4.198-1.37-.238-6.15.02-6.16.02-.038 0-.82-1.298-.895-1.394-1.552-1.88-3.37-2.652-5.76-2.242-2.305.391-4.58 1.527-6.237 3.196-2.828 2.853-2.448 7.061-.953 10.486 3.343 7.681 15.435.754 15.435.754s1.171 5.887 2.704 6.689c1.543.81 10.502-4.208 10.502-4.208z"/>
        <path fill="#FFC5A9" d="M65.566 22.11c-.01-.096.6-.44.666-.487.419-.268.905-.516 1.41-.554 1.285-.105 1.466 1.384 1.285 2.338-.248 1.297-1.39 2.099-2.543 2.576-.019.01-.38.134-.38.143 0 0-.439-4.007-.439-4.017z"/>
        <path fill="#F7F4EE" d="M54.787 28.158s4.323.286 5.142.086c.676-.163-1.105 2.013-2.6 1.975-1.504-.039-2.542-2.061-2.542-2.061z"/>
        <path fill="#FFC5A9" d="M34.868 46.994L18.396 76.78c-1.343 2.424-.933 5.449 1.009 7.424 2.752 2.814 7.38 2.414 9.607-.83l16.435-23.882-10.579-12.5z"/>
        <path fill="#fff" d="M42.943 69.025L26.499 59.97l8.436-15.877c2.676-5.028 8.35-7.137 13.368-4.465 5.018 2.681 5.742 8.492 3.076 13.52l-8.436 15.877z"/>
        <path fill="#153059" d="M43 69.215l-16.691-9.198 8.502-16c2.771-5.22 8.608-7.166 13.56-4.523 2.427 1.297 3.98 3.358 4.493 5.973.476 2.433 0 5.18-1.361 7.738L43 69.215zm-16.31-9.303l16.186 8.921 8.37-15.743c2.856-5.372 1.618-10.858-3.019-13.329-4.808-2.567-10.473-.677-13.178 4.408l-8.36 15.743z"/>
        <path fill="#151E23" d="M42.875 69.196c-.01 0-.01-.01-.019-.01l-16.444-9.054c-.085-.048-.123-.162-.076-.248.048-.086.162-.124.248-.077l16.282 8.97 8.626-16.097c.048-.086.162-.124.248-.076.085.047.124.162.076.248L43.104 69.11c-.02.048-.067.076-.115.086-.038.02-.076.02-.114 0z"/>
        <path fill="#FFC5A9" d="M26.299 85.625c2.98-1.393 4.294-4.914 2.97-7.93L15.968 47.46c-1.229-2.481-3.942-3.865-6.665-3.397-3.876.668-4.561 3.692-3.171 7.375l12.111 31.22c1.4 3.052 5.018 4.388 8.056 2.967z"/>
        <path fill="#FFC5A9" d="M.143 39.179l3.228 6.096 4.703 10.591 9.798-3.616s-1.343-5.267-1.714-7.538c-.171-1.068-.295-2.022-.267-2.518.077-1.556.267-4.933.124-5.21-.01-.019-.057-.048-.123-.067-.467-.133-2.095-.067-2.695 2.681l-.048.582-.076.964-.105 1.212-3.903-8.979c-.229-.639-.943-.973-1.581-.725-.61.239-.933.916-.714 1.536l1.961 5.677-2.713-6.783c-.267-.63-1-.916-1.62-.64-.599.268-.875.964-.637 1.575l2.618 6.755-2.485-5.687c-.295-.62-1.038-.877-1.647-.572-.59.296-.838 1.002-.571 1.603l2.78 6.154-2.095-4.246c-.314-.62-1.076-.859-1.685-.534-.61.315-.857 1.068-.533 1.689z"/>
        <path fill="#fff" d="M44.618 38.53l9.512.162 6.237 2.404 5.665-1.965 13.483.305L80.952 79.7c.096 2.376-2.19 4.313-4.98 4.208l-31.068-1.145c-2.847-.105-4.114-2.986-3.752-5.39l3.466-38.843z"/>
        <path fill="#F3516D" d="M63.461 113.351l1.2 7.376h22.966l-4.77-30.857-.096-.62-.266-1.775-.029-.181-.819-5.295h-39.78l-.01 1.555-.029 3.921-.01 1.708-.009 1.574-.171 29.97H63.46v-7.376z"/>
        <path fill="#151E23" d="M58.53 106.673l4.284 3.807.647 3.998 1.01 6.24h.37l-1.675-10.362c-.01-.038-.028-.076-.057-.105l-4.332-3.855c-.077-.067-.19-.057-.257.019-.067.077-.067.191.01.258z"/>
        <path fill="#FFC200" d="M82.466 87.294h-40.6v-5.295h39.781l.82 5.295z"/>
        <path fill="#F3516D" d="M41.678 82v5.295c0 .096.066.162.152.181H82.487c.038-.01.086-.028.115-.057.038-.038.047-.095.038-.153l-.82-5.295c-.009-.086-.094-.153-.18-.153H41.868c-.105 0-.19.077-.19.182zm.371.18h39.438l.762 4.934h-40.2V82.18zm2.38 0h35.678l-.01-.018-.057-.172H44.477l-.047.19z"/>
        <path fill="#FFC5A9" d="M86.695 50.751l7.103 33.309c.58 2.71-.695 5.476-3.124 6.812-3.446 1.89-7.76.153-8.95-3.597l-8.779-27.641 13.75-8.883z"/>
        <path fill="#fff" d="M73.945 69.31l18.358-3.865-3.457-17.651c-1.095-5.591-5.913-9.265-11.493-8.167-5.58 1.097-7.97 6.45-6.874 12.031l3.466 17.651z"/>
        <path fill="#151E23" d="M73.944 69.491c-.038 0-.066-.01-.105-.028-.038-.029-.066-.067-.076-.115l-3.608-18.09c-.02-.096.047-.2.142-.22.096-.019.2.048.22.144l3.57 17.909 18.186-3.826c.096-.02.2.038.22.143.018.095-.039.2-.143.219l-18.368 3.864h-.038z"/>
        <path fill="#FFC5A9" d="M49.198 73.184c4.323.41 4.237.754 6.684 1.918l28.956 15.83c2.894 1.554 6.503.514 8.122-2.348 1.656-2.93.609-6.64-2.333-8.272l-27.099-14.55-6.503-3.493c-2.8-1.326-3.123.85-3.609 3.702-.133.763-.276 1.584-.476 2.385l-3.742 4.828z"/>
        <path fill="#FFC5A9" d="M54.32 65.016h-9.55c-.58 0-1.056-.61-1.056-1.374 0-.754.476-1.374 1.057-1.374h8.94l.61 2.748z"/>
        <path fill="#FFC5A9" d="M54.32 67.763h-9.664c-.523 0-.952-.43-.952-.954v-.85c0-.524.429-.954.952-.954h9.665v2.758z"/>
        <path fill="#FFC5A9" d="M54.32 70.445h-9.664c-.523 0-.952-.43-.952-.954v-.85c0-.524.429-.954.952-.954h9.665v2.758z"/>
        <path fill="#FFC5A9" d="M54.32 73.183h-9.664c-.523 0-.952-.43-.952-.954v-.85c0-.524.429-.954.952-.954h9.665v2.758zM50.275 59.825c.123 1.498.837 5.143.837 5.143l2.295 1.002 3.847 1.68 6.132-1.25c.152-.21.19-.42.143-.63l-6.504-3.492c-.19-.086-.361-.172-.504-.258-.42-.248-.81-.487-1.172-.716-.361-.238-.685-.467-.961-.696-.476-.4-.771-.983-.829-1.613l-.152-1.803c-.076-.85-.752-1.507-1.561-1.507h-.01c-.828.01-1.504.686-1.552 1.555-.048.83-.067 1.85-.01 2.585z"/>
        <path fill="#FFC5A9" d="M57.177 73.183h-10.17V62.268l9.77.458.4 10.457z"/>
        <path fill="#F3516D" d="M60.452 42.651c-1.076 0-2.161-.124-3.237-.372-2.438-.563-4.009-1.565-4.075-1.612-.686-.44-.876-1.355-.438-2.033.438-.677 1.342-.877 2.028-.439.028.02 1.295.811 3.247 1.24 2.561.564 5.056.268 7.408-.877.733-.353 1.609-.048 1.961.677.352.735.048 1.613-.676 1.966-1.971.964-4.085 1.45-6.218 1.45z"/>
        <path fill="#151E23" d="M42.381 53.394l-.333 28.786.333-28.786z"/>
        <path fill="#151E23" d="M42.048 82.42c-.134 0-.238-.105-.238-.238l.333-28.786c0-.134.105-.239.238-.239s.238.105.238.239l-.333 28.786c0 .133-.105.238-.238.238z"/>
    </g>
    <defs>
        <clipPath id="clip0">
            <path fill="#fff" d="M0 0H122.991V130.003H0z"/>
        </clipPath>
    </defs>
</svg>
