<svg xmlns="http://www.w3.org/2000/svg" width="155" height="112" fill="none" viewBox="0 0 155 112">
    <g clip-path="url(#clip0)">
        <path fill="#A5A85D" d="M122.032 92.049l-9.573-2.627s12.205-47.333 26.834-59.679c0 0 13.82 20.789-17.261 62.306z"/>
        <path fill="#2E2425" d="M139.284 29.725l-22.07 60.979.169.062 22.07-60.978-.169-.063z"/>
        <path fill="#2E2425" d="M136.359 68.237l-11.447 1.3.02.18 11.447-1.298-.02-.181zM137.836 64.651l-11.619 1.222.018.182 11.62-1.222-.019-.181zM126.049 50.39l-.171.055 2.756 8.703.171-.055-2.756-8.703zM127.02 48.264l-.168.064 2.87 7.794.168-.063-2.87-7.794z"/>
        <path fill="#919452" d="M114.538 92.99s-13.926-55.275 3.47-76.944c0 0 19.654 20.045-3.47 76.944z"/>
        <path fill="#2E2425" d="M117.935 16.036l-3.492 76.95.18.01 3.492-76.951-.18-.009z"/>
        <path fill="#2E2425" d="M124.739 57.311l-8.85 4.642.083.161 8.85-4.641-.083-.162zM125.129 54.44l-9.097 4.585.081.163 9.097-4.584-.081-.163zM109.568 43.192l-.104.149 7.051 5.026.104-.149-7.051-5.026zM109.812 40.23l-.105.147 6.943 5.05.105-.147-6.943-5.05z"/>
        <path fill="#B7BB66" d="M110.829 89.68S79.703 77.82 77.878 55.376c.015 0 19.804-4.13 32.951 34.304z"/>
        <path fill="#2E2425" d="M77.948 55.315l-.129.127 33.054 34.196.129-.127-33.054-34.196z"/>
        <path fill="#2E2425" d="M89.89 58.414l-1.462 8.004.177.034 1.462-8.005-.177-.033zM91.795 59.685l-1.582 8.614.177.034 1.582-8.615-.177-.033zM96.689 74.885l-7.232 1.464.036.18 7.231-1.465-.035-.179zM98.108 76.347l-7.027 1.42.035.18 7.028-1.42-.036-.18z"/>
        <path fill="#B7BB66" d="M121.853 90.879s12.13-32.512 32.981-34.274c-.015 0 4.532 20-32.981 34.274z"/>
        <path fill="#2E2425" d="M121.912 90.94l-.149-.122c.045-.06 4.966-6.332 11.457-13.651 5.998-6.758 14.599-15.823 21.539-20.652l.105.151c-13.238 9.233-32.742 34.03-32.952 34.274z"/>
        <path fill="#2E2425" d="M142.361 79.791l-11.991.716.011.182 11.99-.715-.01-.183zM145.575 77.023l-12.8.707.01.182 12.8-.707-.01-.182zM139.784 63.71l-.18.004.128 6.438.18-.004-.128-6.437zM141.821 62.025h-.18v6.135h.18v-6.135z"/>
        <path fill="#A5A85D" d="M111.082 92.123S87.853 50.5 97.845 29.589c0 0 21.883 15.08 17.695 60.089-.195 2.156-4.159.121-4.458 2.445z"/>
        <path fill="#2E2425" d="M113.132 90.773c-.12-.531-12.235-52.951-15.376-61.136l.18-.06c3.14 8.2 15.256 60.634 15.376 61.166l-.18.03z"/>
        <path fill="#2E2425" d="M111.685 50.738l-6.505 6.408.125.13 6.506-6.408-.126-.13zM112.402 52.922l-6.611 6.732.128.128 6.61-6.732-.127-.128zM95.377 41.617l-.052.175 6.509 1.965.052-.175-6.509-1.965zM95.384 43.603l-.051.175 7.037 2.08.05-.175-7.036-2.08zM100.463 67.793l-.049.175 7.963 2.275.049-.175-7.963-2.275zM101.342 70.306l-.047.175 7.615 2.07.047-.176-7.615-2.07z"/>
        <path fill="#B7BB66" d="M117.529 98.137s-7.074-28.351 2.663-37.888c0-.015 10.066 12.103-2.663 37.888z"/>
        <path fill="#2E2425" d="M117.619 98.139h-.18c0-.334.703-32.71 2.663-37.918l.179.06c-1.944 5.179-2.647 37.524-2.662 37.858z"/>
        <path fill="#2E2425" d="M123.61 79.11l-5.579 3.159.088.158 5.579-3.158-.088-.158zM123.604 77.39l-5.499 3.115.088.159 5.499-3.115-.088-.159zM115.404 72.41l-.124.133 3.096 2.93.123-.132-3.095-2.931zM115.269 73.865l-.127.129 3.136 3.173.127-.129-3.136-3.173z"/>
        <path fill="#01A9B4" d="M128.763 87.464h-23.695v23.809h23.695v-23.81z"/>
        <path fill="#2E2425" d="M128.449 94.719l-23.289 4.115-.059-4.115h23.348z"/>
        <path fill="#01A9B4" d="M129.123 94.717h-24.83l-.254-7h25.562l-.478 7z"/>
        <path fill="#2E2425" d="M129.256 94.854h-25.098l-.255-7.274h25.862l-.509 7.274zm-24.829-.273h24.575l.464-6.712h-25.278l.239 6.712z"/>
        <path fill="#262025" d="M56.514 18.964c.3-.22.518-10.573 15.284-7.83 14.957 2.784 8.024 22.831 5.022 22.214-2.989-.617-20.306-14.384-20.306-14.384z"/>
        <path fill="#FFDBCA" d="M76.956 49.953H64.114l-.573-9.982-.068-1.207-.055-.809 5.418-1.11 5.977-1.235 1.119 7.528 1.023 6.816z"/>
        <path fill="#151E23" d="M75.932 43.138c-4.954-.397-10.658-2.838-12.418-3.524l-.055-.836 5.363-1.934 5.964-1.22 1.146 7.514z"/>
        <path fill="#FFDBCA" d="M68.004 40.82c-4.94 0-8.952-4.03-8.952-8.995V20.938l7.983-4.704 9.921 5.664v9.927c0 4.964-4.012 8.996-8.952 8.996z"/>
        <path fill="#151E23" d="M71.457 30.22c0 .522-.424.947-.942.947-.519 0-.942-.425-.942-.946 0-.521.423-.947.942-.947.518 0 .942.425.942.947zM64.387 30.22c0 .522-.423.947-.941.947-.519 0-.942-.425-.942-.946 0-.521.423-.947.942-.947.518 0 .941.425.941.947z"/>
        <path fill="#151E23" d="M67.335 40.93c-1.078-.013-2.17-.287-3.139-.781-1.992-1.029-3.602-2.647-4.435-4.457-.846-1.85-.914-4.127-.969-6.143-.014-.233-.014-.466-.027-.7-.096-2.59-.041-5.25.15-7.925 0-.068.068-.123.136-.123.069 0 .123.068.123.137-.19 2.66-.232 5.307-.15 7.898.014.233.014.466.027.7.055 1.974.123 4.223.956 6.033.805 1.755 2.374 3.332 4.312 4.333.942.48 1.979.74 3.016.754.068 0 .136.055.136.137 0 .083-.054.138-.136.138zM66.816 34.294c-.518 0-1.091-.137-1.378-.48-.164-.192-.3-.521-.014-1.015.614-1.097.533-4.223.533-4.25 0-.097.068-.165.163-.165.096 0 .164.068.164.164 0 .138.096 3.264-.573 4.43-.15.274-.164.48-.014.644.3.37 1.215.466 1.72.274.082-.027.177.014.204.096.028.082-.013.178-.095.206-.191.068-.437.096-.71.096z"/>
        <path fill="#F55F3D" d="M72.984 34.266c.845 0 1.529-.688 1.529-1.536 0-.848-.684-1.536-1.529-1.536-.844 0-1.528.688-1.528 1.536 0 .848.684 1.536 1.528 1.536zM60.99 34.266c.843 0 1.528-.688 1.528-1.536 0-.848-.684-1.536-1.529-1.536-.844 0-1.528.688-1.528 1.536 0 .848.684 1.536 1.528 1.536z"/>
        <path fill="#F7F4EE" d="M64.264 36.406l1.242.178c.833.11 1.679.124 2.511 0l1.338-.178c.136-.014.245.11.163.22-.395.52-1.392 1.618-2.66 1.631-1.461.014-2.444-1.014-2.771-1.631-.055-.124.04-.247.177-.22z"/>
        <path fill="#151E23" d="M69.491 26.314s3.985.672 4.094.782c.11.11 0 .973-.164 1-.163.028-4.121-.534-4.148-.671-.027-.137.054-1.138.218-1.111zM65.902 26.177s-4.026.329-4.149.425c-.123.096-.082.974.082 1.015.164.04 4.149-.179 4.19-.316.04-.137.04-1.138-.123-1.124z"/>
        <path fill="#262025" d="M68.372 16.235s-2.21 8.954-10.344 9.407c0 0-4.299-8.598 1.42-10.23 5.704-1.618 8.924.823 8.924.823z"/>
        <path fill="#262025" d="M67.035 16.235s2.21 8.954 10.344 9.407c0 0 4.3-8.598-1.419-10.23-5.704-1.618-8.925.823-8.925.823z"/>
        <path fill="#262025" d="M69.71 11.531s-3.903-1.974-2.853-7.555c1.051-5.581 8.639-4.306 10.058-2.084 1.42 2.207 2.634 1.741 4.722 2.07 2.074.33 8.365 10.929-3.33 12.122-11.695 1.193-8.597-4.553-8.597-4.553z"/>
        <path fill="#F5A200" d="M68.317 10.956s3.084-2.208 4.49-.562c1.406 1.645 2.074 2.756 3.289 2.482 1.214-.275 4.107 1.865 3.616 2.536-.491.672-.205.521-.491.672-.287.151-.9.96-2.538-.205-1.638-1.166-2.334-2.263-4.204-2.469-1.855-.219-4.803-.973-4.162-2.454z"/>
        <path fill="#FFDBCA" d="M19.026 60.69s1.037-5.238.955-6.856c-.082-1.618-5.622-9.05-5.622-9.05l-9.867-.48s-1.72-1.865-2.306-1.755c-.573.11-1.692 1.824.095 4.141.737.946 1.433 1.577 2.02 2.002.846.617 1.42.768 1.42.768s-3.426-2.77-4.245-3.003c-.819-.233-2.17 1.358-1.05 2.578 1.118 1.234 5.554 3.497 5.554 3.497s-3.221-1.399-3.876-1.55c-.655-.137-1.037 1.755-.382 2.304.641.548 4.04 1.426 4.64 1.851.6.425 2.047.26 2.047.26s-.191 6.075 7.137 9.366c7.328 3.305 3.48-4.072 3.48-4.072z"/>
        <path fill="#fff" d="M4.124 55.85l4.817 1.235c2.006.507 4.135-1.001 4.749-3.4l3.835-14.879c.614-2.386-.519-4.73-2.525-5.252l-4.817-1.234c-2.006-.507-4.135 1.001-4.75 3.401l-3.82 14.878c-.615 2.386.505 4.73 2.51 5.252z"/>
        <path fill="#151E23" d="M.93 51.874L5.462 34.28c.232-.892.737-1.66 1.433-2.153.696-.494 1.488-.672 2.238-.466l7.11 1.81c1.556.397 2.43 2.221 1.952 4.072l-4.517 17.58c-.232.89-.737 1.659-1.433 2.152-.696.494-1.488.672-2.238.467l-7.124-1.797c-.273-.068-.532-.192-.764-.343-1.05-.699-1.583-2.207-1.187-3.73zm9.267 5.1c.573.152 1.187.014 1.72-.356.531-.384.927-.973 1.105-1.659l4.517-17.593c.368-1.412-.314-2.811-1.501-3.113L8.94 32.43c-.573-.15-1.187-.013-1.72.357-.531.384-.927.974-1.105 1.66l-4.53 17.606c-.369 1.412.314 2.811 1.5 3.113l7.11 1.81z"/>
        <path fill="#FFDBCA" d="M18.125 55.658s-3.89-7.117-4.203-7.391c-.314-.274-3.576-1.604-4.121-1.687-.533-.082-.574 1.756.013 2.414.573.658 2.156 1.302 2.511 1.453 0 0 .082 2.592-.095 3.36-.178.781-1.624 3.304-.041 3.949 1.57.644 5.936-2.098 5.936-2.098z"/>
        <path fill="#FFC200" d="M46.51 92.052l.874-2.4 10.958-30.03c.355-.974.573-1.96.669-2.934.382-4.32-1.87-8.365-6.196-9.956-5.295-1.96-10.071 1.344-12.023 6.665L29.03 85.633c-1.788 4.882.75 10.298 5.636 12.04 4.817 1.686 10.099-.81 11.845-5.622z"/>
        <path fill="#FFC200" d="M42.471 96.44c3.958-2.907 4.886-8.488 2.074-12.478l-21.944-31.1L8.287 63.393 30.23 94.507c2.798 3.976 8.284 4.84 12.241 1.933z"/>
        <path fill="#141D22" d="M11.82 67.163l13.893-9.488c.082-.055.11-.165.055-.247-.055-.083-.164-.11-.246-.041L11.63 66.876c-.082.054-.11.164-.055.246.055.069.164.096.246.041zM24.785 57.373c.014-.014.041-.028.055-.042.054-.082.04-.192-.041-.247l-2.702-1.933c-.082-.055-.191-.041-.246.041-.054.083-.04.192.041.247l2.702 1.934c.055.04.137.04.191 0zM22.67 58.73c.014-.013.04-.026.054-.04.055-.082.041-.192-.04-.247L19.98 56.51c-.081-.055-.19-.042-.245.04-.055.083-.041.193.04.247l2.703 1.934c.055.041.136.041.19 0zM20.555 60.087c.013-.013.04-.027.054-.04.055-.083.041-.193-.04-.248l-2.703-1.933c-.082-.055-.19-.041-.245.041-.055.082-.041.192.04.247l2.703 1.933c.054.041.136.041.19 0zM18.44 61.446c.013-.014.04-.028.054-.041.055-.083.041-.192-.04-.247l-2.703-1.934c-.082-.054-.191-.04-.246.042-.054.082-.04.191.041.246l2.702 1.934c.055.04.123.04.191 0zM16.31 62.802c.014-.014.042-.027.055-.041.055-.082.041-.192-.04-.247l-2.703-1.933c-.082-.055-.19-.041-.245.04-.055.083-.041.193.04.248l2.702 1.933c.055.041.137.028.192 0zM14.195 64.16c.014-.014.041-.028.055-.041.055-.083.04-.193-.041-.247l-2.702-1.934c-.082-.055-.191-.041-.246.041-.054.083-.04.192.041.247l2.702 1.934c.055.027.137.027.191 0zM12.08 65.504c.014-.013.041-.027.055-.04.054-.083.04-.193-.041-.248l-2.702-1.933c-.082-.055-.191-.041-.246.041-.055.082-.04.192.041.247l2.702 1.933c.055.041.136.041.191 0z"/>
        <path fill="#FFC200" d="M100.319 87.566v23.777s-24.782 1.083-31.087.466l-24.591-.096.764-23.736.437-13.328.45-13.658.123-3.88 4.094-10.97h13.264c1.98 1.343 4.258 2.166 6.55 2.166 2.061 0 4.122-1.07 5.964-2.166l19.829.59 1.46 14.26 2.743 26.575z"/>
        <path fill="#F3516D" d="M100.32 87.567v.411H45.419l.437-13.328.464-13.658h51.284l2.716 26.575z"/>
        <path fill="#EB8C77" d="M102.967 58.95l5.841 32.785c.477 2.674-.846 5.335-3.262 6.555-3.425 1.728-7.574-.096-8.61-3.812L89.278 67.19l13.688-8.24z"/>
        <path fill="#FFC200" d="M103.977 104.076c5.554-.973 9.253-6.294 8.284-11.875L105.97 56.33c-.983-6.13-6.087-10.312-12.187-9.31-6.1.986-8.884 6.732-7.901 12.861l6.29 35.886c.97 5.567 6.251 9.297 11.805 8.309z"/>
        <path fill="#141D22" d="M102.203 104.392c-4.927 0-9.308-3.565-10.195-8.598l-6.29-35.885c-.506-3.113-.042-6.116 1.31-8.46 1.446-2.524 3.766-4.1 6.714-4.58 2.961-.48 5.854.233 8.133 2.015 2.238 1.755 3.753 4.388 4.231 7.432l6.291 35.872c.477 2.742-.137 5.498-1.72 7.775-1.583 2.276-3.957 3.798-6.687 4.278l-.027-.164.027.164c-.6.11-1.201.151-1.787.151zm-6.674-57.345c-.573 0-1.16.04-1.733.137-5.622.919-8.816 6.13-7.765 12.684l6.291 35.871c.86 4.882 5.104 8.338 9.881 8.338.573 0 1.16-.055 1.746-.151 2.648-.467 4.94-1.934 6.483-4.142 1.542-2.207 2.128-4.881 1.664-7.541l-6.291-35.872c-.477-2.962-1.938-5.526-4.121-7.226-1.774-1.385-3.903-2.098-6.155-2.098z"/>
        <path fill="#FFDBCA" d="M49.13 91.803l8.01.754 13.333 2.194 2.743-11.93s-5.99-2.07-8.433-3.167c-1.147-.521-2.157-1.015-2.634-1.358-1.46-1.083-4.64-3.428-4.995-3.469-.027 0-.082.028-.136.082-.423.37-1.406 2.016.887 4.361l.532.425.887.7 1.119.877-11.245-1.947c-.778-.178-1.556.301-1.72 1.083-.163.754.3 1.495 1.038 1.687l6.782 1.728-8.324-1.687c-.778-.137-1.529.384-1.665 1.18-.123.753.368 1.48 1.133 1.63l8.242 1.756-7.123-1.207c-.792-.11-1.515.453-1.61 1.248-.096.768.436 1.467 1.2 1.59l7.765 1.221-5.472-.672c-.805-.082-1.515.508-1.61 1.303-.096.809.49 1.536 1.296 1.618z"/>
        <path fill="#FFC200" d="M69.081 79.6l-4.23 18.374 37.146 6.102 2.32-20.829L69.081 79.6z"/>
        <path fill="#151E23" d="M70.746 98.18l3.166-17.388c.013-.096-.041-.206-.15-.22-.096-.013-.192.041-.219.151l-3.166 17.374c-.014.096.041.206.15.22.096.027.191-.042.219-.138zM73.011 81.271v-.068c-.013-.096-.109-.165-.218-.151l-3.425.603c-.096.014-.164.11-.15.22.013.096.109.164.218.15l3.425-.603c.082-.027.137-.082.15-.15zM72.465 83.85v-.068c-.013-.096-.109-.165-.218-.15l-3.425.602c-.096.014-.164.11-.15.22.013.096.109.164.218.15l3.425-.603c.069-.013.137-.082.15-.15zM71.906 86.441v-.068c-.014-.096-.11-.165-.219-.151l-3.425.603c-.095.014-.164.11-.15.22.014.096.11.164.218.15l3.426-.603c.082-.027.136-.082.15-.15zM71.36 89.02v-.07c-.014-.095-.11-.164-.218-.15l-3.426.603c-.095.014-.163.11-.15.22.014.096.11.164.218.15l3.426-.603c.082-.013.136-.082.15-.15zM70.8 91.598v-.069c-.013-.096-.109-.164-.218-.15l-3.425.603c-.096.013-.164.11-.15.219.013.096.109.165.218.15l3.425-.603c.082-.013.137-.068.15-.15zM70.254 94.19v-.07c-.013-.095-.109-.164-.218-.15l-3.425.603c-.096.014-.164.11-.15.22.013.096.109.164.218.15l3.425-.603c.082-.014.137-.082.15-.15zM69.709 96.767v-.069c-.014-.095-.11-.164-.219-.15l-3.425.603c-.096.014-.164.11-.15.22.013.095.109.164.218.15l3.425-.603c.069-.014.137-.069.15-.151z"/>
        <path fill="#FFDBCA" d="M75.933 28.384c0-.137 1.16-.823 1.269-.878.627-.301 1.337-.576 2.047-.548 1.815.055 1.965 2.948 1.556 4.25-.56 1.77-2.416 1.934-4.095 2.414-.027.014-.559.124-.559.137.014 0-.218-5.375-.218-5.375z"/>
        <path fill="#151E23" d="M77.68 32.635h.054c.395-.096 1.105-.48.955-1.276-.082-.411-.41-.576-.696-.726-.423-.22-.819-.425-.669-1.385.096-.576.341-.947.724-1.084.436-.15.941.028 1.01.096.068.055.163.055.218-.013.054-.069.054-.165-.014-.22-.164-.15-.791-.343-1.324-.164-.34.123-.791.452-.928 1.33-.19 1.18.382 1.467.833 1.7.3.151.477.26.532.508.137.699-.682.905-.723.918-.082.014-.137.11-.11.192.028.069.082.124.137.124z"/>
        <path stroke="#000" stroke-linecap="round" stroke-linejoin="round" stroke-width=".3" d="M0.15 -0.15L35.467 -0.15" transform="rotate(11.363 -456.217 375.09) skewX(.106)"/>
        <path fill="#141D22" d="M150.651 111.272H8.979v.502h141.672v-.502z"/>
    </g>
    <defs>
        <clipPath id="clip0">
            <path fill="#fff" d="M0 0H155V111.999H0z"/>
        </clipPath>
    </defs>
</svg>
