<svg width="206" height="167" viewBox="0 0 206 167" fill="none" xmlns="http://www.w3.org/2000/svg">
<ellipse opacity="0.32" rx="103" ry="30" transform="matrix(-1 0 0 1 103 137)" fill="#C4D7E7"/>
<path fill-rule="evenodd" clip-rule="evenodd" d="M60.0205 93.3759L80.0108 89.6992L127.223 90.8436L152.205 97.2717C152.205 97.2717 135.404 106.695 134.016 107.084C132.628 107.474 96.2027 110.347 95.6183 110.688C95.0096 111.029 75.141 104.138 74.3132 103.627C73.461 103.115 60.0205 93.3759 60.0205 93.3759Z" fill="#F3516D"/>
<path fill-rule="evenodd" clip-rule="evenodd" d="M129.244 84.2207H76.1152V94.3498H129.244V84.2207Z" fill="#F3516D"/>
<path d="M108.304 21.3034L94.498 21.1816L94.6441 34.2812L108.645 34.6221L108.304 21.3034Z" fill="#FFDBCA"/>
<path d="M105.747 26.9523C104.335 27.6097 98.6373 28.8515 94.498 29.7037V21.1816H95.0337L99.1973 24.5174L103.799 26.0514L105.747 26.9523Z" fill="#153059"/>
<path d="M112.078 18.1137C112.053 23.1052 108.401 27.3419 103.385 27.561C98.3692 27.7802 94.1326 23.9087 93.9134 18.9172C93.6943 13.9258 97.9309 6.57246 102.947 6.35332C106.185 6.20723 111.104 8.93428 111.104 8.93428C111.104 8.93428 112.102 15.898 112.078 18.1137Z" fill="#FFDBCA"/>
<path d="M100.732 38.1042C103.751 38.1286 106.307 36.132 107.111 33.3806L94.5957 29.9961L94.6687 33.7945C95.5697 36.2781 97.9315 38.0799 100.732 38.1042Z" fill="#FFDBCA"/>
<path d="M99.1243 16.8479C99.1486 17.3105 99.5382 17.6758 100.001 17.6514C100.463 17.6271 100.829 17.2375 100.804 16.7749C100.78 16.3122 100.39 15.947 99.9278 15.9714C99.4408 15.9957 99.0999 16.3853 99.1243 16.8479Z" fill="#153059"/>
<path d="M105.601 16.7014C105.625 17.1641 106.015 17.5293 106.477 17.5049C106.94 17.4806 107.305 17.091 107.281 16.6284C107.256 16.1658 106.867 15.8005 106.404 15.8249C105.942 15.8492 105.576 16.2632 105.601 16.7014Z" fill="#153059"/>
<path d="M104.018 20.4759C104.481 20.4515 104.968 20.3298 105.211 20.0132C105.357 19.8428 105.455 19.575 105.187 19.161C104.602 18.2845 104.554 15.6548 104.554 15.6305C104.554 15.5574 104.481 15.4844 104.408 15.4844C104.335 15.4844 104.262 15.5574 104.262 15.6305C104.262 15.7522 104.31 18.3575 104.919 19.3071C105.065 19.5263 105.065 19.6967 104.968 19.8428C104.7 20.1593 103.921 20.2811 103.458 20.135C103.385 20.1106 103.312 20.1593 103.288 20.2324C103.263 20.3054 103.312 20.3785 103.385 20.4028C103.555 20.4759 103.799 20.5002 104.018 20.4759Z" fill="#153059"/>
<path d="M103.921 20.6218C103.726 20.6218 103.532 20.5974 103.361 20.5487C103.288 20.5244 103.239 20.4757 103.191 20.427C103.166 20.3539 103.142 20.2809 103.166 20.2322C103.215 20.0861 103.361 20.013 103.507 20.0617C103.921 20.1835 104.652 20.0861 104.871 19.8182C104.919 19.7452 104.968 19.6478 104.822 19.4287C104.165 18.4304 104.14 15.8007 104.14 15.679C104.14 15.5329 104.262 15.4111 104.408 15.4111C104.554 15.4111 104.676 15.5329 104.7 15.679C104.7 15.7033 104.749 18.2843 105.309 19.1365C105.626 19.6235 105.455 19.9887 105.333 20.1348C105.09 20.427 104.627 20.6218 104.043 20.6461C103.994 20.6218 103.945 20.6218 103.921 20.6218ZM103.459 20.2809C103.605 20.3296 103.824 20.3539 104.019 20.3539C104.408 20.3296 104.895 20.2322 105.114 19.94C105.26 19.7452 105.26 19.5017 105.09 19.2339C104.481 18.3086 104.457 15.6546 104.457 15.6303H104.432C104.432 15.6546 104.457 18.3086 105.09 19.2339C105.26 19.5017 105.285 19.7452 105.114 19.9156C104.798 20.3052 103.945 20.427 103.459 20.2809Z" fill="#153059"/>
<path d="M103.727 23.7624C104.652 23.7624 105.553 23.3728 106.381 22.5937C106.429 22.545 106.429 22.4719 106.381 22.4232C106.332 22.3745 106.259 22.3745 106.21 22.4232C105.382 23.2024 104.506 23.5676 103.605 23.5433C102.217 23.4946 101.243 22.4476 101.219 22.4476C101.17 22.3989 101.097 22.3989 101.048 22.4476C101 22.4963 101 22.5693 101.048 22.618C101.097 22.6667 102.095 23.7381 103.605 23.8111C103.654 23.7381 103.702 23.7624 103.727 23.7624Z" fill="#153059"/>
<path d="M103.727 23.8844C103.678 23.8844 103.629 23.8844 103.605 23.8844C102.095 23.8357 101.073 22.7887 100.951 22.6669C100.902 22.6182 100.878 22.5452 100.878 22.4721C100.878 22.3991 100.902 22.3504 100.951 22.3017C101.048 22.2043 101.219 22.2043 101.316 22.3261C101.365 22.3747 102.29 23.3243 103.605 23.3974C104.457 23.4217 105.309 23.0809 106.113 22.3261C106.21 22.2287 106.381 22.2287 106.478 22.3504C106.527 22.3991 106.551 22.4721 106.551 22.5452C106.551 22.6182 106.527 22.6669 106.478 22.7156C105.626 23.4704 104.701 23.8844 103.727 23.8844ZM101.341 22.6669C101.56 22.8374 101.925 23.1296 102.412 23.3487C101.925 23.1296 101.535 22.8374 101.341 22.6669Z" fill="#153059"/>
<path d="M101.072 13.0977C101.072 13.0977 97.7362 13.1951 97.4197 13.3655C97.1032 13.5603 97.1519 14.656 97.5414 14.656C97.931 14.656 101.486 14.2664 101.486 14.2664C101.486 14.2664 101.656 13.2681 101.072 13.0977Z" fill="#153059"/>
<path d="M104.895 12.9273C104.895 12.9273 108.231 12.7325 108.572 12.9029C108.889 13.0734 108.962 14.1691 108.572 14.1934C108.182 14.2421 104.628 14.1204 104.628 14.1204C104.628 14.1204 104.311 13.1464 104.895 12.9273Z" fill="#153059"/>
<path d="M94.7418 16.1904C94.7905 15.5573 95.0096 14.9486 95.2287 14.3399C96.0079 12.1485 97.3714 10.3711 99.4654 9.37278C101.17 8.54492 102.826 8.27709 104.652 8.8371C106.453 9.39712 108.28 10.712 110.13 10.2737C115.584 9.00755 115.803 3.99172 115.195 1.55685C115.024 2.06817 110.982 2.96907 110.544 2.96907C108.767 2.94472 108.231 2.77428 106.502 2.31166C104.798 1.87338 103.166 0.899433 101.413 0.728993C99.1732 0.509855 96.8844 1.4351 95.0583 2.70124C93.0617 4.08911 91.893 6.32919 91.3573 8.66666C90.7242 11.4181 91.966 14.3399 93.3539 16.6774C93.4513 16.8235 93.5487 16.9939 93.6704 17.0913C93.9383 17.3104 94.3765 17.3104 94.6444 17.067C94.9122 16.8235 94.9609 16.4095 94.7905 16.093L94.7418 16.1904Z" fill="#153059"/>
<path d="M95.8369 2.28716C97.2248 0.412306 99.8058 -0.123365 102.119 0.0227274C104.432 0.168819 106.721 0.874931 109.034 0.923629C108.376 1.14277 107.695 1.36191 107.037 1.58104C108.644 2.16541 110.446 2.3115 112.126 1.94627C111.712 2.65239 110.933 3.11501 110.154 3.33415C109.35 3.55329 108.523 3.55329 107.695 3.55329C104.675 3.55329 101.632 3.52894 98.6127 3.52894L95.8369 2.28716Z" fill="#153059"/>
<path d="M95.837 2.28719C92.3552 1.72717 91.016 6.47516 90.456 8.98308C90.4316 8.88568 90.6021 8.86133 90.6508 8.95873C90.6995 9.03177 90.6751 9.15352 90.6264 9.22656C89.7986 11.564 90.6508 14.4128 92.623 15.9225C92.696 15.7277 92.696 15.5085 92.7204 15.3137C92.7934 12.0023 93.183 8.71524 93.8891 5.47687L95.837 2.28719Z" fill="#153059"/>
<path d="M95.8862 2.1166C95.2288 2.0192 94.5958 2.0679 93.987 2.33573C93.427 2.57922 92.9644 2.99315 92.5748 3.45577C92.1609 3.9671 91.82 4.52712 91.5278 5.13583C91.2356 5.74455 91.0165 6.37762 90.7974 7.01068C90.6269 7.5707 90.4808 8.15507 90.3347 8.73944C90.3104 8.81248 90.3104 8.86118 90.286 8.93423C90.3834 8.95858 90.5052 8.95858 90.6026 8.98292C90.6026 8.93423 90.5782 9.03162 90.5782 9.03162C90.5539 9.05597 90.5295 9.05597 90.5539 9.05597H90.5295C90.5539 9.05597 90.5052 9.03162 90.5052 9.03162C90.4808 9.03162 90.5052 9.00727 90.5052 9.05597C90.5052 9.08032 90.4808 9.12902 90.4808 9.17771C90.4321 9.29946 90.4078 9.4212 90.3591 9.54294C90.286 9.78643 90.2373 10.0543 90.213 10.2978C90.1399 10.8091 90.1399 11.3447 90.213 11.8804C90.3347 12.9274 90.7243 13.9257 91.333 14.7779C91.6739 15.2649 92.0878 15.7032 92.5748 16.0684C92.6722 16.1414 92.7696 16.0684 92.8183 15.971C92.94 15.6545 92.9157 15.2892 92.9157 14.9727C92.9157 14.6318 92.94 14.2909 92.9644 13.9501C92.9887 13.2683 93.0374 12.5865 93.1105 11.8804C93.2322 10.5169 93.4027 9.15337 93.6462 7.78984C93.7679 7.03503 93.9383 6.25587 94.1088 5.50106C94.1575 5.30627 93.8409 5.20888 93.7922 5.42802C93.5001 6.76719 93.2566 8.13072 93.0618 9.49425C92.867 10.8578 92.7453 12.2456 92.6722 13.6335C92.6479 14.0231 92.6479 14.4127 92.6235 14.7779C92.6235 14.9727 92.6235 15.1675 92.5992 15.3623C92.5992 15.5327 92.5748 15.7032 92.5261 15.8736C92.5992 15.8493 92.6722 15.8006 92.7696 15.7762C91.9174 15.1188 91.2843 14.2179 90.9191 13.2196C90.5539 12.2213 90.4321 11.1013 90.6269 10.0543C90.6513 9.90817 90.7 9.76208 90.7243 9.61599C90.773 9.4699 90.8217 9.32381 90.8704 9.17771C90.9191 9.00727 90.8948 8.78814 90.6756 8.73944C90.5295 8.69074 90.3347 8.78814 90.3347 8.98292C90.3591 9.15337 90.6026 9.20206 90.6513 9.03162C90.773 8.4716 90.9191 7.93593 91.0652 7.37591C91.2356 6.76719 91.4548 6.13413 91.7226 5.57411C91.9904 4.98974 92.2826 4.42972 92.6722 3.9184C93.0131 3.48012 93.4514 3.04185 93.9383 2.77401C94.4497 2.48183 95.0097 2.38443 95.6184 2.43313C95.6914 2.43313 95.7645 2.45748 95.8375 2.45748C95.9106 2.48183 96.008 2.43313 96.0323 2.33573C96.008 2.23834 95.9593 2.14094 95.8862 2.1166Z" fill="#153059"/>
<path d="M95.3016 15.4112C95.3016 15.2408 93.792 14.3642 93.6459 14.2912C92.8181 13.9016 91.8928 13.5364 90.9432 13.5607C88.5327 13.5851 88.2405 17.1156 88.7518 18.7226C89.4336 20.914 91.8685 21.1575 94.0842 21.8149C94.1329 21.8149 94.8147 21.9854 94.8147 22.0097C94.8147 22.0097 95.3016 15.4356 95.3016 15.4112Z" fill="#FFDBCA"/>
<path d="M108.645 15.7032C108.645 15.5328 110.154 14.7049 110.3 14.6319C111.128 14.2667 112.053 13.9258 112.979 13.9258C115.365 13.9501 115.681 17.3346 115.17 18.8686C114.488 20.9626 112.053 21.206 109.862 21.8148C109.813 21.8148 109.132 21.9852 109.132 21.9852C109.107 22.0095 108.645 15.7032 108.645 15.7032Z" fill="#FFDBCA"/>
<path fill-rule="evenodd" clip-rule="evenodd" d="M124.398 31.603H78.8905L75.9443 84.8536L129.682 84.7562L124.398 31.603Z" fill="#FFC200"/>
<path d="M81.5932 34.9876C76.8695 32.5527 71.1963 35.3528 70.0519 40.7095L62.796 75.1142C60.4585 86.1441 63.1369 87.8242 65.4013 89.5043C69.9301 92.9374 77.2347 89.1634 78.4522 85.2432L85.8542 44.7514C86.8281 40.8556 85.0507 36.7894 81.5932 34.9876Z" fill="#FFDBCA"/>
<path d="M82.2268 61.1134L65.5723 61.0404L66.1079 57.5342L82.2268 61.1134Z" fill="#153059"/>
<path d="M83.4196 61.4302L65.8398 57.3883L69.3217 39.8086C70.4174 34.2327 75.0923 30.6291 80.4247 31.7735C85.7571 32.9179 87.9971 38.2746 86.9015 43.8505L83.4196 61.4302Z" fill="#FFC200"/>
<path d="M121.379 35.377C126.565 32.796 132.993 35.4013 134.478 40.6607L143.999 74.4323C147.164 85.3892 142.879 87.4345 140.2 88.8954C136.402 90.965 128.221 87.6293 126.736 83.7822L116.972 45.1895C115.73 41.3424 117.58 37.2518 121.379 35.377Z" fill="#FFDBCA"/>
<path d="M120.259 61.6006L139.762 56.9744L135.282 39.5407C133.846 34.0136 128.538 30.5561 122.597 31.8952C116.655 33.2344 114.342 38.6642 115.779 44.167L120.259 61.6006Z" fill="#FFC200"/>
<path d="M122.183 61.0647L140.079 60.4316L139.129 57.1445L122.183 61.0647Z" fill="#153059"/>
<path d="M100.658 62.8181L92.4529 51.6177L91.2842 52.5429L64.3302 73.4828C61.7249 76.0881 62.6014 85.7302 66.8137 87.8242C71.2452 90.0156 74.5566 89.7477 77.0889 87.3615C86.2196 78.7665 101.145 62.3067 100.658 62.8181Z" fill="#FFDBCA"/>
<path d="M99.9281 63.6214C99.9281 63.6214 102.582 57.8751 103.653 56.2194C104.579 54.8559 107.135 51.5445 105.772 50.1079C105.212 49.5235 104.627 48.8418 104.238 50.2783C104.238 50.2783 105.139 47.7704 103.799 46.553C102.46 45.3355 101.024 48.3548 101.024 48.3548C101.024 48.3548 102.363 45.2381 100.878 44.0938C99.855 43.2903 98.248 44.0938 97.761 45.6277C97.761 45.6277 97.0549 40.3684 95.3992 43.1198C93.2078 46.7965 88.0459 57.8751 88.0459 57.8751L99.9281 63.6214Z" fill="#FFDBCA"/>
<path d="M111.031 64.7173L101.291 65.7643C99.7816 65.9348 98.3938 64.7174 98.2233 63.086L95.9589 41.6835C95.7884 40.0278 96.8841 38.5669 98.3938 38.3964L108.133 37.3494C109.643 37.179 111.031 38.3964 111.201 40.0278L113.466 61.4303C113.636 63.086 112.54 64.5469 111.031 64.7173Z" fill="#153059"/>
<path d="M100.171 41.4155L98.1988 41.6346C97.7605 41.6833 97.371 41.3424 97.3223 40.8555L97.2979 40.6607C97.2492 40.1737 97.5657 39.7598 98.004 39.7111L99.9763 39.4919C100.415 39.4432 100.804 39.7841 100.853 40.2711L100.877 40.4659C100.926 40.9285 100.609 41.3668 100.171 41.4155Z" fill="#F8FDFF"/>
<path d="M98.8568 40.5632C98.9055 40.9528 98.6377 41.2937 98.2968 41.318C97.9559 41.3667 97.615 41.0745 97.5907 40.6849C97.542 40.2954 97.8098 39.9545 98.1507 39.9301C98.4916 39.9058 98.8081 40.198 98.8568 40.5632Z" fill="#153059"/>
<path d="M100.512 40.3929C100.561 40.7825 100.293 41.1234 99.9521 41.1477C99.5868 41.1964 99.2703 40.9042 99.246 40.5146C99.1973 40.1251 99.4651 39.7842 99.806 39.7598C100.147 39.7355 100.463 40.0033 100.512 40.3929Z" fill="#153059"/>
<path d="M107.89 65.7643L111.299 64.0599L117.679 57.437L137.06 72.9958C138.302 74.262 144.657 78.7178 143.999 81.4935C143.464 83.7092 145.266 85.8763 140.761 88.5546C138.326 90.0156 134.65 91.793 129.682 87.9703C121.404 81.5909 108.353 66.1538 107.89 65.7643ZM107.89 65.7643C107.866 65.7643 107.866 65.7643 107.89 65.7643V65.7643Z" fill="#FFDBCA"/>
<path d="M138.034 73.726C137.985 73.726 137.936 73.7016 137.888 73.6773L118.433 58.435C118.336 58.3619 118.311 58.1915 118.384 58.0941C118.457 57.9967 118.628 57.9724 118.725 58.0454L138.18 73.2633C138.277 73.3364 138.301 73.5068 138.228 73.6042C138.18 73.6773 138.107 73.726 138.034 73.726Z" fill="#153059"/>
<path d="M112.322 69.6355C109.96 68.2476 108.328 65.8858 105.382 64.3518C104.993 64.157 103.873 63.6213 103.459 63.4996C101.486 62.9883 99.5629 61.4787 98.5403 60.4804C97.9559 59.9203 96.0811 58.0211 96.9576 56.7794C98.2481 54.9289 101.949 59.6282 103.97 60.383C101.462 59.4577 100.342 58.4838 98.3211 56.9498C98.029 56.7307 97.7124 56.4872 97.3715 56.2437C96.7872 55.8298 95.0341 53.0297 96.5193 51.9583C97.8829 50.9844 98.3455 52.6644 100.05 53.9306C100.391 54.1741 102.85 55.7324 103.191 56.1463C103.264 56.2193 99.636 54.2471 98.7838 53.5166C97.3715 52.2992 95.3506 49.353 97.0307 48.1112C98.3211 47.1616 99.1003 49.4748 99.6116 50.1078C101.219 52.0801 100.878 52.1044 102.704 53.0784C103.167 53.3219 106.502 54.9289 105.358 53.9549C104.822 53.4923 102.314 52.1775 101.024 50.6678C99.5386 48.9147 98.3698 46.212 99.3681 45.4572C100.707 44.4102 102.485 47.8434 103.775 48.793C105.65 50.2052 108.158 51.6905 110.422 52.2992C117.216 54.1741 116.875 60.7482 120.308 61.3082L112.322 69.6355Z" fill="#FFDBCA"/>
<path fill-rule="evenodd" clip-rule="evenodd" d="M113.368 55.0506C112.37 54.5636 111.591 54.1497 111.591 54.1497C111.591 54.1497 111.518 53.8818 111.42 53.4436C111.055 51.9339 110.227 48.4521 110.398 47.0886C110.544 45.9929 111.469 45.652 112.127 45.5546C112.516 45.5059 112.881 45.725 113.003 46.0903C113.368 47.0399 114.099 49.0121 114.635 50.473C114.781 50.8626 115.974 53.1514 116.728 54.6123C118.165 56.8767 119.115 59.2629 119.115 59.2629L117.508 60.2368C117.508 60.2368 113.344 58.7029 113.344 58.4107C113.393 58.2889 113.295 56.6576 113.368 55.0506Z" fill="#FFDBCA"/>
<path d="M68.4453 72.3867C68.3723 72.3867 68.3236 72.3624 68.2749 72.3137C68.1775 72.2163 68.2018 72.0702 68.2992 71.9728L82.738 59.0193C82.8354 58.9219 82.9815 58.9463 83.0789 59.0437C83.1763 59.1411 83.1519 59.2872 83.0545 59.3845L68.6158 72.3381C68.5671 72.3624 68.494 72.3867 68.4453 72.3867ZM107.038 65.6665C107.014 65.6665 106.965 65.6665 106.941 65.6422C106.624 65.4961 99.3438 62.1116 97.2011 59.3115C96.5437 58.4593 96.2759 57.7775 96.3733 57.2175C96.4463 56.8523 96.6898 56.5358 97.0794 56.2679C96.6898 55.7566 96.2759 55.0261 95.8376 54.0522C95.5698 53.4191 95.5454 52.8835 95.7889 52.4208C96.0811 51.8121 96.7385 51.593 96.982 51.5199C96.9333 51.4225 96.8846 51.3008 96.8359 51.2034C96.3246 49.9373 96.2515 48.9877 96.5924 48.3546C96.9089 47.7946 97.4203 47.7215 97.4446 47.7215C97.5664 47.6972 97.7124 47.7946 97.7124 47.9163C97.7368 48.0381 97.6394 48.1842 97.5177 48.1842C97.4933 48.1842 97.2011 48.2572 97.0063 48.5981C96.8115 48.939 96.7142 49.6451 97.2742 51.033C97.9559 52.6887 99.0516 54.1739 100.464 55.294L103.337 57.6071L103.045 57.9967L100.172 55.6835C98.9299 54.6853 97.9072 53.4191 97.1768 51.9825H97.1524C97.1524 51.9825 96.4707 52.153 96.2028 52.6643C96.0324 52.9808 96.0567 53.3948 96.2759 53.8817C97.3472 56.341 98.4673 57.0714 98.4916 57.0714L102.533 59.628C102.655 59.7011 102.68 59.8472 102.607 59.9689C102.533 60.0907 102.387 60.115 102.266 60.042L98.2238 57.4854C98.1994 57.461 97.8585 57.2419 97.3716 56.6575C97.3716 56.6575 97.3472 56.6818 97.3229 56.6818C97.0307 56.8523 96.8846 57.0714 96.8359 57.2906C96.7629 57.7045 97.0063 58.2645 97.5664 58.995C99.636 61.6977 107.062 65.1308 107.135 65.1795C107.257 65.2282 107.306 65.3743 107.257 65.4961C107.208 65.6178 107.135 65.6665 107.038 65.6665Z" fill="#153059"/>
<path d="M95.1316 113.731L72.1465 118.698L74.557 136.594L97.737 134.16L95.1316 113.731Z" fill="#FFDBCA"/>
<path d="M68.859 153.444C69.4921 152.348 69.9547 151.131 70.2712 149.865C70.9043 147.137 71.8052 142.998 72.2435 141.489C72.5357 140.466 74.2157 139.516 74.9705 138.932L77.6002 137.301L77.6245 137.276C78.6959 135.45 78.5254 132.918 77.235 131.287L75.5062 129.558C74.3862 128.438 74.1914 126.465 75.0923 125.102C76.1149 123.568 76.4071 119.55 76.1636 117.603H76.0419L60.3613 118.942C60.3613 118.942 61.3596 155.173 62.5527 155.684C63.3562 156.025 64.4763 155.708 65.2798 155.513C66.5215 155.173 67.9825 154.71 68.859 153.444Z" fill="#153059"/>
<path d="M61.3597 156.341C61.5058 156.341 61.6762 156.317 61.8467 156.293C62.8206 156.195 63.8189 156.122 64.7929 156.025L64.7685 155.611L62.6745 118.723C62.6745 118.723 62.6258 117.992 62.6258 117.943C62.6258 118.016 61.0675 118.089 60.9701 118.089C60.5318 118.138 60.0936 118.162 59.6309 118.211C58.4622 118.309 57.3909 118.43 56.9039 119.623C56.5143 120.549 56.5143 121.888 57.3422 122.594C57.7318 122.935 58.2918 123.251 58.3405 123.787C58.3892 124.323 58.097 124.615 57.7318 124.98C57.3422 125.37 56.8795 125.832 56.9282 126.66C56.9769 127.488 57.5126 127.853 57.9509 128.17C58.3648 128.462 58.6813 128.705 58.73 129.241C58.7787 129.777 58.4866 130.069 58.1213 130.434C57.7317 130.824 57.2691 131.286 57.3178 132.114C57.3665 132.942 57.9022 133.307 58.3405 133.624C58.7544 133.916 59.0709 134.16 59.1196 134.695C59.1683 135.231 58.8761 135.523 58.5109 135.888C58.1213 136.278 57.6587 136.741 57.7074 137.568C57.7561 138.396 58.2918 138.761 58.73 139.078C59.144 139.37 59.4605 139.614 59.5092 140.149C59.5579 140.685 59.2657 140.977 58.9005 141.342C58.5109 141.732 58.0483 142.195 58.097 143.023C58.1457 143.85 58.6813 144.216 59.1196 144.532C59.5336 144.824 59.8501 145.068 59.8988 145.603C59.9475 146.139 59.6553 146.431 59.2901 146.797C58.9005 147.186 58.4379 147.649 58.4866 148.477C58.5596 149.304 59.0709 149.67 59.5092 149.986C59.9231 150.278 60.2397 150.522 60.2884 151.058C60.3371 151.593 60.0449 151.885 59.6796 152.251C59.0709 152.859 58.8031 153.541 58.9248 154.393C59.144 155.44 60.1179 156.414 61.3597 156.341Z" fill="white"/>
<path d="M63.3565 156.171L60.8242 118.211C60.8242 118.09 60.9216 117.968 61.0434 117.968C61.1651 117.968 61.2868 118.065 61.2868 118.187L63.8191 156.147C63.8191 156.268 63.7217 156.39 63.6 156.39C63.4782 156.39 63.3808 156.293 63.3565 156.171Z" fill="#153059"/>
<path d="M82.2992 140.49C82.2749 140.904 82.1531 141.148 81.9097 141.27C80.7166 141.83 77.186 139.589 75.4329 138.323C76.8451 138.177 80.3513 137.982 81.7392 139.2C82.0801 139.492 82.2505 139.857 82.2992 140.271C82.2992 140.344 82.2992 140.417 82.2992 140.49ZM74.6537 138.348C75.2138 138.786 80.2783 142.56 82.1044 141.683C82.5184 141.489 82.7619 141.075 82.7862 140.49C82.8105 139.833 82.5671 139.273 82.0801 138.835C80.1809 137.179 74.9946 137.885 74.7755 137.909C74.6781 137.934 74.605 137.982 74.5807 138.08C74.5807 138.104 74.5807 138.129 74.5807 138.153C74.5563 138.25 74.605 138.323 74.6537 138.348Z" fill="#153059"/>
<path d="M79.5725 132.626C78.9881 134.379 75.8471 135.986 74.581 136.595C75.4575 134.622 77.3567 130.897 78.6716 130.751C78.9394 130.727 79.1829 130.873 79.402 131.238C79.5481 131.482 79.6455 131.725 79.6699 131.993C79.6699 132.188 79.6455 132.407 79.5725 132.626ZM73.9236 137.228C73.9966 137.301 74.094 137.301 74.1914 137.276C74.3862 137.203 79.2072 135.183 80.0107 132.772C80.2299 132.139 80.1568 131.555 79.7916 130.995C79.4751 130.483 79.0855 130.264 78.5985 130.313C76.5776 130.508 74.1184 136.327 73.8505 136.984C73.8262 137.009 73.8262 137.057 73.8262 137.082C73.8749 137.13 73.8992 137.179 73.9236 137.228Z" fill="#153059"/>
<path fill-rule="evenodd" clip-rule="evenodd" d="M142.538 95.8836C147.773 94.8853 153.179 96.3462 157.196 99.8037C161.238 103.261 163.454 108.374 163.21 113.682C162.991 118.966 159.071 123.398 153.836 124.299L84.3694 136.254L77.5518 108.204C77.5761 108.204 116.875 100.753 142.538 95.8836Z" fill="#F3516D"/>
<path d="M84.3687 136.497C84.2469 136.497 84.1495 136.424 84.1252 136.302L78.8415 109.981C78.8172 109.86 78.8902 109.713 79.0363 109.689L144.9 95.1286C145.021 95.1043 145.167 95.1773 145.192 95.3234C145.216 95.4452 145.143 95.5913 144.997 95.6156L79.3772 110.127L84.5635 135.986L123.448 129.363C123.57 129.339 123.716 129.436 123.741 129.558C123.765 129.679 123.667 129.826 123.546 129.85L84.4417 136.521C84.393 136.497 84.393 136.497 84.3687 136.497Z" fill="#153059"/>
<path d="M108.644 110.419L131.63 115.411L129.219 133.307L106.039 130.848L108.644 110.419Z" fill="#FFDBCA"/>
<path d="M134.917 150.133C134.284 149.037 133.821 147.82 133.505 146.529C132.872 143.802 131.971 139.663 131.533 138.153C131.24 137.131 129.56 136.157 128.806 135.597L126.176 133.965L126.152 133.941C125.08 132.115 125.251 129.582 126.541 127.951L128.27 126.222C129.39 125.102 129.585 123.13 128.684 121.766C127.661 120.233 127.369 116.215 127.612 114.267H127.734L143.415 115.606C143.415 115.606 142.416 151.837 141.223 152.348C140.42 152.689 139.3 152.373 138.496 152.178C137.255 151.861 135.818 151.423 134.917 150.133Z" fill="#153059"/>
<path d="M142.417 153.03C142.27 153.03 142.1 153.006 141.93 152.982C140.956 152.884 139.957 152.811 138.983 152.714L139.008 152.3L141.102 115.411C141.102 115.411 141.15 114.681 141.15 114.632C141.15 114.705 142.709 114.778 142.806 114.778C143.244 114.827 143.683 114.851 144.145 114.9C145.314 114.998 146.385 115.119 146.872 116.312C147.262 117.238 147.262 118.577 146.434 119.283C146.045 119.624 145.484 119.94 145.436 120.476C145.387 121.012 145.679 121.304 146.045 121.669C146.434 122.059 146.897 122.521 146.848 123.349C146.775 124.177 146.264 124.542 145.825 124.859C145.411 125.151 145.095 125.394 145.046 125.93C144.998 126.466 145.29 126.758 145.655 127.123C146.045 127.513 146.507 127.975 146.458 128.803C146.41 129.631 145.874 129.996 145.436 130.313C145.022 130.605 144.705 130.849 144.657 131.384C144.608 131.92 144.9 132.212 145.265 132.577C145.655 132.967 146.118 133.43 146.069 134.257C146.02 135.085 145.484 135.45 145.046 135.767C144.632 136.059 144.316 136.303 144.267 136.838C144.218 137.374 144.511 137.666 144.876 138.031C145.265 138.421 145.728 138.884 145.679 139.711C145.631 140.539 145.095 140.905 144.657 141.221C144.243 141.513 143.926 141.757 143.877 142.292C143.829 142.828 144.121 143.12 144.486 143.486C144.876 143.875 145.338 144.338 145.29 145.166C145.241 145.993 144.705 146.359 144.267 146.675C143.853 146.967 143.537 147.211 143.488 147.747C143.439 148.282 143.731 148.574 144.097 148.94C144.705 149.548 144.973 150.23 144.851 151.058C144.657 152.154 143.683 153.103 142.417 153.03Z" fill="white"/>
<path d="M140.42 152.859L142.952 114.9C142.952 114.778 142.855 114.656 142.733 114.656C142.611 114.656 142.489 114.754 142.489 114.875L139.957 152.835C139.957 152.957 140.054 153.078 140.176 153.078C140.298 153.078 140.42 152.981 140.42 152.859Z" fill="#153059"/>
<path d="M121.5 137.179C121.525 137.593 121.646 137.836 121.89 137.958C123.083 138.518 126.614 136.278 128.367 135.012C126.954 134.866 123.448 134.671 122.06 135.888C121.719 136.181 121.549 136.546 121.5 136.96C121.5 137.057 121.5 137.13 121.5 137.179ZM129.146 135.061C128.586 135.499 123.521 139.273 121.695 138.396C121.281 138.202 121.038 137.788 121.013 137.203C120.989 136.546 121.233 135.986 121.719 135.548C123.619 133.892 128.805 134.598 129.024 134.622C129.121 134.647 129.195 134.695 129.219 134.793C129.219 134.817 129.219 134.841 129.219 134.866C129.219 134.939 129.195 135.012 129.146 135.061Z" fill="#153059"/>
<path d="M124.227 129.338C124.812 131.091 127.953 132.698 129.219 133.307C128.342 131.335 126.443 127.609 125.128 127.488C124.861 127.463 124.617 127.609 124.398 127.975C124.252 128.218 124.154 128.462 124.13 128.73C124.13 128.9 124.154 129.095 124.227 129.338ZM129.852 133.916C129.779 133.989 129.682 133.989 129.584 133.964C129.389 133.891 124.568 131.871 123.765 129.46C123.546 128.827 123.619 128.243 123.984 127.683C124.301 127.171 124.69 126.952 125.177 127.001C127.198 127.196 129.657 133.015 129.925 133.672C129.949 133.697 129.949 133.745 129.949 133.77C129.925 133.843 129.901 133.891 129.852 133.916Z" fill="#153059"/>
<path fill-rule="evenodd" clip-rule="evenodd" d="M61.5544 91.0136C57.7317 89.918 53.6167 90.4536 50.2079 92.4502C46.7748 94.4468 44.3155 97.7826 43.4146 101.63C41.4911 109.86 46.4339 118.138 54.6394 120.378C76.9671 126.441 116.899 137.3 116.899 137.3L126.127 110.03L86.9257 98.2696C86.9257 98.2452 72.9983 94.2764 61.5544 91.0136Z" fill="#F3516D"/>
<path d="M116.899 137.52C116.874 137.52 116.85 137.52 116.826 137.52L56.514 121.133C56.3922 121.109 56.3192 120.962 56.3435 120.841C56.3679 120.719 56.514 120.646 56.6357 120.67L116.728 137.008L125.908 110.371L63.8673 92.231C63.7455 92.1823 63.6725 92.0605 63.6968 91.9388C63.7455 91.817 63.8673 91.744 63.989 91.7683L126.297 109.957C126.37 109.981 126.419 110.03 126.443 110.079C126.468 110.127 126.468 110.2 126.468 110.273L117.118 137.349C117.093 137.471 116.996 137.52 116.899 137.52Z" fill="#153059"/>
</svg>
